<svg width="864" height="735" viewBox="0 0 864 735" fill="none" xmlns="http://www.w3.org/2000/svg">
<g opacity="0.6">
<path d="M212.019 206.916L237.942 195.317L262.971 206.916L289.34 195.317L310.793 206.916L338.057 195.317L360.851 206.916L383.645 195.317L404.205 206.916L428.786 194.389" stroke="#C1C7D0" stroke-width="0.581731"/>
<path d="M403.757 206.916L428.786 194.389L454.708 206.916L481.078 195.317L502.531 206.916L529.795 195.317L552.589 206.916L575.383 195.317L595.942 206.916L619.63 195.317" stroke="#C1C7D0" stroke-width="0.581731"/>
<path d="M212.019 244.398L237.942 232.799L262.971 244.398L289.34 232.799L310.793 244.398L338.057 232.799L360.851 244.398L383.645 232.799L404.205 244.398L428.786 231.871" stroke="#C1C7D0" stroke-width="0.581731"/>
<path d="M403.757 244.398L428.786 231.871L454.708 244.398L481.078 232.799L502.531 244.398L529.795 232.799L552.589 244.398L575.383 232.799L595.942 244.398L619.63 232.799" stroke="#C1C7D0" stroke-width="0.581731"/>
<path d="M212.019 199.42L237.942 187.821L262.971 199.42L289.34 187.821L310.793 199.42L338.057 187.821L360.851 199.42L383.645 187.821L404.205 199.42L428.786 186.894" stroke="#C1C7D0" stroke-width="0.581731"/>
<path d="M403.757 199.42L428.786 186.894L454.708 199.42L481.078 187.821L502.531 199.42L529.795 187.821L552.589 199.42L575.383 187.821L595.942 199.42L619.63 187.821" stroke="#C1C7D0" stroke-width="0.581731"/>
<path d="M212.019 236.902L237.942 225.303L262.971 236.902L289.34 225.303L310.793 236.902L338.057 225.303L360.851 236.902L383.645 225.303L404.205 236.902L428.786 224.375" stroke="#C1C7D0" stroke-width="0.581731"/>
<path d="M403.757 236.902L428.786 224.375L454.708 236.902L481.078 225.303L502.531 236.902L529.795 225.303L552.589 236.902L575.383 225.303L595.942 236.902L619.63 225.303" stroke="#C1C7D0" stroke-width="0.581731"/>
<path d="M212.019 191.924L237.942 180.325L262.971 191.924L289.34 180.325L310.793 191.924L338.057 180.325L360.851 191.924L383.645 180.325L404.205 191.924L428.786 179.397" stroke="#C1C7D0" stroke-width="0.581731"/>
<path d="M403.757 191.924L428.786 179.397L454.708 191.924L481.078 180.325L502.531 191.924L529.795 180.325L552.589 191.924L575.383 180.325L595.942 191.924L619.63 180.325" stroke="#C1C7D0" stroke-width="0.581731"/>
<path d="M212.019 229.405L237.942 217.807L262.971 229.405L289.34 217.807L310.793 229.405L338.057 217.807L360.851 229.405L383.645 217.807L404.205 229.405L428.786 216.879" stroke="#C1C7D0" stroke-width="0.581731"/>
<path d="M403.757 229.405L428.786 216.879L454.708 229.405L481.078 217.807L502.531 229.405L529.795 217.807L552.589 229.405L575.383 217.807L595.942 229.405L619.63 217.807" stroke="#C1C7D0" stroke-width="0.581731"/>
<path d="M212.019 184.427L237.942 172.829L262.971 184.427L289.34 172.829L310.793 184.427L338.057 172.829L360.851 184.427L383.645 172.829L404.205 184.427L428.786 171.901" stroke="#C1C7D0" stroke-width="0.581731"/>
<path d="M403.757 184.427L428.786 171.901L454.708 184.427L481.078 172.829L502.531 184.427L529.795 172.829L552.589 184.427L575.383 172.829L595.942 184.427L619.63 172.829" stroke="#C1C7D0" stroke-width="0.581731"/>
<path d="M212.019 221.909L237.942 210.311L262.971 221.909L289.34 210.311L310.793 221.909L338.057 210.311L360.851 221.909L383.645 210.311L404.205 221.909L428.786 209.383" stroke="#C1C7D0" stroke-width="0.581731"/>
<path d="M403.757 221.909L428.786 209.383L454.708 221.909L481.078 210.311L502.531 221.909L529.795 210.311L552.589 221.909L575.383 210.311L595.942 221.909L619.63 210.311" stroke="#C1C7D0" stroke-width="0.581731"/>
<path d="M212.019 176.931L237.942 165.332L262.971 176.931L289.34 165.332L310.793 176.931L338.057 165.332L360.851 176.931L383.645 165.332L404.205 176.931L428.786 164.404" stroke="#C1C7D0" stroke-width="0.581731"/>
<path d="M403.757 176.931L428.786 164.404L454.708 176.931L481.078 165.332L502.531 176.931L529.795 165.332L552.589 176.931L575.383 165.332L595.942 176.931L619.63 165.332" stroke="#C1C7D0" stroke-width="0.581731"/>
<path d="M212.019 214.413L237.942 202.814L262.971 214.413L289.34 202.814L310.793 214.413L338.057 202.814L360.851 214.413L383.645 202.814L404.205 214.413L428.786 201.886" stroke="#C1C7D0" stroke-width="0.581731"/>
<path d="M403.756 214.413L428.785 201.886L454.708 214.413L481.077 202.814L502.531 214.413L529.794 202.814L552.588 214.413L575.382 202.814L595.942 214.413L619.63 202.814" stroke="#C1C7D0" stroke-width="0.581731"/>
<path d="M212.019 169.435L237.942 157.836L262.971 169.435L289.34 157.836L310.793 169.435L338.057 157.836L360.851 169.435L383.645 157.836L404.205 169.435L428.786 156.908" stroke="#C1C7D0" stroke-width="0.581731"/>
<path d="M403.757 169.435L428.786 156.908L454.708 169.435L481.078 157.836L502.531 169.435L529.795 157.836L552.589 169.435L575.383 157.836L595.942 169.435L619.63 157.836" stroke="#C1C7D0" stroke-width="0.581731"/>
<path d="M212.019 161.938L237.942 150.34L262.971 161.938L289.34 150.34L310.793 161.938L338.057 150.34L360.851 161.938L383.645 150.34L404.205 161.938L428.786 149.412" stroke="#C1C7D0" stroke-width="0.581731"/>
<path d="M403.757 161.938L428.786 149.412L454.708 161.938L481.078 150.34L502.531 161.938L529.795 150.34L552.589 161.938L575.383 150.34L595.942 161.938L619.63 150.34" stroke="#C1C7D0" stroke-width="0.581731"/>
<path d="M212.019 154.442L237.942 142.843L262.971 154.442L289.34 142.843L310.793 154.442L338.057 142.843L360.851 154.442L383.645 142.843L404.205 154.442L428.786 141.915" stroke="#C1C7D0" stroke-width="0.581731"/>
<path d="M403.757 154.442L428.786 141.915L454.708 154.442L481.078 142.843L502.531 154.442L529.795 142.843L552.589 154.442L575.383 142.843L595.942 154.442L619.63 142.843" stroke="#C1C7D0" stroke-width="0.581731"/>
<path d="M212.019 146.945L237.942 135.347L262.971 146.945L289.34 135.347L310.793 146.945L338.057 135.347L360.851 146.945L383.645 135.347L404.205 146.945L428.786 134.419" stroke="#C1C7D0" stroke-width="0.581731"/>
<path d="M403.757 146.945L428.786 134.419L454.708 146.945L481.078 135.347L502.531 146.945L529.795 135.347L552.589 146.945L575.383 135.347L595.942 146.945L619.63 135.347" stroke="#C1C7D0" stroke-width="0.581731"/>
<path d="M212.019 139.449L237.942 127.851L262.971 139.449L289.34 127.851L310.793 139.449L338.057 127.851L360.851 139.449L383.645 127.851L404.205 139.449L428.786 126.923" stroke="#C1C7D0" stroke-width="0.581731"/>
<path d="M403.757 139.449L428.786 126.923L454.708 139.449L481.078 127.851L502.531 139.449L529.795 127.851L552.589 139.449L575.383 127.851L595.942 139.449L619.63 127.851" stroke="#C1C7D0" stroke-width="0.581731"/>
<path d="M212.019 131.953L237.942 120.354L262.971 131.953L289.34 120.354L310.793 131.953L338.057 120.354L360.851 131.953L383.645 120.354L404.205 131.953L428.786 119.426" stroke="#C1C7D0" stroke-width="0.581731"/>
<path d="M403.757 131.953L428.786 119.426L454.708 131.953L481.078 120.354L502.531 131.953L529.795 120.354L552.589 131.953L575.383 120.354L595.942 131.953L619.63 120.354" stroke="#C1C7D0" stroke-width="0.581731"/>
<path d="M212.019 124.457L237.942 112.858L262.971 124.457L289.34 112.858L310.793 124.457L338.057 112.858L360.851 124.457L383.645 112.858L404.205 124.457L428.786 111.93" stroke="#C1C7D0" stroke-width="0.581731"/>
<path d="M403.757 124.457L428.786 111.93L454.708 124.457L481.078 112.858L502.531 124.457L529.795 112.858L552.589 124.457L575.383 112.858L595.942 124.457L619.63 112.858" stroke="#C1C7D0" stroke-width="0.581731"/>
<path d="M212.019 116.961L237.942 105.362L262.971 116.961L289.34 105.362L310.793 116.961L338.057 105.362L360.851 116.961L383.645 105.362L404.205 116.961L428.786 104.434" stroke="#C1C7D0" stroke-width="0.581731"/>
<path d="M403.757 116.961L428.786 104.434L454.708 116.961L481.078 105.362L502.531 116.961L529.795 105.362L552.589 116.961L575.383 105.362L595.942 116.961L619.63 105.362" stroke="#C1C7D0" stroke-width="0.581731"/>
<path d="M212.019 109.464L237.942 97.8649L262.971 109.464L289.34 97.8649L310.793 109.464L338.057 97.8649L360.851 109.464L383.645 97.8649L404.205 109.464L428.786 96.937" stroke="#C1C7D0" stroke-width="0.581731"/>
<path d="M403.757 109.464L428.786 96.937L454.708 109.464L481.078 97.8649L502.531 109.464L529.795 97.8649L552.589 109.464L575.383 97.8649L595.942 109.464L619.63 97.8649" stroke="#C1C7D0" stroke-width="0.581731"/>
<path d="M212.019 101.967L237.942 90.3688L262.971 101.967L289.34 90.3688L310.793 101.967L338.057 90.3688L360.851 101.967L383.645 90.3688L404.205 101.967L428.786 89.4409" stroke="#C1C7D0" stroke-width="0.581731"/>
<path d="M403.757 101.967L428.786 89.4409L454.708 101.967L481.078 90.3688L502.531 101.967L529.795 90.3688L552.589 101.967L575.383 90.3688L595.942 101.967L619.63 90.3688" stroke="#C1C7D0" stroke-width="0.581731"/>
<path d="M212.019 94.4709L237.942 82.8722L262.971 94.4709L289.34 82.8722L310.793 94.4709L338.057 82.8722L360.851 94.4709L383.645 82.8722L404.205 94.4709L428.786 81.9443" stroke="#C1C7D0" stroke-width="0.581731"/>
<path d="M403.757 94.4709L428.786 81.9443L454.708 94.4709L481.078 82.8722L502.531 94.4709L529.795 82.8722L552.589 94.4709L575.383 82.8722L595.942 94.4709L619.63 82.8722" stroke="#C1C7D0" stroke-width="0.581731"/>
<path d="M212.019 86.9748L237.942 75.3761L262.971 86.9748L289.34 75.3761L310.793 86.9748L338.057 75.3761L360.851 86.9748L383.645 75.3761L404.205 86.9748L428.786 74.4482" stroke="#C1C7D0" stroke-width="0.581731"/>
<path d="M403.757 86.9748L428.786 74.4482L454.708 86.9748L481.078 75.3761L502.531 86.9748L529.795 75.3761L552.589 86.9748L575.383 75.3761L595.942 86.9748L619.63 75.3761" stroke="#C1C7D0" stroke-width="0.581731"/>
<path d="M212.019 79.4782L237.942 67.8796L262.971 79.4782L289.34 67.8796L310.793 79.4782L338.057 67.8796L360.851 79.4782L383.645 67.8796L404.205 79.4782L428.786 66.9517" stroke="#C1C7D0" stroke-width="0.581731"/>
<path d="M403.757 79.4782L428.786 66.9517L454.708 79.4782L481.078 67.8796L502.531 79.4782L529.795 67.8796L552.589 79.4782L575.383 67.8796L595.942 79.4782L619.63 67.8796" stroke="#C1C7D0" stroke-width="0.581731"/>
<path d="M212.019 71.9821L237.942 60.3835L262.971 71.9821L289.34 60.3835L310.793 71.9821L338.057 60.3835L360.851 71.9821L383.645 60.3835L404.205 71.9821L428.786 59.4556" stroke="#C1C7D0" stroke-width="0.581731"/>
<path d="M403.757 71.9821L428.786 59.4556L454.708 71.9821L481.078 60.3835L502.531 71.9821L529.795 60.3835L552.589 71.9821L575.383 60.3835L595.942 71.9821L619.63 60.3835" stroke="#C1C7D0" stroke-width="0.581731"/>
<path d="M212.019 64.4855L237.942 52.8869L262.971 64.4855L289.34 52.8869L310.793 64.4855L338.057 52.8869L360.851 64.4855L383.645 52.8869L404.205 64.4855L428.786 51.959" stroke="#C1C7D0" stroke-width="0.581731"/>
<path d="M403.757 64.4855L428.786 51.959L454.708 64.4855L481.078 52.8869L502.531 64.4855L529.795 52.8869L552.589 64.4855L575.383 52.8869L595.942 64.4855L619.63 52.8869" stroke="#C1C7D0" stroke-width="0.581731"/>
<path d="M212.019 56.9894L237.942 45.3908L262.971 56.9894L289.34 45.3908L310.793 56.9894L338.057 45.3908L360.851 56.9894L383.645 45.3908L404.205 56.9894L428.786 44.4629" stroke="#C1C7D0" stroke-width="0.581731"/>
<path d="M403.757 56.9894L428.786 44.4629L454.708 56.9894L481.078 45.3908L502.531 56.9894L529.795 45.3908L552.589 56.9894L575.383 45.3908L595.942 56.9894L619.63 45.3908" stroke="#C1C7D0" stroke-width="0.581731"/>
<path d="M212.019 49.4924L237.942 37.8937L262.971 49.4924L289.34 37.8937L310.793 49.4924L338.057 37.8937L360.851 49.4924L383.645 37.8937L404.205 49.4924L428.786 36.9658" stroke="#C1C7D0" stroke-width="0.581731"/>
<path d="M403.757 49.4924L428.786 36.9658L454.708 49.4924L481.078 37.8937L502.531 49.4924L529.795 37.8937L552.589 49.4924L575.383 37.8937L595.942 49.4924L619.63 37.8937" stroke="#C1C7D0" stroke-width="0.581731"/>
<path d="M212.019 41.9968L237.942 30.3981L262.971 41.9968L289.34 30.3981L310.793 41.9968L338.057 30.3981L360.851 41.9968L383.645 30.3981L404.205 41.9968L428.786 29.4702" stroke="#C1C7D0" stroke-width="0.581731"/>
<path d="M403.757 41.9968L428.786 29.4702L454.708 41.9968L481.078 30.3981L502.531 41.9968L529.795 30.3981L552.589 41.9968L575.383 30.3981L595.942 41.9968L619.63 30.3981" stroke="#C1C7D0" stroke-width="0.581731"/>
<path d="M212.019 34.4997L237.942 22.901L262.971 34.4997L289.34 22.901L310.793 34.4997L338.057 22.901L360.851 34.4997L383.645 22.901L404.205 34.4997L428.786 21.9731" stroke="#C1C7D0" stroke-width="0.581731"/>
<path d="M403.757 34.4997L428.786 21.9731L454.708 34.4997L481.078 22.901L502.531 34.4997L529.795 22.901L552.589 34.4997L575.383 22.901L595.942 34.4997L619.63 22.901" stroke="#C1C7D0" stroke-width="0.581731"/>
<path d="M212.019 27.0036L237.942 15.4049L262.971 27.0036L289.34 15.4049L310.793 27.0036L338.057 15.4049L360.851 27.0036L383.645 15.4049L404.205 27.0036L428.786 14.4771" stroke="#C1C7D0" stroke-width="0.581731"/>
<path d="M403.757 27.0036L428.786 14.4771L454.708 27.0036L481.078 15.4049L502.531 27.0036L529.795 15.4049L552.589 27.0036L575.383 15.4049L595.942 27.0036L619.63 15.4049" stroke="#C1C7D0" stroke-width="0.581731"/>
<path d="M212.019 19.5075L237.942 7.90885L262.971 19.5075L289.34 7.90885L310.793 19.5075L338.057 7.90885L360.851 19.5075L383.645 7.90885L404.205 19.5075L428.786 6.98096" stroke="#C1C7D0" stroke-width="0.581731"/>
<path d="M403.757 19.5075L428.786 6.98096L454.708 19.5075L481.078 7.90885L502.531 19.5075L529.795 7.90885L552.589 19.5075L575.383 7.90885L595.942 19.5075L619.63 7.90885" stroke="#C1C7D0" stroke-width="0.581731"/>
<path d="M212.019 439.311L237.942 427.713L262.971 439.311L289.34 427.713L310.793 439.311L338.057 427.713L360.851 439.311L383.645 427.713L404.205 439.311L428.786 426.785" stroke="#C1C7D0" stroke-width="0.581731"/>
<path d="M403.757 439.311L428.786 426.785L454.708 439.311L481.078 427.713L502.531 439.311L529.795 427.713L552.589 439.311L575.383 427.713L595.942 439.311L619.63 427.713" stroke="#C1C7D0" stroke-width="0.581731"/>
<path d="M212.019 476.793L237.942 465.195L262.971 476.793L289.34 465.195L310.793 476.793L338.057 465.195L360.851 476.793L383.645 465.195L404.205 476.793L428.786 464.267" stroke="#C1C7D0" stroke-width="0.581731"/>
<path d="M403.757 476.793L428.786 464.267L454.708 476.793L481.078 465.194L502.531 476.793L529.795 465.194L552.589 476.793L575.383 465.194L595.942 476.793L619.63 465.194" stroke="#C1C7D0" stroke-width="0.581731"/>
<path d="M212.019 431.815L237.942 420.216L262.971 431.815L289.34 420.216L310.793 431.815L338.057 420.216L360.851 431.815L383.645 420.216L404.205 431.815L428.786 419.289" stroke="#C1C7D0" stroke-width="0.581731"/>
<path d="M403.757 431.815L428.786 419.289L454.708 431.815L481.078 420.216L502.531 431.815L529.795 420.216L552.589 431.815L575.383 420.216L595.942 431.815L619.63 420.216" stroke="#C1C7D0" stroke-width="0.581731"/>
<path d="M212.019 469.297L237.942 457.698L262.971 469.297L289.34 457.698L310.793 469.297L338.057 457.698L360.851 469.297L383.645 457.698L404.205 469.297L428.786 456.77" stroke="#C1C7D0" stroke-width="0.581731"/>
<path d="M403.757 469.297L428.786 456.77L454.708 469.297L481.078 457.698L502.531 469.297L529.795 457.698L552.589 469.297L575.383 457.698L595.942 469.297L619.63 457.698" stroke="#C1C7D0" stroke-width="0.581731"/>
<path d="M212.019 424.319L237.942 412.721L262.971 424.319L289.34 412.721L310.793 424.319L338.057 412.721L360.851 424.319L383.645 412.721L404.205 424.319L428.786 411.793" stroke="#C1C7D0" stroke-width="0.581731"/>
<path d="M403.757 424.319L428.786 411.792L454.708 424.319L481.078 412.72L502.531 424.319L529.795 412.72L552.589 424.319L575.383 412.72L595.942 424.319L619.63 412.72" stroke="#C1C7D0" stroke-width="0.581731"/>
<path d="M212.02 461.801L237.942 450.203L262.971 461.801L289.341 450.203L310.794 461.801L338.057 450.203L360.852 461.801L383.646 450.203L404.205 461.801L428.787 449.275" stroke="#C1C7D0" stroke-width="0.581731"/>
<path d="M403.757 461.801L428.786 449.275L454.708 461.801L481.078 450.203L502.531 461.801L529.795 450.203L552.589 461.801L575.383 450.203L595.942 461.801L619.63 450.203" stroke="#C1C7D0" stroke-width="0.581731"/>
<path d="M212.019 416.823L237.942 405.224L262.971 416.823L289.34 405.224L310.793 416.823L338.057 405.224L360.851 416.823L383.645 405.224L404.205 416.823L428.786 404.296" stroke="#C1C7D0" stroke-width="0.581731"/>
<path d="M403.757 416.823L428.786 404.296L454.708 416.823L481.078 405.224L502.531 416.823L529.795 405.224L552.589 416.823L575.383 405.224L595.942 416.823L619.63 405.224" stroke="#C1C7D0" stroke-width="0.581731"/>
<path d="M212.019 454.304L237.942 442.706L262.971 454.304L289.34 442.706L310.793 454.304L338.057 442.706L360.851 454.304L383.645 442.706L404.205 454.304L428.786 441.778" stroke="#C1C7D0" stroke-width="0.581731"/>
<path d="M403.757 454.304L428.786 441.778L454.708 454.304L481.078 442.706L502.531 454.304L529.795 442.706L552.589 454.304L575.383 442.706L595.942 454.304L619.63 442.706" stroke="#C1C7D0" stroke-width="0.581731"/>
<path d="M212.019 409.326L237.942 397.727L262.971 409.326L289.34 397.727L310.793 409.326L338.057 397.727L360.851 409.326L383.645 397.727L404.205 409.326L428.786 396.8" stroke="#C1C7D0" stroke-width="0.581731"/>
<path d="M403.757 409.326L428.786 396.8L454.708 409.326L481.078 397.728L502.531 409.326L529.795 397.728L552.589 409.326L575.383 397.728L595.942 409.326L619.63 397.728" stroke="#C1C7D0" stroke-width="0.581731"/>
<path d="M212.019 446.808L237.942 435.209L262.971 446.808L289.34 435.209L310.793 446.808L338.057 435.209L360.851 446.808L383.645 435.209L404.205 446.808L428.786 434.281" stroke="#C1C7D0" stroke-width="0.581731"/>
<path d="M403.757 446.808L428.786 434.281L454.708 446.808L481.078 435.209L502.531 446.808L529.795 435.209L552.589 446.808L575.383 435.209L595.942 446.808L619.63 435.209" stroke="#C1C7D0" stroke-width="0.581731"/>
<path d="M212.019 401.829L237.942 390.231L262.971 401.829L289.34 390.231L310.793 401.829L338.057 390.231L360.851 401.829L383.645 390.231L404.205 401.829L428.786 389.303" stroke="#C1C7D0" stroke-width="0.581731"/>
<path d="M403.757 401.829L428.786 389.303L454.708 401.829L481.078 390.231L502.531 401.829L529.795 390.231L552.589 401.829L575.383 390.231L595.942 401.829L619.63 390.231" stroke="#C1C7D0" stroke-width="0.581731"/>
<path d="M212.019 394.333L237.942 382.735L262.971 394.333L289.34 382.735L310.793 394.333L338.057 382.735L360.851 394.333L383.645 382.735L404.205 394.333L428.786 381.807" stroke="#C1C7D0" stroke-width="0.581731"/>
<path d="M403.757 394.333L428.786 381.807L454.708 394.333L481.078 382.735L502.531 394.333L529.795 382.735L552.589 394.333L575.383 382.735L595.942 394.333L619.63 382.735" stroke="#C1C7D0" stroke-width="0.581731"/>
<path d="M212.019 386.838L237.942 375.239L262.971 386.838L289.34 375.239L310.793 386.838L338.057 375.239L360.851 386.838L383.645 375.239L404.205 386.838L428.786 374.311" stroke="#C1C7D0" stroke-width="0.581731"/>
<path d="M403.757 386.838L428.786 374.311L454.708 386.838L481.078 375.239L502.531 386.838L529.795 375.239L552.589 386.838L575.383 375.239L595.942 386.838L619.63 375.239" stroke="#C1C7D0" stroke-width="0.581731"/>
<path d="M212.019 379.341L237.942 367.742L262.971 379.341L289.34 367.742L310.793 379.341L338.057 367.742L360.851 379.341L383.645 367.742L404.205 379.341L428.786 366.814" stroke="#C1C7D0" stroke-width="0.581731"/>
<path d="M403.757 379.341L428.786 366.814L454.708 379.341L481.078 367.742L502.531 379.341L529.795 367.742L552.589 379.341L575.383 367.742L595.942 379.341L619.63 367.742" stroke="#C1C7D0" stroke-width="0.581731"/>
<path d="M212.019 371.844L237.942 360.246L262.971 371.844L289.34 360.246L310.793 371.844L338.057 360.246L360.851 371.844L383.645 360.246L404.205 371.844L428.786 359.318" stroke="#C1C7D0" stroke-width="0.581731"/>
<path d="M403.757 371.844L428.786 359.317L454.708 371.844L481.078 360.245L502.531 371.844L529.795 360.245L552.589 371.844L575.383 360.245L595.942 371.844L619.63 360.245" stroke="#C1C7D0" stroke-width="0.581731"/>
<path d="M212.019 364.347L237.942 352.748L262.971 364.347L289.34 352.748L310.793 364.347L338.057 352.748L360.851 364.347L383.645 352.748L404.205 364.347L428.786 351.821" stroke="#C1C7D0" stroke-width="0.581731"/>
<path d="M403.757 364.347L428.786 351.821L454.708 364.347L481.078 352.749L502.531 364.347L529.795 352.749L552.589 364.347L575.383 352.749L595.942 364.347L619.63 352.749" stroke="#C1C7D0" stroke-width="0.581731"/>
<path d="M212.019 356.852L237.942 345.254L262.971 356.852L289.34 345.254L310.793 356.852L338.057 345.254L360.851 356.852L383.645 345.254L404.205 356.852L428.786 344.326" stroke="#C1C7D0" stroke-width="0.581731"/>
<path d="M403.757 356.853L428.786 344.326L454.708 356.853L481.078 345.254L502.531 356.853L529.795 345.254L552.589 356.853L575.383 345.254L595.942 356.853L619.63 345.254" stroke="#C1C7D0" stroke-width="0.581731"/>
<path d="M212.019 349.355L237.942 337.757L262.971 349.355L289.34 337.757L310.793 349.355L338.057 337.757L360.851 349.355L383.645 337.757L404.205 349.355L428.786 336.829" stroke="#C1C7D0" stroke-width="0.581731"/>
<path d="M403.757 349.355L428.786 336.829L454.708 349.355L481.078 337.757L502.531 349.355L529.795 337.757L552.589 349.355L575.383 337.757L595.942 349.355L619.63 337.757" stroke="#C1C7D0" stroke-width="0.581731"/>
<path d="M212.019 341.859L237.942 330.26L262.971 341.859L289.34 330.26L310.793 341.859L338.057 330.26L360.851 341.859L383.645 330.26L404.205 341.859L428.786 329.333" stroke="#C1C7D0" stroke-width="0.581731"/>
<path d="M403.757 341.859L428.786 329.333L454.708 341.859L481.078 330.26L502.531 341.859L529.795 330.26L552.589 341.859L575.383 330.26L595.942 341.859L619.63 330.26" stroke="#C1C7D0" stroke-width="0.581731"/>
<path d="M212.019 334.363L237.942 322.764L262.971 334.363L289.34 322.764L310.793 334.363L338.057 322.764L360.851 334.363L383.645 322.764L404.205 334.363L428.786 321.836" stroke="#C1C7D0" stroke-width="0.581731"/>
<path d="M403.757 334.363L428.786 321.836L454.708 334.363L481.078 322.764L502.531 334.363L529.795 322.764L552.589 334.363L575.383 322.764L595.942 334.363L619.63 322.764" stroke="#C1C7D0" stroke-width="0.581731"/>
<path d="M212.019 326.866L237.942 315.267L262.971 326.866L289.34 315.267L310.793 326.866L338.057 315.267L360.851 326.866L383.645 315.267L404.205 326.866L428.786 314.34" stroke="#C1C7D0" stroke-width="0.581731"/>
<path d="M403.757 326.866L428.786 314.339L454.708 326.866L481.078 315.267L502.531 326.866L529.795 315.267L552.589 326.866L575.383 315.267L595.942 326.866L619.63 315.267" stroke="#C1C7D0" stroke-width="0.581731"/>
<path d="M212.019 319.371L237.942 307.772L262.971 319.371L289.34 307.772L310.793 319.371L338.057 307.772L360.851 319.371L383.645 307.772L404.205 319.371L428.786 306.844" stroke="#C1C7D0" stroke-width="0.581731"/>
<path d="M403.757 319.37L428.786 306.844L454.708 319.37L481.078 307.772L502.531 319.37L529.795 307.772L552.589 319.37L575.383 307.772L595.942 319.37L619.63 307.772" stroke="#C1C7D0" stroke-width="0.581731"/>
<path d="M212.019 311.873L237.942 300.275L262.971 311.873L289.34 300.275L310.793 311.873L338.057 300.275L360.851 311.873L383.645 300.275L404.205 311.873L428.786 299.347" stroke="#C1C7D0" stroke-width="0.581731"/>
<path d="M403.757 311.874L428.786 299.347L454.708 311.874L481.078 300.275L502.531 311.874L529.795 300.275L552.589 311.874L575.383 300.275L595.942 311.874L619.63 300.275" stroke="#C1C7D0" stroke-width="0.581731"/>
<path d="M212.019 304.377L237.942 292.779L262.971 304.377L289.34 292.779L310.793 304.377L338.057 292.779L360.851 304.377L383.645 292.779L404.205 304.377L428.786 291.851" stroke="#C1C7D0" stroke-width="0.581731"/>
<path d="M403.757 304.378L428.786 291.851L454.708 304.378L481.078 292.779L502.531 304.378L529.795 292.779L552.589 304.378L575.383 292.779L595.942 304.378L619.63 292.779" stroke="#C1C7D0" stroke-width="0.581731"/>
<path d="M212.019 296.881L237.942 285.282L262.971 296.881L289.34 285.282L310.793 296.881L338.057 285.282L360.851 296.881L383.645 285.282L404.205 296.881L428.786 284.354" stroke="#C1C7D0" stroke-width="0.581731"/>
<path d="M403.757 296.881L428.786 284.354L454.708 296.881L481.078 285.282L502.531 296.881L529.795 285.282L552.589 296.881L575.383 285.282L595.942 296.881L619.63 285.282" stroke="#C1C7D0" stroke-width="0.581731"/>
<path d="M212.019 289.384L237.942 277.786L262.971 289.384L289.34 277.786L310.793 289.384L338.057 277.786L360.851 289.384L383.645 277.786L404.205 289.384L428.786 276.858" stroke="#C1C7D0" stroke-width="0.581731"/>
<path d="M403.757 289.384L428.786 276.858L454.708 289.384L481.078 277.786L502.531 289.384L529.795 277.786L552.589 289.384L575.383 277.786L595.942 289.384L619.63 277.786" stroke="#C1C7D0" stroke-width="0.581731"/>
<path d="M212.019 281.888L237.942 270.29L262.971 281.888L289.34 270.29L310.793 281.888L338.057 270.29L360.851 281.888L383.645 270.29L404.205 281.888L428.786 269.362" stroke="#C1C7D0" stroke-width="0.581731"/>
<path d="M403.757 281.888L428.786 269.362L454.708 281.888L481.078 270.29L502.531 281.888L529.795 270.29L552.589 281.888L575.383 270.29L595.942 281.888L619.63 270.29" stroke="#C1C7D0" stroke-width="0.581731"/>
<path d="M212.019 274.392L237.942 262.793L262.971 274.392L289.34 262.793L310.793 274.392L338.057 262.793L360.851 274.392L383.645 262.793L404.205 274.392L428.786 261.865" stroke="#C1C7D0" stroke-width="0.581731"/>
<path d="M403.757 274.392L428.786 261.865L454.708 274.392L481.078 262.793L502.531 274.392L529.795 262.793L552.589 274.392L575.383 262.793L595.942 274.392L619.63 262.793" stroke="#C1C7D0" stroke-width="0.581731"/>
<path d="M212.019 266.895L237.942 255.296L262.971 266.895L289.34 255.296L310.793 266.895L338.057 255.296L360.851 266.895L383.645 255.296L404.205 266.895L428.786 254.368" stroke="#C1C7D0" stroke-width="0.581731"/>
<path d="M403.757 266.895L428.786 254.368L454.708 266.895L481.078 255.296L502.531 266.895L529.795 255.296L552.589 266.895L575.383 255.296L595.942 266.895L619.63 255.296" stroke="#C1C7D0" stroke-width="0.581731"/>
<path d="M212.019 259.399L237.942 247.801L262.971 259.399L289.34 247.801L310.793 259.399L338.057 247.801L360.851 259.399L383.645 247.801L404.205 259.399L428.786 246.873" stroke="#C1C7D0" stroke-width="0.581731"/>
<path d="M403.757 259.4L428.786 246.873L454.708 259.4L481.078 247.801L502.531 259.4L529.795 247.801L552.589 259.4L575.383 247.801L595.942 259.4L619.63 247.801" stroke="#C1C7D0" stroke-width="0.581731"/>
<path d="M212.019 251.903L237.942 240.304L262.971 251.903L289.34 240.304L310.793 251.903L338.057 240.304L360.851 251.903L383.645 240.304L404.205 251.903L428.786 239.376" stroke="#C1C7D0" stroke-width="0.581731"/>
<path d="M403.757 251.903L428.786 239.376L454.708 251.903L481.078 240.304L502.531 251.903L529.795 240.304L552.589 251.903L575.383 240.304L595.942 251.903L619.63 240.304" stroke="#C1C7D0" stroke-width="0.581731"/>
</g>
<rect x="265.539" y="59.3359" width="430.481" height="474.692" rx="18.6154" fill="#F3F3F3"/>
<mask id="mask0_144_496" style="mask-type:alpha" maskUnits="userSpaceOnUse" x="265" y="0" width="432" height="535">
<rect x="265.539" width="430.481" height="534.029" rx="18.6154" fill="#AFE3F3"/>
</mask>
<g mask="url(#mask0_144_496)">
<path d="M529.352 289.799L514.178 254.313C511.415 247.818 507.295 244.133 502.592 243.891C497.939 243.648 493.43 246.896 489.988 253.102L480.777 269.632C478.838 273.123 476.075 275.207 473.07 275.45C470.015 275.741 466.961 274.141 464.489 270.99L463.422 269.632C459.981 265.318 455.715 263.233 451.352 263.67C446.989 264.106 443.256 267.112 440.783 272.008L432.397 288.733C429.391 294.792 429.682 301.822 433.221 307.542C436.76 313.262 442.916 316.704 449.655 316.704H511.512C518.008 316.704 524.068 313.456 527.655 308.027C531.34 302.597 531.921 295.762 529.352 289.799Z" fill="#C1C7D0"/>
<path d="M456.395 248.884C465.444 248.884 472.78 241.548 472.78 232.498C472.78 223.449 465.444 216.113 456.395 216.113C447.345 216.113 440.009 223.449 440.009 232.498C440.009 241.548 447.345 248.884 456.395 248.884Z" fill="#C1C7D0"/>
</g>
<g filter="url(#filter0_d_144_496)">
<rect x="98" y="349.038" width="276.904" height="224.548" rx="18.6154" fill="white"/>
<g opacity="0.6">
<rect x="121.269" y="488.653" width="230.365" height="66.3173" rx="18.6154" fill="#F3F3F3"/>
<rect x="187.586" y="506.106" width="100.203" height="6.98077" rx="3.49038" fill="#4E5D78"/>
<rect x="187.586" y="519.999" width="44.4297" height="6.98077" rx="3.49038" fill="#4E5D78"/>
<g filter="url(#filter1_d_144_496)">
<rect x="135.231" y="502.616" width="38.3942" height="38.3942" rx="19.1971" fill="#4E5D78"/>
</g>
<path fill-rule="evenodd" clip-rule="evenodd" d="M158.663 518.046C158.663 520.395 156.78 522.279 154.429 522.279C152.079 522.279 150.194 520.395 150.194 518.046C150.194 515.697 152.079 513.814 154.429 513.814C156.78 513.814 158.663 515.697 158.663 518.046ZM154.428 529.812C150.958 529.812 148.029 529.248 148.029 527.072C148.029 524.896 150.977 524.352 154.428 524.352C157.898 524.352 160.827 524.916 160.827 527.091C160.827 529.268 157.879 529.812 154.428 529.812Z" fill="white"/>
</g>
<rect x="121.269" y="390.923" width="230.365" height="83.7692" rx="18.6154" fill="#F3F3F3"/>
<rect x="135.231" y="408.375" width="46.5385" height="46.5385" rx="23.2692" fill="#18A8FF"/>
<path d="M196.908 423.557V410.019H199.77V421.197H205.574V423.557H196.908ZM212.005 423.755C210.978 423.755 210.09 423.537 209.34 423.101C208.596 422.66 208.021 422.048 207.615 421.263C207.21 420.474 207.007 419.56 207.007 418.52C207.007 417.471 207.21 416.554 207.615 415.77C208.021 414.981 208.596 414.368 209.34 413.932C210.09 413.491 210.978 413.271 212.005 413.271C213.031 413.271 213.917 413.491 214.662 413.932C215.411 414.368 215.989 414.981 216.394 415.77C216.799 416.554 217.002 417.471 217.002 418.52C217.002 419.56 216.799 420.474 216.394 421.263C215.989 422.048 215.411 422.66 214.662 423.101C213.917 423.537 213.031 423.755 212.005 423.755ZM212.018 421.574C212.485 421.574 212.875 421.442 213.188 421.177C213.501 420.908 213.737 420.543 213.895 420.08C214.058 419.617 214.14 419.091 214.14 418.5C214.14 417.909 214.058 417.383 213.895 416.92C213.737 416.457 213.501 416.092 213.188 415.823C212.875 415.554 212.485 415.42 212.018 415.42C211.546 415.42 211.15 415.554 210.828 415.823C210.511 416.092 210.27 416.457 210.107 416.92C209.949 417.383 209.869 417.909 209.869 418.5C209.869 419.091 209.949 419.617 210.107 420.08C210.27 420.543 210.511 420.908 210.828 421.177C211.15 421.442 211.546 421.574 212.018 421.574ZM218.833 423.557V413.403H221.563V415.175H221.669C221.854 414.545 222.165 414.069 222.601 413.747C223.038 413.421 223.54 413.258 224.109 413.258C224.25 413.258 224.402 413.267 224.565 413.284C224.728 413.302 224.871 413.326 224.994 413.357V415.856C224.862 415.816 224.679 415.781 224.446 415.75C224.212 415.719 223.998 415.704 223.804 415.704C223.39 415.704 223.02 415.794 222.694 415.975C222.372 416.151 222.117 416.398 221.927 416.715C221.742 417.032 221.649 417.398 221.649 417.813V423.557H218.833ZM230.605 423.755C229.561 423.755 228.662 423.544 227.908 423.121C227.159 422.693 226.581 422.09 226.176 421.31C225.771 420.525 225.568 419.597 225.568 418.526C225.568 417.482 225.771 416.565 226.176 415.776C226.581 414.988 227.152 414.373 227.888 413.932C228.628 413.491 229.497 413.271 230.493 413.271C231.163 413.271 231.786 413.379 232.363 413.595C232.945 413.807 233.452 414.126 233.884 414.554C234.32 414.981 234.66 415.519 234.902 416.167C235.144 416.81 235.266 417.564 235.266 418.427V419.201H226.692V417.456H232.615C232.615 417.05 232.527 416.691 232.35 416.378C232.174 416.065 231.929 415.821 231.616 415.644C231.308 415.464 230.949 415.373 230.539 415.373C230.111 415.373 229.732 415.472 229.402 415.671C229.076 415.865 228.82 416.127 228.635 416.457C228.45 416.783 228.355 417.147 228.351 417.548V419.207C228.351 419.71 228.443 420.144 228.628 420.51C228.818 420.875 229.085 421.157 229.428 421.356C229.772 421.554 230.18 421.653 230.651 421.653C230.964 421.653 231.251 421.609 231.511 421.521C231.771 421.433 231.993 421.301 232.178 421.124C232.363 420.948 232.504 420.732 232.601 420.477L235.206 420.648C235.074 421.274 234.803 421.821 234.393 422.288C233.987 422.751 233.463 423.112 232.82 423.372C232.181 423.628 231.442 423.755 230.605 423.755ZM237.103 423.557V413.403H239.787V415.195H239.906C240.118 414.6 240.47 414.13 240.964 413.787C241.457 413.443 242.048 413.271 242.735 413.271C243.432 413.271 244.025 413.445 244.514 413.793C245.003 414.137 245.329 414.604 245.492 415.195H245.598C245.805 414.613 246.18 414.148 246.722 413.8C247.268 413.447 247.914 413.271 248.659 413.271C249.606 413.271 250.375 413.573 250.966 414.177C251.561 414.776 251.858 415.627 251.858 416.728V423.557H249.049V417.284C249.049 416.72 248.899 416.297 248.599 416.014C248.299 415.732 247.925 415.591 247.475 415.591C246.964 415.591 246.565 415.754 246.279 416.081C245.992 416.402 245.849 416.828 245.849 417.356V423.557H243.119V417.224C243.119 416.726 242.976 416.33 242.689 416.034C242.407 415.739 242.035 415.591 241.572 415.591C241.259 415.591 240.977 415.671 240.726 415.829C240.479 415.984 240.283 416.202 240.138 416.484C239.992 416.761 239.919 417.088 239.919 417.462V423.557H237.103ZM258.391 423.557V413.403H261.207V423.557H258.391ZM259.806 412.094C259.387 412.094 259.028 411.956 258.728 411.678C258.433 411.396 258.285 411.059 258.285 410.667C258.285 410.279 258.433 409.946 258.728 409.668C259.028 409.386 259.387 409.245 259.806 409.245C260.224 409.245 260.581 409.386 260.877 409.668C261.176 409.946 261.326 410.279 261.326 410.667C261.326 411.059 261.176 411.396 260.877 411.678C260.581 411.956 260.224 412.094 259.806 412.094ZM263.463 427.365V413.403H266.239V415.109H266.365C266.488 414.836 266.667 414.558 266.9 414.276C267.138 413.989 267.447 413.751 267.826 413.562C268.209 413.368 268.685 413.271 269.254 413.271C269.994 413.271 270.677 413.465 271.303 413.853C271.929 414.236 272.429 414.816 272.804 415.591C273.178 416.363 273.366 417.33 273.366 418.493C273.366 419.626 273.183 420.582 272.817 421.362C272.456 422.138 271.962 422.726 271.336 423.127C270.715 423.524 270.018 423.722 269.247 423.722C268.701 423.722 268.236 423.632 267.852 423.451C267.473 423.271 267.163 423.044 266.92 422.77C266.678 422.493 266.493 422.213 266.365 421.931H266.279V427.365H263.463ZM266.22 418.48C266.22 419.084 266.303 419.611 266.471 420.06C266.638 420.51 266.881 420.86 267.198 421.111C267.515 421.358 267.901 421.481 268.355 421.481C268.813 421.481 269.201 421.356 269.518 421.105C269.836 420.849 270.076 420.496 270.239 420.047C270.406 419.593 270.49 419.071 270.49 418.48C270.49 417.894 270.408 417.378 270.245 416.933C270.082 416.488 269.842 416.14 269.525 415.889C269.208 415.638 268.817 415.512 268.355 415.512C267.896 415.512 267.509 415.633 267.191 415.876C266.878 416.118 266.638 416.462 266.471 416.907C266.303 417.352 266.22 417.876 266.22 418.48ZM283.691 416.299L281.113 416.457C281.069 416.237 280.974 416.039 280.829 415.862C280.683 415.682 280.492 415.538 280.254 415.433C280.02 415.323 279.74 415.267 279.414 415.267C278.978 415.267 278.61 415.36 278.31 415.545C278.011 415.726 277.861 415.968 277.861 416.272C277.861 416.515 277.958 416.72 278.152 416.887C278.346 417.055 278.678 417.189 279.15 417.29L280.988 417.66C281.975 417.863 282.711 418.189 283.196 418.639C283.68 419.088 283.923 419.679 283.923 420.41C283.923 421.076 283.727 421.66 283.334 422.162C282.947 422.665 282.413 423.057 281.735 423.339C281.06 423.617 280.282 423.755 279.401 423.755C278.057 423.755 276.986 423.476 276.188 422.916C275.395 422.352 274.93 421.585 274.793 420.615L277.563 420.47C277.647 420.88 277.85 421.193 278.171 421.409C278.493 421.62 278.905 421.726 279.408 421.726C279.901 421.726 280.298 421.631 280.598 421.442C280.902 421.248 281.056 420.999 281.06 420.695C281.056 420.439 280.948 420.23 280.736 420.067C280.525 419.899 280.199 419.771 279.758 419.683L278 419.333C277.008 419.135 276.27 418.791 275.785 418.302C275.305 417.813 275.064 417.189 275.064 416.431C275.064 415.779 275.241 415.217 275.593 414.745C275.95 414.274 276.451 413.91 277.094 413.654C277.742 413.399 278.5 413.271 279.368 413.271C280.65 413.271 281.66 413.542 282.396 414.084C283.136 414.626 283.568 415.364 283.691 416.299ZM292.207 419.234V413.403H295.023V423.557H292.32V421.713H292.214C291.985 422.308 291.604 422.786 291.07 423.147C290.542 423.509 289.896 423.689 289.133 423.689C288.455 423.689 287.858 423.535 287.342 423.227C286.826 422.918 286.423 422.48 286.132 421.911C285.846 421.343 285.7 420.662 285.696 419.868V413.403H288.512V419.366C288.516 419.965 288.677 420.439 288.995 420.787C289.312 421.135 289.737 421.31 290.27 421.31C290.61 421.31 290.927 421.232 291.222 421.078C291.518 420.92 291.756 420.686 291.936 420.377C292.121 420.069 292.212 419.688 292.207 419.234ZM297.276 423.557V413.403H299.96V415.195H300.079C300.29 414.6 300.643 414.13 301.137 413.787C301.63 413.443 302.221 413.271 302.908 413.271C303.605 413.271 304.197 413.445 304.686 413.793C305.176 414.137 305.502 414.604 305.665 415.195H305.771C305.978 414.613 306.352 414.148 306.894 413.8C307.441 413.447 308.087 413.271 308.831 413.271C309.779 413.271 310.548 413.573 311.138 414.177C311.733 414.776 312.031 415.627 312.031 416.728V423.557H309.221V417.284C309.221 416.72 309.072 416.297 308.772 416.014C308.472 415.732 308.098 415.591 307.648 415.591C307.137 415.591 306.738 415.754 306.452 416.081C306.165 416.402 306.022 416.828 306.022 417.356V423.557H303.292V417.224C303.292 416.726 303.148 416.33 302.862 416.034C302.58 415.739 302.208 415.591 301.745 415.591C301.432 415.591 301.15 415.671 300.899 415.829C300.652 415.984 300.456 416.202 300.31 416.484C300.165 416.761 300.092 417.088 300.092 417.462V423.557H297.276Z" fill="#323B4B"/>
<path d="M200.977 441.126C201.587 441.126 202.173 441.229 202.736 441.433C203.303 441.637 203.808 441.963 204.251 442.411C204.698 442.858 205.051 443.452 205.31 444.192C205.572 444.929 205.705 445.833 205.709 446.905C205.709 447.911 205.595 448.81 205.368 449.6C205.144 450.387 204.822 451.056 204.402 451.607C203.981 452.159 203.474 452.579 202.88 452.868C202.286 453.154 201.623 453.296 200.891 453.296C200.1 453.296 199.402 453.144 198.797 452.84C198.191 452.531 197.703 452.113 197.333 451.584C196.967 451.052 196.745 450.454 196.668 449.791H199.138C199.234 450.223 199.437 450.559 199.745 450.798C200.054 451.033 200.435 451.151 200.891 451.151C201.662 451.151 202.248 450.815 202.649 450.144C203.05 449.469 203.252 448.546 203.256 447.373H203.175C202.998 447.72 202.759 448.019 202.458 448.27C202.157 448.517 201.812 448.708 201.423 448.843C201.037 448.978 200.626 449.045 200.191 449.045C199.493 449.045 198.87 448.881 198.322 448.553C197.775 448.226 197.343 447.774 197.027 447.2C196.71 446.625 196.552 445.97 196.552 445.233C196.548 444.439 196.732 443.731 197.102 443.11C197.472 442.49 197.989 442.004 198.652 441.653C199.319 441.298 200.094 441.123 200.977 441.126ZM200.995 443.093C200.605 443.093 200.258 443.186 199.953 443.371C199.653 443.556 199.414 443.805 199.236 444.117C199.063 444.429 198.978 444.778 198.982 445.164C198.982 445.553 199.067 445.904 199.236 446.217C199.41 446.525 199.645 446.772 199.942 446.957C200.243 447.138 200.586 447.229 200.971 447.229C201.261 447.229 201.529 447.175 201.776 447.067C202.022 446.959 202.236 446.81 202.418 446.621C202.603 446.429 202.747 446.207 202.851 445.956C202.955 445.706 203.008 445.44 203.008 445.158C203.004 444.784 202.915 444.441 202.741 444.128C202.568 443.816 202.329 443.565 202.024 443.376C201.72 443.188 201.376 443.093 200.995 443.093ZM211.73 441.126C212.339 441.126 212.926 441.229 213.489 441.433C214.055 441.637 214.561 441.963 215.004 442.411C215.451 442.858 215.804 443.452 216.063 444.192C216.325 444.929 216.458 445.833 216.462 446.905C216.462 447.911 216.348 448.81 216.12 449.6C215.897 450.387 215.575 451.056 215.154 451.607C214.734 452.159 214.227 452.579 213.633 452.868C213.039 453.154 212.376 453.296 211.643 453.296C210.853 453.296 210.155 453.144 209.55 452.84C208.944 452.531 208.456 452.113 208.086 451.584C207.72 451.052 207.498 450.454 207.421 449.791H209.891C209.987 450.223 210.19 450.559 210.498 450.798C210.807 451.033 211.188 451.151 211.643 451.151C212.415 451.151 213.001 450.815 213.402 450.144C213.803 449.469 214.005 448.546 214.009 447.373H213.928C213.751 447.72 213.512 448.019 213.211 448.27C212.91 448.517 212.565 448.708 212.176 448.843C211.79 448.978 211.379 449.045 210.944 449.045C210.246 449.045 209.623 448.881 209.075 448.553C208.528 448.226 208.096 447.774 207.78 447.2C207.463 446.625 207.305 445.97 207.305 445.233C207.301 444.439 207.485 443.731 207.855 443.11C208.225 442.49 208.742 442.004 209.405 441.653C210.072 441.298 210.847 441.123 211.73 441.126ZM211.748 443.093C211.358 443.093 211.011 443.186 210.706 443.371C210.406 443.556 210.167 443.805 209.989 444.117C209.816 444.429 209.731 444.778 209.735 445.164C209.735 445.553 209.819 445.904 209.989 446.217C210.163 446.525 210.398 446.772 210.695 446.957C210.996 447.138 211.339 447.229 211.724 447.229C212.014 447.229 212.282 447.175 212.528 447.067C212.775 446.959 212.989 446.81 213.17 446.621C213.356 446.429 213.5 446.207 213.604 445.956C213.708 445.706 213.76 445.44 213.76 445.158C213.757 444.784 213.668 444.441 213.494 444.128C213.321 443.816 213.082 443.565 212.777 443.376C212.473 443.188 212.129 443.093 211.748 443.093ZM219.183 453.285C218.801 453.285 218.474 453.15 218.2 452.88C217.93 452.606 217.795 452.278 217.795 451.897C217.795 451.519 217.93 451.195 218.2 450.925C218.474 450.655 218.801 450.52 219.183 450.52C219.553 450.52 219.877 450.655 220.155 450.925C220.433 451.195 220.571 451.519 220.571 451.897C220.571 452.151 220.506 452.384 220.375 452.597C220.248 452.805 220.08 452.973 219.872 453.1C219.663 453.223 219.434 453.285 219.183 453.285ZM226.739 453.395C225.744 453.391 224.888 453.146 224.171 452.66C223.457 452.174 222.908 451.471 222.522 450.549C222.14 449.627 221.951 448.519 221.955 447.223C221.955 445.931 222.146 444.83 222.528 443.92C222.914 443.01 223.463 442.318 224.176 441.844C224.894 441.365 225.748 441.126 226.739 441.126C227.73 441.126 228.582 441.365 229.296 441.844C230.013 442.322 230.564 443.016 230.95 443.926C231.335 444.832 231.526 445.931 231.522 447.223C231.522 448.523 231.33 449.633 230.944 450.555C230.562 451.476 230.015 452.18 229.301 452.666C228.588 453.152 227.734 453.395 226.739 453.395ZM226.739 451.318C227.418 451.318 227.959 450.977 228.364 450.294C228.769 449.612 228.97 448.588 228.966 447.223C228.966 446.325 228.873 445.576 228.688 444.979C228.507 444.381 228.249 443.932 227.913 443.631C227.581 443.33 227.19 443.18 226.739 443.18C226.064 443.18 225.524 443.517 225.119 444.192C224.714 444.867 224.51 445.877 224.506 447.223C224.506 448.133 224.597 448.893 224.778 449.502C224.963 450.107 225.223 450.562 225.559 450.867C225.894 451.168 226.288 451.318 226.739 451.318ZM237.953 453.395C236.958 453.391 236.102 453.146 235.385 452.66C234.672 452.174 234.122 451.471 233.736 450.549C233.355 449.627 233.166 448.519 233.17 447.223C233.17 445.931 233.36 444.83 233.742 443.92C234.128 443.01 234.677 442.318 235.391 441.844C236.108 441.365 236.962 441.126 237.953 441.126C238.944 441.126 239.796 441.365 240.51 441.844C241.227 442.322 241.778 443.016 242.164 443.926C242.55 444.832 242.741 445.931 242.737 447.223C242.737 448.523 242.544 449.633 242.158 450.555C241.777 451.476 241.229 452.18 240.516 452.666C239.802 453.152 238.948 453.395 237.953 453.395ZM237.953 451.318C238.632 451.318 239.174 450.977 239.579 450.294C239.983 449.612 240.184 448.588 240.18 447.223C240.18 446.325 240.088 445.576 239.902 444.979C239.721 444.381 239.463 443.932 239.127 443.631C238.796 443.33 238.404 443.18 237.953 443.18C237.278 443.18 236.738 443.517 236.334 444.192C235.929 444.867 235.724 445.877 235.72 447.223C235.72 448.133 235.811 448.893 235.992 449.502C236.177 450.107 236.438 450.562 236.773 450.867C237.109 451.168 237.502 451.318 237.953 451.318ZM249.167 453.395C248.172 453.391 247.316 453.146 246.599 452.66C245.886 452.174 245.336 451.471 244.951 450.549C244.569 449.627 244.38 448.519 244.384 447.223C244.384 445.931 244.575 444.83 244.956 443.92C245.342 443.01 245.892 442.318 246.605 441.844C247.322 441.365 248.176 441.126 249.167 441.126C250.158 441.126 251.011 441.365 251.724 441.844C252.441 442.322 252.993 443.016 253.378 443.926C253.764 444.832 253.955 445.931 253.951 447.223C253.951 448.523 253.758 449.633 253.373 450.555C252.991 451.476 252.443 452.18 251.73 452.666C251.016 453.152 250.162 453.395 249.167 453.395ZM249.167 451.318C249.846 451.318 250.388 450.977 250.793 450.294C251.198 449.612 251.398 448.588 251.394 447.223C251.394 446.325 251.302 445.576 251.117 444.979C250.935 444.381 250.677 443.932 250.342 443.631C250.01 443.33 249.619 443.18 249.167 443.18C248.493 443.18 247.953 443.517 247.548 444.192C247.143 444.867 246.938 445.877 246.935 447.223C246.935 448.133 247.025 448.893 247.206 449.502C247.392 450.107 247.652 450.562 247.987 450.867C248.323 451.168 248.716 451.318 249.167 451.318Z" fill="#4E5D78"/>
</g>
<g filter="url(#filter2_d_144_496)">
<rect x="205.039" y="314.135" width="62.8269" height="62.8269" rx="31.4135" fill="#FF5630"/>
<path d="M249.795 342.114C249.281 341.578 248.749 341.023 248.548 340.537C248.363 340.091 248.352 339.352 248.341 338.637C248.321 337.306 248.298 335.798 247.25 334.75C246.202 333.702 244.694 333.679 243.363 333.659C242.648 333.648 241.909 333.637 241.462 333.452C240.977 333.251 240.422 332.719 239.886 332.205C238.944 331.301 237.876 330.277 236.452 330.277C235.028 330.277 233.96 331.301 233.018 332.205C232.482 332.719 231.928 333.251 231.442 333.452C230.995 333.637 230.256 333.648 229.541 333.659C228.211 333.679 226.703 333.702 225.654 334.75C224.606 335.798 224.583 337.306 224.563 338.637C224.552 339.352 224.541 340.091 224.356 340.537C224.155 341.023 223.624 341.578 223.109 342.114C222.206 343.056 221.182 344.124 221.182 345.548C221.182 346.972 222.206 348.039 223.109 348.982C223.624 349.518 224.155 350.072 224.356 350.558C224.541 351.004 224.552 351.744 224.563 352.459C224.583 353.789 224.606 355.297 225.654 356.346C226.703 357.394 228.211 357.417 229.541 357.437C230.256 357.448 230.995 357.459 231.442 357.644C231.927 357.844 232.482 358.376 233.018 358.891C233.96 359.794 235.028 360.818 236.452 360.818C237.876 360.818 238.944 359.794 239.886 358.891C240.422 358.376 240.977 357.844 241.462 357.644C241.909 357.459 242.648 357.448 243.363 357.437C244.694 357.417 246.202 357.394 247.25 356.346C248.298 355.297 248.321 353.789 248.341 352.459C248.352 351.744 248.363 351.004 248.548 350.558C248.749 350.072 249.281 349.518 249.795 348.982C250.698 348.039 251.723 346.972 251.723 345.548C251.723 344.124 250.698 343.056 249.795 342.114ZM243.204 343.065L235.205 350.7C235.003 350.893 234.733 351.002 234.452 351.002C234.172 351.002 233.902 350.893 233.699 350.7L229.7 346.882C229.596 346.783 229.513 346.665 229.455 346.534C229.397 346.403 229.366 346.262 229.362 346.118C229.359 345.975 229.384 345.833 229.435 345.699C229.487 345.566 229.565 345.443 229.664 345.34C229.763 345.236 229.881 345.153 230.012 345.095C230.143 345.037 230.284 345.006 230.427 345.002C230.571 344.999 230.713 345.024 230.847 345.076C230.98 345.128 231.102 345.205 231.206 345.304L234.452 348.403L241.698 341.487C241.802 341.388 241.924 341.31 242.057 341.258C242.191 341.206 242.333 341.182 242.477 341.185C242.62 341.188 242.761 341.22 242.892 341.278C243.023 341.335 243.142 341.419 243.24 341.522C243.339 341.626 243.417 341.748 243.469 341.882C243.52 342.015 243.545 342.158 243.542 342.301C243.539 342.444 243.507 342.585 243.449 342.716C243.391 342.847 243.308 342.966 243.204 343.065Z" fill="white"/>
</g>
<g filter="url(#filter3_d_144_496)">
<rect x="657.625" y="89.5869" width="166.375" height="207.096" rx="13.9615" fill="white"/>
<path d="M692.847 174.741V162.895H695.352V172.676H700.43V174.741H692.847ZM705.894 174.914C704.995 174.914 704.218 174.723 703.563 174.342C702.911 173.956 702.408 173.42 702.053 172.734C701.698 172.043 701.521 171.243 701.521 170.333C701.521 169.415 701.698 168.613 702.053 167.927C702.408 167.237 702.911 166.701 703.563 166.319C704.218 165.933 704.995 165.74 705.894 165.74C706.792 165.74 707.567 165.933 708.219 166.319C708.875 166.701 709.38 167.237 709.735 167.927C710.089 168.613 710.267 169.415 710.267 170.333C710.267 171.243 710.089 172.043 709.735 172.734C709.38 173.42 708.875 173.956 708.219 174.342C707.567 174.723 706.792 174.914 705.894 174.914ZM705.905 173.005C706.314 173.005 706.656 172.89 706.929 172.658C707.203 172.423 707.409 172.103 707.548 171.698C707.691 171.293 707.762 170.832 707.762 170.316C707.762 169.799 707.691 169.338 707.548 168.933C707.409 168.528 707.203 168.208 706.929 167.973C706.656 167.738 706.314 167.62 705.905 167.62C705.493 167.62 705.146 167.738 704.864 167.973C704.587 168.208 704.377 168.528 704.234 168.933C704.095 169.338 704.026 169.799 704.026 170.316C704.026 170.832 704.095 171.293 704.234 171.698C704.377 172.103 704.587 172.423 704.864 172.658C705.146 172.89 705.493 173.005 705.905 173.005ZM711.706 174.741V165.856H714.095V167.406H714.188C714.35 166.855 714.621 166.438 715.003 166.157C715.385 165.872 715.825 165.729 716.322 165.729C716.445 165.729 716.578 165.737 716.721 165.752C716.864 165.767 716.989 165.789 717.097 165.816V168.002C716.981 167.967 716.821 167.937 716.617 167.91C716.413 167.883 716.226 167.869 716.056 167.869C715.693 167.869 715.37 167.948 715.084 168.106C714.803 168.26 714.579 168.476 714.413 168.754C714.251 169.032 714.17 169.352 714.17 169.714V174.741H711.706ZM721.844 174.914C720.93 174.914 720.143 174.729 719.484 174.359C718.828 173.985 718.323 173.457 717.968 172.774C717.613 172.088 717.436 171.276 717.436 170.339C717.436 169.425 717.613 168.623 717.968 167.933C718.323 167.242 718.822 166.704 719.466 166.319C720.114 165.933 720.874 165.74 721.745 165.74C722.331 165.74 722.877 165.835 723.382 166.024C723.891 166.209 724.335 166.489 724.713 166.863C725.094 167.237 725.391 167.707 725.603 168.274C725.815 168.837 725.921 169.496 725.921 170.252V170.929H718.419V169.402H723.602C723.602 169.047 723.525 168.733 723.371 168.459C723.216 168.185 723.002 167.971 722.729 167.817C722.459 167.659 722.144 167.58 721.786 167.58C721.412 167.58 721.08 167.667 720.791 167.84C720.506 168.01 720.282 168.239 720.12 168.528C719.958 168.814 719.875 169.132 719.871 169.483V170.935C719.871 171.374 719.952 171.754 720.114 172.074C720.28 172.394 720.513 172.641 720.814 172.815C721.115 172.988 721.471 173.075 721.884 173.075C722.158 173.075 722.409 173.036 722.636 172.959C722.864 172.882 723.058 172.766 723.22 172.612C723.382 172.458 723.506 172.269 723.59 172.045L725.869 172.196C725.754 172.743 725.517 173.221 725.158 173.63C724.803 174.035 724.344 174.351 723.781 174.579C723.222 174.802 722.576 174.914 721.844 174.914ZM727.367 174.741V165.856H729.715V167.424H729.819C730.004 166.903 730.313 166.492 730.745 166.192C731.177 165.891 731.693 165.74 732.295 165.74C732.904 165.74 733.423 165.893 733.851 166.197C734.279 166.498 734.564 166.907 734.707 167.424H734.799C734.981 166.915 735.308 166.508 735.783 166.203C736.261 165.895 736.826 165.74 737.478 165.74C738.307 165.74 738.979 166.005 739.496 166.533C740.017 167.057 740.277 167.802 740.277 168.766V174.741H737.819V169.251C737.819 168.758 737.688 168.388 737.425 168.141C737.163 167.894 736.835 167.771 736.442 167.771C735.995 167.771 735.646 167.913 735.395 168.199C735.145 168.48 735.019 168.852 735.019 169.315V174.741H732.63V169.199C732.63 168.764 732.505 168.417 732.254 168.158C732.008 167.9 731.682 167.771 731.277 167.771C731.003 167.771 730.756 167.84 730.536 167.979C730.32 168.114 730.149 168.305 730.022 168.552C729.894 168.795 729.831 169.08 729.831 169.408V174.741H727.367ZM745.668 174.741V165.856H748.132V174.741H745.668ZM746.905 164.711C746.539 164.711 746.225 164.589 745.963 164.346C745.704 164.1 745.575 163.805 745.575 163.461C745.575 163.122 745.704 162.831 745.963 162.588C746.225 162.341 746.539 162.218 746.905 162.218C747.272 162.218 747.584 162.341 747.842 162.588C748.105 162.831 748.236 163.122 748.236 163.461C748.236 163.805 748.105 164.1 747.842 164.346C747.584 164.589 747.272 164.711 746.905 164.711ZM749.943 178.072V165.856H752.372V167.348H752.482C752.59 167.109 752.746 166.866 752.951 166.62C753.159 166.369 753.429 166.161 753.76 165.995C754.096 165.825 754.512 165.74 755.01 165.74C755.658 165.74 756.255 165.91 756.803 166.249C757.35 166.585 757.788 167.092 758.116 167.771C758.444 168.446 758.608 169.292 758.608 170.31C758.608 171.301 758.447 172.138 758.127 172.82C757.811 173.499 757.379 174.014 756.832 174.365C756.288 174.712 755.679 174.885 755.004 174.885C754.526 174.885 754.119 174.806 753.783 174.648C753.452 174.49 753.18 174.291 752.968 174.052C752.756 173.809 752.594 173.565 752.482 173.318H752.407V178.072H749.943ZM752.355 170.298C752.355 170.827 752.428 171.288 752.575 171.681C752.721 172.074 752.933 172.381 753.211 172.601C753.488 172.816 753.826 172.924 754.223 172.924C754.624 172.924 754.963 172.815 755.241 172.595C755.519 172.371 755.729 172.063 755.872 171.669C756.018 171.272 756.091 170.815 756.091 170.298C756.091 169.786 756.02 169.334 755.877 168.945C755.735 168.555 755.524 168.251 755.247 168.031C754.969 167.811 754.628 167.701 754.223 167.701C753.822 167.701 753.483 167.807 753.205 168.019C752.931 168.232 752.721 168.532 752.575 168.922C752.428 169.311 752.355 169.77 752.355 170.298ZM767.48 168.39L765.224 168.528C765.185 168.336 765.102 168.162 764.975 168.008C764.848 167.85 764.68 167.724 764.472 167.632C764.267 167.535 764.023 167.487 763.737 167.487C763.355 167.487 763.033 167.568 762.771 167.73C762.509 167.888 762.378 168.1 762.378 168.366C762.378 168.579 762.463 168.758 762.632 168.904C762.802 169.051 763.093 169.169 763.506 169.257L765.114 169.581C765.978 169.759 766.622 170.044 767.046 170.437C767.47 170.831 767.682 171.347 767.682 171.987C767.682 172.57 767.51 173.081 767.167 173.52C766.828 173.96 766.361 174.303 765.767 174.55C765.177 174.793 764.497 174.914 763.726 174.914C762.55 174.914 761.612 174.669 760.914 174.18C760.22 173.686 759.814 173.015 759.694 172.167L762.118 172.039C762.191 172.398 762.368 172.672 762.65 172.861C762.931 173.046 763.292 173.138 763.731 173.138C764.163 173.138 764.51 173.056 764.773 172.89C765.039 172.72 765.174 172.502 765.177 172.236C765.174 172.012 765.079 171.829 764.894 171.687C764.709 171.54 764.424 171.428 764.038 171.351L762.499 171.045C761.632 170.871 760.986 170.57 760.562 170.142C760.141 169.714 759.931 169.169 759.931 168.505C759.931 167.935 760.085 167.443 760.394 167.03C760.706 166.618 761.144 166.3 761.707 166.076C762.274 165.852 762.937 165.74 763.697 165.74C764.819 165.74 765.702 165.978 766.346 166.452C766.994 166.926 767.372 167.572 767.48 168.39ZM774.768 170.958V165.856H777.232V174.741H774.867V173.127H774.774C774.574 173.647 774.24 174.066 773.773 174.382C773.311 174.698 772.746 174.856 772.079 174.856C771.485 174.856 770.962 174.721 770.511 174.452C770.06 174.182 769.707 173.798 769.453 173.3C769.202 172.803 769.075 172.207 769.071 171.513V165.856H771.535V171.074C771.539 171.598 771.68 172.012 771.957 172.317C772.235 172.622 772.607 172.774 773.074 172.774C773.37 172.774 773.648 172.707 773.906 172.572C774.165 172.433 774.373 172.228 774.531 171.958C774.693 171.689 774.772 171.355 774.768 170.958ZM779.04 174.741V165.856H781.389V167.424H781.493C781.678 166.903 781.987 166.492 782.419 166.192C782.85 165.891 783.367 165.74 783.969 165.74C784.578 165.74 785.097 165.893 785.525 166.197C785.953 166.498 786.238 166.907 786.381 167.424H786.473C786.655 166.915 786.982 166.508 787.457 166.203C787.935 165.895 788.5 165.74 789.151 165.74C789.98 165.74 790.653 166.005 791.17 166.533C791.691 167.057 791.951 167.802 791.951 168.766V174.741H789.493V169.251C789.493 168.758 789.362 168.388 789.099 168.141C788.837 167.894 788.509 167.771 788.116 167.771C787.669 167.771 787.32 167.913 787.069 168.199C786.818 168.48 786.693 168.852 786.693 169.315V174.741H784.304V169.199C784.304 168.764 784.179 168.417 783.928 168.158C783.681 167.9 783.356 167.771 782.951 167.771C782.677 167.771 782.43 167.84 782.21 167.979C781.994 168.114 781.823 168.305 781.695 168.552C781.568 168.795 781.505 169.08 781.505 169.408V174.741H779.04Z" fill="#323B4B"/>
<ellipse cx="685.984" cy="203.064" rx="10.3984" ry="10.4021" fill="#8A94A6"/>
<rect x="705.836" y="195.499" width="100.203" height="5.67387" rx="2.83693" fill="#B0B7C3"/>
<rect x="705.836" y="205.901" width="44.4297" height="5.67387" rx="2.83693" fill="#B0B7C3"/>
<ellipse cx="685.984" cy="235.217" rx="10.3984" ry="10.4021" fill="#B0B7C3"/>
<rect x="705.836" y="227.65" width="100.203" height="5.67387" rx="2.83693" fill="#B0B7C3"/>
<rect x="705.836" y="238.053" width="44.4297" height="5.67387" rx="2.83693" fill="#B0B7C3"/>
<ellipse cx="685.984" cy="267.367" rx="10.3984" ry="10.4021" fill="#B0B7C3"/>
<rect x="705.836" y="259.802" width="100.203" height="5.67387" rx="2.83693" fill="#B0B7C3"/>
<rect x="705.836" y="270.205" width="44.4297" height="5.67387" rx="2.83693" fill="#B0B7C3"/>
<path d="M721.906 127.406C721.906 116.964 730.371 108.5 740.812 108.5C751.254 108.5 759.719 116.967 759.719 127.409C759.719 127.417 759.719 127.422 759.719 127.424C759.716 137.862 751.255 146.322 740.818 146.325C740.815 146.325 740.812 146.325 740.806 146.325H724.931C723.872 146.325 723.343 146.325 722.939 146.119C722.583 145.938 722.294 145.649 722.112 145.293C721.906 144.889 721.906 144.359 721.906 143.3V127.406Z" fill="#FAFBFC"/>
<g clip-path="url(#clip0_144_496)">
<path d="M742.818 125.974C742.641 125.797 742.401 125.697 742.15 125.697C741.899 125.697 741.659 125.797 741.482 125.974L740.813 126.642C740.639 126.822 740.43 126.966 740.2 127.065C739.969 127.164 739.721 127.217 739.47 127.219C739.219 127.221 738.97 127.173 738.737 127.078C738.505 126.983 738.294 126.843 738.117 126.665C737.939 126.487 737.799 126.276 737.704 126.044C737.608 125.811 737.561 125.562 737.563 125.311C737.565 125.06 737.617 124.812 737.716 124.581C737.815 124.35 737.959 124.142 738.14 123.967L743.462 118.641C744.722 118.355 746.04 118.473 747.23 118.979C748.419 119.484 749.418 120.352 750.086 121.459C750.753 122.566 751.055 123.855 750.948 125.143C750.841 126.432 750.331 127.653 749.49 128.635L747.498 130.654L742.818 125.973V125.974ZM732.458 120.289C733.436 119.31 734.715 118.691 736.089 118.53C737.463 118.369 738.851 118.676 740.029 119.402L736.802 122.63C736.104 123.328 735.705 124.271 735.692 125.259C735.68 126.246 736.054 127.199 736.734 127.915C737.415 128.63 738.348 129.051 739.334 129.087C740.321 129.124 741.283 128.773 742.014 128.109L742.15 127.98L746.161 131.991L742.15 136.003C741.795 136.358 741.315 136.557 740.813 136.557C740.312 136.557 739.831 136.358 739.477 136.003L732.457 128.981C731.305 127.828 730.657 126.265 730.657 124.635C730.657 123.005 731.305 121.441 732.457 120.289H732.458Z" fill="#FFAB00"/>
</g>
</g>
<defs>
<filter id="filter0_d_144_496" x="0.269226" y="314.134" width="472.365" height="420.01" filterUnits="userSpaceOnUse" color-interpolation-filters="sRGB">
<feFlood flood-opacity="0" result="BackgroundImageFix"/>
<feColorMatrix in="SourceAlpha" type="matrix" values="0 0 0 0 0 0 0 0 0 0 0 0 0 0 0 0 0 0 127 0" result="hardAlpha"/>
<feOffset dy="62.8269"/>
<feGaussianBlur stdDeviation="48.8654"/>
<feColorMatrix type="matrix" values="0 0 0 0 0.0781728 0 0 0 0 0.0662326 0 0 0 0 0.145833 0 0 0 0.06 0"/>
<feBlend mode="normal" in2="BackgroundImageFix" result="effect1_dropShadow_144_496"/>
<feBlend mode="normal" in="SourceGraphic" in2="effect1_dropShadow_144_496" result="shape"/>
</filter>
<filter id="filter1_d_144_496" x="111.962" y="486.327" width="84.9325" height="84.9328" filterUnits="userSpaceOnUse" color-interpolation-filters="sRGB">
<feFlood flood-opacity="0" result="BackgroundImageFix"/>
<feColorMatrix in="SourceAlpha" type="matrix" values="0 0 0 0 0 0 0 0 0 0 0 0 0 0 0 0 0 0 127 0" result="hardAlpha"/>
<feOffset dy="6.98077"/>
<feGaussianBlur stdDeviation="11.6346"/>
<feColorMatrix type="matrix" values="0 0 0 0 0.11 0 0 0 0 0.14137 0 0 0 0 0.4125 0 0 0 0.05 0"/>
<feBlend mode="normal" in2="BackgroundImageFix" result="effect1_dropShadow_144_496"/>
<feBlend mode="normal" in="SourceGraphic" in2="effect1_dropShadow_144_496" result="shape"/>
</filter>
<filter id="filter2_d_144_496" x="165.481" y="314.135" width="141.943" height="211.75" filterUnits="userSpaceOnUse" color-interpolation-filters="sRGB">
<feFlood flood-opacity="0" result="BackgroundImageFix"/>
<feColorMatrix in="SourceAlpha" type="matrix" values="0 0 0 0 0 0 0 0 0 0 0 0 0 0 0 0 0 0 127 0" result="hardAlpha"/>
<feMorphology radius="65.1538" operator="erode" in="SourceAlpha" result="effect1_dropShadow_144_496"/>
<feOffset dy="109.365"/>
<feGaussianBlur stdDeviation="52.3558"/>
<feColorMatrix type="matrix" values="0 0 0 0 0.00592014 0 0 0 0 0.0463063 0 0 0 0 0.258333 0 0 0 0.08 0"/>
<feBlend mode="normal" in2="BackgroundImageFix" result="effect1_dropShadow_144_496"/>
<feBlend mode="normal" in="SourceGraphic" in2="effect1_dropShadow_144_496" result="shape"/>
</filter>
<filter id="filter3_d_144_496" x="618.067" y="89.5869" width="245.49" height="356.019" filterUnits="userSpaceOnUse" color-interpolation-filters="sRGB">
<feFlood flood-opacity="0" result="BackgroundImageFix"/>
<feColorMatrix in="SourceAlpha" type="matrix" values="0 0 0 0 0 0 0 0 0 0 0 0 0 0 0 0 0 0 127 0" result="hardAlpha"/>
<feMorphology radius="65.1538" operator="erode" in="SourceAlpha" result="effect1_dropShadow_144_496"/>
<feOffset dy="109.365"/>
<feGaussianBlur stdDeviation="52.3558"/>
<feColorMatrix type="matrix" values="0 0 0 0 0.00592014 0 0 0 0 0.0463063 0 0 0 0 0.258333 0 0 0 0.08 0"/>
<feBlend mode="normal" in2="BackgroundImageFix" result="effect1_dropShadow_144_496"/>
<feBlend mode="normal" in="SourceGraphic" in2="effect1_dropShadow_144_496" result="shape"/>
</filter>
<clipPath id="clip0_144_496">
<rect width="22.6875" height="22.6955" fill="white" transform="translate(729.469 116.064)"/>
</clipPath>
</defs>
</svg>
