<svg width="536" height="462" viewBox="0 0 536 462" fill="none" xmlns="http://www.w3.org/2000/svg">
<path fill-rule="evenodd" clip-rule="evenodd" d="M362.874 257.99C390.29 232.227 412.816 188.378 381.886 123.176C350.956 57.9737 199.982 7.66111 140.915 38.0345C81.8481 68.4078 63.7646 166.709 140.915 200.413C218.065 234.116 187.838 253.629 208.224 290.141C228.61 326.653 335.459 283.752 362.874 257.99Z" fill="#B3E8EC"/>
<path fill-rule="evenodd" clip-rule="evenodd" d="M141.96 9.19555L145.102 24.7327L156.275 16.0037L141.96 9.19555Z" fill="white" stroke="#03156D" stroke-width="1.11034" stroke-linecap="round" stroke-linejoin="round"/>
<path d="M152.231 317.251H161.683V326.703H152.231V317.251Z" fill="white" stroke="#03156D" stroke-width="1.11034" stroke-linecap="round"/>
<path d="M133.327 331.429H148.687V346.789H133.327V331.429Z" fill="#B3E8EC"/>
<path d="M264.475 0.603516H279.835V15.9633H264.475V0.603516Z" fill="#B3E8EC"/>
<path d="M120.33 238.089C115.11 238.089 110.878 233.858 110.878 228.637C110.878 223.417 115.11 219.185 120.33 219.185C125.55 219.185 129.782 223.417 129.782 228.637C129.782 233.858 125.55 238.089 120.33 238.089Z" fill="#B3E8EC"/>
<path d="M401.532 284.169C396.311 284.169 392.08 279.937 392.08 274.717C392.08 269.496 396.311 265.264 401.532 265.264C406.752 265.264 410.984 269.496 410.984 274.717C410.984 279.937 406.752 284.169 401.532 284.169Z" fill="#B3E8EC"/>
<path d="M389.717 92.7622C384.496 92.7622 380.265 88.5304 380.265 83.3101C380.265 78.0898 384.496 73.8579 389.717 73.8579C394.937 73.8579 399.169 78.0898 399.169 83.3101C399.169 88.5304 394.937 92.7622 389.717 92.7622Z" fill="white" stroke="#03156D" stroke-width="1.11034" stroke-linecap="round" stroke-linejoin="round"/>
<path d="M410.984 254.63C408.374 254.63 406.258 252.514 406.258 249.904C406.258 247.294 408.374 245.178 410.984 245.178C413.594 245.178 415.71 247.294 415.71 249.904C415.71 252.514 413.594 254.63 410.984 254.63Z" fill="white" stroke="#03156D" stroke-width="1.11034" stroke-linecap="round" stroke-linejoin="round"/>
<path d="M250.297 23.0523C247.687 23.0523 245.571 20.9363 245.571 18.3262C245.571 15.716 247.687 13.6001 250.297 13.6001C252.907 13.6001 255.023 15.716 255.023 18.3262C255.023 20.9363 252.907 23.0523 250.297 23.0523Z" fill="white" stroke="#03156D" stroke-width="1.11034" stroke-linecap="round" stroke-linejoin="round"/>
<path d="M209.377 36.0493H347.929C352.084 36.0493 355.452 39.4173 355.452 43.572V144.316C355.452 148.47 352.084 151.838 347.929 151.838H209.377C205.223 151.838 201.855 148.47 201.855 144.316V43.572C201.855 39.4173 205.223 36.0493 209.377 36.0493Z" fill="white" stroke="#03156D" stroke-width="1.11034" stroke-linecap="round" stroke-linejoin="round"/>
<path d="M314.099 54.9536H336.548V77.4025H314.099V54.9536Z" fill="white" stroke="#03156D" stroke-width="1.11034" stroke-linecap="round" stroke-linejoin="round"/>
<path d="M330.751 124.664H416.781C420.105 124.664 422.799 127.358 422.799 130.682V188.355C422.799 191.679 420.105 194.373 416.781 194.373H330.751C327.428 194.373 324.733 191.679 324.733 188.355V130.682C324.733 127.358 327.428 124.664 330.751 124.664Z" fill="white" stroke="#03156D" stroke-width="1.11034" stroke-linecap="round" stroke-linejoin="round"/>
<path d="M368.449 142.386H445.248V160.109H368.449V142.386Z" fill="white" stroke="#03156D" stroke-width="1.11034" stroke-linecap="round" stroke-linejoin="round"/>
<path fill-rule="evenodd" clip-rule="evenodd" d="M330.751 124.664C327.427 124.664 324.733 127.358 324.733 130.682V151.839H347.929C352.084 151.839 355.452 148.471 355.452 144.316V124.664H330.751Z" fill="#03156D" stroke="#03156D" stroke-width="1.11034" stroke-linecap="round" stroke-linejoin="round"/>
<path d="M282.844 205.006H319.361C321.023 205.006 322.37 206.354 322.37 208.015V236.261C322.37 237.923 321.023 239.27 319.361 239.27H282.844C281.183 239.27 279.835 237.923 279.835 236.261V208.015C279.835 206.354 281.183 205.006 282.844 205.006Z" fill="#03156D" stroke="#03156D" stroke-width="1.11034" stroke-linecap="round" stroke-linejoin="round"/>
<path d="M301.103 62.8335H220.154" stroke="#03156D" stroke-width="1.11034" stroke-linecap="round"/>
<path d="M301.103 77.4023H220.154" stroke="#03156D" stroke-width="1.11034" stroke-linecap="round"/>
<path d="M336.548 91.5806H220.153" stroke="#03156D" stroke-width="1.11034" stroke-linecap="round"/>
<path d="M336.548 105.759H220.153" stroke="#03156D" stroke-width="1.11034" stroke-linecap="round"/>
<path fill-rule="evenodd" clip-rule="evenodd" d="M368.449 160.109L422.799 168.793V160.109H368.449Z" fill="#03156D" stroke="#03156D" stroke-width="1.11034" stroke-linecap="round" stroke-linejoin="round"/>
<path d="M376.157 301.891H139.942" stroke="#03156D" stroke-width="1.11034" stroke-linecap="round"/>
<path d="M363.133 311.439H298.298" stroke="#03156D" stroke-width="1.11034" stroke-linecap="round"/>
<path fill-rule="evenodd" clip-rule="evenodd" d="M336.548 375.584L352.74 394.05L389.717 347.171C385.718 343.74 381.232 342.557 376.26 343.624C371.287 344.69 363.123 349.7 351.767 358.654H344.585L336.548 375.584Z" fill="#03156D" stroke="#03156D" stroke-width="1.11034" stroke-linecap="round" stroke-linejoin="round"/>
<path fill-rule="evenodd" clip-rule="evenodd" d="M374.304 343.619C370.987 344.308 366.278 346.661 360.179 350.679C360.925 357.039 363.291 361.924 367.277 365.334L367.71 365.693L384.991 345.055C381.714 343.299 378.152 342.82 374.304 343.619Z" fill="white" stroke="#03156D" stroke-width="1.11034" stroke-linecap="round" stroke-linejoin="round"/>
<path fill-rule="evenodd" clip-rule="evenodd" d="M323.552 362.373L335.83 375.145L350.727 358.195L342.796 345.607L323.552 362.373Z" fill="white" stroke="#03156D" stroke-width="1.11034" stroke-linecap="round" stroke-linejoin="round"/>
<path fill-rule="evenodd" clip-rule="evenodd" d="M342.457 347.971L338.316 349.849L322.371 363.52L329.113 370.42L342.457 347.971Z" fill="#03156D" stroke="#03156D" stroke-width="1.11034" stroke-linecap="round" stroke-linejoin="round"/>
<path fill-rule="evenodd" clip-rule="evenodd" d="M290.469 416.72L289.238 433.04H265.111L264.476 411.772L290.469 416.72Z" fill="white" stroke="#03156D" stroke-width="1.11034" stroke-linecap="round" stroke-linejoin="round"/>
<path fill-rule="evenodd" clip-rule="evenodd" d="M264.476 411.772L264.9 425.951L290.462 418.965L290.469 418.871L273.244 413.441L264.476 411.772Z" fill="#03156D" stroke="#03156D" stroke-width="1.11034" stroke-linecap="round" stroke-linejoin="round"/>
<path fill-rule="evenodd" clip-rule="evenodd" d="M270.383 253.449C278.905 256.663 284.255 258.607 286.434 259.28C289.701 260.289 288.483 263.126 280.076 260.869C274.472 259.365 271.241 256.891 270.383 253.449Z" fill="white" stroke="#03156D" stroke-width="1.11034" stroke-linecap="round" stroke-linejoin="round"/>
<path fill-rule="evenodd" clip-rule="evenodd" d="M178.225 300.14C188.031 309.62 199.018 314.36 211.188 314.36C223.358 314.36 238.2 315.717 255.715 318.431C258.586 323.011 260.022 326.813 260.022 329.837C260.022 332.861 261.488 360.173 264.42 411.773H291.538L301.49 336.287L320.559 360.277L342.457 342.524C318.522 300.809 304.867 278.15 301.49 274.547C298.113 270.944 290.784 267.181 279.502 263.259H233.759L196.3 261.72L178.225 300.14Z" fill="white" stroke="#03156D" stroke-width="1.11034" stroke-linecap="round" stroke-linejoin="round"/>
<path fill-rule="evenodd" clip-rule="evenodd" d="M247.616 181.346C259.661 159.585 266.184 146.592 267.184 142.366C268.684 136.027 274.84 116.39 277.106 115.119C278.616 114.272 282.951 112.549 290.109 109.952C296.157 100.855 299.87 96.3066 301.246 96.3066C303.31 96.3066 299.717 104.785 296.486 109.952C293.255 115.119 288.775 122.074 290.109 125.322C291.443 128.57 301.246 120.913 303.784 121.354C306.323 121.796 302.942 126.577 297.794 130.471C292.645 134.364 289.991 137.785 285.041 139.188C280.091 140.59 276.857 154.11 272.967 173.607C269.077 193.103 263.731 209.266 258.03 211.152C254.23 212.41 247.32 212.41 237.301 211.152L247.616 181.346Z" fill="white" stroke="#03156D" stroke-width="1.11034" stroke-linecap="round" stroke-linejoin="round"/>
<path d="M290.469 110.485L285.743 117.574" stroke="#03156D" stroke-width="1.11034" stroke-linecap="round"/>
<path fill-rule="evenodd" clip-rule="evenodd" d="M225.949 112.234C227.493 116.691 227.211 119.983 225.949 127.266C224.688 134.548 227.849 138.888 227.849 139.967C227.849 141.047 223.323 140.536 222.136 143.202C220.95 145.868 219.216 155.628 215.774 156.74C213.479 157.482 210.833 156.587 207.837 154.056C206.438 157.241 206.11 162.271 206.853 169.147C207.597 176.023 199.629 173.941 182.951 162.902C188.954 156.795 191.955 149.15 191.955 139.967C191.955 126.193 187.52 120.97 191.108 109.348C194.696 97.7258 207.363 97.7447 214.237 99.5501C221.112 101.356 224.405 107.777 225.949 112.234Z" fill="white" stroke="#03156D" stroke-width="1.11034" stroke-linecap="round" stroke-linejoin="round"/>
<path fill-rule="evenodd" clip-rule="evenodd" d="M203.743 144.749C200.644 148.759 201.247 157.885 206.397 162.472C206.381 158.985 206.783 156.215 207.604 154.159L207.763 153.781C205.083 151.259 203.743 148.248 203.743 144.749Z" fill="#03156D" stroke="#03156D" stroke-width="1.11034" stroke-linecap="round" stroke-linejoin="round"/>
<path fill-rule="evenodd" clip-rule="evenodd" d="M233.414 88.0361C224.492 95.4768 213.746 92.8952 212.033 92.5578C206.108 91.3915 200.1 90.172 196.252 90.6157C192.089 91.0957 189.801 95.6823 189.39 104.375C185.884 106.242 183.772 108.993 183.055 112.63C182.337 116.268 185.347 125.353 192.085 139.888L193.231 140.135C197.882 141.112 200.965 141.419 202.481 141.058C204.119 140.668 205.719 137.295 207.282 130.939C203.345 130.199 201.095 128.379 200.53 125.481C199.683 121.133 203.275 119.348 205.568 120.683C207.862 122.018 207.608 125.002 209.11 124.408C210.112 124.012 211.17 121.356 212.285 116.441C219.345 116.94 225.279 115.374 230.088 111.743C234.896 108.112 238.089 102.05 239.664 93.5551C235.052 94.2627 230.656 94.5698 226.474 94.4765C230.281 92.1229 232.632 89.2552 233.414 88.0361Z" fill="#03156D"/>
<path d="M217.192 129.325C216.234 129.121 215.733 127.663 216.072 126.067C216.411 124.471 217.462 123.343 218.42 123.546C219.377 123.75 219.878 125.208 219.539 126.804C219.2 128.399 218.149 129.528 217.192 129.325Z" fill="#03156D" stroke="#03156D" stroke-width="1.11034" stroke-linecap="round"/>
<path fill-rule="evenodd" clip-rule="evenodd" d="M221.941 118.756C219.15 119.065 217.181 119.852 216.033 121.119L221.941 118.756Z" fill="white"/>
<path d="M221.941 118.756C219.15 119.065 217.181 119.852 216.033 121.119" stroke="#03156D" stroke-width="1.11034" stroke-linecap="round"/>
<path fill-rule="evenodd" clip-rule="evenodd" d="M218.397 142.613L210.442 141.205C209.659 145.473 210.332 147.817 212.459 148.236C214.586 148.656 216.565 146.781 218.397 142.613Z" fill="#03156D" stroke="#03156D" stroke-width="1.11034" stroke-linecap="round" stroke-linejoin="round"/>
<path d="M217.806 135.297C214.87 135.297 212.489 132.917 212.489 129.98C212.489 127.044 214.87 124.664 217.806 124.664C220.743 124.664 223.123 127.044 223.123 129.98C223.123 132.917 220.743 135.297 217.806 135.297Z" stroke="#03156D" stroke-width="1.11034" stroke-linecap="round"/>
<path d="M213.671 127.026L207.763 123.482" stroke="#03156D" stroke-width="1.11034" stroke-linecap="round"/>
<path d="M223.123 130.357L227.849 129.603" stroke="#03156D" stroke-width="1.11034" stroke-linecap="round"/>
<path fill-rule="evenodd" clip-rule="evenodd" d="M247.24 182.747C249.191 194.875 247.031 207.02 240.759 219.185C225.508 216.86 212.54 214.447 201.855 211.946L207.362 171.924L247.24 182.747Z" fill="#03156D" stroke="#03156D" stroke-width="1.11034" stroke-linecap="round" stroke-linejoin="round"/>
<path fill-rule="evenodd" clip-rule="evenodd" d="M230.212 262.504C223.355 248.257 219.927 239.984 219.927 237.687C219.927 234.241 221.696 202.785 216.032 186.004C210.368 169.223 202.165 160.193 194.558 160.193C186.951 160.193 183.067 159.245 177.319 163.721C173.487 166.705 164.337 190.471 149.869 235.018C153.736 239.266 158.168 242.523 163.167 244.79C163.167 255.108 165.709 275.361 165.709 282.427C165.709 289.492 174.275 305.955 177.319 307.698C179.348 308.86 187.632 299.986 202.17 281.074L230.212 262.504Z" fill="#03156D" stroke="#03156D" stroke-width="1.11034" stroke-linecap="round" stroke-linejoin="round"/>
<path fill-rule="evenodd" clip-rule="evenodd" d="M167.591 247.541C176.126 249.911 184.122 249.911 191.578 247.541C191.578 248.652 191.578 249.906 191.578 251.303C202.333 250.879 212.203 251.594 221.188 253.451C234.665 256.235 240.379 257.57 251.011 254.458C261.642 251.346 265.07 250.34 267.633 251.896C270.196 253.451 289.201 266.731 290.29 268.536C291.016 269.739 289.534 269.739 285.842 268.536C285.808 269.523 285.044 270.016 283.552 270.016C281.313 270.016 264.958 269.961 261.486 269.398C258.015 268.836 252.527 266.618 250.163 266.618C247.799 266.618 198.352 274.739 189.555 275.676C180.759 276.612 172.83 274.774 170.211 266.618C168.464 261.181 167.591 254.822 167.591 247.541Z" fill="white" stroke="#03156D" stroke-width="1.11034" stroke-linecap="round" stroke-linejoin="round"/>
<path d="M197.129 243.997C197.129 220.688 197.129 205.221 197.129 197.595C197.129 189.968 195.948 182.199 193.585 174.287" stroke="white" stroke-width="1.11034" stroke-linecap="round"/>
<path d="M286.925 268.809L265.657 256.994" stroke="#03156D" stroke-width="1.11034" stroke-linecap="round"/>
<path d="M276.292 267.627L262.113 261.72" stroke="#03156D" stroke-width="1.11034" stroke-linecap="round"/>
<path d="M302.284 331.429C300.853 318.773 295.733 308.139 286.924 299.528" stroke="#03156D" stroke-width="1.11034" stroke-linecap="round"/>
<path d="M279.836 301.891C263.919 307.524 250.135 311.462 238.483 313.707" stroke="#03156D" stroke-width="1.11034" stroke-linecap="round"/>
<path fill-rule="evenodd" clip-rule="evenodd" d="M291.728 420.166L293.53 413.35C294.167 410.94 292.729 408.47 290.319 407.833C289.795 407.694 289.249 407.651 288.709 407.706L261.643 410.459C259.989 410.627 258.786 412.104 258.954 413.757C258.956 413.784 258.959 413.81 258.963 413.837L259.727 419.781C259.921 421.282 261.199 422.406 262.712 422.406H288.819C290.185 422.406 291.379 421.486 291.728 420.166Z" fill="white" stroke="#03156D" stroke-width="1.11034" stroke-linecap="round" stroke-linejoin="round"/>
<path fill-rule="evenodd" clip-rule="evenodd" d="M346.28 346.071L343.503 339.591C342.521 337.299 339.868 336.238 337.577 337.22C337.078 337.433 336.622 337.735 336.23 338.111L316.596 356.944C315.397 358.094 315.357 359.999 316.508 361.199C316.526 361.218 316.545 361.237 316.564 361.256L320.826 365.469C321.902 366.533 323.602 366.632 324.794 365.7L345.367 349.627C346.443 348.786 346.818 347.326 346.28 346.071Z" fill="white" stroke="#03156D" stroke-width="1.11034" stroke-linecap="round" stroke-linejoin="round"/>
<path fill-rule="evenodd" clip-rule="evenodd" d="M288.085 434.221C292.559 438.729 298.341 442.496 305.431 445.522C316.066 450.062 321.189 453.353 321.189 461.396C316.113 461.396 296.421 461.396 262.113 461.396L263.791 434.221H288.085Z" fill="#03156D" stroke="#03156D" stroke-width="1.11034" stroke-linecap="round" stroke-linejoin="round"/>
<path fill-rule="evenodd" clip-rule="evenodd" d="M300.559 442.492C295.756 445.916 293.189 450.834 292.857 457.246L292.833 457.852L321.189 457.852C319.756 452.583 315.257 449.615 307.514 446.011L306.297 445.451C304.49 444.628 302.769 443.753 301.136 442.825L300.559 442.492Z" fill="white" stroke="#03156D" stroke-width="1.11034" stroke-linecap="round" stroke-linejoin="round"/>
<path d="M295.195 442.976C292.923 444.213 291.064 446.019 289.617 448.392C287.447 451.952 283.584 450.35 285.742 445.684C287.901 441.019 290.447 437.952 286.626 436.987C282.804 436.022 275.934 436.566 274.276 441.125C272.618 445.684 277.256 445.789 280.481 443.457C283.706 441.125 283.673 438.438 285.149 439.246C286.134 439.785 284.215 443.624 279.395 450.763" stroke="white" stroke-width="1.11034" stroke-linecap="round"/>
<path d="M358.998 356.241C358.667 359.617 358.502 363.027 358.502 366.47C358.502 371.635 355.85 367.607 354.937 363.839C354.025 360.071 351.828 362.646 348.819 367.108C345.809 371.57 345.09 373.096 347.247 375.709C349.403 378.322 351.011 372.084 351.755 367.527C352.499 362.969 354.937 370.444 354.937 374.586" stroke="white" stroke-width="1.11034" stroke-linecap="round"/>
<path d="M220.76 210.914C219.79 195.605 217.033 184.183 212.489 176.65" stroke="white" stroke-width="1.11034" stroke-linecap="round"/>
<path d="M136.62 408.662C141.813 429.145 151.718 445.689 166.336 458.292" stroke="#03156D" stroke-width="1.11034" stroke-linecap="round" stroke-linejoin="round"/>
<path d="M135.672 412.65C140.222 412.252 143.588 408.24 143.19 403.69C142.792 399.14 138.781 395.774 134.23 396.172C129.68 396.57 126.314 400.581 126.712 405.132C127.11 409.682 131.122 413.048 135.672 412.65Z" fill="#B3E8EC"/>
<path d="M133.568 402.16C136.168 401.933 138.092 399.64 137.864 397.04C137.637 394.44 135.344 392.516 132.744 392.744C130.144 392.971 128.221 395.264 128.448 397.864C128.676 400.464 130.968 402.388 133.568 402.16Z" fill="#03156D" stroke="#03156D" stroke-width="1.11034" stroke-linecap="round" stroke-linejoin="round"/>
<path fill-rule="evenodd" clip-rule="evenodd" d="M145.598 431.828C144.542 426.793 146.104 422.785 150.282 419.803C151.262 426.155 149.7 430.163 145.598 431.828Z" fill="#03156D" stroke="#03156D" stroke-width="1.11034" stroke-linecap="round" stroke-linejoin="round"/>
<path fill-rule="evenodd" clip-rule="evenodd" d="M128.393 415.763C133.5 415.151 137.357 417.055 139.963 421.478C133.55 421.9 129.693 419.995 128.393 415.763Z" fill="#03156D" stroke="#03156D" stroke-width="1.11034" stroke-linecap="round" stroke-linejoin="round"/>
<path fill-rule="evenodd" clip-rule="evenodd" d="M193.103 460.808H165.843C156.851 453.71 153.388 446.062 155.453 437.867C158.55 425.573 161.554 422.526 152.684 416.59C143.814 410.653 145.063 398.989 155.453 392.959C165.843 386.929 144.455 382.433 146.456 368.147C147.686 359.365 159.319 357.548 167.755 362.474C173.04 365.56 176.799 372.756 176.799 378.004C176.799 391.628 177.814 391.59 186.326 396.356C194.837 401.122 192.477 410.248 187.546 416.59C182.614 422.931 192.03 429.064 197.511 439.466C201.165 446.402 199.695 453.516 193.103 460.808Z" fill="white" stroke="#03156D" stroke-width="1.11034" stroke-linecap="round" stroke-linejoin="round"/>
<path d="M159.073 369.006C173.611 396.533 180.88 427.134 180.88 460.808" stroke="#03156D" stroke-width="1.11034" stroke-linecap="round" stroke-linejoin="round"/>
<path d="M174.352 408.321L184.265 395.338" stroke="#03156D" stroke-width="1.11034" stroke-linecap="round" stroke-linejoin="round"/>
<path d="M175.394 412.502L184.264 401.83" stroke="#03156D" stroke-width="1.11034" stroke-linecap="round" stroke-linejoin="round"/>
<path d="M158.481 424.37L179.829 439.038" stroke="#03156D" stroke-width="1.11034" stroke-linecap="round" stroke-linejoin="round"/>
<path d="M157.786 429.128L180.173 444.219" stroke="#03156D" stroke-width="1.11034" stroke-linecap="round" stroke-linejoin="round"/>
<path fill-rule="evenodd" clip-rule="evenodd" d="M239.249 460.808H190.806C181.697 439.682 178.734 425.93 181.915 419.554C185.097 413.179 192.145 419.477 203.06 438.45C211.772 403.004 219.312 385.676 225.679 386.464C232.046 387.252 233.813 404.581 230.978 438.45C241.218 424.821 248.504 418.522 252.836 419.554C257.169 420.587 252.639 434.338 239.249 460.808Z" fill="#03156D" stroke="#03156D" stroke-width="1.11034" stroke-linecap="round" stroke-linejoin="round"/>
<path d="M222.74 407.627C218.677 429.629 215.836 446.569 214.217 458.445" stroke="white" stroke-width="1.11034" stroke-linecap="round" stroke-linejoin="round"/>
<path d="M201.12 458.445L188.219 429.852" stroke="white" stroke-width="1.11034" stroke-linecap="round" stroke-linejoin="round"/>
<path d="M228.962 458.445L246.339 429.852" stroke="white" stroke-width="1.11034" stroke-linecap="round" stroke-linejoin="round"/>
<path d="M217.553 436.677L211.036 423.09" stroke="white" stroke-width="1.11034" stroke-linecap="round" stroke-linejoin="round"/>
</svg>
