<svg width="518" height="387" viewBox="0 0 518 387" fill="none" xmlns="http://www.w3.org/2000/svg">
<path fill-rule="evenodd" clip-rule="evenodd" d="M364.157 361.779C303.819 375.075 246.797 361.779 197.09 316.254C147.383 270.729 108.488 186.972 139.566 121.774C170.644 56.577 256.694 54.0972 293.852 107.798C331.009 161.5 372.796 166.131 405.091 158.754C437.386 151.378 481.82 183.762 472.94 255.466C464.06 327.169 424.495 348.482 364.157 361.779Z" fill="#F3C2FF"/>
<path fill-rule="evenodd" clip-rule="evenodd" d="M452.923 134.949L469.209 157.969L457.209 183.438L428.924 185.887L412.638 162.867L424.638 137.398L452.923 134.949Z" fill="white" stroke="#03156D" stroke-width="1.54497" stroke-linecap="round" stroke-linejoin="round"/>
<path fill-rule="evenodd" clip-rule="evenodd" d="M440.924 160.418L428.924 185.887L412.638 162.867L424.638 137.398L440.924 160.418Z" fill="#03156D" stroke="#03156D" stroke-width="1.54497" stroke-linecap="round" stroke-linejoin="round"/>
<path fill-rule="evenodd" clip-rule="evenodd" d="M428.924 185.887L440.924 160.418L469.209 157.968L457.21 183.438L428.924 185.887Z" fill="white" stroke="#03156D" stroke-width="1.54497" stroke-linecap="round" stroke-linejoin="round"/>
<path fill-rule="evenodd" clip-rule="evenodd" d="M454.325 86.5888L471.206 71.5456L492.809 78.4928L497.531 100.483L480.651 115.527L459.048 108.579L454.325 86.5888Z" fill="white" stroke="#03156D" stroke-width="1.54497" stroke-linecap="round" stroke-linejoin="round"/>
<path fill-rule="evenodd" clip-rule="evenodd" d="M475.928 93.5359L497.531 100.483L480.651 115.526L459.048 108.579L475.928 93.5359Z" fill="#03156D" stroke="#03156D" stroke-width="1.54497" stroke-linecap="round" stroke-linejoin="round"/>
<path fill-rule="evenodd" clip-rule="evenodd" d="M497.531 100.483L475.928 93.5361L471.206 71.5456L492.809 78.4929L497.531 100.483Z" fill="white" stroke="#03156D" stroke-width="1.54497" stroke-linecap="round" stroke-linejoin="round"/>
<path d="M215.817 40.532H27.4365C22.1591 40.532 17.881 44.7662 17.881 49.9895V159.426C17.881 164.649 22.1591 168.883 27.4365 168.883H215.817C221.095 168.883 225.373 164.649 225.373 159.426V49.9895C225.373 44.7662 221.095 40.532 215.817 40.532Z" fill="white" stroke="#03156D" stroke-width="1.54497" stroke-linecap="round" stroke-linejoin="round"/>
<path d="M37.2957 127H153.79" stroke="#03156D" stroke-width="1.54497" stroke-linecap="round" stroke-linejoin="round"/>
<path d="M37.2957 140.511H187.466" stroke="#03156D" stroke-width="1.54497" stroke-linecap="round" stroke-linejoin="round"/>
<path d="M95.6905 63.5002H36.9921V106.734H95.6905V63.5002Z" fill="#03156D" stroke="#03156D" stroke-width="1.54497" stroke-linecap="round" stroke-linejoin="round"/>
<path fill-rule="evenodd" clip-rule="evenodd" d="M36.9921 96.5072V106.734H95.6905V92.9323L75.8229 79.1975L61.5635 91.6835L49.6229 82.9603L36.9921 96.5072Z" fill="white" stroke="#03156D" stroke-width="1.54497" stroke-linecap="round" stroke-linejoin="round"/>
<path d="M61.5635 82.4152C64.5791 82.4152 67.0238 79.9957 67.0238 77.011C67.0238 74.0263 64.5791 71.6067 61.5635 71.6067C58.5478 71.6067 56.1031 74.0263 56.1031 77.011C56.1031 79.9957 58.5478 82.4152 61.5635 82.4152Z" fill="white" stroke="#03156D" stroke-width="1.54497" stroke-linecap="round" stroke-linejoin="round"/>
<path d="M87.5771 382.722C67.4114 357.586 56.8482 331.929 55.8877 305.75" stroke="#03156D" stroke-width="1.54497" stroke-linecap="round"/>
<path fill-rule="evenodd" clip-rule="evenodd" d="M76.1345 314.21C65.9096 317.072 60.9012 323.49 61.1094 333.463C70.1843 333.607 75.1926 327.19 76.1345 314.21Z" fill="#03156D" stroke="#03156D" stroke-width="1.54497" stroke-linecap="round" stroke-linejoin="round"/>
<path d="M55.1971 312.25C47.4148 311.305 41.8807 304.294 42.8362 296.592C43.7918 288.889 50.8752 283.412 58.6574 284.358C66.4397 285.303 71.9738 292.314 71.0183 300.016C70.0627 307.719 62.9793 313.196 55.1971 312.25Z" fill="#F4D1B4"/>
<path d="M57.5761 293.074C54.6577 292.719 52.5824 290.09 52.9408 287.202C53.2991 284.314 55.9554 282.26 58.8737 282.614C61.7921 282.969 63.8674 285.598 63.509 288.486C63.1507 291.375 60.4944 293.429 57.5761 293.074Z" fill="#03156D" stroke="#03156D" stroke-width="1.54497" stroke-linecap="round" stroke-linejoin="round"/>
<path fill-rule="evenodd" clip-rule="evenodd" d="M108.777 381.515H209.628C223.913 315.5 226.538 280.808 217.503 277.438C208.468 274.067 196.303 298.346 181.008 350.275C165.163 293.789 151.121 260.538 138.881 250.523C126.642 240.508 124.503 272.494 132.464 346.481C108.949 318.159 93.8543 307.586 87.1787 314.763C80.5032 321.939 87.7025 344.19 108.777 381.515Z" fill="white" stroke="#03156D" stroke-width="1.54497" stroke-linecap="round"/>
<path d="M132.411 381.224C119.049 359.455 107.318 342.936 97.2195 331.667" stroke="#03156D" stroke-width="1.54497" stroke-linecap="round"/>
<path d="M140.917 278.615C151.34 324.258 156.551 358.46 156.551 381.224" stroke="#03156D" stroke-width="1.54497" stroke-linecap="round"/>
<path d="M152.707 339.218C157.207 327.152 160.275 317.059 161.912 308.939" stroke="#03156D" stroke-width="1.54497" stroke-linecap="round"/>
<path d="M210.129 303.167C203.921 342.505 197.759 368.524 191.641 381.223" stroke="#03156D" stroke-width="1.54497" stroke-linecap="round"/>
<path d="M200.839 353.028C207.895 347.216 212.331 342.612 214.15 339.218" stroke="#03156D" stroke-width="1.54497" stroke-linecap="round"/>
<path d="M143.244 315.61C149.553 342.718 152.707 364.59 152.707 381.224" stroke="#03156D" stroke-width="1.54497" stroke-linecap="round"/>
<path fill-rule="evenodd" clip-rule="evenodd" d="M440.663 384.352C426.868 365.871 426.868 350.205 440.663 337.354C461.356 318.078 455.545 320.441 451.676 298.174C447.807 275.908 478.377 279.751 478.377 260.235C478.377 240.719 490.678 221.148 500.028 230.934C509.379 240.72 503.676 272.048 500.028 281.214C496.381 290.381 505.433 301.234 502.305 317.51C499.178 333.787 483.002 332.121 491.09 351.815C496.482 364.944 492.244 375.789 478.377 384.352H440.663Z" fill="white" stroke="#03156D" stroke-width="1.54497" stroke-linecap="round" stroke-linejoin="round"/>
<path d="M491.09 247.545C483.971 279.58 476.831 303.546 469.672 319.443C458.934 343.288 457.473 376.488 458.203 384.352" stroke="#03156D" stroke-width="1.54497" stroke-linecap="round" stroke-linejoin="round"/>
<path d="M475.241 305.124C485.873 300.397 494.135 296.227 500.028 292.614" stroke="#03156D" stroke-width="1.54497" stroke-linecap="round" stroke-linejoin="round"/>
<path d="M472.819 312.153C481.469 308.35 488.366 305.077 493.511 302.333" stroke="#03156D" stroke-width="1.54497" stroke-linecap="round" stroke-linejoin="round"/>
<path d="M445.157 332.958C452.894 345.963 457.781 353.566 459.817 355.767" stroke="#03156D" stroke-width="1.54497" stroke-linecap="round" stroke-linejoin="round"/>
<path fill-rule="evenodd" clip-rule="evenodd" d="M391.026 384.382H446.994C457.519 360.224 460.943 344.499 457.267 337.208C453.591 329.917 445.447 337.12 432.837 358.815C422.771 318.283 414.06 298.468 406.704 299.369C399.348 300.271 397.307 320.086 400.582 358.815C388.751 343.23 380.333 336.028 375.328 337.208C370.322 338.388 375.555 354.113 391.026 384.382Z" fill="#03156D" stroke="#03156D" stroke-width="1.54497" stroke-linecap="round" stroke-linejoin="round"/>
<path d="M410.099 323.57C414.794 348.729 418.076 368.099 419.947 381.679" stroke="white" stroke-width="1.54497" stroke-linecap="round" stroke-linejoin="round"/>
<path d="M435.079 381.68L449.984 348.983" stroke="white" stroke-width="1.54497" stroke-linecap="round" stroke-linejoin="round"/>
<path d="M402.913 381.68L382.836 348.983" stroke="white" stroke-width="1.54497" stroke-linecap="round" stroke-linejoin="round"/>
<path d="M416.093 356.788L423.623 341.251" stroke="white" stroke-width="1.54497" stroke-linecap="round" stroke-linejoin="round"/>
<path d="M192.884 25.6704H133.913V84.0366H192.884V25.6704Z" fill="white" stroke="#03156D" stroke-width="1.54497" stroke-linecap="round" stroke-linejoin="round"/>
<path d="M133.913 84.0366L192.884 25.6704" stroke="#03156D" stroke-width="1.54497" stroke-linecap="round" stroke-linejoin="round"/>
<path d="M133.913 25.6704L192.884 84.0366" stroke="#03156D" stroke-width="1.54497" stroke-linecap="round" stroke-linejoin="round"/>
<path d="M377.443 129.973C398.251 129.973 415.119 113.278 415.119 92.6833C415.119 72.0889 398.251 55.3938 377.443 55.3938C356.635 55.3938 339.767 72.0889 339.767 92.6833C339.767 113.278 356.635 129.973 377.443 129.973Z" fill="#F4D1B4"/>
<path fill-rule="evenodd" clip-rule="evenodd" d="M19.7179 266.545L16.6705 282.009L4.49706 271.161L19.7179 266.545Z" fill="#F4D1B4"/>
<path d="M323.659 47.2874H301.817V68.9044H323.659V47.2874Z" fill="#F4D1B4"/>
<path d="M15.1508 183.745H1.5V197.256H15.1508V183.745Z" fill="white" stroke="#03156D" stroke-width="1.54497" stroke-linecap="round"/>
<path d="M288.167 27.0212H277.246V37.8298H288.167V27.0212Z" fill="white" stroke="#03156D" stroke-width="1.54497" stroke-linecap="round"/>
<path d="M499.754 171.586C505.031 171.586 509.31 167.351 509.31 162.128C509.31 156.905 505.031 152.671 499.754 152.671C494.477 152.671 490.198 156.905 490.198 162.128C490.198 167.351 494.477 171.586 499.754 171.586Z" fill="white" stroke="#03156D" stroke-width="1.54497" stroke-linecap="round"/>
<path d="M512.04 187.799C515.055 187.799 517.5 185.379 517.5 182.394C517.5 179.41 515.055 176.99 512.04 176.99C509.024 176.99 506.579 179.41 506.579 182.394C506.579 185.379 509.024 187.799 512.04 187.799Z" fill="#F4D1B4"/>
<path d="M103.198 12.1596C106.591 12.1596 109.341 9.43759 109.341 6.07981C109.341 2.72202 106.591 0 103.198 0C99.8058 0 97.0555 2.72202 97.0555 6.07981C97.0555 9.43759 99.8058 12.1596 103.198 12.1596Z" fill="#F4D1B4"/>
<path fill-rule="evenodd" clip-rule="evenodd" d="M441.764 220.192C448.026 208.621 452.125 202.342 454.059 201.354C456.962 199.873 455.513 208.023 450.352 216.92C446.912 222.851 444.049 223.942 441.764 220.192Z" fill="white" stroke="#03156D" stroke-width="1.54497" stroke-linecap="round" stroke-linejoin="round"/>
<path fill-rule="evenodd" clip-rule="evenodd" d="M354.021 303.059C360.867 320.182 370.113 328.744 381.758 328.744C399.225 328.744 411.152 305.714 419.905 286.217C428.658 266.72 439.943 243.096 443.99 240.808C448.036 238.519 462.545 231.513 466.725 227.709C469.512 225.174 474.666 218.087 482.188 206.451C490.301 198.355 494.358 193.191 494.358 190.958C494.358 188.725 485.683 194.759 468.334 209.061C473.051 201.141 475.41 195.631 475.41 192.531C475.41 187.88 469.734 197.04 461.075 207.45C452.415 217.861 439.98 216.722 433.841 224.239C427.701 231.756 428.864 235.176 419.905 245.173C413.932 251.838 403.631 263.804 389.001 281.07L354.021 303.059Z" fill="white" stroke="#03156D" stroke-width="1.54497" stroke-linecap="round" stroke-linejoin="round"/>
<path fill-rule="evenodd" clip-rule="evenodd" d="M211.238 285.069C186.539 280.05 171.529 277.54 166.21 277.54C160.89 277.54 139.506 277.54 102.057 277.54C103.284 280.05 106.615 281.304 112.051 281.304C120.204 281.304 136.813 287.014 141.961 288.958C147.108 290.902 158.73 286.856 166.21 288.958C173.69 291.06 209.717 314.812 222.813 320.342C231.544 324.029 238.862 321.89 244.768 313.924L247.181 294.571L211.238 285.069Z" fill="white" stroke="#03156D" stroke-width="1.54497" stroke-linecap="round" stroke-linejoin="round"/>
<path fill-rule="evenodd" clip-rule="evenodd" d="M277.41 167.304C281.445 184.51 280.445 194.767 274.408 198.074C265.353 203.035 256.082 188.198 241.602 190.608C227.123 193.018 219.595 214.057 212.49 235.214C207.754 249.318 202.963 263.113 198.119 276.6C208.249 289.288 222.744 296.635 241.602 298.642C241.602 316.487 239.133 337.447 236.094 353.991C233.056 370.534 233.451 373.811 248.109 380.265C262.768 386.718 281.256 384.942 293.997 381.724C302.491 379.579 310.87 378.422 319.135 378.251C334.526 382.439 344.804 384.977 349.969 385.866C357.717 387.198 363.711 378.339 363.711 372.728C363.711 368.987 360.481 346.989 354.021 306.734C365.512 304.437 372.788 302.23 375.85 300.113C378.911 297.996 383.295 291.648 389.001 281.07C382.839 268.475 377.084 254.49 371.734 239.116C363.711 216.054 355.812 203.672 343.69 199.573C331.568 195.475 302.996 205.184 305.929 169.528C307.884 145.757 298.378 145.016 277.41 167.304Z" fill="#03156D" stroke="#03156D" stroke-width="1.54497" stroke-linecap="round" stroke-linejoin="round"/>
<path fill-rule="evenodd" clip-rule="evenodd" d="M277.41 167.304L278.654 165.995C298.343 145.482 307.469 146.194 306.033 168.129L305.929 169.528C304.446 187.564 311.023 193.993 319.456 196.472C316.445 210.864 310.049 218.059 300.265 218.059C289.431 218.059 279.981 211.694 271.915 198.964C272.752 198.815 273.581 198.527 274.408 198.074C280.445 194.767 281.445 184.51 277.41 167.304Z" fill="white" stroke="#03156D" stroke-width="1.54497" stroke-linecap="round" stroke-linejoin="round"/>
<path fill-rule="evenodd" clip-rule="evenodd" d="M306.033 168.129L305.929 169.528C305.239 177.919 306.294 183.798 308.468 187.936C298.256 189.61 289.252 186.125 281.455 177.481L278.429 172.046C278.135 170.531 277.796 168.949 277.41 167.304L278.654 165.995C298.343 145.482 307.469 146.194 306.033 168.129Z" fill="#03156D" stroke="#03156D" stroke-width="1.54497" stroke-linecap="round" stroke-linejoin="round"/>
<path fill-rule="evenodd" clip-rule="evenodd" d="M258.054 128.178C253.999 127.386 252.149 131.543 253.999 137.202C255.042 140.392 258.275 144.058 262.024 145.605C264.925 146.802 268.436 146.653 269.583 144.517C271.337 141.253 270.093 135.543 265.853 127.386C262.487 126.396 259.888 126.659 258.054 128.178Z" fill="white" stroke="#03156D" stroke-width="1.54497" stroke-linecap="round" stroke-linejoin="round"/>
<path fill-rule="evenodd" clip-rule="evenodd" d="M321.653 125.874C324.642 126.203 325.865 128.615 325.323 133.111C324.51 139.854 317.831 144.772 312.933 143.929C309.668 143.367 308.367 141.517 309.029 138.378L314.633 123.72L321.653 125.874Z" fill="white" stroke="#03156D" stroke-width="1.54497" stroke-linecap="round" stroke-linejoin="round"/>
<path fill-rule="evenodd" clip-rule="evenodd" d="M265.638 136.897C270.213 155.123 273.438 166.635 275.31 171.432C278.119 178.626 284.176 183.406 293.558 182.198C302.939 180.99 305.717 174.345 306.95 171.432C307.773 169.489 310.936 152.044 316.44 119.096L315.532 106.727L289.572 96.8577L262.024 99.5773L265.638 136.897Z" fill="white" stroke="#03156D" stroke-width="1.54497" stroke-linecap="round" stroke-linejoin="round"/>
<path fill-rule="evenodd" clip-rule="evenodd" d="M315.464 98.9795C320.321 99.1899 323.398 101.35 324.694 105.461C326.638 111.626 323.635 122.387 321.653 125.874L320.412 126.34L319.983 126.514C318.215 127.263 316.714 128.347 314.309 132.219C311.087 129.822 310.28 124.257 311.584 118.391C307.448 119.455 305.674 117.229 306.262 111.715C295.734 110.538 286.768 120.556 276.261 105.373C277.78 109.62 280.071 112.692 283.134 114.587C278.552 113.399 273.491 110.641 267.951 106.312L268.55 107.308L268.977 107.987C270.962 111.066 273.828 114.405 279.839 116.676C275.841 117.121 271.561 117.161 267.002 116.796C267.911 119.813 268.366 123.281 268.366 127.201C268.366 131.12 267.457 134.352 265.638 136.897C264.378 131.943 261.85 129.037 258.054 128.178C256.382 124.893 254.878 119.013 253.541 110.538L252.945 110.281C244.942 106.705 242.599 100.508 241.602 97.5572C244.813 101.634 247.79 104.562 250.533 106.34C246.93 100.408 245.587 93.8807 246.502 86.7564C264.989 92.7251 274.353 88.3505 291.191 86.7564C302.417 85.6937 310.508 89.7681 315.464 98.9795Z" fill="#03156D"/>
<path d="M287.411 144.023L284.617 156.175L289.232 157.492" stroke="#03156D" stroke-width="1.54497" stroke-linecap="round" stroke-linejoin="round"/>
<path fill-rule="evenodd" clip-rule="evenodd" d="M281.455 162.788C284.307 163.514 287.391 163.756 290.706 163.514C294.021 163.272 297.208 162.359 300.265 160.774C300.265 169.014 297.668 173.356 292.473 173.798C287.279 174.241 283.606 170.571 281.455 162.788Z" fill="#03156D" stroke="#03156D" stroke-width="1.54497" stroke-linecap="round" stroke-linejoin="round"/>
<path fill-rule="evenodd" clip-rule="evenodd" d="M277.111 137.647C278.604 137.647 279.814 135.651 279.814 133.188C279.814 130.726 278.604 128.73 277.111 128.73C275.618 128.73 274.408 130.726 274.408 133.188C274.408 135.651 275.618 137.647 277.111 137.647Z" fill="#03156D" stroke="#03156D" stroke-width="1.54497" stroke-linecap="round"/>
<path fill-rule="evenodd" clip-rule="evenodd" d="M301.735 137.647C303.228 137.647 304.438 135.651 304.438 133.188C304.438 130.726 303.228 128.73 301.735 128.73C300.243 128.73 299.033 130.726 299.033 133.188C299.033 135.651 300.243 137.647 301.735 137.647Z" fill="#03156D" stroke="#03156D" stroke-width="1.54497" stroke-linecap="round"/>
<path d="M271.796 126.8C273.945 123.729 277.165 122.194 281.455 122.194" stroke="#03156D" stroke-width="1.54497" stroke-linecap="round"/>
<path d="M297.055 122.194C301.977 121.761 305.316 123.296 307.072 126.799" stroke="#03156D" stroke-width="1.54497" stroke-linecap="round"/>
<path d="M277.41 146.564C281.39 146.564 284.617 143.37 284.617 139.43C284.617 135.49 281.39 132.297 277.41 132.297C273.429 132.297 270.202 135.49 270.202 139.43C270.202 143.37 273.429 146.564 277.41 146.564Z" stroke="#03156D" stroke-width="1.54497" stroke-linecap="round"/>
<path d="M300.834 146.564C304.815 146.564 308.042 143.37 308.042 139.43C308.042 135.49 304.815 132.297 300.834 132.297C296.854 132.297 293.627 135.49 293.627 139.43C293.627 143.37 296.854 146.564 300.834 146.564Z" stroke="#03156D" stroke-width="1.54497" stroke-linecap="round"/>
<path d="M265.353 134.713L270.202 139.43" stroke="#03156D" stroke-width="1.54497" stroke-linecap="round"/>
<path d="M284.617 139.43C287.528 137.456 290.532 137.456 293.627 139.43" stroke="#03156D" stroke-width="1.54497" stroke-linecap="round"/>
<path d="M308.042 139.43L314.091 132.297" stroke="#03156D" stroke-width="1.54497" stroke-linecap="round"/>
<path d="M241.445 293.182C238.647 261.199 237.248 238.397 237.248 224.775" stroke="white" stroke-width="1.54497" stroke-linecap="round"/>
<path d="M205.647 268.563C216.2 275.248 227.644 278.755 239.979 279.086" stroke="white" stroke-width="1.54497" stroke-linecap="round"/>
<path d="M354.021 306.734L342.667 226.706" stroke="white" stroke-width="1.54497" stroke-linecap="round"/>
<path d="M358.961 291.252C369.925 289.531 378.764 283.721 385.478 273.824" stroke="white" stroke-width="1.54497" stroke-linecap="round"/>
<path d="M191.819 272.19H162.989C161.496 272.19 160.286 273.388 160.286 274.865C160.286 276.342 161.496 277.54 162.989 277.54H191.819C193.312 277.54 194.522 276.342 194.522 274.865C194.522 273.388 193.312 272.19 191.819 272.19Z" fill="white" stroke="#03156D" stroke-width="1.54497" stroke-linecap="round" stroke-linejoin="round"/>
<path fill-rule="evenodd" clip-rule="evenodd" d="M33.6249 195.503H144.652C148.548 195.503 152.003 197.982 153.215 201.647L178.305 277.54H62.3073C58.411 277.54 54.9562 275.061 53.7445 271.396L30.1998 200.179C29.5808 198.307 30.6126 196.293 32.5042 195.68C32.866 195.563 33.2443 195.503 33.6249 195.503Z" fill="white" stroke="#03156D" stroke-width="1.54497" stroke-linecap="round" stroke-linejoin="round"/>
<path fill-rule="evenodd" clip-rule="evenodd" d="M28.3123 195.503H139.339C143.236 195.503 146.69 197.982 147.902 201.647L172.993 277.54H56.9947C53.0984 277.54 49.6436 275.061 48.4319 271.396L24.8872 200.179C24.2682 198.307 25.2999 196.293 27.1916 195.68C27.5534 195.563 27.9316 195.503 28.3123 195.503Z" fill="#03156D" stroke="#03156D" stroke-width="1.54497" stroke-linecap="round" stroke-linejoin="round"/>
<path d="M482.188 206.45L465.668 220.192" stroke="#03156D" stroke-width="1.54497" stroke-linecap="round" stroke-linejoin="round"/>
<path d="M462.181 218.018L468.334 209.061" stroke="#03156D" stroke-width="1.54497" stroke-linecap="round" stroke-linejoin="round"/>
<path d="M328.192 375.609C342.118 373.767 350.727 372.845 354.021 372.845" stroke="white" stroke-width="1.85397" stroke-linecap="round"/>
<path d="M259.905 204.328C273.18 221.855 287.525 230.618 302.939 230.618C318.354 230.618 326.061 221.855 326.061 204.328" stroke="white" stroke-width="1.54497" stroke-linecap="round"/>
</svg>
