<svg width="468" height="388" viewBox="0 0 468 388" fill="none" xmlns="http://www.w3.org/2000/svg">
<path fill-rule="evenodd" clip-rule="evenodd" d="M150.325 360.263C93.2585 350.465 59.3345 322.393 48.5527 276.048C32.3801 206.53 99.5346 172.653 177.705 182.329C255.876 192.005 251.539 165.175 241.79 147.499C232.042 129.824 198.605 62.1263 266.951 67.6415C335.297 73.1567 460.307 135.411 444.321 245.798C433.664 319.39 335.665 357.545 150.325 360.263Z" fill="#C3EAFE"/>
<path fill-rule="evenodd" clip-rule="evenodd" d="M103.638 140.687L101.088 153.762L90.9013 144.59L103.638 140.687Z" fill="#C3EAFE"/>
<path d="M166.071 72.9658H147.794V91.2429H166.071V72.9658Z" fill="#C3EAFE"/>
<path d="M57.5511 179.201H44.9856V191.767H57.5511V179.201Z" fill="white" stroke="#03156D" stroke-width="1.3054" stroke-linecap="round"/>
<path d="M180.921 100.382H171.783V109.52H180.921V100.382Z" fill="white" stroke="#03156D" stroke-width="1.3054" stroke-linecap="round"/>
<path d="M466.5 175.774H457.361V184.913H466.5V175.774Z" fill="white" stroke="#03156D" stroke-width="1.3054" stroke-linecap="round"/>
<path d="M147.794 168.92C150.317 168.92 152.363 166.875 152.363 164.351C152.363 161.827 150.317 159.782 147.794 159.782C145.27 159.782 143.225 161.827 143.225 164.351C143.225 166.875 145.27 168.92 147.794 168.92Z" fill="white" stroke="#03156D" stroke-width="1.3054" stroke-linecap="round"/>
<path d="M244.891 44.4078C247.414 44.4078 249.46 42.3621 249.46 39.8386C249.46 37.315 247.414 35.2693 244.891 35.2693C242.367 35.2693 240.321 37.315 240.321 39.8386C240.321 42.3621 242.367 44.4078 244.891 44.4078Z" fill="#C3EAFE"/>
<path d="M458.504 1H300.864C296.448 1 292.868 4.58003 292.868 8.99621V101.524C292.868 105.94 296.448 109.52 300.864 109.52H458.504C462.92 109.52 466.5 105.94 466.5 101.524V8.99621C466.5 4.58003 462.92 1 458.504 1Z" fill="white" stroke="#03156D" stroke-width="1.3054" stroke-linecap="round" stroke-linejoin="round"/>
<path fill-rule="evenodd" clip-rule="evenodd" d="M265.452 26.1309H375.654V43.2656H265.452V26.1309Z" fill="white" stroke="#03156D" stroke-width="1.3054" stroke-linecap="round" stroke-linejoin="round"/>
<path fill-rule="evenodd" clip-rule="evenodd" d="M375.654 43.2656L292.868 51.6616V43.2656H375.654Z" fill="#03156D" stroke="#03156D" stroke-width="1.3054" stroke-linecap="round" stroke-linejoin="round"/>
<path d="M322.568 74.1084H448.356" stroke="#03156D" stroke-width="1.3054" stroke-linecap="round" stroke-linejoin="round"/>
<path d="M322.569 85.5315H448.233" stroke="#03156D" stroke-width="1.3054" stroke-linecap="round" stroke-linejoin="round"/>
<path d="M448.223 20.4194H399.104V56.9735H448.223V20.4194Z" fill="#03156D" stroke="#03156D" stroke-width="1.3054" stroke-linecap="round" stroke-linejoin="round"/>
<path fill-rule="evenodd" clip-rule="evenodd" d="M399.104 48.3266V56.9736H448.223V45.304L431.598 33.6914L419.665 44.2482L409.673 36.8728L399.104 48.3266Z" fill="white" stroke="#03156D" stroke-width="1.3054" stroke-linecap="round" stroke-linejoin="round"/>
<path d="M419.665 36.4115C422.189 36.4115 424.234 34.3657 424.234 31.8422C424.234 29.3187 422.189 27.2729 419.665 27.2729C417.142 27.2729 415.096 29.3187 415.096 31.8422C415.096 34.3657 417.142 36.4115 419.665 36.4115Z" fill="white" stroke="#03156D" stroke-width="1.3054" stroke-linecap="round" stroke-linejoin="round"/>
<path d="M449.264 293.756C437.48 310.445 422.808 321.945 405.247 328.256" stroke="#03156D" stroke-width="1.3054" stroke-linecap="round" stroke-linejoin="round"/>
<path d="M448.738 297.684C444.769 295.748 443.12 290.961 445.056 286.992C446.992 283.022 451.779 281.374 455.748 283.31C459.718 285.246 461.366 290.033 459.43 294.002C457.494 297.971 452.707 299.62 448.738 297.684Z" fill="#C3EAFE"/>
<path d="M454.271 288.944C452.003 287.838 451.061 285.103 452.168 282.834C453.274 280.566 456.009 279.624 458.277 280.731C460.546 281.837 461.487 284.572 460.381 286.84C459.275 289.109 456.54 290.051 454.271 288.944Z" fill="#03156D" stroke="#03156D" stroke-width="1.3054" stroke-linecap="round" stroke-linejoin="round"/>
<path fill-rule="evenodd" clip-rule="evenodd" d="M433.135 311.554C435.831 307.376 435.811 303.217 433.073 299.079C429.988 304.472 430.008 308.631 433.135 311.554Z" fill="#03156D" stroke="#03156D" stroke-width="1.3054" stroke-linecap="round" stroke-linejoin="round"/>
<path fill-rule="evenodd" clip-rule="evenodd" d="M454.23 303.016C449.832 300.693 445.691 301.076 441.807 304.165C447.449 306.768 451.59 306.385 454.23 303.016Z" fill="#03156D" stroke="#03156D" stroke-width="1.3054" stroke-linecap="round" stroke-linejoin="round"/>
<path fill-rule="evenodd" clip-rule="evenodd" d="M384.719 337.414H411.074C419.768 330.551 423.116 323.158 421.12 315.234C418.125 303.349 415.221 300.402 423.796 294.663C432.372 288.923 431.165 277.646 421.12 271.816C411.074 265.987 431.752 261.639 429.817 247.828C428.628 239.337 417.381 237.581 409.225 242.343C404.115 245.327 400.481 252.284 400.481 257.358C400.481 270.53 399.5 270.492 391.271 275.1C383.042 279.708 385.324 288.532 390.091 294.663C394.859 300.794 385.756 306.723 380.457 316.781C376.924 323.486 378.345 330.364 384.719 337.414Z" fill="white" stroke="#03156D" stroke-width="1.3054" stroke-linecap="round" stroke-linejoin="round"/>
<path d="M417.619 248.658C403.563 275.272 396.535 304.858 396.535 337.414" stroke="#03156D" stroke-width="1.3054" stroke-linecap="round" stroke-linejoin="round"/>
<path d="M402.847 286.669L393.263 274.116" stroke="#03156D" stroke-width="1.3054" stroke-linecap="round" stroke-linejoin="round"/>
<path d="M401.84 290.711L393.263 280.393" stroke="#03156D" stroke-width="1.3054" stroke-linecap="round" stroke-linejoin="round"/>
<path d="M418.191 302.185L397.551 316.367" stroke="#03156D" stroke-width="1.3054" stroke-linecap="round" stroke-linejoin="round"/>
<path d="M418.864 306.785L397.219 321.375" stroke="#03156D" stroke-width="1.3054" stroke-linecap="round" stroke-linejoin="round"/>
<path fill-rule="evenodd" clip-rule="evenodd" d="M333.25 337.414H386.938C395.745 316.989 398.611 303.694 395.535 297.53C392.458 291.365 385.644 297.455 375.091 315.798C366.668 281.529 359.379 264.775 353.223 265.537C347.067 266.3 345.359 283.053 348.1 315.798C338.2 302.621 331.155 296.532 326.967 297.53C322.778 298.528 324.873 311.823 333.25 337.414Z" fill="#03156D" stroke="#03156D" stroke-width="1.3054" stroke-linecap="round" stroke-linejoin="round"/>
<path d="M356.064 285.998C359.992 307.27 362.739 323.647 364.304 335.129" stroke="white" stroke-width="1.3054" stroke-linecap="round" stroke-linejoin="round"/>
<path d="M376.967 335.129L389.44 307.485" stroke="white" stroke-width="1.3054" stroke-linecap="round" stroke-linejoin="round"/>
<path d="M350.05 335.129L333.249 307.485" stroke="white" stroke-width="1.3054" stroke-linecap="round" stroke-linejoin="round"/>
<path d="M361.08 314.084L367.381 300.948" stroke="white" stroke-width="1.3054" stroke-linecap="round" stroke-linejoin="round"/>
<path d="M46.1924 359.999C29.3175 338.747 20.4781 317.054 19.6743 294.921" stroke="#03156D" stroke-width="1.3054" stroke-linecap="round"/>
<path fill-rule="evenodd" clip-rule="evenodd" d="M36.617 302.073C28.0607 304.493 23.8697 309.919 24.0439 318.351C31.6378 318.474 35.8289 313.047 36.617 302.073Z" fill="#03156D" stroke="#03156D" stroke-width="1.3054" stroke-linecap="round" stroke-linejoin="round"/>
<path d="M19.0962 300.416C12.5839 299.617 7.95284 293.689 8.75245 287.177C9.55205 280.665 15.4795 276.034 21.9918 276.833C28.5041 277.633 33.1351 283.56 32.3355 290.073C31.5359 296.585 25.6084 301.216 19.0962 300.416Z" fill="#C3EAFE"/>
<path d="M21.0872 284.203C18.6451 283.903 16.9084 281.68 17.2083 279.238C17.5081 276.796 19.7309 275.06 22.173 275.359C24.6151 275.659 26.3518 277.882 26.0519 280.324C25.7521 282.766 23.5293 284.503 21.0872 284.203Z" fill="#03156D" stroke="#03156D" stroke-width="1.3054" stroke-linecap="round" stroke-linejoin="round"/>
<path fill-rule="evenodd" clip-rule="evenodd" d="M63.9323 358.979H148.326C160.28 303.164 162.477 273.832 154.916 270.982C147.355 268.133 137.176 288.661 124.377 332.566C111.117 284.807 99.3664 256.694 89.1244 248.227C78.8823 239.759 77.0922 266.803 83.7541 329.358C64.0769 305.412 51.4452 296.473 45.859 302.541C40.2728 308.608 46.2973 327.421 63.9323 358.979Z" fill="white" stroke="#03156D" stroke-width="1.3054" stroke-linecap="round"/>
<path d="M83.7104 358.733C72.5283 340.328 62.7119 326.361 54.2614 316.833" stroke="#03156D" stroke-width="1.3054" stroke-linecap="round"/>
<path d="M90.828 271.979C99.5498 310.569 103.911 339.487 103.911 358.733" stroke="#03156D" stroke-width="1.3054" stroke-linecap="round"/>
<path d="M100.694 323.217C104.459 313.016 107.027 304.482 108.397 297.617" stroke="#03156D" stroke-width="1.3054" stroke-linecap="round"/>
<path d="M148.745 292.736C143.551 325.997 138.394 347.995 133.275 358.732" stroke="#03156D" stroke-width="1.3054" stroke-linecap="round"/>
<path d="M140.972 334.894C146.876 329.98 150.588 326.087 152.11 323.217" stroke="#03156D" stroke-width="1.3054" stroke-linecap="round"/>
<path d="M92.775 303.257C98.0541 326.177 100.694 344.669 100.694 358.733" stroke="#03156D" stroke-width="1.3054" stroke-linecap="round"/>
<path fill-rule="evenodd" clip-rule="evenodd" d="M314.245 214.027L351.069 137.26C353.352 132.501 358.162 129.473 363.44 129.473H457.989C460.154 129.473 461.909 131.228 461.909 133.394C461.909 134.009 461.764 134.616 461.486 135.166L422.487 212.124C420.15 216.736 415.418 219.643 410.248 219.643H317.779C315.614 219.643 313.859 217.888 313.859 215.723C313.859 215.136 313.991 214.556 314.245 214.027Z" fill="white" stroke="#03156D" stroke-width="1.3054" stroke-linecap="round" stroke-linejoin="round"/>
<path fill-rule="evenodd" clip-rule="evenodd" d="M382.761 163.075L396.389 182.539L386.348 204.073L362.678 206.143L349.05 186.68L359.091 165.146L382.761 163.075Z" fill="white" stroke="#03156D" stroke-width="1.3054" stroke-linecap="round" stroke-linejoin="round"/>
<path fill-rule="evenodd" clip-rule="evenodd" d="M372.72 184.609L362.678 206.143L349.05 186.68L359.091 165.146L372.72 184.609Z" fill="#03156D" stroke="#03156D" stroke-width="1.3054" stroke-linecap="round" stroke-linejoin="round"/>
<path fill-rule="evenodd" clip-rule="evenodd" d="M362.678 206.143L372.719 184.609L396.389 182.538L386.348 204.072L362.678 206.143Z" fill="white" stroke="#03156D" stroke-width="1.3054" stroke-linecap="round" stroke-linejoin="round"/>
<path fill-rule="evenodd" clip-rule="evenodd" d="M269.65 171.442L288.072 133.058C289.214 130.679 291.619 129.166 294.257 129.166H341.559C342.642 129.166 343.52 130.043 343.52 131.126C343.52 131.434 343.447 131.737 343.308 132.012L323.798 170.492C322.629 172.798 320.264 174.25 317.679 174.25H271.418C270.335 174.25 269.458 173.373 269.458 172.29C269.458 171.997 269.523 171.707 269.65 171.442Z" fill="#03156D" stroke="#03156D" stroke-width="1.3054" stroke-linecap="round" stroke-linejoin="round"/>
<path fill-rule="evenodd" clip-rule="evenodd" d="M271.236 293.071L281.694 309.605C290.206 292.219 297.253 278.737 302.835 269.159C311.207 254.791 314.175 250.72 316.335 240.313C318.494 229.907 321.13 220.273 323.723 217.861C325.453 216.253 331.351 214.428 341.418 212.385C352.552 198.655 358.899 191.79 360.457 191.79C362.796 191.79 360.317 200.167 356.503 205.103C352.688 210.038 347.267 218.844 347.267 224.689C347.267 230.534 353.408 221.15 357.739 217.861C362.07 214.571 361.904 218.624 357.739 224.689C353.573 230.754 349.298 240.655 345.942 243.314C342.586 245.972 333.242 252.778 328.483 267.451C323.723 282.123 309.79 323.121 300.916 334.39C292.042 345.658 290.812 347.71 286.253 347.71C281.694 347.71 266.743 341.199 257.173 327.905C250.794 319.042 255.481 307.431 271.236 293.071Z" fill="white" stroke="#03156D" stroke-width="1.3054" stroke-linecap="round" stroke-linejoin="round"/>
<path fill-rule="evenodd" clip-rule="evenodd" d="M171.069 370.335V366.433L271.535 323.227L337.299 335.511V339.414L243.876 386.905L171.069 370.335Z" fill="white" stroke="#03156D" stroke-width="1.3054" stroke-linecap="round" stroke-linejoin="round"/>
<path fill-rule="evenodd" clip-rule="evenodd" d="M171.069 366.432L271.535 319.324L337.299 335.511L243.876 383.002L171.069 366.432Z" fill="white" stroke="#03156D" stroke-width="1.3054" stroke-linecap="round" stroke-linejoin="round"/>
<path fill-rule="evenodd" clip-rule="evenodd" d="M202.2 358.825L270.859 328.216L300.713 335.549L238.87 367.915L202.2 358.825Z" fill="#03156D" stroke="#03156D" stroke-width="1.3054" stroke-linecap="round" stroke-linejoin="round"/>
<path fill-rule="evenodd" clip-rule="evenodd" d="M189.638 179.06C188.741 198.436 184.768 209.382 177.72 211.896C167.148 215.668 158.68 214.361 149.343 215.577C140.007 216.793 131.235 227.994 125.883 246.256C120.53 264.518 115.546 322.418 115.546 325.602C115.546 328.787 121.56 334.89 137.101 337.876C141.031 353.258 150.489 366.474 164.105 364.456C173.182 363.11 185.465 358.873 200.955 351.745L255.968 326.614L254.866 321.799C261.948 317.558 267.078 312.985 270.256 308.08C275.024 300.722 278.872 293.881 274.564 290.891C270.256 287.901 259.063 264.96 254.499 252.175C249.935 239.39 239.616 223.882 227.007 219.729C214.397 215.577 212.635 216.877 214.397 211.896C215.571 208.576 207.318 197.63 189.638 179.06Z" fill="#03156D" stroke="#03156D" stroke-width="1.3054" stroke-linecap="round" stroke-linejoin="round"/>
<path fill-rule="evenodd" clip-rule="evenodd" d="M189.638 179.06L191.859 181.405C208.008 198.554 215.521 208.718 214.397 211.896C213.892 213.323 213.677 214.234 213.922 214.906C212.975 218.799 217.028 222.447 218.514 228.967C220.445 237.438 206.654 237.344 194.47 228.027L189.789 224.361C184.298 220.074 179.285 216.233 174.749 212.839C175.722 212.57 176.711 212.256 177.72 211.896C184.768 209.382 188.741 198.436 189.638 179.06Z" fill="white" stroke="#03156D" stroke-width="1.3054" stroke-linecap="round" stroke-linejoin="round"/>
<path fill-rule="evenodd" clip-rule="evenodd" d="M214.397 211.896C213.892 213.323 213.677 214.234 213.922 214.906C213.041 218.528 216.488 221.938 218.169 227.647C202.564 223.363 195.039 209.284 195.592 185.414L198.209 188.281C209.966 201.297 215.362 209.169 214.397 211.896Z" fill="#03156D" stroke="#03156D" stroke-width="1.3054" stroke-linecap="round" stroke-linejoin="round"/>
<path fill-rule="evenodd" clip-rule="evenodd" d="M189.638 179.059C195.592 194.189 201.078 204.177 206.098 209.023C213.627 216.292 228.627 214.656 230.951 199.736C232.499 189.79 231.499 170.536 227.949 141.976C227.955 139.925 228.071 138.604 228.296 138.01C231.9 128.509 233.388 124.7 231.276 124.231C230.219 123.996 212.076 120.181 211.108 119.895C209.482 119.414 222.687 133.961 207.774 137.099C199.117 134.071 193.724 135.617 191.595 141.738C193.56 144.436 194.16 146.53 193.395 148.018C192.63 149.506 190.667 150.25 187.506 150.25C190.796 158.451 191.356 163.448 189.188 165.241C185.936 167.931 184.609 162.322 179 161.475C173.392 160.628 169.638 167.827 174.63 174.879C177.959 179.58 182.961 180.974 189.638 179.059Z" fill="white" stroke="#03156D" stroke-width="1.3054" stroke-linecap="round" stroke-linejoin="round"/>
<path fill-rule="evenodd" clip-rule="evenodd" d="M199.105 115.938C212.08 113.259 223.44 123.723 235.338 116.463C239.038 120.945 240.462 126.065 239.716 130.573C241.703 128.176 243.41 125.581 244.838 122.79L244.676 123.703C243.344 137.026 232.301 140.895 228.544 141.836L227.949 141.975C225.508 141.854 223.215 141.649 221.067 141.361C224.146 139.365 226.366 136.133 227.728 131.666L227.938 130.925L227.523 131.55C223.707 137.116 219.454 139.512 214.765 138.739C217.686 135.207 218.984 131.652 218.656 128.072L218.391 128.983L218.165 129.703L217.921 130.405C216.756 133.57 214.586 136.792 208.295 138.17L207.941 138.046C199.285 135.018 193.836 136.249 191.595 141.738C193.56 144.436 194.16 146.529 193.395 148.018C192.63 149.506 190.667 150.25 187.506 150.249C190.795 158.451 191.356 163.448 189.188 165.241C185.935 167.93 184.609 162.322 179 161.475C178.244 161.361 177.522 161.393 176.851 161.551C174.483 155.571 173.018 149.662 172.454 143.824C171.744 136.466 174.275 132.631 180.047 132.317C184.102 123.183 190.455 117.723 199.105 115.938Z" fill="#03156D"/>
<path d="M202.514 163.731C203.83 163.354 204.438 161.447 203.872 159.472C203.306 157.498 201.78 156.203 200.463 156.581C199.147 156.958 198.539 158.865 199.105 160.839C199.671 162.814 201.197 164.108 202.514 163.731Z" fill="#03156D" stroke="#03156D" stroke-width="1.3054" stroke-linecap="round"/>
<path d="M224.076 160.08C225.435 159.913 226.334 158.125 226.083 156.086C225.833 154.048 224.528 152.53 223.169 152.697C221.81 152.864 220.911 154.652 221.162 156.691C221.412 158.729 222.717 160.247 224.076 160.08Z" fill="#03156D" stroke="#03156D" stroke-width="1.3054" stroke-linecap="round"/>
<path d="M205.247 173.265C209.196 172.132 211.48 168.013 210.347 164.064C209.215 160.115 205.096 157.832 201.147 158.964C197.198 160.096 194.915 164.216 196.047 168.165C197.179 172.114 201.298 174.397 205.247 173.265Z" stroke="#03156D" stroke-width="1.3054" stroke-linecap="round"/>
<path d="M229.765 168.814C233.714 167.682 235.997 163.562 234.865 159.613C233.733 155.664 229.613 153.381 225.665 154.513C221.716 155.646 219.432 159.765 220.565 163.714C221.697 167.663 225.816 169.946 229.765 168.814Z" stroke="#03156D" stroke-width="1.3054" stroke-linecap="round"/>
<path fill-rule="evenodd" clip-rule="evenodd" d="M220.736 182.329L226.018 178.866L217.621 167.453" fill="white"/>
<path d="M220.736 182.329L226.018 178.866L217.621 167.453" stroke="#03156D" stroke-width="1.3054" stroke-linecap="round" stroke-linejoin="round"/>
<path d="M187.219 164.251L195.637 166.737" stroke="#03156D" stroke-width="1.3054" stroke-linecap="round"/>
<path fill-rule="evenodd" clip-rule="evenodd" d="M210.347 164.064C214.031 161.434 217.321 160.912 220.216 162.498L210.347 164.064Z" fill="white"/>
<path d="M210.347 164.064C214.031 161.434 217.321 160.912 220.216 162.498" stroke="#03156D" stroke-width="1.3054" stroke-linecap="round"/>
<path fill-rule="evenodd" clip-rule="evenodd" d="M194.746 154.368C196.283 151.187 199.349 148.938 203.943 147.62L194.746 154.368Z" fill="white"/>
<path d="M194.746 154.368C196.283 151.187 199.349 148.938 203.943 147.62" stroke="#03156D" stroke-width="1.3054" stroke-linecap="round"/>
<path fill-rule="evenodd" clip-rule="evenodd" d="M217.435 145.807C220.962 145.295 223.894 146.423 226.232 149.192L217.435 145.807Z" fill="white"/>
<path d="M217.435 145.807C220.962 145.295 223.894 146.423 226.232 149.192" stroke="#03156D" stroke-width="1.3054" stroke-linecap="round"/>
<path fill-rule="evenodd" clip-rule="evenodd" d="M225.716 189.447C219.478 190.619 214.467 190.817 210.685 190.041C211.737 195.868 216.384 199.787 221.049 197.852C224.159 196.563 225.715 193.761 225.716 189.447Z" fill="#03156D" stroke="#03156D" stroke-width="1.3054" stroke-linecap="round" stroke-linejoin="round"/>
<path fill-rule="evenodd" clip-rule="evenodd" d="M119.919 331.186C127.291 335.733 138.407 337.712 153.265 337.123C153.265 340.568 153.265 343.863 153.265 347.009C161.304 345.453 169.173 344.062 176.87 342.836C188.416 340.996 209.054 333.812 213.679 333.812C218.304 333.812 257.923 347.525 260.473 348.762C263.023 350 261.448 352.313 256.846 351.157C253.778 350.385 248.479 349.003 240.95 347.009C250.143 356.805 255.149 362.688 255.968 364.66C257.197 367.617 254.988 367.162 251.794 365.911C249.665 365.077 243.769 362.17 234.107 357.189C240.179 364.889 243.214 369.356 243.214 370.588C243.214 372.437 240.32 372.103 237.323 368.902C234.326 365.701 227.571 360.536 220.873 359.015C214.175 357.495 211.01 353.404 207.536 351.157C204.062 348.909 178.241 366.354 169.693 370.588C161.145 374.823 150.336 378.937 138.317 377.934C126.298 376.931 125.28 376.504 122.785 362.954C121.122 353.92 120.167 343.33 119.919 331.186Z" fill="white" stroke="#03156D" stroke-width="1.3054" stroke-linecap="round" stroke-linejoin="round"/>
<path d="M231.784 347.71L255.968 364.66" stroke="#03156D" stroke-width="1.3054" stroke-linecap="round" stroke-linejoin="round"/>
<path d="M158.376 335.511C163.862 333.502 166.606 331.445 166.606 329.339C166.606 326.18 166.093 247.493 156.139 232.26" stroke="white" stroke-width="1.3054" stroke-linecap="round"/>
<path d="M240.343 240.313C243.667 272.746 248.508 299.908 254.866 321.799" stroke="white" stroke-width="1.3054" stroke-linecap="round"/>
<path fill-rule="evenodd" clip-rule="evenodd" d="M243.876 383.002L283.924 297.504C284.473 296.332 285.393 295.373 286.542 294.778L374.072 249.392C375.033 248.894 376.216 249.269 376.714 250.23C376.996 250.773 377.008 251.416 376.746 251.969L337.299 335.511L243.876 383.002Z" fill="white" stroke="#03156D" stroke-width="1.3054" stroke-linecap="round" stroke-linejoin="round"/>
<path d="M168.576 219.643C187.532 237.695 202.805 246.72 214.397 246.72C225.988 246.72 228.467 238.543 221.834 222.189" stroke="white" stroke-width="1.3054" stroke-linecap="round"/>
</svg>
