<svg width="1246" height="488" viewBox="0 0 1246 488" fill="none" xmlns="http://www.w3.org/2000/svg">
<path d="M848.586 200H846.836V190.234H843.383V188.727H852.031V190.234H848.586V200ZM854.68 192.992C853.5 192.992 852.672 193.891 852.586 195.133H856.695C856.656 193.875 855.859 192.992 854.68 192.992ZM856.688 197.586H858.289C858.055 199.086 856.633 200.156 854.75 200.156C852.336 200.156 850.875 198.523 850.875 195.93C850.875 193.352 852.359 191.633 854.68 191.633C856.961 191.633 858.383 193.242 858.383 195.734V196.312H852.578V196.414C852.578 197.844 853.438 198.789 854.789 198.789C855.75 198.789 856.461 198.305 856.688 197.586ZM866.75 194.609H865.141C864.969 193.734 864.312 193.039 863.211 193.039C861.906 193.039 861.047 194.125 861.047 195.891C861.047 197.695 861.914 198.742 863.227 198.742C864.266 198.742 864.945 198.172 865.141 197.219H866.766C866.586 198.969 865.188 200.156 863.211 200.156C860.859 200.156 859.328 198.547 859.328 195.891C859.328 193.281 860.859 191.633 863.195 191.633C865.312 191.633 866.602 192.992 866.75 194.609ZM868.023 200V188.727H869.695V193.156H869.734C870.188 192.195 871.086 191.641 872.336 191.641C874.141 191.641 875.219 192.844 875.219 194.703V200H873.523V195.031C873.523 193.82 872.914 193.094 871.727 193.094C870.477 193.094 869.711 193.953 869.711 195.25V200H868.023ZM876.852 200V191.781H878.461V193.156H878.5C878.945 192.219 879.82 191.641 881.086 191.641C882.898 191.641 883.938 192.797 883.938 194.68V200H882.242V195.008C882.242 193.773 881.664 193.094 880.492 193.094C879.305 193.094 878.539 193.938 878.539 195.211V200H876.852ZM889.102 200.156C886.75 200.156 885.203 198.539 885.203 195.891C885.203 193.25 886.758 191.633 889.102 191.633C891.445 191.633 893 193.25 893 195.891C893 198.539 891.453 200.156 889.102 200.156ZM889.102 198.766C890.43 198.766 891.281 197.719 891.281 195.891C891.281 194.07 890.422 193.023 889.102 193.023C887.781 193.023 886.922 194.07 886.922 195.891C886.922 197.719 887.781 198.766 889.102 198.766ZM894.367 200V188.727H896.055V200H894.367ZM901.32 200.156C898.969 200.156 897.422 198.539 897.422 195.891C897.422 193.25 898.977 191.633 901.32 191.633C903.664 191.633 905.219 193.25 905.219 195.891C905.219 198.539 903.672 200.156 901.32 200.156ZM901.32 198.766C902.648 198.766 903.5 197.719 903.5 195.891C903.5 194.07 902.641 193.023 901.32 193.023C900 193.023 899.141 194.07 899.141 195.891C899.141 197.719 900 198.766 901.32 198.766ZM910.023 198.633C911.344 198.633 912.211 197.562 912.211 195.867C912.211 194.18 911.344 193.07 910.023 193.07C908.727 193.07 907.883 194.156 907.883 195.867C907.883 197.586 908.727 198.633 910.023 198.633ZM910.039 203.094C908.102 203.094 906.664 202.062 906.453 200.641H908.148C908.391 201.328 909.141 201.781 910.102 201.781C911.422 201.781 912.203 201.031 912.203 199.906V198.555H912.172C911.711 199.445 910.742 200.031 909.57 200.031C907.508 200.031 906.156 198.422 906.156 195.859C906.156 193.273 907.5 191.648 909.609 191.648C910.773 191.648 911.727 192.234 912.227 193.188H912.258V191.781H913.898V199.852C913.898 201.812 912.383 203.094 910.039 203.094ZM916.383 203.062C916.25 203.062 915.82 203.047 915.695 203.023V201.656C915.82 201.688 916.102 201.688 916.242 201.688C917.031 201.688 917.445 201.359 917.703 200.516C917.703 200.5 917.852 200.016 917.852 200.008L914.883 191.781H916.711L918.797 198.469H918.82L920.906 191.781H922.688L919.602 200.43C918.898 202.422 918.094 203.062 916.383 203.062Z" fill="#03156D"/>
<path d="M332.977 269.484V271H325.82V259.727H332.977V261.234H327.57V264.531H332.688V265.984H327.57V269.484H332.977ZM339.766 267.188H334.641V265.664H339.766V267.188ZM346.469 271.188C343.305 271.188 341.305 268.953 341.305 265.359C341.305 261.789 343.32 259.539 346.469 259.539C349.023 259.539 350.953 261.109 351.25 263.461H349.516C349.203 262.016 348 261.07 346.469 261.07C344.422 261.07 343.094 262.75 343.094 265.359C343.094 267.992 344.406 269.656 346.477 269.656C348.047 269.656 349.164 268.852 349.516 267.492H351.258C350.828 269.82 349.062 271.188 346.469 271.188ZM356.164 271.156C353.812 271.156 352.266 269.539 352.266 266.891C352.266 264.25 353.82 262.633 356.164 262.633C358.508 262.633 360.062 264.25 360.062 266.891C360.062 269.539 358.516 271.156 356.164 271.156ZM356.164 269.766C357.492 269.766 358.344 268.719 358.344 266.891C358.344 265.07 357.484 264.023 356.164 264.023C354.844 264.023 353.984 265.07 353.984 266.891C353.984 268.719 354.844 269.766 356.164 269.766ZM361.367 271V262.781H362.977V264.164H363.016C363.383 263.25 364.242 262.641 365.352 262.641C366.492 262.641 367.32 263.227 367.648 264.25H367.688C368.109 263.25 369.078 262.641 370.25 262.641C371.875 262.641 372.938 263.719 372.938 265.352V271H371.242V265.758C371.242 264.695 370.672 264.086 369.672 264.086C368.672 264.086 367.977 264.828 367.977 265.867V271H366.32V265.633C366.32 264.688 365.719 264.086 364.766 264.086C363.766 264.086 363.055 264.867 363.055 265.922V271H361.367ZM374.57 271V262.781H376.18V264.164H376.219C376.586 263.25 377.445 262.641 378.555 262.641C379.695 262.641 380.523 263.227 380.852 264.25H380.891C381.312 263.25 382.281 262.641 383.453 262.641C385.078 262.641 386.141 263.719 386.141 265.352V271H384.445V265.758C384.445 264.695 383.875 264.086 382.875 264.086C381.875 264.086 381.18 264.828 381.18 265.867V271H379.523V265.633C379.523 264.688 378.922 264.086 377.969 264.086C376.969 264.086 376.258 264.867 376.258 265.922V271H374.57ZM391.211 263.992C390.031 263.992 389.203 264.891 389.117 266.133H393.227C393.188 264.875 392.391 263.992 391.211 263.992ZM393.219 268.586H394.82C394.586 270.086 393.164 271.156 391.281 271.156C388.867 271.156 387.406 269.523 387.406 266.93C387.406 264.352 388.891 262.633 391.211 262.633C393.492 262.633 394.914 264.242 394.914 266.734V267.312H389.109V267.414C389.109 268.844 389.969 269.789 391.32 269.789C392.281 269.789 392.992 269.305 393.219 268.586ZM396.227 271V262.781H397.836V264.18H397.875C398.148 263.219 398.883 262.648 399.852 262.648C400.094 262.648 400.305 262.688 400.43 262.711V264.281C400.297 264.227 400 264.188 399.672 264.188C398.586 264.188 397.914 264.914 397.914 266.078V271H396.227ZM408.172 265.609H406.562C406.391 264.734 405.734 264.039 404.633 264.039C403.328 264.039 402.469 265.125 402.469 266.891C402.469 268.695 403.336 269.742 404.648 269.742C405.688 269.742 406.367 269.172 406.562 268.219H408.188C408.008 269.969 406.609 271.156 404.633 271.156C402.281 271.156 400.75 269.547 400.75 266.891C400.75 264.281 402.281 262.633 404.617 262.633C406.734 262.633 408.023 263.992 408.172 265.609ZM412.82 263.992C411.641 263.992 410.812 264.891 410.727 266.133H414.836C414.797 264.875 414 263.992 412.82 263.992ZM414.828 268.586H416.43C416.195 270.086 414.773 271.156 412.891 271.156C410.477 271.156 409.016 269.523 409.016 266.93C409.016 264.352 410.5 262.633 412.82 262.633C415.102 262.633 416.523 264.242 416.523 266.734V267.312H410.719V267.414C410.719 268.844 411.578 269.789 412.93 269.789C413.891 269.789 414.602 269.305 414.828 268.586Z" fill="#03156D"/>
<path d="M258.727 427L257.695 423.953H253.398L252.367 427H250.547L254.617 415.727H256.508L260.578 427H258.727ZM255.523 417.602L253.844 422.547H257.25L255.57 417.602H255.523ZM264.898 425.633C266.219 425.633 267.086 424.562 267.086 422.867C267.086 421.18 266.219 420.07 264.898 420.07C263.602 420.07 262.758 421.156 262.758 422.867C262.758 424.586 263.602 425.633 264.898 425.633ZM264.914 430.094C262.977 430.094 261.539 429.062 261.328 427.641H263.023C263.266 428.328 264.016 428.781 264.977 428.781C266.297 428.781 267.078 428.031 267.078 426.906V425.555H267.047C266.586 426.445 265.617 427.031 264.445 427.031C262.383 427.031 261.031 425.422 261.031 422.859C261.031 420.273 262.375 418.648 264.484 418.648C265.648 418.648 266.602 419.234 267.102 420.188H267.133V418.781H268.773V426.852C268.773 428.812 267.258 430.094 264.914 430.094ZM270.445 427V418.781H272.055V420.18H272.094C272.367 419.219 273.102 418.648 274.07 418.648C274.312 418.648 274.523 418.688 274.648 418.711V420.281C274.516 420.227 274.219 420.188 273.891 420.188C272.805 420.188 272.133 420.914 272.133 422.078V427H270.445ZM275.75 427V418.781H277.438V427H275.75ZM276.594 417.578C276.055 417.578 275.617 417.148 275.617 416.617C275.617 416.078 276.055 415.648 276.594 415.648C277.141 415.648 277.578 416.078 277.578 416.617C277.578 417.148 277.141 417.578 276.594 417.578ZM286.219 421.609H284.609C284.438 420.734 283.781 420.039 282.68 420.039C281.375 420.039 280.516 421.125 280.516 422.891C280.516 424.695 281.383 425.742 282.695 425.742C283.734 425.742 284.414 425.172 284.609 424.219H286.234C286.055 425.969 284.656 427.156 282.68 427.156C280.328 427.156 278.797 425.547 278.797 422.891C278.797 420.281 280.328 418.633 282.664 418.633C284.781 418.633 286.07 419.992 286.219 421.609ZM294.477 418.781V427H292.859V425.609H292.82C292.367 426.594 291.531 427.148 290.273 427.148C288.484 427.148 287.391 425.984 287.391 424.102V418.781H289.078V423.773C289.078 425.023 289.672 425.695 290.836 425.695C292.055 425.695 292.789 424.852 292.789 423.57V418.781H294.477ZM296.211 427V415.727H297.898V427H296.211ZM300.125 416.836H301.82V418.781H303.383V420.117H301.82V424.648C301.82 425.359 302.133 425.68 302.82 425.68C302.992 425.68 303.266 425.664 303.375 425.641V426.977C303.188 427.023 302.812 427.055 302.438 427.055C300.773 427.055 300.125 426.422 300.125 424.836V420.117H298.93V418.781H300.125V416.836ZM311.82 418.781V427H310.203V425.609H310.164C309.711 426.594 308.875 427.148 307.617 427.148C305.828 427.148 304.734 425.984 304.734 424.102V418.781H306.422V423.773C306.422 425.023 307.016 425.695 308.18 425.695C309.398 425.695 310.133 424.852 310.133 423.57V418.781H311.82ZM313.492 427V418.781H315.102V420.18H315.141C315.414 419.219 316.148 418.648 317.117 418.648C317.359 418.648 317.57 418.688 317.695 418.711V420.281C317.562 420.227 317.266 420.188 316.938 420.188C315.852 420.188 315.18 420.914 315.18 422.078V427H313.492ZM321.82 419.992C320.641 419.992 319.812 420.891 319.727 422.133H323.836C323.797 420.875 323 419.992 321.82 419.992ZM323.828 424.586H325.43C325.195 426.086 323.773 427.156 321.891 427.156C319.477 427.156 318.016 425.523 318.016 422.93C318.016 420.352 319.5 418.633 321.82 418.633C324.102 418.633 325.523 420.242 325.523 422.734V423.312H319.719V423.414C319.719 424.844 320.578 425.789 321.93 425.789C322.891 425.789 323.602 425.305 323.828 424.586Z" fill="#03156D"/>
<path d="M100.797 146.188C97.6328 146.188 95.6328 143.953 95.6328 140.359C95.6328 136.789 97.6484 134.539 100.797 134.539C103.352 134.539 105.281 136.109 105.578 138.461H103.844C103.531 137.016 102.328 136.07 100.797 136.07C98.75 136.07 97.4219 137.75 97.4219 140.359C97.4219 142.992 98.7344 144.656 100.805 144.656C102.375 144.656 103.492 143.852 103.844 142.492H105.586C105.156 144.82 103.391 146.188 100.797 146.188ZM110.492 146.156C108.141 146.156 106.594 144.539 106.594 141.891C106.594 139.25 108.148 137.633 110.492 137.633C112.836 137.633 114.391 139.25 114.391 141.891C114.391 144.539 112.844 146.156 110.492 146.156ZM110.492 144.766C111.82 144.766 112.672 143.719 112.672 141.891C112.672 140.07 111.812 139.023 110.492 139.023C109.172 139.023 108.312 140.07 108.312 141.891C108.312 143.719 109.172 144.766 110.492 144.766ZM115.695 146V137.781H117.305V139.156H117.344C117.789 138.219 118.664 137.641 119.93 137.641C121.742 137.641 122.781 138.797 122.781 140.68V146H121.086V141.008C121.086 139.773 120.508 139.094 119.336 139.094C118.148 139.094 117.383 139.938 117.383 141.211V146H115.695ZM124.266 140.109C124.266 138.641 125.562 137.633 127.484 137.633C129.312 137.633 130.594 138.656 130.648 140.117H129.062C128.984 139.375 128.383 138.914 127.438 138.914C126.523 138.914 125.914 139.359 125.914 140.008C125.914 140.516 126.32 140.859 127.172 141.07L128.555 141.391C130.211 141.789 130.836 142.414 130.836 143.625C130.836 145.125 129.438 146.156 127.422 146.156C125.477 146.156 124.188 145.148 124.055 143.641H125.727C125.859 144.43 126.469 144.867 127.5 144.867C128.516 144.867 129.141 144.445 129.141 143.781C129.141 143.258 128.828 142.969 127.969 142.75L126.5 142.391C125.016 142.031 124.266 141.258 124.266 140.109ZM132.641 135.836H134.336V137.781H135.898V139.117H134.336V143.648C134.336 144.359 134.648 144.68 135.336 144.68C135.508 144.68 135.781 144.664 135.891 144.641V145.977C135.703 146.023 135.328 146.055 134.953 146.055C133.289 146.055 132.641 145.422 132.641 143.836V139.117H131.445V137.781H132.641V135.836ZM137.289 146V137.781H138.898V139.18H138.938C139.211 138.219 139.945 137.648 140.914 137.648C141.156 137.648 141.367 137.688 141.492 137.711V139.281C141.359 139.227 141.062 139.188 140.734 139.188C139.648 139.188 138.977 139.914 138.977 141.078V146H137.289ZM149.586 137.781V146H147.969V144.609H147.93C147.477 145.594 146.641 146.148 145.383 146.148C143.594 146.148 142.5 144.984 142.5 143.102V137.781H144.188V142.773C144.188 144.023 144.781 144.695 145.945 144.695C147.164 144.695 147.898 143.852 147.898 142.57V137.781H149.586ZM158.312 140.609H156.703C156.531 139.734 155.875 139.039 154.773 139.039C153.469 139.039 152.609 140.125 152.609 141.891C152.609 143.695 153.477 144.742 154.789 144.742C155.828 144.742 156.508 144.172 156.703 143.219H158.328C158.148 144.969 156.75 146.156 154.773 146.156C152.422 146.156 150.891 144.547 150.891 141.891C150.891 139.281 152.422 137.633 154.758 137.633C156.875 137.633 158.164 138.992 158.312 140.609ZM160.016 135.836H161.711V137.781H163.273V139.117H161.711V143.648C161.711 144.359 162.023 144.68 162.711 144.68C162.883 144.68 163.156 144.664 163.266 144.641V145.977C163.078 146.023 162.703 146.055 162.328 146.055C160.664 146.055 160.016 145.422 160.016 143.836V139.117H158.82V137.781H160.016V135.836ZM164.719 146V137.781H166.406V146H164.719ZM165.562 136.578C165.023 136.578 164.586 136.148 164.586 135.617C164.586 135.078 165.023 134.648 165.562 134.648C166.109 134.648 166.547 135.078 166.547 135.617C166.547 136.148 166.109 136.578 165.562 136.578ZM171.664 146.156C169.312 146.156 167.766 144.539 167.766 141.891C167.766 139.25 169.32 137.633 171.664 137.633C174.008 137.633 175.562 139.25 175.562 141.891C175.562 144.539 174.016 146.156 171.664 146.156ZM171.664 144.766C172.992 144.766 173.844 143.719 173.844 141.891C173.844 140.07 172.984 139.023 171.664 139.023C170.344 139.023 169.484 140.07 169.484 141.891C169.484 143.719 170.344 144.766 171.664 144.766ZM176.867 146V137.781H178.477V139.156H178.516C178.961 138.219 179.836 137.641 181.102 137.641C182.914 137.641 183.953 138.797 183.953 140.68V146H182.258V141.008C182.258 139.773 181.68 139.094 180.508 139.094C179.32 139.094 178.555 139.938 178.555 141.211V146H176.867Z" fill="#03156D"/>
<path d="M932.445 428H930.844V419.703H930.789L927.391 427.914H926.094L922.688 419.703H922.633V428H921.039V416.727H923.062L926.711 425.625H926.773L930.414 416.727H932.445V428ZM937.758 420.992C936.578 420.992 935.75 421.891 935.664 423.133H939.773C939.734 421.875 938.938 420.992 937.758 420.992ZM939.766 425.586H941.367C941.133 427.086 939.711 428.156 937.828 428.156C935.414 428.156 933.953 426.523 933.953 423.93C933.953 421.352 935.438 419.633 937.758 419.633C940.039 419.633 941.461 421.242 941.461 423.734V424.312H935.656V424.414C935.656 425.844 936.516 426.789 937.867 426.789C938.828 426.789 939.539 426.305 939.766 425.586ZM945.859 428.141C943.781 428.141 942.406 426.484 942.406 423.891C942.406 421.297 943.781 419.648 945.844 419.648C947.023 419.648 947.961 420.242 948.422 421.148H948.453V416.727H950.148V428H948.508V426.602H948.477C947.992 427.539 947.055 428.141 945.859 428.141ZM946.305 421.07C944.969 421.07 944.133 422.164 944.133 423.891C944.133 425.625 944.969 426.711 946.305 426.711C947.602 426.711 948.469 425.609 948.469 423.891C948.469 422.188 947.602 421.07 946.305 421.07ZM951.938 428V419.781H953.625V428H951.938ZM952.781 418.578C952.242 418.578 951.805 418.148 951.805 417.617C951.805 417.078 952.242 416.648 952.781 416.648C953.328 416.648 953.766 417.078 953.766 417.617C953.766 418.148 953.328 418.578 952.781 418.578ZM958.227 426.805C959.406 426.805 960.328 425.992 960.328 424.922V424.273L958.305 424.398C957.297 424.469 956.727 424.914 956.727 425.617C956.727 426.336 957.32 426.805 958.227 426.805ZM957.758 428.141C956.148 428.141 955.023 427.141 955.023 425.664C955.023 424.227 956.125 423.344 958.078 423.234L960.328 423.102V422.469C960.328 421.555 959.711 421.008 958.68 421.008C957.703 421.008 957.094 421.477 956.945 422.211H955.352C955.445 420.727 956.711 419.633 958.742 419.633C960.734 419.633 962.008 420.688 962.008 422.336V428H960.391V426.648H960.352C959.875 427.562 958.836 428.141 957.758 428.141Z" fill="#03156D"/>
<path d="M608.609 431H606.859V421.234H603.406V419.727H612.055V421.234H608.609V431ZM611.75 431V422.781H613.359V424.18H613.398C613.672 423.219 614.406 422.648 615.375 422.648C615.617 422.648 615.828 422.688 615.953 422.711V424.281C615.82 424.227 615.523 424.188 615.195 424.188C614.109 424.188 613.438 424.914 613.438 426.078V431H611.75ZM619.703 429.805C620.883 429.805 621.805 428.992 621.805 427.922V427.273L619.781 427.398C618.773 427.469 618.203 427.914 618.203 428.617C618.203 429.336 618.797 429.805 619.703 429.805ZM619.234 431.141C617.625 431.141 616.5 430.141 616.5 428.664C616.5 427.227 617.602 426.344 619.555 426.234L621.805 426.102V425.469C621.805 424.555 621.188 424.008 620.156 424.008C619.18 424.008 618.57 424.477 618.422 425.211H616.828C616.922 423.727 618.188 422.633 620.219 422.633C622.211 422.633 623.484 423.688 623.484 425.336V431H621.867V429.648H621.828C621.352 430.562 620.312 431.141 619.234 431.141ZM632.141 422.781L629.195 431H627.383L624.422 422.781H626.219L628.281 429.352H628.312L630.375 422.781H632.141ZM636.312 423.992C635.133 423.992 634.305 424.891 634.219 426.133H638.328C638.289 424.875 637.492 423.992 636.312 423.992ZM638.32 428.586H639.922C639.688 430.086 638.266 431.156 636.383 431.156C633.969 431.156 632.508 429.523 632.508 426.93C632.508 424.352 633.992 422.633 636.312 422.633C638.594 422.633 640.016 424.242 640.016 426.734V427.312H634.211V427.414C634.211 428.844 635.07 429.789 636.422 429.789C637.383 429.789 638.094 429.305 638.32 428.586ZM641.391 431V419.727H643.078V431H641.391Z" fill="#03156D"/>
<path d="M1079.69 142H1077.94V137.008H1072.15V142H1070.4V130.727H1072.15V135.492H1077.94V130.727H1079.69V142ZM1084.99 134.992C1083.81 134.992 1082.98 135.891 1082.9 137.133H1087.01C1086.97 135.875 1086.17 134.992 1084.99 134.992ZM1087 139.586H1088.6C1088.37 141.086 1086.95 142.156 1085.06 142.156C1082.65 142.156 1081.19 140.523 1081.19 137.93C1081.19 135.352 1082.67 133.633 1084.99 133.633C1087.27 133.633 1088.7 135.242 1088.7 137.734V138.312H1082.89V138.414C1082.89 139.844 1083.75 140.789 1085.1 140.789C1086.06 140.789 1086.77 140.305 1087 139.586ZM1092.88 140.805C1094.06 140.805 1094.98 139.992 1094.98 138.922V138.273L1092.96 138.398C1091.95 138.469 1091.38 138.914 1091.38 139.617C1091.38 140.336 1091.98 140.805 1092.88 140.805ZM1092.41 142.141C1090.8 142.141 1089.68 141.141 1089.68 139.664C1089.68 138.227 1090.78 137.344 1092.73 137.234L1094.98 137.102V136.469C1094.98 135.555 1094.37 135.008 1093.34 135.008C1092.36 135.008 1091.75 135.477 1091.6 136.211H1090.01C1090.1 134.727 1091.37 133.633 1093.4 133.633C1095.39 133.633 1096.66 134.688 1096.66 136.336V142H1095.05V140.648H1095.01C1094.53 141.562 1093.49 142.141 1092.41 142.141ZM1098.37 142V130.727H1100.05V142H1098.37ZM1102.28 131.836H1103.98V133.781H1105.54V135.117H1103.98V139.648C1103.98 140.359 1104.29 140.68 1104.98 140.68C1105.15 140.68 1105.42 140.664 1105.53 140.641V141.977C1105.34 142.023 1104.97 142.055 1104.59 142.055C1102.93 142.055 1102.28 141.422 1102.28 139.836V135.117H1101.09V133.781H1102.28V131.836ZM1106.99 142V130.727H1108.66V135.156H1108.7C1109.16 134.195 1110.05 133.641 1111.3 133.641C1113.11 133.641 1114.19 134.844 1114.19 136.703V142H1112.49V137.031C1112.49 135.82 1111.88 135.094 1110.7 135.094C1109.45 135.094 1108.68 135.953 1108.68 137.25V142H1106.99ZM1124.03 142.188C1120.87 142.188 1118.87 139.953 1118.87 136.359C1118.87 132.789 1120.88 130.539 1124.03 130.539C1126.59 130.539 1128.52 132.109 1128.81 134.461H1127.08C1126.77 133.016 1125.56 132.07 1124.03 132.07C1121.98 132.07 1120.66 133.75 1120.66 136.359C1120.66 138.992 1121.97 140.656 1124.04 140.656C1125.61 140.656 1126.73 139.852 1127.08 138.492H1128.82C1128.39 140.82 1126.62 142.188 1124.03 142.188ZM1133.07 140.805C1134.25 140.805 1135.17 139.992 1135.17 138.922V138.273L1133.15 138.398C1132.14 138.469 1131.57 138.914 1131.57 139.617C1131.57 140.336 1132.16 140.805 1133.07 140.805ZM1132.6 142.141C1130.99 142.141 1129.87 141.141 1129.87 139.664C1129.87 138.227 1130.97 137.344 1132.92 137.234L1135.17 137.102V136.469C1135.17 135.555 1134.55 135.008 1133.52 135.008C1132.55 135.008 1131.94 135.477 1131.79 136.211H1130.2C1130.29 134.727 1131.55 133.633 1133.59 133.633C1135.58 133.633 1136.85 134.688 1136.85 136.336V142H1135.23V140.648H1135.2C1134.72 141.562 1133.68 142.141 1132.6 142.141ZM1138.49 142V133.781H1140.1V135.18H1140.14C1140.41 134.219 1141.15 133.648 1142.12 133.648C1142.36 133.648 1142.57 133.688 1142.7 133.711V135.281C1142.56 135.227 1142.27 135.188 1141.94 135.188C1140.85 135.188 1140.18 135.914 1140.18 137.078V142H1138.49ZM1146.82 134.992C1145.64 134.992 1144.81 135.891 1144.73 137.133H1148.84C1148.8 135.875 1148 134.992 1146.82 134.992ZM1148.83 139.586H1150.43C1150.2 141.086 1148.77 142.156 1146.89 142.156C1144.48 142.156 1143.02 140.523 1143.02 137.93C1143.02 135.352 1144.5 133.633 1146.82 133.633C1149.1 133.633 1150.52 135.242 1150.52 137.734V138.312H1144.72V138.414C1144.72 139.844 1145.58 140.789 1146.93 140.789C1147.89 140.789 1148.6 140.305 1148.83 139.586Z" fill="#03156D"/>
<path d="M829.267 209.233C825.159 259.562 803.961 306.781 769.407 342.574C734.853 378.368 689.159 400.439 640.374 404.9L640.263 403.609C688.753 399.174 734.17 377.237 768.516 341.66C802.861 306.083 823.931 259.149 828.015 209.124L829.267 209.233Z" fill="#D9DFEA"/>
<path d="M605.075 405.027C568.833 401.976 534.001 389.18 504.05 367.916C474.1 346.652 450.078 317.662 434.381 283.838L435.515 283.278C451.118 316.898 474.994 345.712 504.763 366.848C534.533 387.984 569.155 400.702 605.177 403.735L605.075 405.027Z" fill="#D9DFEA"/>
<path d="M422.133 250.63C419.059 239.63 416.844 228.395 415.51 217.031L416.758 216.875C418.085 228.17 420.286 239.338 423.341 250.271L422.133 250.63Z" fill="#D9DFEA"/>
<path d="M960.771 98.1113C976.357 151.221 980.041 207.303 971.543 262.104C963.044 316.905 942.587 368.985 911.723 414.394L910.725 413.67C941.483 368.417 961.87 316.517 970.339 261.905C978.808 207.293 975.137 151.404 959.605 98.4773L960.771 98.1113Z" fill="#D9DFEA"/>
<path d="M896.561 435.097C881.702 453.954 865.061 471.23 846.883 486.669L846.109 485.695C864.224 470.309 880.808 453.093 895.615 434.301L896.561 435.097Z" fill="#D9DFEA"/>
<path d="M397.97 486.542C379.801 471.093 363.168 453.808 348.32 434.943L349.265 434.147C364.062 452.947 380.638 470.173 398.744 485.569L397.97 486.542Z" fill="#D9DFEA"/>
<path d="M330.429 410.138C300.802 365.21 281.244 314.013 273.181 260.278C265.117 206.544 268.751 151.626 283.818 99.528L284.986 99.8891C269.971 151.808 266.35 206.536 274.385 260.085C282.421 313.634 301.912 364.655 331.437 409.428L330.429 410.138Z" fill="#D9DFEA"/>
<path d="M157.643 487.673C95.9628 390.084 67.9125 273.877 78.0179 157.802L79.465 157.936C69.3889 273.676 97.358 389.546 158.86 486.853L157.643 487.673Z" fill="#E6E8EC"/>
<path d="M82.4587 121.337C89.0029 79.6056 100.464 38.8574 116.586 0L117.922 0.591119C101.846 39.3361 90.4182 79.9663 83.893 121.577L82.4587 121.337Z" fill="#E6E8EC"/>
<path d="M1087.22 487.673C1148.9 390.084 1176.95 273.877 1166.84 157.802L1165.4 157.936C1175.47 273.676 1147.5 389.546 1086 486.853L1087.22 487.673Z" fill="#E6E8EC"/>
<path d="M1162.4 121.337C1155.86 79.6056 1144.4 38.8574 1128.27 0L1126.94 0.591119C1143.01 39.3361 1154.44 79.9663 1160.97 121.577L1162.4 121.337Z" fill="#E6E8EC"/>
<circle cx="80.501" cy="140.239" r="4" stroke="#1B1F24"/>
<circle cx="80.501" cy="140.239" r="4" stroke="#18A8FF"/>
<circle cx="339.501" cy="422.239" r="4" stroke="#18A8FF"/>
<circle cx="428.501" cy="266.239" r="4" stroke="#C701FF"/>
<circle cx="622.501" cy="404.239" r="4" stroke="#667790"/>
<circle cx="829.501" cy="195.239" r="4" stroke="#03156D"/>
<circle cx="1163.5" cy="137.239" r="4" stroke="#03156D"/>
<circle cx="904.501" cy="424.239" r="4" stroke="#C701FF"/>
<circle cx="1151.5" cy="334.5" r="4" stroke="#FF0000"/>
<circle cx="622" cy="251" r="70.25" stroke="#D9DFEA" stroke-width="1.5"/>
<circle cx="622" cy="251" r="21" fill="#18A8FF"/>
<circle cx="623" cy="184" r="21" fill="#FCFCFD"/>
<circle cx="622" cy="182" r="21" fill="#FCFCFD"/>
<circle cx="101" cy="360" r="21" fill="#FCFCFD"/>
<circle cx="1152" cy="335" r="21" fill="#FCFCFD"/>
<circle cx="7" cy="7" r="7" transform="matrix(-1 0 0 1 629 244)" fill="white"/>
<circle cx="1152.5" cy="335.5" r="4" stroke="#03156D"/>
<path d="M1164.79 341H1163.04V329.727H1170.08V331.234H1164.79V334.805H1169.63V336.281H1164.79V341ZM1174.65 341.156C1172.3 341.156 1170.75 339.539 1170.75 336.891C1170.75 334.25 1172.3 332.633 1174.65 332.633C1176.99 332.633 1178.55 334.25 1178.55 336.891C1178.55 339.539 1177 341.156 1174.65 341.156ZM1174.65 339.766C1175.98 339.766 1176.83 338.719 1176.83 336.891C1176.83 335.07 1175.97 334.023 1174.65 334.023C1173.33 334.023 1172.47 335.07 1172.47 336.891C1172.47 338.719 1173.33 339.766 1174.65 339.766ZM1183.38 341.156C1181.03 341.156 1179.48 339.539 1179.48 336.891C1179.48 334.25 1181.04 332.633 1183.38 332.633C1185.73 332.633 1187.28 334.25 1187.28 336.891C1187.28 339.539 1185.73 341.156 1183.38 341.156ZM1183.38 339.766C1184.71 339.766 1185.56 338.719 1185.56 336.891C1185.56 335.07 1184.7 334.023 1183.38 334.023C1182.06 334.023 1181.2 335.07 1181.2 336.891C1181.2 338.719 1182.06 339.766 1183.38 339.766ZM1191.67 341.141C1189.59 341.141 1188.22 339.484 1188.22 336.891C1188.22 334.297 1189.59 332.648 1191.66 332.648C1192.84 332.648 1193.77 333.242 1194.23 334.148H1194.27V329.727H1195.96V341H1194.32V339.602H1194.29C1193.8 340.539 1192.87 341.141 1191.67 341.141ZM1192.12 334.07C1190.78 334.07 1189.95 335.164 1189.95 336.891C1189.95 338.625 1190.78 339.711 1192.12 339.711C1193.41 339.711 1194.28 338.609 1194.28 336.891C1194.28 335.188 1193.41 334.07 1192.12 334.07Z" fill="#03156D"/>
<circle cx="621.5" cy="182.5" r="4" stroke="#C701FF"/>
<circle cx="100.5" cy="360.5" r="4" stroke="#03156D"/>
<path d="M589.547 166.484V168H582.391V156.727H589.547V158.234H584.141V161.531H589.258V162.984H584.141V166.484H589.547ZM591.141 168V159.781H592.75V161.156H592.789C593.234 160.219 594.109 159.641 595.375 159.641C597.188 159.641 598.227 160.797 598.227 162.68V168H596.531V163.008C596.531 161.773 595.953 161.094 594.781 161.094C593.594 161.094 592.828 161.938 592.828 163.211V168H591.141ZM603.359 166.633C604.68 166.633 605.547 165.562 605.547 163.867C605.547 162.18 604.68 161.07 603.359 161.07C602.062 161.07 601.219 162.156 601.219 163.867C601.219 165.586 602.062 166.633 603.359 166.633ZM603.375 171.094C601.438 171.094 600 170.062 599.789 168.641H601.484C601.727 169.328 602.477 169.781 603.438 169.781C604.758 169.781 605.539 169.031 605.539 167.906V166.555H605.508C605.047 167.445 604.078 168.031 602.906 168.031C600.844 168.031 599.492 166.422 599.492 163.859C599.492 161.273 600.836 159.648 602.945 159.648C604.109 159.648 605.062 160.234 605.562 161.188H605.594V159.781H607.234V167.852C607.234 169.812 605.719 171.094 603.375 171.094ZM608.961 168V159.781H610.648V168H608.961ZM609.805 158.578C609.266 158.578 608.828 158.148 608.828 157.617C608.828 157.078 609.266 156.648 609.805 156.648C610.352 156.648 610.789 157.078 610.789 157.617C610.789 158.148 610.352 158.578 609.805 158.578ZM612.375 168V159.781H613.984V161.156H614.023C614.469 160.219 615.344 159.641 616.609 159.641C618.422 159.641 619.461 160.797 619.461 162.68V168H617.766V163.008C617.766 161.773 617.188 161.094 616.016 161.094C614.828 161.094 614.062 161.938 614.062 163.211V168H612.375ZM624.531 160.992C623.352 160.992 622.523 161.891 622.438 163.133H626.547C626.508 161.875 625.711 160.992 624.531 160.992ZM626.539 165.586H628.141C627.906 167.086 626.484 168.156 624.602 168.156C622.188 168.156 620.727 166.523 620.727 163.93C620.727 161.352 622.211 159.633 624.531 159.633C626.812 159.633 628.234 161.242 628.234 163.734V164.312H622.43V164.414C622.43 165.844 623.289 166.789 624.641 166.789C625.602 166.789 626.312 166.305 626.539 165.586ZM632.984 160.992C631.805 160.992 630.977 161.891 630.891 163.133H635C634.961 161.875 634.164 160.992 632.984 160.992ZM634.992 165.586H636.594C636.359 167.086 634.938 168.156 633.055 168.156C630.641 168.156 629.18 166.523 629.18 163.93C629.18 161.352 630.664 159.633 632.984 159.633C635.266 159.633 636.688 161.242 636.688 163.734V164.312H630.883V164.414C630.883 165.844 631.742 166.789 633.094 166.789C634.055 166.789 634.766 166.305 634.992 165.586ZM638 168V159.781H639.609V161.18H639.648C639.922 160.219 640.656 159.648 641.625 159.648C641.867 159.648 642.078 159.688 642.203 159.711V161.281C642.07 161.227 641.773 161.188 641.445 161.188C640.359 161.188 639.688 161.914 639.688 163.078V168H638ZM643.305 168V159.781H644.992V168H643.305ZM644.148 158.578C643.609 158.578 643.172 158.148 643.172 157.617C643.172 157.078 643.609 156.648 644.148 156.648C644.695 156.648 645.133 157.078 645.133 157.617C645.133 158.148 644.695 158.578 644.148 158.578ZM646.719 168V159.781H648.328V161.156H648.367C648.812 160.219 649.688 159.641 650.953 159.641C652.766 159.641 653.805 160.797 653.805 162.68V168H652.109V163.008C652.109 161.773 651.531 161.094 650.359 161.094C649.172 161.094 648.406 161.938 648.406 163.211V168H646.719ZM658.938 166.633C660.258 166.633 661.125 165.562 661.125 163.867C661.125 162.18 660.258 161.07 658.938 161.07C657.641 161.07 656.797 162.156 656.797 163.867C656.797 165.586 657.641 166.633 658.938 166.633ZM658.953 171.094C657.016 171.094 655.578 170.062 655.367 168.641H657.062C657.305 169.328 658.055 169.781 659.016 169.781C660.336 169.781 661.117 169.031 661.117 167.906V166.555H661.086C660.625 167.445 659.656 168.031 658.484 168.031C656.422 168.031 655.07 166.422 655.07 163.859C655.07 161.273 656.414 159.648 658.523 159.648C659.688 159.648 660.641 160.234 661.141 161.188H661.172V159.781H662.812V167.852C662.812 169.812 661.297 171.094 658.953 171.094Z" fill="#03156D"/>
<path d="M26.7891 362.484V364H19.6328V352.727H26.7891V354.234H21.3828V357.531H26.5V358.984H21.3828V362.484H26.7891ZM31.4688 364.141C29.3906 364.141 28.0156 362.484 28.0156 359.891C28.0156 357.297 29.3906 355.648 31.4531 355.648C32.6328 355.648 33.5703 356.242 34.0312 357.148H34.0625V352.727H35.7578V364H34.1172V362.602H34.0859C33.6016 363.539 32.6641 364.141 31.4688 364.141ZM31.9141 357.07C30.5781 357.07 29.7422 358.164 29.7422 359.891C29.7422 361.625 30.5781 362.711 31.9141 362.711C33.2109 362.711 34.0781 361.609 34.0781 359.891C34.0781 358.188 33.2109 357.07 31.9141 357.07ZM44.5391 355.781V364H42.9219V362.609H42.8828C42.4297 363.594 41.5938 364.148 40.3359 364.148C38.5469 364.148 37.4531 362.984 37.4531 361.102V355.781H39.1406V360.773C39.1406 362.023 39.7344 362.695 40.8984 362.695C42.1172 362.695 42.8516 361.852 42.8516 360.57V355.781H44.5391ZM53.2656 358.609H51.6562C51.4844 357.734 50.8281 357.039 49.7266 357.039C48.4219 357.039 47.5625 358.125 47.5625 359.891C47.5625 361.695 48.4297 362.742 49.7422 362.742C50.7812 362.742 51.4609 362.172 51.6562 361.219H53.2812C53.1016 362.969 51.7031 364.156 49.7266 364.156C47.375 364.156 45.8438 362.547 45.8438 359.891C45.8438 357.281 47.375 355.633 49.7109 355.633C51.8281 355.633 53.1172 356.992 53.2656 358.609ZM57.3516 362.805C58.5312 362.805 59.4531 361.992 59.4531 360.922V360.273L57.4297 360.398C56.4219 360.469 55.8516 360.914 55.8516 361.617C55.8516 362.336 56.4453 362.805 57.3516 362.805ZM56.8828 364.141C55.2734 364.141 54.1484 363.141 54.1484 361.664C54.1484 360.227 55.25 359.344 57.2031 359.234L59.4531 359.102V358.469C59.4531 357.555 58.8359 357.008 57.8047 357.008C56.8281 357.008 56.2188 357.477 56.0703 358.211H54.4766C54.5703 356.727 55.8359 355.633 57.8672 355.633C59.8594 355.633 61.1328 356.688 61.1328 358.336V364H59.5156V362.648H59.4766C59 363.562 57.9609 364.141 56.8828 364.141ZM63.2656 353.836H64.9609V355.781H66.5234V357.117H64.9609V361.648C64.9609 362.359 65.2734 362.68 65.9609 362.68C66.1328 362.68 66.4062 362.664 66.5156 362.641V363.977C66.3281 364.023 65.9531 364.055 65.5781 364.055C63.9141 364.055 63.2656 363.422 63.2656 361.836V357.117H62.0703V355.781H63.2656V353.836ZM67.9688 364V355.781H69.6562V364H67.9688ZM68.8125 354.578C68.2734 354.578 67.8359 354.148 67.8359 353.617C67.8359 353.078 68.2734 352.648 68.8125 352.648C69.3594 352.648 69.7969 353.078 69.7969 353.617C69.7969 354.148 69.3594 354.578 68.8125 354.578ZM74.9141 364.156C72.5625 364.156 71.0156 362.539 71.0156 359.891C71.0156 357.25 72.5703 355.633 74.9141 355.633C77.2578 355.633 78.8125 357.25 78.8125 359.891C78.8125 362.539 77.2656 364.156 74.9141 364.156ZM74.9141 362.766C76.2422 362.766 77.0938 361.719 77.0938 359.891C77.0938 358.07 76.2344 357.023 74.9141 357.023C73.5938 357.023 72.7344 358.07 72.7344 359.891C72.7344 361.719 73.5938 362.766 74.9141 362.766ZM80.1172 364V355.781H81.7266V357.156H81.7656C82.2109 356.219 83.0859 355.641 84.3516 355.641C86.1641 355.641 87.2031 356.797 87.2031 358.68V364H85.5078V359.008C85.5078 357.773 84.9297 357.094 83.7578 357.094C82.5703 357.094 81.8047 357.938 81.8047 359.211V364H80.1172Z" fill="#03156D"/>
</svg>
