<svg width="1246" height="488" viewBox="0 0 1246 488" fill="none" xmlns="http://www.w3.org/2000/svg">
<path d="M851.359 200L850.398 197.086H846.25L845.289 200H843.211L847.211 188.727H849.484L853.484 200H851.359ZM848.297 190.719L846.719 195.531H849.922L848.352 190.719H848.297ZM854.5 200V191.719H856.367V193.164H856.406C856.547 192.659 856.789 192.268 857.133 191.992C857.482 191.716 857.901 191.578 858.391 191.578C858.562 191.578 858.766 191.604 859 191.656V193.414C858.807 193.341 858.544 193.305 858.211 193.305C857.659 193.305 857.227 193.471 856.914 193.805C856.602 194.138 856.445 194.596 856.445 195.18V200H854.5ZM866.984 194.672H865.148C865.065 194.208 864.867 193.836 864.555 193.555C864.242 193.268 863.836 193.125 863.336 193.125C862.721 193.125 862.232 193.37 861.867 193.859C861.503 194.344 861.32 195.01 861.32 195.859C861.32 196.719 861.503 197.391 861.867 197.875C862.232 198.354 862.727 198.594 863.352 198.594C863.841 198.594 864.242 198.464 864.555 198.203C864.867 197.938 865.068 197.568 865.156 197.094H866.992C866.914 198.021 866.542 198.766 865.875 199.328C865.214 199.885 864.365 200.164 863.328 200.164C862.109 200.164 861.141 199.781 860.422 199.016C859.703 198.245 859.344 197.193 859.344 195.859C859.344 194.542 859.703 193.495 860.422 192.719C861.141 191.938 862.104 191.547 863.312 191.547C864.375 191.547 865.234 191.844 865.891 192.438C866.552 193.026 866.917 193.771 866.984 194.672ZM868.211 200V188.727H870.133V193.141H870.172C870.396 192.635 870.732 192.247 871.18 191.977C871.628 191.701 872.164 191.562 872.789 191.562C873.695 191.562 874.404 191.841 874.914 192.398C875.43 192.951 875.688 193.706 875.688 194.664V200H873.742V195.062C873.742 194.474 873.596 194.018 873.305 193.695C873.018 193.372 872.596 193.211 872.039 193.211C871.456 193.211 870.995 193.396 870.656 193.766C870.323 194.135 870.156 194.628 870.156 195.242V200H868.211ZM877.297 200V191.719H879.242V200H877.297ZM879.031 190.328C878.823 190.531 878.568 190.633 878.266 190.633C877.964 190.633 877.708 190.531 877.5 190.328C877.292 190.12 877.188 189.87 877.188 189.578C877.188 189.281 877.292 189.031 877.5 188.828C877.708 188.62 877.964 188.516 878.266 188.516C878.568 188.516 878.823 188.62 879.031 188.828C879.245 189.031 879.352 189.281 879.352 189.578C879.352 189.87 879.245 190.12 879.031 190.328ZM881.414 189.781H883.359V191.719H884.922V193.219H883.359V197.523C883.359 197.862 883.44 198.112 883.602 198.273C883.763 198.435 884.016 198.516 884.359 198.516C884.589 198.516 884.773 198.503 884.914 198.477V199.961C884.68 200.013 884.344 200.039 883.906 200.039C883.01 200.039 882.37 199.867 881.984 199.523C881.604 199.18 881.414 198.604 881.414 197.797V193.219H880.227V191.719H881.414V189.781ZM889.664 193.055C889.122 193.055 888.669 193.242 888.305 193.617C887.945 193.987 887.745 194.464 887.703 195.047H891.57C891.549 194.458 891.365 193.979 891.016 193.609C890.667 193.24 890.216 193.055 889.664 193.055ZM891.578 197.523H893.398C893.273 198.31 892.875 198.948 892.203 199.438C891.531 199.922 890.708 200.164 889.734 200.164C888.495 200.164 887.521 199.784 886.812 199.023C886.104 198.258 885.75 197.214 885.75 195.891C885.75 194.578 886.102 193.526 886.805 192.734C887.513 191.943 888.464 191.547 889.656 191.547C890.828 191.547 891.758 191.924 892.445 192.68C893.133 193.43 893.477 194.435 893.477 195.695V196.328H887.688V196.445C887.688 197.112 887.875 197.648 888.25 198.055C888.63 198.461 889.138 198.664 889.773 198.664C890.221 198.664 890.607 198.562 890.93 198.359C891.258 198.151 891.474 197.872 891.578 197.523ZM902.031 194.672H900.195C900.112 194.208 899.914 193.836 899.602 193.555C899.289 193.268 898.883 193.125 898.383 193.125C897.768 193.125 897.279 193.37 896.914 193.859C896.549 194.344 896.367 195.01 896.367 195.859C896.367 196.719 896.549 197.391 896.914 197.875C897.279 198.354 897.773 198.594 898.398 198.594C898.888 198.594 899.289 198.464 899.602 198.203C899.914 197.938 900.115 197.568 900.203 197.094H902.039C901.961 198.021 901.589 198.766 900.922 199.328C900.26 199.885 899.411 200.164 898.375 200.164C897.156 200.164 896.188 199.781 895.469 199.016C894.75 198.245 894.391 197.193 894.391 195.859C894.391 194.542 894.75 193.495 895.469 192.719C896.188 191.938 897.151 191.547 898.359 191.547C899.422 191.547 900.281 191.844 900.938 192.438C901.599 193.026 901.964 193.771 902.031 194.672ZM903.742 189.781H905.688V191.719H907.25V193.219H905.688V197.523C905.688 197.862 905.768 198.112 905.93 198.273C906.091 198.435 906.344 198.516 906.688 198.516C906.917 198.516 907.102 198.503 907.242 198.477V199.961C907.008 200.013 906.672 200.039 906.234 200.039C905.339 200.039 904.698 199.867 904.312 199.523C903.932 199.18 903.742 198.604 903.742 197.797V193.219H902.555V191.719H903.742V189.781ZM915.922 191.719V200H914.047V198.562H914.008C913.549 199.62 912.706 200.148 911.477 200.148C910.576 200.148 909.859 199.875 909.328 199.328C908.802 198.776 908.539 198.023 908.539 197.07V191.719H910.484V196.68C910.484 197.273 910.625 197.727 910.906 198.039C911.193 198.352 911.609 198.508 912.156 198.508C912.714 198.508 913.156 198.326 913.484 197.961C913.812 197.596 913.977 197.112 913.977 196.508V191.719H915.922ZM917.516 200V191.719H919.383V193.164H919.422C919.562 192.659 919.805 192.268 920.148 191.992C920.497 191.716 920.917 191.578 921.406 191.578C921.578 191.578 921.781 191.604 922.016 191.656V193.414C921.823 193.341 921.56 193.305 921.227 193.305C920.674 193.305 920.242 193.471 919.93 193.805C919.617 194.138 919.461 194.596 919.461 195.18V200H917.516ZM926.273 193.055C925.732 193.055 925.279 193.242 924.914 193.617C924.555 193.987 924.354 194.464 924.312 195.047H928.18C928.159 194.458 927.974 193.979 927.625 193.609C927.276 193.24 926.826 193.055 926.273 193.055ZM928.188 197.523H930.008C929.883 198.31 929.484 198.948 928.812 199.438C928.141 199.922 927.318 200.164 926.344 200.164C925.104 200.164 924.13 199.784 923.422 199.023C922.714 198.258 922.359 197.214 922.359 195.891C922.359 194.578 922.711 193.526 923.414 192.734C924.122 191.943 925.073 191.547 926.266 191.547C927.438 191.547 928.367 191.924 929.055 192.68C929.742 193.43 930.086 194.435 930.086 195.695V196.328H924.297V196.445C924.297 197.112 924.484 197.648 924.859 198.055C925.24 198.461 925.747 198.664 926.383 198.664C926.831 198.664 927.216 198.562 927.539 198.359C927.867 198.151 928.083 197.872 928.188 197.523Z" fill="#03156D"/>
<path d="M337.359 271L336.398 268.086H332.25L331.289 271H329.211L333.211 259.727H335.484L339.484 271H337.359ZM334.297 261.719L332.719 266.531H335.922L334.352 261.719H334.297ZM340.5 271V262.719H342.367V264.164H342.406C342.547 263.659 342.789 263.268 343.133 262.992C343.482 262.716 343.901 262.578 344.391 262.578C344.562 262.578 344.766 262.604 345 262.656V264.414C344.807 264.341 344.544 264.305 344.211 264.305C343.659 264.305 343.227 264.471 342.914 264.805C342.602 265.138 342.445 265.596 342.445 266.18V271H340.5ZM352.984 265.672H351.148C351.065 265.208 350.867 264.836 350.555 264.555C350.242 264.268 349.836 264.125 349.336 264.125C348.721 264.125 348.232 264.37 347.867 264.859C347.503 265.344 347.32 266.01 347.32 266.859C347.32 267.719 347.503 268.391 347.867 268.875C348.232 269.354 348.727 269.594 349.352 269.594C349.841 269.594 350.242 269.464 350.555 269.203C350.867 268.938 351.068 268.568 351.156 268.094H352.992C352.914 269.021 352.542 269.766 351.875 270.328C351.214 270.885 350.365 271.164 349.328 271.164C348.109 271.164 347.141 270.781 346.422 270.016C345.703 269.245 345.344 268.193 345.344 266.859C345.344 265.542 345.703 264.495 346.422 263.719C347.141 262.938 348.104 262.547 349.312 262.547C350.375 262.547 351.234 262.844 351.891 263.438C352.552 264.026 352.917 264.771 352.984 265.672ZM354.211 271V259.727H356.133V264.141H356.172C356.396 263.635 356.732 263.247 357.18 262.977C357.628 262.701 358.164 262.562 358.789 262.562C359.695 262.562 360.404 262.841 360.914 263.398C361.43 263.951 361.688 264.706 361.688 265.664V271H359.742V266.062C359.742 265.474 359.596 265.018 359.305 264.695C359.018 264.372 358.596 264.211 358.039 264.211C357.456 264.211 356.995 264.396 356.656 264.766C356.323 265.135 356.156 265.628 356.156 266.242V271H354.211ZM363.297 271V262.719H365.242V271H363.297ZM365.031 261.328C364.823 261.531 364.568 261.633 364.266 261.633C363.964 261.633 363.708 261.531 363.5 261.328C363.292 261.12 363.188 260.87 363.188 260.578C363.188 260.281 363.292 260.031 363.5 259.828C363.708 259.62 363.964 259.516 364.266 259.516C364.568 259.516 364.823 259.62 365.031 259.828C365.245 260.031 365.352 260.281 365.352 260.578C365.352 260.87 365.245 261.12 365.031 261.328ZM367.414 260.781H369.359V262.719H370.922V264.219H369.359V268.523C369.359 268.862 369.44 269.112 369.602 269.273C369.763 269.435 370.016 269.516 370.359 269.516C370.589 269.516 370.773 269.503 370.914 269.477V270.961C370.68 271.013 370.344 271.039 369.906 271.039C369.01 271.039 368.37 270.867 367.984 270.523C367.604 270.18 367.414 269.604 367.414 268.797V264.219H366.227V262.719H367.414V260.781ZM375.664 264.055C375.122 264.055 374.669 264.242 374.305 264.617C373.945 264.987 373.745 265.464 373.703 266.047H377.57C377.549 265.458 377.365 264.979 377.016 264.609C376.667 264.24 376.216 264.055 375.664 264.055ZM377.578 268.523H379.398C379.273 269.31 378.875 269.948 378.203 270.438C377.531 270.922 376.708 271.164 375.734 271.164C374.495 271.164 373.521 270.784 372.812 270.023C372.104 269.258 371.75 268.214 371.75 266.891C371.75 265.578 372.102 264.526 372.805 263.734C373.513 262.943 374.464 262.547 375.656 262.547C376.828 262.547 377.758 262.924 378.445 263.68C379.133 264.43 379.477 265.435 379.477 266.695V267.328H373.688V267.445C373.688 268.112 373.875 268.648 374.25 269.055C374.63 269.461 375.138 269.664 375.773 269.664C376.221 269.664 376.607 269.562 376.93 269.359C377.258 269.151 377.474 268.872 377.578 268.523ZM388.031 265.672H386.195C386.112 265.208 385.914 264.836 385.602 264.555C385.289 264.268 384.883 264.125 384.383 264.125C383.768 264.125 383.279 264.37 382.914 264.859C382.549 265.344 382.367 266.01 382.367 266.859C382.367 267.719 382.549 268.391 382.914 268.875C383.279 269.354 383.773 269.594 384.398 269.594C384.888 269.594 385.289 269.464 385.602 269.203C385.914 268.938 386.115 268.568 386.203 268.094H388.039C387.961 269.021 387.589 269.766 386.922 270.328C386.26 270.885 385.411 271.164 384.375 271.164C383.156 271.164 382.188 270.781 381.469 270.016C380.75 269.245 380.391 268.193 380.391 266.859C380.391 265.542 380.75 264.495 381.469 263.719C382.188 262.938 383.151 262.547 384.359 262.547C385.422 262.547 386.281 262.844 386.938 263.438C387.599 264.026 387.964 264.771 388.031 265.672ZM389.742 260.781H391.688V262.719H393.25V264.219H391.688V268.523C391.688 268.862 391.768 269.112 391.93 269.273C392.091 269.435 392.344 269.516 392.688 269.516C392.917 269.516 393.102 269.503 393.242 269.477V270.961C393.008 271.013 392.672 271.039 392.234 271.039C391.339 271.039 390.698 270.867 390.312 270.523C389.932 270.18 389.742 269.604 389.742 268.797V264.219H388.555V262.719H389.742V260.781ZM401.922 262.719V271H400.047V269.562H400.008C399.549 270.62 398.706 271.148 397.477 271.148C396.576 271.148 395.859 270.875 395.328 270.328C394.802 269.776 394.539 269.023 394.539 268.07V262.719H396.484V267.68C396.484 268.273 396.625 268.727 396.906 269.039C397.193 269.352 397.609 269.508 398.156 269.508C398.714 269.508 399.156 269.326 399.484 268.961C399.812 268.596 399.977 268.112 399.977 267.508V262.719H401.922ZM403.516 271V262.719H405.383V264.164H405.422C405.562 263.659 405.805 263.268 406.148 262.992C406.497 262.716 406.917 262.578 407.406 262.578C407.578 262.578 407.781 262.604 408.016 262.656V264.414C407.823 264.341 407.56 264.305 407.227 264.305C406.674 264.305 406.242 264.471 405.93 264.805C405.617 265.138 405.461 265.596 405.461 266.18V271H403.516ZM412.273 264.055C411.732 264.055 411.279 264.242 410.914 264.617C410.555 264.987 410.354 265.464 410.312 266.047H414.18C414.159 265.458 413.974 264.979 413.625 264.609C413.276 264.24 412.826 264.055 412.273 264.055ZM414.188 268.523H416.008C415.883 269.31 415.484 269.948 414.812 270.438C414.141 270.922 413.318 271.164 412.344 271.164C411.104 271.164 410.13 270.784 409.422 270.023C408.714 269.258 408.359 268.214 408.359 266.891C408.359 265.578 408.711 264.526 409.414 263.734C410.122 262.943 411.073 262.547 412.266 262.547C413.438 262.547 414.367 262.924 415.055 263.68C415.742 264.43 416.086 265.435 416.086 266.695V267.328H410.297V267.445C410.297 268.112 410.484 268.648 410.859 269.055C411.24 269.461 411.747 269.664 412.383 269.664C412.831 269.664 413.216 269.562 413.539 269.359C413.867 269.151 414.083 268.872 414.188 268.523Z" fill="#03156D"/>
<path d="M246.359 427L245.398 424.086H241.25L240.289 427H238.211L242.211 415.727H244.484L248.484 427H246.359ZM243.297 417.719L241.719 422.531H244.922L243.352 417.719H243.297ZM249.5 427V418.719H251.367V420.164H251.406C251.547 419.659 251.789 419.268 252.133 418.992C252.482 418.716 252.901 418.578 253.391 418.578C253.562 418.578 253.766 418.604 254 418.656V420.414C253.807 420.341 253.544 420.305 253.211 420.305C252.659 420.305 252.227 420.471 251.914 420.805C251.602 421.138 251.445 421.596 251.445 422.18V427H249.5ZM261.984 421.672H260.148C260.065 421.208 259.867 420.836 259.555 420.555C259.242 420.268 258.836 420.125 258.336 420.125C257.721 420.125 257.232 420.37 256.867 420.859C256.503 421.344 256.32 422.01 256.32 422.859C256.32 423.719 256.503 424.391 256.867 424.875C257.232 425.354 257.727 425.594 258.352 425.594C258.841 425.594 259.242 425.464 259.555 425.203C259.867 424.938 260.068 424.568 260.156 424.094H261.992C261.914 425.021 261.542 425.766 260.875 426.328C260.214 426.885 259.365 427.164 258.328 427.164C257.109 427.164 256.141 426.781 255.422 426.016C254.703 425.245 254.344 424.193 254.344 422.859C254.344 421.542 254.703 420.495 255.422 419.719C256.141 418.938 257.104 418.547 258.312 418.547C259.375 418.547 260.234 418.844 260.891 419.438C261.552 420.026 261.917 420.771 261.984 421.672ZM263.211 427V415.727H265.133V420.141H265.172C265.396 419.635 265.732 419.247 266.18 418.977C266.628 418.701 267.164 418.562 267.789 418.562C268.695 418.562 269.404 418.841 269.914 419.398C270.43 419.951 270.688 420.706 270.688 421.664V427H268.742V422.062C268.742 421.474 268.596 421.018 268.305 420.695C268.018 420.372 267.596 420.211 267.039 420.211C266.456 420.211 265.995 420.396 265.656 420.766C265.323 421.135 265.156 421.628 265.156 422.242V427H263.211ZM272.297 427V418.719H274.242V427H272.297ZM274.031 417.328C273.823 417.531 273.568 417.633 273.266 417.633C272.964 417.633 272.708 417.531 272.5 417.328C272.292 417.12 272.188 416.87 272.188 416.578C272.188 416.281 272.292 416.031 272.5 415.828C272.708 415.62 272.964 415.516 273.266 415.516C273.568 415.516 273.823 415.62 274.031 415.828C274.245 416.031 274.352 416.281 274.352 416.578C274.352 416.87 274.245 417.12 274.031 417.328ZM276.414 416.781H278.359V418.719H279.922V420.219H278.359V424.523C278.359 424.862 278.44 425.112 278.602 425.273C278.763 425.435 279.016 425.516 279.359 425.516C279.589 425.516 279.773 425.503 279.914 425.477V426.961C279.68 427.013 279.344 427.039 278.906 427.039C278.01 427.039 277.37 426.867 276.984 426.523C276.604 426.18 276.414 425.604 276.414 424.797V420.219H275.227V418.719H276.414V416.781ZM284.664 420.055C284.122 420.055 283.669 420.242 283.305 420.617C282.945 420.987 282.745 421.464 282.703 422.047H286.57C286.549 421.458 286.365 420.979 286.016 420.609C285.667 420.24 285.216 420.055 284.664 420.055ZM286.578 424.523H288.398C288.273 425.31 287.875 425.948 287.203 426.438C286.531 426.922 285.708 427.164 284.734 427.164C283.495 427.164 282.521 426.784 281.812 426.023C281.104 425.258 280.75 424.214 280.75 422.891C280.75 421.578 281.102 420.526 281.805 419.734C282.513 418.943 283.464 418.547 284.656 418.547C285.828 418.547 286.758 418.924 287.445 419.68C288.133 420.43 288.477 421.435 288.477 422.695V423.328H282.688V423.445C282.688 424.112 282.875 424.648 283.25 425.055C283.63 425.461 284.138 425.664 284.773 425.664C285.221 425.664 285.607 425.562 285.93 425.359C286.258 425.151 286.474 424.872 286.578 424.523ZM297.031 421.672H295.195C295.112 421.208 294.914 420.836 294.602 420.555C294.289 420.268 293.883 420.125 293.383 420.125C292.768 420.125 292.279 420.37 291.914 420.859C291.549 421.344 291.367 422.01 291.367 422.859C291.367 423.719 291.549 424.391 291.914 424.875C292.279 425.354 292.773 425.594 293.398 425.594C293.888 425.594 294.289 425.464 294.602 425.203C294.914 424.938 295.115 424.568 295.203 424.094H297.039C296.961 425.021 296.589 425.766 295.922 426.328C295.26 426.885 294.411 427.164 293.375 427.164C292.156 427.164 291.188 426.781 290.469 426.016C289.75 425.245 289.391 424.193 289.391 422.859C289.391 421.542 289.75 420.495 290.469 419.719C291.188 418.938 292.151 418.547 293.359 418.547C294.422 418.547 295.281 418.844 295.938 419.438C296.599 420.026 296.964 420.771 297.031 421.672ZM298.742 416.781H300.688V418.719H302.25V420.219H300.688V424.523C300.688 424.862 300.768 425.112 300.93 425.273C301.091 425.435 301.344 425.516 301.688 425.516C301.917 425.516 302.102 425.503 302.242 425.477V426.961C302.008 427.013 301.672 427.039 301.234 427.039C300.339 427.039 299.698 426.867 299.312 426.523C298.932 426.18 298.742 425.604 298.742 424.797V420.219H297.555V418.719H298.742V416.781ZM310.922 418.719V427H309.047V425.562H309.008C308.549 426.62 307.706 427.148 306.477 427.148C305.576 427.148 304.859 426.875 304.328 426.328C303.802 425.776 303.539 425.023 303.539 424.07V418.719H305.484V423.68C305.484 424.273 305.625 424.727 305.906 425.039C306.193 425.352 306.609 425.508 307.156 425.508C307.714 425.508 308.156 425.326 308.484 424.961C308.812 424.596 308.977 424.112 308.977 423.508V418.719H310.922ZM312.516 427V418.719H314.383V420.164H314.422C314.562 419.659 314.805 419.268 315.148 418.992C315.497 418.716 315.917 418.578 316.406 418.578C316.578 418.578 316.781 418.604 317.016 418.656V420.414C316.823 420.341 316.56 420.305 316.227 420.305C315.674 420.305 315.242 420.471 314.93 420.805C314.617 421.138 314.461 421.596 314.461 422.18V427H312.516ZM321.273 420.055C320.732 420.055 320.279 420.242 319.914 420.617C319.555 420.987 319.354 421.464 319.312 422.047H323.18C323.159 421.458 322.974 420.979 322.625 420.609C322.276 420.24 321.826 420.055 321.273 420.055ZM323.188 424.523H325.008C324.883 425.31 324.484 425.948 323.812 426.438C323.141 426.922 322.318 427.164 321.344 427.164C320.104 427.164 319.13 426.784 318.422 426.023C317.714 425.258 317.359 424.214 317.359 422.891C317.359 421.578 317.711 420.526 318.414 419.734C319.122 418.943 320.073 418.547 321.266 418.547C322.438 418.547 323.367 418.924 324.055 419.68C324.742 420.43 325.086 421.435 325.086 422.695V423.328H319.297V423.445C319.297 424.112 319.484 424.648 319.859 425.055C320.24 425.461 320.747 425.664 321.383 425.664C321.831 425.664 322.216 425.562 322.539 425.359C322.867 425.151 323.083 424.872 323.188 424.523Z" fill="#03156D"/>
<path d="M103.359 146L102.398 143.086H98.25L97.2891 146H95.2109L99.2109 134.727H101.484L105.484 146H103.359ZM100.297 136.719L98.7188 141.531H101.922L100.352 136.719H100.297ZM106.5 146V137.719H108.367V139.164H108.406C108.547 138.659 108.789 138.268 109.133 137.992C109.482 137.716 109.901 137.578 110.391 137.578C110.562 137.578 110.766 137.604 111 137.656V139.414C110.807 139.341 110.544 139.305 110.211 139.305C109.659 139.305 109.227 139.471 108.914 139.805C108.602 140.138 108.445 140.596 108.445 141.18V146H106.5ZM118.984 140.672H117.148C117.065 140.208 116.867 139.836 116.555 139.555C116.242 139.268 115.836 139.125 115.336 139.125C114.721 139.125 114.232 139.37 113.867 139.859C113.503 140.344 113.32 141.01 113.32 141.859C113.32 142.719 113.503 143.391 113.867 143.875C114.232 144.354 114.727 144.594 115.352 144.594C115.841 144.594 116.242 144.464 116.555 144.203C116.867 143.938 117.068 143.568 117.156 143.094H118.992C118.914 144.021 118.542 144.766 117.875 145.328C117.214 145.885 116.365 146.164 115.328 146.164C114.109 146.164 113.141 145.781 112.422 145.016C111.703 144.245 111.344 143.193 111.344 141.859C111.344 140.542 111.703 139.495 112.422 138.719C113.141 137.938 114.104 137.547 115.312 137.547C116.375 137.547 117.234 137.844 117.891 138.438C118.552 139.026 118.917 139.771 118.984 140.672ZM120.211 146V134.727H122.133V139.141H122.172C122.396 138.635 122.732 138.247 123.18 137.977C123.628 137.701 124.164 137.562 124.789 137.562C125.695 137.562 126.404 137.841 126.914 138.398C127.43 138.951 127.688 139.706 127.688 140.664V146H125.742V141.062C125.742 140.474 125.596 140.018 125.305 139.695C125.018 139.372 124.596 139.211 124.039 139.211C123.456 139.211 122.995 139.396 122.656 139.766C122.323 140.135 122.156 140.628 122.156 141.242V146H120.211ZM129.297 146V137.719H131.242V146H129.297ZM131.031 136.328C130.823 136.531 130.568 136.633 130.266 136.633C129.964 136.633 129.708 136.531 129.5 136.328C129.292 136.12 129.188 135.87 129.188 135.578C129.188 135.281 129.292 135.031 129.5 134.828C129.708 134.62 129.964 134.516 130.266 134.516C130.568 134.516 130.823 134.62 131.031 134.828C131.245 135.031 131.352 135.281 131.352 135.578C131.352 135.87 131.245 136.12 131.031 136.328ZM133.414 135.781H135.359V137.719H136.922V139.219H135.359V143.523C135.359 143.862 135.44 144.112 135.602 144.273C135.763 144.435 136.016 144.516 136.359 144.516C136.589 144.516 136.773 144.503 136.914 144.477V145.961C136.68 146.013 136.344 146.039 135.906 146.039C135.01 146.039 134.37 145.867 133.984 145.523C133.604 145.18 133.414 144.604 133.414 143.797V139.219H132.227V137.719H133.414V135.781ZM141.664 139.055C141.122 139.055 140.669 139.242 140.305 139.617C139.945 139.987 139.745 140.464 139.703 141.047H143.57C143.549 140.458 143.365 139.979 143.016 139.609C142.667 139.24 142.216 139.055 141.664 139.055ZM143.578 143.523H145.398C145.273 144.31 144.875 144.948 144.203 145.438C143.531 145.922 142.708 146.164 141.734 146.164C140.495 146.164 139.521 145.784 138.812 145.023C138.104 144.258 137.75 143.214 137.75 141.891C137.75 140.578 138.102 139.526 138.805 138.734C139.513 137.943 140.464 137.547 141.656 137.547C142.828 137.547 143.758 137.924 144.445 138.68C145.133 139.43 145.477 140.435 145.477 141.695V142.328H139.688V142.445C139.688 143.112 139.875 143.648 140.25 144.055C140.63 144.461 141.138 144.664 141.773 144.664C142.221 144.664 142.607 144.562 142.93 144.359C143.258 144.151 143.474 143.872 143.578 143.523ZM154.031 140.672H152.195C152.112 140.208 151.914 139.836 151.602 139.555C151.289 139.268 150.883 139.125 150.383 139.125C149.768 139.125 149.279 139.37 148.914 139.859C148.549 140.344 148.367 141.01 148.367 141.859C148.367 142.719 148.549 143.391 148.914 143.875C149.279 144.354 149.773 144.594 150.398 144.594C150.888 144.594 151.289 144.464 151.602 144.203C151.914 143.938 152.115 143.568 152.203 143.094H154.039C153.961 144.021 153.589 144.766 152.922 145.328C152.26 145.885 151.411 146.164 150.375 146.164C149.156 146.164 148.188 145.781 147.469 145.016C146.75 144.245 146.391 143.193 146.391 141.859C146.391 140.542 146.75 139.495 147.469 138.719C148.188 137.938 149.151 137.547 150.359 137.547C151.422 137.547 152.281 137.844 152.938 138.438C153.599 139.026 153.964 139.771 154.031 140.672ZM155.742 135.781H157.688V137.719H159.25V139.219H157.688V143.523C157.688 143.862 157.768 144.112 157.93 144.273C158.091 144.435 158.344 144.516 158.688 144.516C158.917 144.516 159.102 144.503 159.242 144.477V145.961C159.008 146.013 158.672 146.039 158.234 146.039C157.339 146.039 156.698 145.867 156.312 145.523C155.932 145.18 155.742 144.604 155.742 143.797V139.219H154.555V137.719H155.742V135.781ZM167.922 137.719V146H166.047V144.562H166.008C165.549 145.62 164.706 146.148 163.477 146.148C162.576 146.148 161.859 145.875 161.328 145.328C160.802 144.776 160.539 144.023 160.539 143.07V137.719H162.484V142.68C162.484 143.273 162.625 143.727 162.906 144.039C163.193 144.352 163.609 144.508 164.156 144.508C164.714 144.508 165.156 144.326 165.484 143.961C165.812 143.596 165.977 143.112 165.977 142.508V137.719H167.922ZM169.516 146V137.719H171.383V139.164H171.422C171.562 138.659 171.805 138.268 172.148 137.992C172.497 137.716 172.917 137.578 173.406 137.578C173.578 137.578 173.781 137.604 174.016 137.656V139.414C173.823 139.341 173.56 139.305 173.227 139.305C172.674 139.305 172.242 139.471 171.93 139.805C171.617 140.138 171.461 140.596 171.461 141.18V146H169.516ZM178.273 139.055C177.732 139.055 177.279 139.242 176.914 139.617C176.555 139.987 176.354 140.464 176.312 141.047H180.18C180.159 140.458 179.974 139.979 179.625 139.609C179.276 139.24 178.826 139.055 178.273 139.055ZM180.188 143.523H182.008C181.883 144.31 181.484 144.948 180.812 145.438C180.141 145.922 179.318 146.164 178.344 146.164C177.104 146.164 176.13 145.784 175.422 145.023C174.714 144.258 174.359 143.214 174.359 141.891C174.359 140.578 174.711 139.526 175.414 138.734C176.122 137.943 177.073 137.547 178.266 137.547C179.438 137.547 180.367 137.924 181.055 138.68C181.742 139.43 182.086 140.435 182.086 141.695V142.328H176.297V142.445C176.297 143.112 176.484 143.648 176.859 144.055C177.24 144.461 177.747 144.664 178.383 144.664C178.831 144.664 179.216 144.562 179.539 144.359C179.867 144.151 180.083 143.872 180.188 143.523Z" fill="#03156D"/>
<path d="M103.359 146L102.398 143.086H98.25L97.2891 146H95.2109L99.2109 134.727H101.484L105.484 146H103.359ZM100.297 136.719L98.7188 141.531H101.922L100.352 136.719H100.297ZM106.5 146V137.719H108.367V139.164H108.406C108.547 138.659 108.789 138.268 109.133 137.992C109.482 137.716 109.901 137.578 110.391 137.578C110.562 137.578 110.766 137.604 111 137.656V139.414C110.807 139.341 110.544 139.305 110.211 139.305C109.659 139.305 109.227 139.471 108.914 139.805C108.602 140.138 108.445 140.596 108.445 141.18V146H106.5ZM118.984 140.672H117.148C117.065 140.208 116.867 139.836 116.555 139.555C116.242 139.268 115.836 139.125 115.336 139.125C114.721 139.125 114.232 139.37 113.867 139.859C113.503 140.344 113.32 141.01 113.32 141.859C113.32 142.719 113.503 143.391 113.867 143.875C114.232 144.354 114.727 144.594 115.352 144.594C115.841 144.594 116.242 144.464 116.555 144.203C116.867 143.938 117.068 143.568 117.156 143.094H118.992C118.914 144.021 118.542 144.766 117.875 145.328C117.214 145.885 116.365 146.164 115.328 146.164C114.109 146.164 113.141 145.781 112.422 145.016C111.703 144.245 111.344 143.193 111.344 141.859C111.344 140.542 111.703 139.495 112.422 138.719C113.141 137.938 114.104 137.547 115.312 137.547C116.375 137.547 117.234 137.844 117.891 138.438C118.552 139.026 118.917 139.771 118.984 140.672ZM120.211 146V134.727H122.133V139.141H122.172C122.396 138.635 122.732 138.247 123.18 137.977C123.628 137.701 124.164 137.562 124.789 137.562C125.695 137.562 126.404 137.841 126.914 138.398C127.43 138.951 127.688 139.706 127.688 140.664V146H125.742V141.062C125.742 140.474 125.596 140.018 125.305 139.695C125.018 139.372 124.596 139.211 124.039 139.211C123.456 139.211 122.995 139.396 122.656 139.766C122.323 140.135 122.156 140.628 122.156 141.242V146H120.211ZM129.297 146V137.719H131.242V146H129.297ZM131.031 136.328C130.823 136.531 130.568 136.633 130.266 136.633C129.964 136.633 129.708 136.531 129.5 136.328C129.292 136.12 129.188 135.87 129.188 135.578C129.188 135.281 129.292 135.031 129.5 134.828C129.708 134.62 129.964 134.516 130.266 134.516C130.568 134.516 130.823 134.62 131.031 134.828C131.245 135.031 131.352 135.281 131.352 135.578C131.352 135.87 131.245 136.12 131.031 136.328ZM133.414 135.781H135.359V137.719H136.922V139.219H135.359V143.523C135.359 143.862 135.44 144.112 135.602 144.273C135.763 144.435 136.016 144.516 136.359 144.516C136.589 144.516 136.773 144.503 136.914 144.477V145.961C136.68 146.013 136.344 146.039 135.906 146.039C135.01 146.039 134.37 145.867 133.984 145.523C133.604 145.18 133.414 144.604 133.414 143.797V139.219H132.227V137.719H133.414V135.781ZM141.664 139.055C141.122 139.055 140.669 139.242 140.305 139.617C139.945 139.987 139.745 140.464 139.703 141.047H143.57C143.549 140.458 143.365 139.979 143.016 139.609C142.667 139.24 142.216 139.055 141.664 139.055ZM143.578 143.523H145.398C145.273 144.31 144.875 144.948 144.203 145.438C143.531 145.922 142.708 146.164 141.734 146.164C140.495 146.164 139.521 145.784 138.812 145.023C138.104 144.258 137.75 143.214 137.75 141.891C137.75 140.578 138.102 139.526 138.805 138.734C139.513 137.943 140.464 137.547 141.656 137.547C142.828 137.547 143.758 137.924 144.445 138.68C145.133 139.43 145.477 140.435 145.477 141.695V142.328H139.688V142.445C139.688 143.112 139.875 143.648 140.25 144.055C140.63 144.461 141.138 144.664 141.773 144.664C142.221 144.664 142.607 144.562 142.93 144.359C143.258 144.151 143.474 143.872 143.578 143.523ZM154.031 140.672H152.195C152.112 140.208 151.914 139.836 151.602 139.555C151.289 139.268 150.883 139.125 150.383 139.125C149.768 139.125 149.279 139.37 148.914 139.859C148.549 140.344 148.367 141.01 148.367 141.859C148.367 142.719 148.549 143.391 148.914 143.875C149.279 144.354 149.773 144.594 150.398 144.594C150.888 144.594 151.289 144.464 151.602 144.203C151.914 143.938 152.115 143.568 152.203 143.094H154.039C153.961 144.021 153.589 144.766 152.922 145.328C152.26 145.885 151.411 146.164 150.375 146.164C149.156 146.164 148.188 145.781 147.469 145.016C146.75 144.245 146.391 143.193 146.391 141.859C146.391 140.542 146.75 139.495 147.469 138.719C148.188 137.938 149.151 137.547 150.359 137.547C151.422 137.547 152.281 137.844 152.938 138.438C153.599 139.026 153.964 139.771 154.031 140.672ZM155.742 135.781H157.688V137.719H159.25V139.219H157.688V143.523C157.688 143.862 157.768 144.112 157.93 144.273C158.091 144.435 158.344 144.516 158.688 144.516C158.917 144.516 159.102 144.503 159.242 144.477V145.961C159.008 146.013 158.672 146.039 158.234 146.039C157.339 146.039 156.698 145.867 156.312 145.523C155.932 145.18 155.742 144.604 155.742 143.797V139.219H154.555V137.719H155.742V135.781ZM167.922 137.719V146H166.047V144.562H166.008C165.549 145.62 164.706 146.148 163.477 146.148C162.576 146.148 161.859 145.875 161.328 145.328C160.802 144.776 160.539 144.023 160.539 143.07V137.719H162.484V142.68C162.484 143.273 162.625 143.727 162.906 144.039C163.193 144.352 163.609 144.508 164.156 144.508C164.714 144.508 165.156 144.326 165.484 143.961C165.812 143.596 165.977 143.112 165.977 142.508V137.719H167.922ZM169.516 146V137.719H171.383V139.164H171.422C171.562 138.659 171.805 138.268 172.148 137.992C172.497 137.716 172.917 137.578 173.406 137.578C173.578 137.578 173.781 137.604 174.016 137.656V139.414C173.823 139.341 173.56 139.305 173.227 139.305C172.674 139.305 172.242 139.471 171.93 139.805C171.617 140.138 171.461 140.596 171.461 141.18V146H169.516ZM178.273 139.055C177.732 139.055 177.279 139.242 176.914 139.617C176.555 139.987 176.354 140.464 176.312 141.047H180.18C180.159 140.458 179.974 139.979 179.625 139.609C179.276 139.24 178.826 139.055 178.273 139.055ZM180.188 143.523H182.008C181.883 144.31 181.484 144.948 180.812 145.438C180.141 145.922 179.318 146.164 178.344 146.164C177.104 146.164 176.13 145.784 175.422 145.023C174.714 144.258 174.359 143.214 174.359 141.891C174.359 140.578 174.711 139.526 175.414 138.734C176.122 137.943 177.073 137.547 178.266 137.547C179.438 137.547 180.367 137.924 181.055 138.68C181.742 139.43 182.086 140.435 182.086 141.695V142.328H176.297V142.445C176.297 143.112 176.484 143.648 176.859 144.055C177.24 144.461 177.747 144.664 178.383 144.664C178.831 144.664 179.216 144.562 179.539 144.359C179.867 144.151 180.083 143.872 180.188 143.523Z" fill="#03156D"/>
<path d="M928.359 428L927.398 425.086H923.25L922.289 428H920.211L924.211 416.727H926.484L930.484 428H928.359ZM925.297 418.719L923.719 423.531H926.922L925.352 418.719H925.297ZM931.5 428V419.719H933.367V421.164H933.406C933.547 420.659 933.789 420.268 934.133 419.992C934.482 419.716 934.901 419.578 935.391 419.578C935.562 419.578 935.766 419.604 936 419.656V421.414C935.807 421.341 935.544 421.305 935.211 421.305C934.659 421.305 934.227 421.471 933.914 421.805C933.602 422.138 933.445 422.596 933.445 423.18V428H931.5ZM943.984 422.672H942.148C942.065 422.208 941.867 421.836 941.555 421.555C941.242 421.268 940.836 421.125 940.336 421.125C939.721 421.125 939.232 421.37 938.867 421.859C938.503 422.344 938.32 423.01 938.32 423.859C938.32 424.719 938.503 425.391 938.867 425.875C939.232 426.354 939.727 426.594 940.352 426.594C940.841 426.594 941.242 426.464 941.555 426.203C941.867 425.938 942.068 425.568 942.156 425.094H943.992C943.914 426.021 943.542 426.766 942.875 427.328C942.214 427.885 941.365 428.164 940.328 428.164C939.109 428.164 938.141 427.781 937.422 427.016C936.703 426.245 936.344 425.193 936.344 423.859C936.344 422.542 936.703 421.495 937.422 420.719C938.141 419.938 939.104 419.547 940.312 419.547C941.375 419.547 942.234 419.844 942.891 420.438C943.552 421.026 943.917 421.771 943.984 422.672ZM945.211 428V416.727H947.133V421.141H947.172C947.396 420.635 947.732 420.247 948.18 419.977C948.628 419.701 949.164 419.562 949.789 419.562C950.695 419.562 951.404 419.841 951.914 420.398C952.43 420.951 952.688 421.706 952.688 422.664V428H950.742V423.062C950.742 422.474 950.596 422.018 950.305 421.695C950.018 421.372 949.596 421.211 949.039 421.211C948.456 421.211 947.995 421.396 947.656 421.766C947.323 422.135 947.156 422.628 947.156 423.242V428H945.211ZM954.297 428V419.719H956.242V428H954.297ZM956.031 418.328C955.823 418.531 955.568 418.633 955.266 418.633C954.964 418.633 954.708 418.531 954.5 418.328C954.292 418.12 954.188 417.87 954.188 417.578C954.188 417.281 954.292 417.031 954.5 416.828C954.708 416.62 954.964 416.516 955.266 416.516C955.568 416.516 955.823 416.62 956.031 416.828C956.245 417.031 956.352 417.281 956.352 417.578C956.352 417.87 956.245 418.12 956.031 418.328ZM958.414 417.781H960.359V419.719H961.922V421.219H960.359V425.523C960.359 425.862 960.44 426.112 960.602 426.273C960.763 426.435 961.016 426.516 961.359 426.516C961.589 426.516 961.773 426.503 961.914 426.477V427.961C961.68 428.013 961.344 428.039 960.906 428.039C960.01 428.039 959.37 427.867 958.984 427.523C958.604 427.18 958.414 426.604 958.414 425.797V421.219H957.227V419.719H958.414V417.781ZM966.664 421.055C966.122 421.055 965.669 421.242 965.305 421.617C964.945 421.987 964.745 422.464 964.703 423.047H968.57C968.549 422.458 968.365 421.979 968.016 421.609C967.667 421.24 967.216 421.055 966.664 421.055ZM968.578 425.523H970.398C970.273 426.31 969.875 426.948 969.203 427.438C968.531 427.922 967.708 428.164 966.734 428.164C965.495 428.164 964.521 427.784 963.812 427.023C963.104 426.258 962.75 425.214 962.75 423.891C962.75 422.578 963.102 421.526 963.805 420.734C964.513 419.943 965.464 419.547 966.656 419.547C967.828 419.547 968.758 419.924 969.445 420.68C970.133 421.43 970.477 422.435 970.477 423.695V424.328H964.688V424.445C964.688 425.112 964.875 425.648 965.25 426.055C965.63 426.461 966.138 426.664 966.773 426.664C967.221 426.664 967.607 426.562 967.93 426.359C968.258 426.151 968.474 425.872 968.578 425.523ZM979.031 422.672H977.195C977.112 422.208 976.914 421.836 976.602 421.555C976.289 421.268 975.883 421.125 975.383 421.125C974.768 421.125 974.279 421.37 973.914 421.859C973.549 422.344 973.367 423.01 973.367 423.859C973.367 424.719 973.549 425.391 973.914 425.875C974.279 426.354 974.773 426.594 975.398 426.594C975.888 426.594 976.289 426.464 976.602 426.203C976.914 425.938 977.115 425.568 977.203 425.094H979.039C978.961 426.021 978.589 426.766 977.922 427.328C977.26 427.885 976.411 428.164 975.375 428.164C974.156 428.164 973.188 427.781 972.469 427.016C971.75 426.245 971.391 425.193 971.391 423.859C971.391 422.542 971.75 421.495 972.469 420.719C973.188 419.938 974.151 419.547 975.359 419.547C976.422 419.547 977.281 419.844 977.938 420.438C978.599 421.026 978.964 421.771 979.031 422.672ZM980.742 417.781H982.688V419.719H984.25V421.219H982.688V425.523C982.688 425.862 982.768 426.112 982.93 426.273C983.091 426.435 983.344 426.516 983.688 426.516C983.917 426.516 984.102 426.503 984.242 426.477V427.961C984.008 428.013 983.672 428.039 983.234 428.039C982.339 428.039 981.698 427.867 981.312 427.523C980.932 427.18 980.742 426.604 980.742 425.797V421.219H979.555V419.719H980.742V417.781ZM992.922 419.719V428H991.047V426.562H991.008C990.549 427.62 989.706 428.148 988.477 428.148C987.576 428.148 986.859 427.875 986.328 427.328C985.802 426.776 985.539 426.023 985.539 425.07V419.719H987.484V424.68C987.484 425.273 987.625 425.727 987.906 426.039C988.193 426.352 988.609 426.508 989.156 426.508C989.714 426.508 990.156 426.326 990.484 425.961C990.812 425.596 990.977 425.112 990.977 424.508V419.719H992.922ZM994.516 428V419.719H996.383V421.164H996.422C996.562 420.659 996.805 420.268 997.148 419.992C997.497 419.716 997.917 419.578 998.406 419.578C998.578 419.578 998.781 419.604 999.016 419.656V421.414C998.823 421.341 998.56 421.305 998.227 421.305C997.674 421.305 997.242 421.471 996.93 421.805C996.617 422.138 996.461 422.596 996.461 423.18V428H994.516ZM1003.27 421.055C1002.73 421.055 1002.28 421.242 1001.91 421.617C1001.55 421.987 1001.35 422.464 1001.31 423.047H1005.18C1005.16 422.458 1004.97 421.979 1004.62 421.609C1004.28 421.24 1003.83 421.055 1003.27 421.055ZM1005.19 425.523H1007.01C1006.88 426.31 1006.48 426.948 1005.81 427.438C1005.14 427.922 1004.32 428.164 1003.34 428.164C1002.1 428.164 1001.13 427.784 1000.42 427.023C999.714 426.258 999.359 425.214 999.359 423.891C999.359 422.578 999.711 421.526 1000.41 420.734C1001.12 419.943 1002.07 419.547 1003.27 419.547C1004.44 419.547 1005.37 419.924 1006.05 420.68C1006.74 421.43 1007.09 422.435 1007.09 423.695V424.328H1001.3V424.445C1001.3 425.112 1001.48 425.648 1001.86 426.055C1002.24 426.461 1002.75 426.664 1003.38 426.664C1003.83 426.664 1004.22 426.562 1004.54 426.359C1004.87 426.151 1005.08 425.872 1005.19 425.523Z" fill="#03156D"/>
<path d="M587.359 431L586.398 428.086H582.25L581.289 431H579.211L583.211 419.727H585.484L589.484 431H587.359ZM584.297 421.719L582.719 426.531H585.922L584.352 421.719H584.297ZM590.5 431V422.719H592.367V424.164H592.406C592.547 423.659 592.789 423.268 593.133 422.992C593.482 422.716 593.901 422.578 594.391 422.578C594.562 422.578 594.766 422.604 595 422.656V424.414C594.807 424.341 594.544 424.305 594.211 424.305C593.659 424.305 593.227 424.471 592.914 424.805C592.602 425.138 592.445 425.596 592.445 426.18V431H590.5ZM602.984 425.672H601.148C601.065 425.208 600.867 424.836 600.555 424.555C600.242 424.268 599.836 424.125 599.336 424.125C598.721 424.125 598.232 424.37 597.867 424.859C597.503 425.344 597.32 426.01 597.32 426.859C597.32 427.719 597.503 428.391 597.867 428.875C598.232 429.354 598.727 429.594 599.352 429.594C599.841 429.594 600.242 429.464 600.555 429.203C600.867 428.938 601.068 428.568 601.156 428.094H602.992C602.914 429.021 602.542 429.766 601.875 430.328C601.214 430.885 600.365 431.164 599.328 431.164C598.109 431.164 597.141 430.781 596.422 430.016C595.703 429.245 595.344 428.193 595.344 426.859C595.344 425.542 595.703 424.495 596.422 423.719C597.141 422.938 598.104 422.547 599.312 422.547C600.375 422.547 601.234 422.844 601.891 423.438C602.552 424.026 602.917 424.771 602.984 425.672ZM604.211 431V419.727H606.133V424.141H606.172C606.396 423.635 606.732 423.247 607.18 422.977C607.628 422.701 608.164 422.562 608.789 422.562C609.695 422.562 610.404 422.841 610.914 423.398C611.43 423.951 611.688 424.706 611.688 425.664V431H609.742V426.062C609.742 425.474 609.596 425.018 609.305 424.695C609.018 424.372 608.596 424.211 608.039 424.211C607.456 424.211 606.995 424.396 606.656 424.766C606.323 425.135 606.156 425.628 606.156 426.242V431H604.211ZM613.297 431V422.719H615.242V431H613.297ZM615.031 421.328C614.823 421.531 614.568 421.633 614.266 421.633C613.964 421.633 613.708 421.531 613.5 421.328C613.292 421.12 613.188 420.87 613.188 420.578C613.188 420.281 613.292 420.031 613.5 419.828C613.708 419.62 613.964 419.516 614.266 419.516C614.568 419.516 614.823 419.62 615.031 419.828C615.245 420.031 615.352 420.281 615.352 420.578C615.352 420.87 615.245 421.12 615.031 421.328ZM617.414 420.781H619.359V422.719H620.922V424.219H619.359V428.523C619.359 428.862 619.44 429.112 619.602 429.273C619.763 429.435 620.016 429.516 620.359 429.516C620.589 429.516 620.773 429.503 620.914 429.477V430.961C620.68 431.013 620.344 431.039 619.906 431.039C619.01 431.039 618.37 430.867 617.984 430.523C617.604 430.18 617.414 429.604 617.414 428.797V424.219H616.227V422.719H617.414V420.781ZM625.664 424.055C625.122 424.055 624.669 424.242 624.305 424.617C623.945 424.987 623.745 425.464 623.703 426.047H627.57C627.549 425.458 627.365 424.979 627.016 424.609C626.667 424.24 626.216 424.055 625.664 424.055ZM627.578 428.523H629.398C629.273 429.31 628.875 429.948 628.203 430.438C627.531 430.922 626.708 431.164 625.734 431.164C624.495 431.164 623.521 430.784 622.812 430.023C622.104 429.258 621.75 428.214 621.75 426.891C621.75 425.578 622.102 424.526 622.805 423.734C623.513 422.943 624.464 422.547 625.656 422.547C626.828 422.547 627.758 422.924 628.445 423.68C629.133 424.43 629.477 425.435 629.477 426.695V427.328H623.688V427.445C623.688 428.112 623.875 428.648 624.25 429.055C624.63 429.461 625.138 429.664 625.773 429.664C626.221 429.664 626.607 429.562 626.93 429.359C627.258 429.151 627.474 428.872 627.578 428.523ZM638.031 425.672H636.195C636.112 425.208 635.914 424.836 635.602 424.555C635.289 424.268 634.883 424.125 634.383 424.125C633.768 424.125 633.279 424.37 632.914 424.859C632.549 425.344 632.367 426.01 632.367 426.859C632.367 427.719 632.549 428.391 632.914 428.875C633.279 429.354 633.773 429.594 634.398 429.594C634.888 429.594 635.289 429.464 635.602 429.203C635.914 428.938 636.115 428.568 636.203 428.094H638.039C637.961 429.021 637.589 429.766 636.922 430.328C636.26 430.885 635.411 431.164 634.375 431.164C633.156 431.164 632.188 430.781 631.469 430.016C630.75 429.245 630.391 428.193 630.391 426.859C630.391 425.542 630.75 424.495 631.469 423.719C632.188 422.938 633.151 422.547 634.359 422.547C635.422 422.547 636.281 422.844 636.938 423.438C637.599 424.026 637.964 424.771 638.031 425.672ZM639.742 420.781H641.688V422.719H643.25V424.219H641.688V428.523C641.688 428.862 641.768 429.112 641.93 429.273C642.091 429.435 642.344 429.516 642.688 429.516C642.917 429.516 643.102 429.503 643.242 429.477V430.961C643.008 431.013 642.672 431.039 642.234 431.039C641.339 431.039 640.698 430.867 640.312 430.523C639.932 430.18 639.742 429.604 639.742 428.797V424.219H638.555V422.719H639.742V420.781ZM651.922 422.719V431H650.047V429.562H650.008C649.549 430.62 648.706 431.148 647.477 431.148C646.576 431.148 645.859 430.875 645.328 430.328C644.802 429.776 644.539 429.023 644.539 428.07V422.719H646.484V427.68C646.484 428.273 646.625 428.727 646.906 429.039C647.193 429.352 647.609 429.508 648.156 429.508C648.714 429.508 649.156 429.326 649.484 428.961C649.812 428.596 649.977 428.112 649.977 427.508V422.719H651.922ZM653.516 431V422.719H655.383V424.164H655.422C655.562 423.659 655.805 423.268 656.148 422.992C656.497 422.716 656.917 422.578 657.406 422.578C657.578 422.578 657.781 422.604 658.016 422.656V424.414C657.823 424.341 657.56 424.305 657.227 424.305C656.674 424.305 656.242 424.471 655.93 424.805C655.617 425.138 655.461 425.596 655.461 426.18V431H653.516ZM662.273 424.055C661.732 424.055 661.279 424.242 660.914 424.617C660.555 424.987 660.354 425.464 660.312 426.047H664.18C664.159 425.458 663.974 424.979 663.625 424.609C663.276 424.24 662.826 424.055 662.273 424.055ZM664.188 428.523H666.008C665.883 429.31 665.484 429.948 664.812 430.438C664.141 430.922 663.318 431.164 662.344 431.164C661.104 431.164 660.13 430.784 659.422 430.023C658.714 429.258 658.359 428.214 658.359 426.891C658.359 425.578 658.711 424.526 659.414 423.734C660.122 422.943 661.073 422.547 662.266 422.547C663.438 422.547 664.367 422.924 665.055 423.68C665.742 424.43 666.086 425.435 666.086 426.695V427.328H660.297V427.445C660.297 428.112 660.484 428.648 660.859 429.055C661.24 429.461 661.747 429.664 662.383 429.664C662.831 429.664 663.216 429.562 663.539 429.359C663.867 429.151 664.083 428.872 664.188 428.523Z" fill="#03156D"/>
<path d="M1077.5 142H1075.49V137.109H1070.01V142H1067.99V130.727H1070.01V135.414H1075.49V130.727H1077.5V142ZM1082.87 135.055C1082.33 135.055 1081.87 135.242 1081.51 135.617C1081.15 135.987 1080.95 136.464 1080.91 137.047H1084.77C1084.75 136.458 1084.57 135.979 1084.22 135.609C1083.87 135.24 1083.42 135.055 1082.87 135.055ZM1084.78 139.523H1086.6C1086.48 140.31 1086.08 140.948 1085.41 141.438C1084.73 141.922 1083.91 142.164 1082.94 142.164C1081.7 142.164 1080.72 141.784 1080.02 141.023C1079.31 140.258 1078.95 139.214 1078.95 137.891C1078.95 136.578 1079.3 135.526 1080.01 134.734C1080.72 133.943 1081.67 133.547 1082.86 133.547C1084.03 133.547 1084.96 133.924 1085.65 134.68C1086.34 135.43 1086.68 136.435 1086.68 137.695V138.328H1080.89V138.445C1080.89 139.112 1081.08 139.648 1081.45 140.055C1081.83 140.461 1082.34 140.664 1082.98 140.664C1083.42 140.664 1083.81 140.562 1084.13 140.359C1084.46 140.151 1084.68 139.872 1084.78 139.523ZM1090.96 140.664C1091.52 140.664 1091.99 140.5 1092.37 140.172C1092.75 139.839 1092.95 139.424 1092.95 138.93V138.297L1091.03 138.414C1090.56 138.445 1090.2 138.562 1089.94 138.766C1089.68 138.964 1089.55 139.227 1089.55 139.555C1089.55 139.893 1089.68 140.164 1089.94 140.367C1090.2 140.565 1090.54 140.664 1090.96 140.664ZM1090.38 142.133C1089.57 142.133 1088.9 141.901 1088.38 141.438C1087.87 140.974 1087.61 140.372 1087.61 139.633C1087.61 138.898 1087.88 138.318 1088.42 137.891C1088.97 137.464 1089.75 137.219 1090.76 137.156L1092.95 137.031V136.438C1092.95 136.005 1092.81 135.669 1092.53 135.43C1092.26 135.19 1091.88 135.07 1091.4 135.07C1090.95 135.07 1090.58 135.172 1090.29 135.375C1090 135.578 1089.83 135.854 1089.77 136.203H1087.96C1088 135.417 1088.34 134.779 1088.97 134.289C1089.6 133.794 1090.44 133.547 1091.48 133.547C1092.5 133.547 1093.32 133.797 1093.94 134.297C1094.56 134.797 1094.87 135.464 1094.87 136.297V142H1092.99V140.68H1092.95C1092.72 141.122 1092.36 141.477 1091.89 141.742C1091.42 142.003 1090.91 142.133 1090.38 142.133ZM1096.49 142V130.727H1098.44V142H1096.49ZM1100.63 131.781H1102.58V133.719H1104.14V135.219H1102.58V139.523C1102.58 139.862 1102.66 140.112 1102.82 140.273C1102.98 140.435 1103.23 140.516 1103.58 140.516C1103.81 140.516 1103.99 140.503 1104.13 140.477V141.961C1103.9 142.013 1103.56 142.039 1103.12 142.039C1102.23 142.039 1101.59 141.867 1101.2 141.523C1100.82 141.18 1100.63 140.604 1100.63 139.797V135.219H1099.45V133.719H1100.63V131.781ZM1105.52 142V130.727H1107.45V135.141H1107.48C1107.71 134.635 1108.04 134.247 1108.49 133.977C1108.94 133.701 1109.48 133.562 1110.1 133.562C1111.01 133.562 1111.72 133.841 1112.23 134.398C1112.74 134.951 1113 135.706 1113 136.664V142H1111.05V137.062C1111.05 136.474 1110.91 136.018 1110.62 135.695C1110.33 135.372 1109.91 135.211 1109.35 135.211C1108.77 135.211 1108.31 135.396 1107.97 135.766C1107.64 136.135 1107.47 136.628 1107.47 137.242V142H1105.52ZM1122.82 142.188C1121.21 142.188 1119.93 141.667 1118.98 140.625C1118.05 139.583 1117.58 138.161 1117.58 136.359C1117.58 134.568 1118.05 133.151 1118.99 132.109C1119.94 131.062 1121.22 130.539 1122.82 130.539C1124.13 130.539 1125.24 130.914 1126.14 131.664C1127.04 132.409 1127.55 133.385 1127.68 134.594H1125.7C1125.57 133.885 1125.23 133.318 1124.7 132.891C1124.18 132.464 1123.55 132.25 1122.82 132.25C1121.85 132.25 1121.08 132.622 1120.5 133.367C1119.93 134.107 1119.64 135.104 1119.64 136.359C1119.64 137.625 1119.93 138.628 1120.5 139.367C1121.07 140.107 1121.85 140.477 1122.83 140.477C1123.57 140.477 1124.2 140.286 1124.7 139.906C1125.21 139.521 1125.55 138.99 1125.7 138.312H1127.68C1127.5 139.521 1126.98 140.469 1126.12 141.156C1125.25 141.844 1124.15 142.188 1122.82 142.188ZM1132.01 140.664C1132.57 140.664 1133.03 140.5 1133.41 140.172C1133.8 139.839 1133.99 139.424 1133.99 138.93V138.297L1132.08 138.414C1131.61 138.445 1131.24 138.562 1130.98 138.766C1130.73 138.964 1130.6 139.227 1130.6 139.555C1130.6 139.893 1130.73 140.164 1130.98 140.367C1131.24 140.565 1131.59 140.664 1132.01 140.664ZM1131.42 142.133C1130.61 142.133 1129.95 141.901 1129.43 141.438C1128.91 140.974 1128.66 140.372 1128.66 139.633C1128.66 138.898 1128.93 138.318 1129.47 137.891C1130.02 137.464 1130.79 137.219 1131.8 137.156L1133.99 137.031V136.438C1133.99 136.005 1133.85 135.669 1133.58 135.43C1133.31 135.19 1132.93 135.07 1132.45 135.07C1131.99 135.07 1131.62 135.172 1131.34 135.375C1131.05 135.578 1130.88 135.854 1130.81 136.203H1129.01C1129.05 135.417 1129.39 134.779 1130.02 134.289C1130.65 133.794 1131.49 133.547 1132.52 133.547C1133.55 133.547 1134.37 133.797 1134.98 134.297C1135.6 134.797 1135.91 135.464 1135.91 136.297V142H1134.04V140.68H1134C1133.77 141.122 1133.41 141.477 1132.94 141.742C1132.46 142.003 1131.96 142.133 1131.42 142.133ZM1137.48 142V133.719H1139.35V135.164H1139.39C1139.53 134.659 1139.77 134.268 1140.12 133.992C1140.47 133.716 1140.89 133.578 1141.38 133.578C1141.55 133.578 1141.75 133.604 1141.98 133.656V135.414C1141.79 135.341 1141.53 135.305 1141.2 135.305C1140.64 135.305 1140.21 135.471 1139.9 135.805C1139.59 136.138 1139.43 136.596 1139.43 137.18V142H1137.48ZM1146.24 135.055C1145.7 135.055 1145.25 135.242 1144.88 135.617C1144.52 135.987 1144.32 136.464 1144.28 137.047H1148.15C1148.13 136.458 1147.94 135.979 1147.59 135.609C1147.24 135.24 1146.79 135.055 1146.24 135.055ZM1148.16 139.523H1149.98C1149.85 140.31 1149.45 140.948 1148.78 141.438C1148.11 141.922 1147.29 142.164 1146.31 142.164C1145.07 142.164 1144.1 141.784 1143.39 141.023C1142.68 140.258 1142.33 139.214 1142.33 137.891C1142.33 136.578 1142.68 135.526 1143.38 134.734C1144.09 133.943 1145.04 133.547 1146.23 133.547C1147.41 133.547 1148.34 133.924 1149.02 134.68C1149.71 135.43 1150.05 136.435 1150.05 137.695V138.328H1144.27V138.445C1144.27 139.112 1144.45 139.648 1144.83 140.055C1145.21 140.461 1145.72 140.664 1146.35 140.664C1146.8 140.664 1147.18 140.562 1147.51 140.359C1147.84 140.151 1148.05 139.872 1148.16 139.523Z" fill="#03156D"/>
<path d="M829.267 209.233C825.159 259.562 803.961 306.781 769.407 342.574C734.853 378.368 689.159 400.439 640.374 404.9L640.263 403.609C688.753 399.174 734.17 377.237 768.516 341.66C802.861 306.083 823.931 259.149 828.015 209.124L829.267 209.233Z" fill="#D9DFEA"/>
<path d="M605.075 405.027C568.833 401.976 534.001 389.18 504.05 367.916C474.1 346.652 450.078 317.662 434.381 283.838L435.515 283.278C451.118 316.898 474.994 345.712 504.763 366.848C534.533 387.984 569.155 400.702 605.177 403.735L605.075 405.027Z" fill="#D9DFEA"/>
<path d="M422.133 250.63C419.059 239.63 416.844 228.395 415.51 217.031L416.758 216.875C418.085 228.17 420.286 239.338 423.341 250.271L422.133 250.63Z" fill="#D9DFEA"/>
<path d="M960.771 98.1113C976.357 151.221 980.041 207.303 971.543 262.104C963.044 316.905 942.587 368.985 911.723 414.394L910.725 413.67C941.483 368.417 961.87 316.517 970.339 261.905C978.808 207.293 975.137 151.404 959.605 98.4773L960.771 98.1113Z" fill="#D9DFEA"/>
<path d="M896.561 435.097C881.702 453.954 865.061 471.23 846.883 486.669L846.109 485.695C864.224 470.309 880.808 453.093 895.615 434.301L896.561 435.097Z" fill="#D9DFEA"/>
<path d="M397.97 486.542C379.801 471.093 363.168 453.808 348.32 434.943L349.265 434.147C364.062 452.947 380.638 470.173 398.744 485.569L397.97 486.542Z" fill="#D9DFEA"/>
<path d="M330.429 410.138C300.802 365.21 281.244 314.013 273.181 260.278C265.117 206.544 268.751 151.626 283.818 99.528L284.986 99.8891C269.971 151.808 266.35 206.536 274.385 260.085C282.421 313.634 301.912 364.655 331.437 409.428L330.429 410.138Z" fill="#D9DFEA"/>
<path d="M157.643 487.673C95.9628 390.084 67.9125 273.877 78.0179 157.802L79.465 157.936C69.3889 273.676 97.358 389.546 158.86 486.853L157.643 487.673Z" fill="#E6E8EC"/>
<path d="M82.4587 121.337C89.0029 79.6056 100.464 38.8574 116.586 0L117.922 0.591119C101.846 39.3361 90.4182 79.9663 83.893 121.577L82.4587 121.337Z" fill="#E6E8EC"/>
<path d="M1087.22 487.673C1148.9 390.084 1176.95 273.877 1166.84 157.802L1165.4 157.936C1175.47 273.676 1147.5 389.546 1086 486.853L1087.22 487.673Z" fill="#E6E8EC"/>
<path d="M1162.4 121.337C1155.86 79.6056 1144.4 38.8574 1128.27 0L1126.94 0.591119C1143.01 39.3361 1154.44 79.9663 1160.97 121.577L1162.4 121.337Z" fill="#E6E8EC"/>
<circle cx="80.501" cy="140.239" r="4" stroke="#1B1F24"/>
<circle cx="80.501" cy="140.239" r="4" stroke="#18A8FF"/>
<circle cx="339.501" cy="422.239" r="4" stroke="#18A8FF"/>
<circle cx="428.501" cy="266.239" r="4" stroke="#C701FF"/>
<circle cx="622.501" cy="404.239" r="4" stroke="#667790"/>
<circle cx="829.501" cy="195.239" r="4" stroke="#03156D"/>
<circle cx="1163.5" cy="137.239" r="4" stroke="#03156D"/>
<circle cx="904.501" cy="424.239" r="4" stroke="#C701FF"/>
<circle cx="1151.5" cy="334.5" r="4" stroke="#FF0000"/>
<circle cx="622" cy="251" r="70.25" stroke="#D9DFEA" stroke-width="1.5"/>
<circle cx="622" cy="251" r="21" fill="#18A8FF"/>
<circle cx="623" cy="184" r="21" fill="#FCFCFD"/>
<circle cx="622" cy="182" r="21" fill="#FCFCFD"/>
<circle cx="101" cy="360" r="21" fill="#FCFCFD"/>
<circle cx="1152" cy="335" r="21" fill="#FCFCFD"/>
<circle cx="7" cy="7" r="7" transform="matrix(-1 0 0 1 629 244)" fill="white"/>
<circle cx="1152.5" cy="335.5" r="4" stroke="#03156D"/>
<path d="M1172.5 341H1170.49V336.109H1165.01V341H1162.99V329.727H1165.01V334.414H1170.49V329.727H1172.5V341ZM1177.87 334.055C1177.33 334.055 1176.87 334.242 1176.51 334.617C1176.15 334.987 1175.95 335.464 1175.91 336.047H1179.77C1179.75 335.458 1179.57 334.979 1179.22 334.609C1178.87 334.24 1178.42 334.055 1177.87 334.055ZM1179.78 338.523H1181.6C1181.48 339.31 1181.08 339.948 1180.41 340.438C1179.73 340.922 1178.91 341.164 1177.94 341.164C1176.7 341.164 1175.72 340.784 1175.02 340.023C1174.31 339.258 1173.95 338.214 1173.95 336.891C1173.95 335.578 1174.3 334.526 1175.01 333.734C1175.72 332.943 1176.67 332.547 1177.86 332.547C1179.03 332.547 1179.96 332.924 1180.65 333.68C1181.34 334.43 1181.68 335.435 1181.68 336.695V337.328H1175.89V337.445C1175.89 338.112 1176.08 338.648 1176.45 339.055C1176.83 339.461 1177.34 339.664 1177.98 339.664C1178.42 339.664 1178.81 339.562 1179.13 339.359C1179.46 339.151 1179.68 338.872 1179.78 338.523ZM1185.96 339.664C1186.52 339.664 1186.99 339.5 1187.37 339.172C1187.75 338.839 1187.95 338.424 1187.95 337.93V337.297L1186.03 337.414C1185.56 337.445 1185.2 337.562 1184.94 337.766C1184.68 337.964 1184.55 338.227 1184.55 338.555C1184.55 338.893 1184.68 339.164 1184.94 339.367C1185.2 339.565 1185.54 339.664 1185.96 339.664ZM1185.38 341.133C1184.57 341.133 1183.9 340.901 1183.38 340.438C1182.87 339.974 1182.61 339.372 1182.61 338.633C1182.61 337.898 1182.88 337.318 1183.42 336.891C1183.97 336.464 1184.75 336.219 1185.76 336.156L1187.95 336.031V335.438C1187.95 335.005 1187.81 334.669 1187.53 334.43C1187.26 334.19 1186.88 334.07 1186.4 334.07C1185.95 334.07 1185.58 334.172 1185.29 334.375C1185 334.578 1184.83 334.854 1184.77 335.203H1182.96C1183 334.417 1183.34 333.779 1183.97 333.289C1184.6 332.794 1185.44 332.547 1186.48 332.547C1187.5 332.547 1188.32 332.797 1188.94 333.297C1189.56 333.797 1189.87 334.464 1189.87 335.297V341H1187.99V339.68H1187.95C1187.72 340.122 1187.36 340.477 1186.89 340.742C1186.42 341.003 1185.91 341.133 1185.38 341.133ZM1191.49 341V329.727H1193.44V341H1191.49ZM1195.63 330.781H1197.58V332.719H1199.14V334.219H1197.58V338.523C1197.58 338.862 1197.66 339.112 1197.82 339.273C1197.98 339.435 1198.23 339.516 1198.58 339.516C1198.81 339.516 1198.99 339.503 1199.13 339.477V340.961C1198.9 341.013 1198.56 341.039 1198.12 341.039C1197.23 341.039 1196.59 340.867 1196.2 340.523C1195.82 340.18 1195.63 339.604 1195.63 338.797V334.219H1194.45V332.719H1195.63V330.781ZM1200.52 341V329.727H1202.45V334.141H1202.48C1202.71 333.635 1203.04 333.247 1203.49 332.977C1203.94 332.701 1204.48 332.562 1205.1 332.562C1206.01 332.562 1206.72 332.841 1207.23 333.398C1207.74 333.951 1208 334.706 1208 335.664V341H1206.05V336.062C1206.05 335.474 1205.91 335.018 1205.62 334.695C1205.33 334.372 1204.91 334.211 1204.35 334.211C1203.77 334.211 1203.31 334.396 1202.97 334.766C1202.64 335.135 1202.47 335.628 1202.47 336.242V341H1200.52ZM1217.82 341.188C1216.21 341.188 1214.93 340.667 1213.98 339.625C1213.05 338.583 1212.58 337.161 1212.58 335.359C1212.58 333.568 1213.05 332.151 1213.99 331.109C1214.94 330.062 1216.22 329.539 1217.82 329.539C1219.13 329.539 1220.24 329.914 1221.14 330.664C1222.04 331.409 1222.55 332.385 1222.68 333.594H1220.7C1220.57 332.885 1220.23 332.318 1219.7 331.891C1219.18 331.464 1218.55 331.25 1217.82 331.25C1216.85 331.25 1216.08 331.622 1215.5 332.367C1214.93 333.107 1214.64 334.104 1214.64 335.359C1214.64 336.625 1214.93 337.628 1215.5 338.367C1216.07 339.107 1216.85 339.477 1217.83 339.477C1218.57 339.477 1219.2 339.286 1219.7 338.906C1220.21 338.521 1220.55 337.99 1220.7 337.312H1222.68C1222.5 338.521 1221.98 339.469 1221.12 340.156C1220.25 340.844 1219.15 341.188 1217.82 341.188ZM1227.01 339.664C1227.57 339.664 1228.03 339.5 1228.41 339.172C1228.8 338.839 1228.99 338.424 1228.99 337.93V337.297L1227.08 337.414C1226.61 337.445 1226.24 337.562 1225.98 337.766C1225.73 337.964 1225.6 338.227 1225.6 338.555C1225.6 338.893 1225.73 339.164 1225.98 339.367C1226.24 339.565 1226.59 339.664 1227.01 339.664ZM1226.42 341.133C1225.61 341.133 1224.95 340.901 1224.43 340.438C1223.91 339.974 1223.66 339.372 1223.66 338.633C1223.66 337.898 1223.93 337.318 1224.47 336.891C1225.02 336.464 1225.79 336.219 1226.8 336.156L1228.99 336.031V335.438C1228.99 335.005 1228.85 334.669 1228.58 334.43C1228.31 334.19 1227.93 334.07 1227.45 334.07C1226.99 334.07 1226.62 334.172 1226.34 334.375C1226.05 334.578 1225.88 334.854 1225.81 335.203H1224.01C1224.05 334.417 1224.39 333.779 1225.02 333.289C1225.65 332.794 1226.49 332.547 1227.52 332.547C1228.55 332.547 1229.37 332.797 1229.98 333.297C1230.6 333.797 1230.91 334.464 1230.91 335.297V341H1229.04V339.68H1229C1228.77 340.122 1228.41 340.477 1227.94 340.742C1227.46 341.003 1226.96 341.133 1226.42 341.133ZM1232.48 341V332.719H1234.35V334.164H1234.39C1234.53 333.659 1234.77 333.268 1235.12 332.992C1235.47 332.716 1235.89 332.578 1236.38 332.578C1236.55 332.578 1236.75 332.604 1236.98 332.656V334.414C1236.79 334.341 1236.53 334.305 1236.2 334.305C1235.64 334.305 1235.21 334.471 1234.9 334.805C1234.59 335.138 1234.43 335.596 1234.43 336.18V341H1232.48ZM1241.24 334.055C1240.7 334.055 1240.25 334.242 1239.88 334.617C1239.52 334.987 1239.32 335.464 1239.28 336.047H1243.15C1243.13 335.458 1242.94 334.979 1242.59 334.609C1242.24 334.24 1241.79 334.055 1241.24 334.055ZM1243.16 338.523H1244.98C1244.85 339.31 1244.45 339.948 1243.78 340.438C1243.11 340.922 1242.29 341.164 1241.31 341.164C1240.07 341.164 1239.1 340.784 1238.39 340.023C1237.68 339.258 1237.33 338.214 1237.33 336.891C1237.33 335.578 1237.68 334.526 1238.38 333.734C1239.09 332.943 1240.04 332.547 1241.23 332.547C1242.41 332.547 1243.34 332.924 1244.02 333.68C1244.71 334.43 1245.05 335.435 1245.05 336.695V337.328H1239.27V337.445C1239.27 338.112 1239.45 338.648 1239.83 339.055C1240.21 339.461 1240.72 339.664 1241.35 339.664C1241.8 339.664 1242.18 339.562 1242.51 339.359C1242.84 339.151 1243.05 338.872 1243.16 338.523Z" fill="#03156D"/>
<circle cx="621.5" cy="182.5" r="4" stroke="#C701FF"/>
<circle cx="100.5" cy="360.5" r="4" stroke="#03156D"/>
<path d="M586.359 168L585.398 165.086H581.25L580.289 168H578.211L582.211 156.727H584.484L588.484 168H586.359ZM583.297 158.719L581.719 163.531H584.922L583.352 158.719H583.297ZM589.5 168V159.719H591.367V161.164H591.406C591.547 160.659 591.789 160.268 592.133 159.992C592.482 159.716 592.901 159.578 593.391 159.578C593.562 159.578 593.766 159.604 594 159.656V161.414C593.807 161.341 593.544 161.305 593.211 161.305C592.659 161.305 592.227 161.471 591.914 161.805C591.602 162.138 591.445 162.596 591.445 163.18V168H589.5ZM601.984 162.672H600.148C600.065 162.208 599.867 161.836 599.555 161.555C599.242 161.268 598.836 161.125 598.336 161.125C597.721 161.125 597.232 161.37 596.867 161.859C596.503 162.344 596.32 163.01 596.32 163.859C596.32 164.719 596.503 165.391 596.867 165.875C597.232 166.354 597.727 166.594 598.352 166.594C598.841 166.594 599.242 166.464 599.555 166.203C599.867 165.938 600.068 165.568 600.156 165.094H601.992C601.914 166.021 601.542 166.766 600.875 167.328C600.214 167.885 599.365 168.164 598.328 168.164C597.109 168.164 596.141 167.781 595.422 167.016C594.703 166.245 594.344 165.193 594.344 163.859C594.344 162.542 594.703 161.495 595.422 160.719C596.141 159.938 597.104 159.547 598.312 159.547C599.375 159.547 600.234 159.844 600.891 160.438C601.552 161.026 601.917 161.771 601.984 162.672ZM603.211 168V156.727H605.133V161.141H605.172C605.396 160.635 605.732 160.247 606.18 159.977C606.628 159.701 607.164 159.562 607.789 159.562C608.695 159.562 609.404 159.841 609.914 160.398C610.43 160.951 610.688 161.706 610.688 162.664V168H608.742V163.062C608.742 162.474 608.596 162.018 608.305 161.695C608.018 161.372 607.596 161.211 607.039 161.211C606.456 161.211 605.995 161.396 605.656 161.766C605.323 162.135 605.156 162.628 605.156 163.242V168H603.211ZM612.297 168V159.719H614.242V168H612.297ZM614.031 158.328C613.823 158.531 613.568 158.633 613.266 158.633C612.964 158.633 612.708 158.531 612.5 158.328C612.292 158.12 612.188 157.87 612.188 157.578C612.188 157.281 612.292 157.031 612.5 156.828C612.708 156.62 612.964 156.516 613.266 156.516C613.568 156.516 613.823 156.62 614.031 156.828C614.245 157.031 614.352 157.281 614.352 157.578C614.352 157.87 614.245 158.12 614.031 158.328ZM616.414 157.781H618.359V159.719H619.922V161.219H618.359V165.523C618.359 165.862 618.44 166.112 618.602 166.273C618.763 166.435 619.016 166.516 619.359 166.516C619.589 166.516 619.773 166.503 619.914 166.477V167.961C619.68 168.013 619.344 168.039 618.906 168.039C618.01 168.039 617.37 167.867 616.984 167.523C616.604 167.18 616.414 166.604 616.414 165.797V161.219H615.227V159.719H616.414V157.781ZM624.664 161.055C624.122 161.055 623.669 161.242 623.305 161.617C622.945 161.987 622.745 162.464 622.703 163.047H626.57C626.549 162.458 626.365 161.979 626.016 161.609C625.667 161.24 625.216 161.055 624.664 161.055ZM626.578 165.523H628.398C628.273 166.31 627.875 166.948 627.203 167.438C626.531 167.922 625.708 168.164 624.734 168.164C623.495 168.164 622.521 167.784 621.812 167.023C621.104 166.258 620.75 165.214 620.75 163.891C620.75 162.578 621.102 161.526 621.805 160.734C622.513 159.943 623.464 159.547 624.656 159.547C625.828 159.547 626.758 159.924 627.445 160.68C628.133 161.43 628.477 162.435 628.477 163.695V164.328H622.688V164.445C622.688 165.112 622.875 165.648 623.25 166.055C623.63 166.461 624.138 166.664 624.773 166.664C625.221 166.664 625.607 166.562 625.93 166.359C626.258 166.151 626.474 165.872 626.578 165.523ZM637.031 162.672H635.195C635.112 162.208 634.914 161.836 634.602 161.555C634.289 161.268 633.883 161.125 633.383 161.125C632.768 161.125 632.279 161.37 631.914 161.859C631.549 162.344 631.367 163.01 631.367 163.859C631.367 164.719 631.549 165.391 631.914 165.875C632.279 166.354 632.773 166.594 633.398 166.594C633.888 166.594 634.289 166.464 634.602 166.203C634.914 165.938 635.115 165.568 635.203 165.094H637.039C636.961 166.021 636.589 166.766 635.922 167.328C635.26 167.885 634.411 168.164 633.375 168.164C632.156 168.164 631.188 167.781 630.469 167.016C629.75 166.245 629.391 165.193 629.391 163.859C629.391 162.542 629.75 161.495 630.469 160.719C631.188 159.938 632.151 159.547 633.359 159.547C634.422 159.547 635.281 159.844 635.938 160.438C636.599 161.026 636.964 161.771 637.031 162.672ZM638.742 157.781H640.688V159.719H642.25V161.219H640.688V165.523C640.688 165.862 640.768 166.112 640.93 166.273C641.091 166.435 641.344 166.516 641.688 166.516C641.917 166.516 642.102 166.503 642.242 166.477V167.961C642.008 168.013 641.672 168.039 641.234 168.039C640.339 168.039 639.698 167.867 639.312 167.523C638.932 167.18 638.742 166.604 638.742 165.797V161.219H637.555V159.719H638.742V157.781ZM650.922 159.719V168H649.047V166.562H649.008C648.549 167.62 647.706 168.148 646.477 168.148C645.576 168.148 644.859 167.875 644.328 167.328C643.802 166.776 643.539 166.023 643.539 165.07V159.719H645.484V164.68C645.484 165.273 645.625 165.727 645.906 166.039C646.193 166.352 646.609 166.508 647.156 166.508C647.714 166.508 648.156 166.326 648.484 165.961C648.812 165.596 648.977 165.112 648.977 164.508V159.719H650.922ZM652.516 168V159.719H654.383V161.164H654.422C654.562 160.659 654.805 160.268 655.148 159.992C655.497 159.716 655.917 159.578 656.406 159.578C656.578 159.578 656.781 159.604 657.016 159.656V161.414C656.823 161.341 656.56 161.305 656.227 161.305C655.674 161.305 655.242 161.471 654.93 161.805C654.617 162.138 654.461 162.596 654.461 163.18V168H652.516ZM661.273 161.055C660.732 161.055 660.279 161.242 659.914 161.617C659.555 161.987 659.354 162.464 659.312 163.047H663.18C663.159 162.458 662.974 161.979 662.625 161.609C662.276 161.24 661.826 161.055 661.273 161.055ZM663.188 165.523H665.008C664.883 166.31 664.484 166.948 663.812 167.438C663.141 167.922 662.318 168.164 661.344 168.164C660.104 168.164 659.13 167.784 658.422 167.023C657.714 166.258 657.359 165.214 657.359 163.891C657.359 162.578 657.711 161.526 658.414 160.734C659.122 159.943 660.073 159.547 661.266 159.547C662.438 159.547 663.367 159.924 664.055 160.68C664.742 161.43 665.086 162.435 665.086 163.695V164.328H659.297V164.445C659.297 165.112 659.484 165.648 659.859 166.055C660.24 166.461 660.747 166.664 661.383 166.664C661.831 166.664 662.216 166.562 662.539 166.359C662.867 166.151 663.083 165.872 663.188 165.523Z" fill="#03156D"/>
<path d="M8.35938 364L7.39844 361.086H3.25L2.28906 364H0.210938L4.21094 352.727H6.48438L10.4844 364H8.35938ZM5.29688 354.719L3.71875 359.531H6.92188L5.35156 354.719H5.29688ZM11.5 364V355.719H13.3672V357.164H13.4062C13.5469 356.659 13.7891 356.268 14.1328 355.992C14.4818 355.716 14.901 355.578 15.3906 355.578C15.5625 355.578 15.7656 355.604 16 355.656V357.414C15.8073 357.341 15.5443 357.305 15.2109 357.305C14.6589 357.305 14.2266 357.471 13.9141 357.805C13.6016 358.138 13.4453 358.596 13.4453 359.18V364H11.5ZM23.9844 358.672H22.1484C22.0651 358.208 21.8672 357.836 21.5547 357.555C21.2422 357.268 20.8359 357.125 20.3359 357.125C19.7214 357.125 19.2318 357.37 18.8672 357.859C18.5026 358.344 18.3203 359.01 18.3203 359.859C18.3203 360.719 18.5026 361.391 18.8672 361.875C19.2318 362.354 19.7266 362.594 20.3516 362.594C20.8411 362.594 21.2422 362.464 21.5547 362.203C21.8672 361.938 22.0677 361.568 22.1562 361.094H23.9922C23.9141 362.021 23.5417 362.766 22.875 363.328C22.2135 363.885 21.3646 364.164 20.3281 364.164C19.1094 364.164 18.1406 363.781 17.4219 363.016C16.7031 362.245 16.3438 361.193 16.3438 359.859C16.3438 358.542 16.7031 357.495 17.4219 356.719C18.1406 355.938 19.1042 355.547 20.3125 355.547C21.375 355.547 22.2344 355.844 22.8906 356.438C23.5521 357.026 23.9167 357.771 23.9844 358.672ZM25.2109 364V352.727H27.1328V357.141H27.1719C27.3958 356.635 27.7318 356.247 28.1797 355.977C28.6276 355.701 29.1641 355.562 29.7891 355.562C30.6953 355.562 31.4036 355.841 31.9141 356.398C32.4297 356.951 32.6875 357.706 32.6875 358.664V364H30.7422V359.062C30.7422 358.474 30.5964 358.018 30.3047 357.695C30.0182 357.372 29.5964 357.211 29.0391 357.211C28.4557 357.211 27.9948 357.396 27.6562 357.766C27.3229 358.135 27.1562 358.628 27.1562 359.242V364H25.2109ZM34.2969 364V355.719H36.2422V364H34.2969ZM36.0312 354.328C35.8229 354.531 35.5677 354.633 35.2656 354.633C34.9635 354.633 34.7083 354.531 34.5 354.328C34.2917 354.12 34.1875 353.87 34.1875 353.578C34.1875 353.281 34.2917 353.031 34.5 352.828C34.7083 352.62 34.9635 352.516 35.2656 352.516C35.5677 352.516 35.8229 352.62 36.0312 352.828C36.2448 353.031 36.3516 353.281 36.3516 353.578C36.3516 353.87 36.2448 354.12 36.0312 354.328ZM38.4141 353.781H40.3594V355.719H41.9219V357.219H40.3594V361.523C40.3594 361.862 40.4401 362.112 40.6016 362.273C40.763 362.435 41.0156 362.516 41.3594 362.516C41.5885 362.516 41.7734 362.503 41.9141 362.477V363.961C41.6797 364.013 41.3438 364.039 40.9062 364.039C40.0104 364.039 39.3698 363.867 38.9844 363.523C38.6042 363.18 38.4141 362.604 38.4141 361.797V357.219H37.2266V355.719H38.4141V353.781ZM46.6641 357.055C46.1224 357.055 45.6693 357.242 45.3047 357.617C44.9453 357.987 44.7448 358.464 44.7031 359.047H48.5703C48.5495 358.458 48.3646 357.979 48.0156 357.609C47.6667 357.24 47.2161 357.055 46.6641 357.055ZM48.5781 361.523H50.3984C50.2734 362.31 49.875 362.948 49.2031 363.438C48.5312 363.922 47.7083 364.164 46.7344 364.164C45.4948 364.164 44.5208 363.784 43.8125 363.023C43.1042 362.258 42.75 361.214 42.75 359.891C42.75 358.578 43.1016 357.526 43.8047 356.734C44.513 355.943 45.4635 355.547 46.6562 355.547C47.8281 355.547 48.7578 355.924 49.4453 356.68C50.1328 357.43 50.4766 358.435 50.4766 359.695V360.328H44.6875V360.445C44.6875 361.112 44.875 361.648 45.25 362.055C45.6302 362.461 46.138 362.664 46.7734 362.664C47.2214 362.664 47.6068 362.562 47.9297 362.359C48.2578 362.151 48.474 361.872 48.5781 361.523ZM59.0312 358.672H57.1953C57.112 358.208 56.9141 357.836 56.6016 357.555C56.2891 357.268 55.8828 357.125 55.3828 357.125C54.7682 357.125 54.2786 357.37 53.9141 357.859C53.5495 358.344 53.3672 359.01 53.3672 359.859C53.3672 360.719 53.5495 361.391 53.9141 361.875C54.2786 362.354 54.7734 362.594 55.3984 362.594C55.888 362.594 56.2891 362.464 56.6016 362.203C56.9141 361.938 57.1146 361.568 57.2031 361.094H59.0391C58.9609 362.021 58.5885 362.766 57.9219 363.328C57.2604 363.885 56.4115 364.164 55.375 364.164C54.1562 364.164 53.1875 363.781 52.4688 363.016C51.75 362.245 51.3906 361.193 51.3906 359.859C51.3906 358.542 51.75 357.495 52.4688 356.719C53.1875 355.938 54.151 355.547 55.3594 355.547C56.4219 355.547 57.2812 355.844 57.9375 356.438C58.599 357.026 58.9635 357.771 59.0312 358.672ZM60.7422 353.781H62.6875V355.719H64.25V357.219H62.6875V361.523C62.6875 361.862 62.7682 362.112 62.9297 362.273C63.0911 362.435 63.3438 362.516 63.6875 362.516C63.9167 362.516 64.1016 362.503 64.2422 362.477V363.961C64.0078 364.013 63.6719 364.039 63.2344 364.039C62.3385 364.039 61.6979 363.867 61.3125 363.523C60.9323 363.18 60.7422 362.604 60.7422 361.797V357.219H59.5547V355.719H60.7422V353.781ZM72.9219 355.719V364H71.0469V362.562H71.0078C70.5495 363.62 69.7057 364.148 68.4766 364.148C67.5755 364.148 66.8594 363.875 66.3281 363.328C65.8021 362.776 65.5391 362.023 65.5391 361.07V355.719H67.4844V360.68C67.4844 361.273 67.625 361.727 67.9062 362.039C68.1927 362.352 68.6094 362.508 69.1562 362.508C69.7135 362.508 70.1562 362.326 70.4844 361.961C70.8125 361.596 70.9766 361.112 70.9766 360.508V355.719H72.9219ZM74.5156 364V355.719H76.3828V357.164H76.4219C76.5625 356.659 76.8047 356.268 77.1484 355.992C77.4974 355.716 77.9167 355.578 78.4062 355.578C78.5781 355.578 78.7812 355.604 79.0156 355.656V357.414C78.8229 357.341 78.5599 357.305 78.2266 357.305C77.6745 357.305 77.2422 357.471 76.9297 357.805C76.6172 358.138 76.4609 358.596 76.4609 359.18V364H74.5156ZM83.2734 357.055C82.7318 357.055 82.2786 357.242 81.9141 357.617C81.5547 357.987 81.3542 358.464 81.3125 359.047H85.1797C85.1589 358.458 84.974 357.979 84.625 357.609C84.276 357.24 83.8255 357.055 83.2734 357.055ZM85.1875 361.523H87.0078C86.8828 362.31 86.4844 362.948 85.8125 363.438C85.1406 363.922 84.3177 364.164 83.3438 364.164C82.1042 364.164 81.1302 363.784 80.4219 363.023C79.7135 362.258 79.3594 361.214 79.3594 359.891C79.3594 358.578 79.7109 357.526 80.4141 356.734C81.1224 355.943 82.0729 355.547 83.2656 355.547C84.4375 355.547 85.3672 355.924 86.0547 356.68C86.7422 357.43 87.0859 358.435 87.0859 359.695V360.328H81.2969V360.445C81.2969 361.112 81.4844 361.648 81.8594 362.055C82.2396 362.461 82.7474 362.664 83.3828 362.664C83.8307 362.664 84.2161 362.562 84.5391 362.359C84.8672 362.151 85.0833 361.872 85.1875 361.523Z" fill="#03156D"/>
</svg>
