<svg width="495" height="388" viewBox="0 0 495 388" fill="none" xmlns="http://www.w3.org/2000/svg">
<path fill-rule="evenodd" clip-rule="evenodd" d="M142.827 324.085C125.034 316.312 113.791 302.481 109.097 282.59C102.056 252.754 122.147 227.712 142.827 215.635C163.506 203.557 188.39 187.339 179.432 167.685C170.475 148.031 157.008 138.312 168.22 122.734C179.432 107.155 236.152 83.9298 286.047 99.8946C335.941 115.859 343.902 181.782 335.941 232.186C330.633 265.789 309.235 300.711 271.746 336.954L142.827 324.085Z" fill="#B3E8EC"/>
<path fill-rule="evenodd" clip-rule="evenodd" d="M413.258 268.562L410.705 284.006L398.891 274.776L413.258 268.562Z" fill="#B3E8EC"/>
<path d="M134.177 155.916H124.183V165.91H134.177V155.916Z" fill="white" stroke="#333333" stroke-linecap="round"/>
<path d="M387.79 12.2439H371.548V28.4851H387.79V12.2439Z" fill="#B3E8EC"/>
<path d="M190.397 69.7127C195.226 69.7127 199.142 65.7973 199.142 60.9674C199.142 56.1375 195.226 52.2222 190.397 52.2222C185.567 52.2222 181.651 56.1375 181.651 60.9674C181.651 65.7973 185.567 69.7127 190.397 69.7127Z" fill="#B3E8EC"/>
<path d="M179.777 48.4742C182.192 48.4742 184.15 46.5166 184.15 44.1016C184.15 41.6867 182.192 39.729 179.777 39.729C177.362 39.729 175.405 41.6867 175.405 44.1016C175.405 46.5166 177.362 48.4742 179.777 48.4742Z" fill="white" stroke="#333333" stroke-linecap="round"/>
<path d="M408.403 207.138C411.508 207.138 414.025 204.621 414.025 201.516C414.025 198.411 411.508 195.894 408.403 195.894C405.298 195.894 402.781 198.411 402.781 201.516C402.781 204.621 405.298 207.138 408.403 207.138Z" fill="white" stroke="#333333" stroke-linecap="round"/>
<path d="M397.159 12.2439C400.264 12.2439 402.781 9.72686 402.781 6.62194C402.781 3.51703 400.264 1 397.159 1C394.054 1 391.537 3.51703 391.537 6.62194C391.537 9.72686 394.054 12.2439 397.159 12.2439Z" fill="white" stroke="#333333" stroke-linecap="round"/>
<path d="M89.8265 308.333C92.2414 308.333 94.1991 306.375 94.1991 303.96C94.1991 301.545 92.2414 299.588 89.8265 299.588C87.4115 299.588 85.4539 301.545 85.4539 303.96C85.4539 306.375 87.4115 308.333 89.8265 308.333Z" fill="white" stroke="#333333" stroke-linecap="round"/>
<path d="M404.031 47.2249H231.624C226.795 47.2249 222.879 51.1402 222.879 55.9701V157.165C222.879 161.995 226.795 165.91 231.624 165.91H404.031C408.861 165.91 412.776 161.995 412.776 157.165V55.9701C412.776 51.1402 408.861 47.2249 404.031 47.2249Z" fill="white" stroke="#333333" stroke-linecap="round" stroke-linejoin="round"/>
<path d="M240.647 127.181H347.263" stroke="#333333" stroke-linecap="round" stroke-linejoin="round"/>
<path d="M240.647 139.675H378.083" stroke="#333333" stroke-linecap="round" stroke-linejoin="round"/>
<path d="M396.535 68.4634H311.581V115.938H396.535V68.4634Z" fill="white" stroke="#333333" stroke-linecap="round" stroke-linejoin="round"/>
<path d="M357.004 106.936V86.3986H366.539V80.9565H340.7V86.3986H350.235V106.936H357.004Z" fill="#333333"/>
<path d="M294.09 68.4634H240.37V108.442H294.09V68.4634Z" fill="#333333" stroke="#333333" stroke-linecap="round" stroke-linejoin="round"/>
<path d="M254.112 182.151H107.942C103.112 182.151 99.1963 186.067 99.1963 190.897V218.382C99.1963 223.212 103.112 227.127 107.942 227.127H254.112C258.942 227.127 262.857 223.212 262.857 218.382V190.897C262.857 186.067 258.942 182.151 254.112 182.151Z" fill="white" stroke="#333333" stroke-linecap="round" stroke-linejoin="round"/>
<path d="M122.933 215.883C129.143 215.883 134.177 210.849 134.177 204.639C134.177 198.429 129.143 193.395 122.933 193.395C116.724 193.395 111.69 198.429 111.69 204.639C111.69 210.849 116.724 215.883 122.933 215.883Z" fill="#333333"/>
<path d="M146.8 197.071H238.424" stroke="#333333" stroke-linecap="round" stroke-linejoin="round"/>
<path d="M146.8 204.639H238.424" stroke="#333333" stroke-linecap="round" stroke-linejoin="round"/>
<path d="M146.8 212.135H238.424" stroke="#333333" stroke-linecap="round" stroke-linejoin="round"/>
<path fill-rule="evenodd" clip-rule="evenodd" d="M232.491 129.534L247.396 150.82L236.414 174.372L210.527 176.636L195.622 155.35L206.604 131.799L232.491 129.534Z" fill="white" stroke="#333333" stroke-linecap="round" stroke-linejoin="round"/>
<path fill-rule="evenodd" clip-rule="evenodd" d="M221.509 153.085L210.527 176.636L195.622 155.35L206.604 131.799L221.509 153.085Z" fill="#333333" stroke="#333333" stroke-linecap="round" stroke-linejoin="round"/>
<path fill-rule="evenodd" clip-rule="evenodd" d="M210.527 176.636L221.509 153.085L247.396 150.82L236.414 174.371L210.527 176.636Z" fill="white" stroke="#333333" stroke-linecap="round" stroke-linejoin="round"/>
<path fill-rule="evenodd" clip-rule="evenodd" d="M161.953 107.76L167.422 92.733L183.17 89.9562L193.449 102.206L187.98 117.233L172.232 120.01L161.953 107.76Z" fill="white" stroke="#333333" stroke-linecap="round" stroke-linejoin="round"/>
<path fill-rule="evenodd" clip-rule="evenodd" d="M177.701 104.983L193.449 102.206L187.98 117.233L172.231 120.01L177.701 104.983Z" fill="#333333" stroke="#333333" stroke-linecap="round" stroke-linejoin="round"/>
<path fill-rule="evenodd" clip-rule="evenodd" d="M193.449 102.206L177.701 104.983L167.422 92.7331L183.17 89.9562L193.449 102.206Z" fill="white" stroke="#333333" stroke-linecap="round" stroke-linejoin="round"/>
<path d="M335.941 376.105H0.5" stroke="#333333" stroke-linecap="round" stroke-linejoin="round"/>
<path d="M182.901 387H281.178" stroke="#333333" stroke-linecap="round" stroke-linejoin="round"/>
<path fill-rule="evenodd" clip-rule="evenodd" d="M298.765 152.542C298.151 162.233 297.844 169.521 297.844 174.408C297.844 181.738 294.471 184.395 294.471 186.942C294.471 189.49 298.757 187.745 301.081 190.565C303.406 193.385 304.005 204.65 307.463 206.978C310.921 209.307 315.241 206.872 317.804 206.013C320.366 205.155 322.926 207.522 324.774 212.202C326.006 215.322 326.872 218.739 327.371 222.454L345.675 203.822C341.516 197.8 339.164 190.891 338.619 183.094C337.803 171.399 338.352 153.112 326.259 147.125C318.198 143.134 309.033 144.94 298.765 152.542Z" fill="white" stroke="#333333" stroke-linecap="round" stroke-linejoin="round"/>
<path fill-rule="evenodd" clip-rule="evenodd" d="M323.632 209.118L323.448 209.441C321.855 206.739 319.951 205.446 318.034 205.944L317.804 206.013C321.258 204.008 324.048 201.732 326.175 199.185L326.62 198.635C329.522 194.94 327.265 202.638 323.632 209.118Z" fill="#333333" stroke="#333333" stroke-linecap="round" stroke-linejoin="round"/>
<path fill-rule="evenodd" clip-rule="evenodd" d="M297.51 127.181C301.266 133.102 306.031 134.116 309.76 133.831C312.615 133.613 327.935 131.618 332.309 133.123C336.05 134.411 338.723 137.79 340.327 143.26C344.101 146.064 346.348 149.137 347.067 152.48C348.144 157.495 343.036 169.968 341.682 176.1C340.779 180.188 340.327 184.054 340.327 187.698C336.157 189.957 332.723 191.087 330.025 191.087C327.327 191.087 324.329 187.352 321.032 179.883C324.135 178.952 326.409 176.738 327.855 173.241C330.025 167.995 326.856 163.29 322.945 164.828C320.338 165.853 318.651 168.183 317.883 171.816C316.004 168.155 315.065 164.587 315.065 161.113C310.834 163.017 309.299 161.092 310.461 155.336C304.065 155.673 298.735 154.045 294.471 150.453C290.206 146.86 287.398 140.423 286.047 131.14C291.171 133.709 296.301 134.97 301.436 134.921C299.068 131.705 297.934 128.473 297.51 127.181Z" fill="#333333"/>
<path d="M306.389 174.606C307.631 174.606 308.638 172.928 308.638 170.858C308.638 168.788 307.631 167.11 306.389 167.11C305.147 167.11 304.141 168.788 304.141 170.858C304.141 172.928 305.147 174.606 306.389 174.606Z" fill="#333333" stroke="#333333" stroke-linecap="round" stroke-linejoin="round"/>
<path d="M306.389 183.602C310.115 183.602 313.136 180.581 313.136 176.855C313.136 173.129 310.115 170.109 306.389 170.109C302.664 170.109 299.643 173.129 299.643 176.855C299.643 180.581 302.664 183.602 306.389 183.602Z" stroke="#333333" stroke-linecap="round" stroke-linejoin="round"/>
<path d="M302.282 161.776C306.53 162.222 309.592 164.001 311.468 167.11" stroke="#333333" stroke-linecap="round" stroke-linejoin="round"/>
<path d="M312.019 173.191L317.804 167.685" stroke="#333333" stroke-linecap="round" stroke-linejoin="round"/>
<path d="M295.376 174.139L299.643 175.597" stroke="#333333" stroke-linecap="round" stroke-linejoin="round"/>
<path fill-rule="evenodd" clip-rule="evenodd" d="M307.806 194.435C311.807 194.722 314.473 193.605 315.805 191.086L307.806 194.435Z" fill="white"/>
<path d="M307.806 194.435C311.807 194.722 314.473 193.605 315.805 191.086" stroke="#333333" stroke-linecap="round" stroke-linejoin="round"/>
<path fill-rule="evenodd" clip-rule="evenodd" d="M44.9611 371.154L16.9721 379.806L0.5 311.497C7.87675 310.295 14.2154 312.182 19.5158 317.157C24.8163 322.132 31.1189 330.288 38.4236 341.624L47.5209 357.517L44.9611 371.154Z" fill="#333333" stroke="#333333" stroke-linecap="round" stroke-linejoin="round"/>
<path fill-rule="evenodd" clip-rule="evenodd" d="M19.5158 317.157C23.4221 320.823 27.8726 326.217 32.8674 333.339C28.4669 338.562 22.621 342.137 15.3316 344.066L14.545 344.266L6.51538 311.219C11.3824 311.611 15.7159 313.59 19.5158 317.157Z" fill="white" stroke="#333333" stroke-linecap="round" stroke-linejoin="round"/>
<path d="M31.9375 339.517C30.0547 342.303 27.6736 344.525 24.7943 346.184C20.4752 348.673 22.5964 349.924 26.4571 348.673C30.3179 347.422 33.4815 344.116 34.8716 345.461C36.2618 346.806 34.4917 355.357 30.4744 359.889C26.4571 364.421 23.3095 363.453 23.3095 360.564C23.3095 357.674 28.4422 353.68 31.0467 352.233C33.6512 350.785 26.3237 350.703 19.2953 356.284" stroke="white" stroke-linecap="round" stroke-linejoin="round"/>
<path fill-rule="evenodd" clip-rule="evenodd" d="M268.953 371.154C247.427 367.412 232.723 364.125 224.842 361.292C213.02 357.043 184.802 349.888 180.991 349.888C177.18 349.888 171.079 354.4 167.277 352.825C163.475 351.25 160.39 352.376 157.014 353.985C153.638 355.594 145.061 359.75 136.207 360.521C130.305 361.035 109.881 362.499 74.9364 364.912L69.2029 333.522C110.893 322.457 134.236 316.233 139.23 314.852C146.722 312.78 178.308 306.635 191.2 306.635C204.091 306.635 234.506 317.157 244.758 317.157C251.593 317.157 260.589 316.388 271.746 314.852L268.953 371.154Z" fill="white" stroke="#333333" stroke-linecap="round" stroke-linejoin="round"/>
<path fill-rule="evenodd" clip-rule="evenodd" d="M73.0603 333.522L91.9646 363.731L74.9365 364.912L74.6809 363.52L73.0603 333.522Z" fill="#333333" stroke="#333333" stroke-linecap="round" stroke-linejoin="round"/>
<path fill-rule="evenodd" clip-rule="evenodd" d="M68.0116 366.316L44.9612 371.154L38.4237 341.624L61.4936 335.726L68.0116 366.316Z" fill="white" stroke="#333333" stroke-linecap="round" stroke-linejoin="round"/>
<path fill-rule="evenodd" clip-rule="evenodd" d="M57.6851 340.478L64.7599 351.061L68.0116 366.316L54.6344 369.123L57.6851 340.478Z" fill="#333333" stroke="#333333" stroke-linecap="round" stroke-linejoin="round"/>
<path fill-rule="evenodd" clip-rule="evenodd" d="M78.8995 364.847L74.2418 331.652C74.0118 330.012 72.4958 328.869 70.8559 329.099C70.688 329.123 70.5224 329.161 70.3609 329.212L56.5887 333.608C55.0743 334.091 54.2003 335.672 54.5966 337.211L62.4556 367.744C62.8426 369.248 64.3128 370.207 65.8446 369.956L76.4155 368.222C78.0229 367.958 79.1258 366.46 78.8995 364.847Z" fill="white" stroke="#333333" stroke-linecap="round" stroke-linejoin="round"/>
<path fill-rule="evenodd" clip-rule="evenodd" d="M272.983 315.995C229.161 285.617 205.334 269.381 201.5 267.288C195.75 264.148 184.047 264.715 174.999 269.646C168.967 272.933 151.516 290.701 122.644 322.951L149.049 341.149L197.814 310.282C216.345 335.854 233.093 353.438 248.057 363.033C270.504 377.425 289.443 378.305 301.215 373.441C309.063 370.199 316.401 365.049 323.23 357.992L272.983 315.995Z" fill="white" stroke="#333333" stroke-linecap="round" stroke-linejoin="round"/>
<path fill-rule="evenodd" clip-rule="evenodd" d="M127.354 324.085L163.506 331.997L149.049 341.149L129.629 327.765L127.354 324.085Z" fill="#333333" stroke="#333333" stroke-linecap="round" stroke-linejoin="round"/>
<path fill-rule="evenodd" clip-rule="evenodd" d="M272.753 306.951C290.536 285.244 302.198 269.48 307.74 259.659C316.63 243.903 322.262 224.058 327.006 215.465C331.75 206.873 341.268 202.148 347.215 202.148C353.161 202.148 360.207 221.743 364.494 233.895C368.782 246.048 352.408 303.877 349.811 310.283C347.215 316.688 339.053 350.861 335.581 356.837C332.108 362.813 319.644 365.044 315.409 360.941C312.585 358.205 303.934 349.647 289.454 335.267C278.154 332.844 271.898 330.684 270.684 328.788C269.77 327.359 269.217 323.743 269.027 317.941C268.897 313.947 270.22 310.042 272.753 306.951Z" fill="#333333" stroke="#333333" stroke-linecap="round" stroke-linejoin="round"/>
<path fill-rule="evenodd" clip-rule="evenodd" d="M365.302 188.707H387.789V376.105H365.302V188.707Z" fill="white" stroke="#333333" stroke-linecap="round" stroke-linejoin="round"/>
<path fill-rule="evenodd" clip-rule="evenodd" d="M300.302 259.703L291.917 271.509C267.76 259.552 252.657 252.449 246.609 250.2C237.537 246.825 230.211 244.458 224.257 244.458C218.304 244.458 207.371 245.576 204.883 245.576C202.396 245.576 195.33 248.435 192.292 248.435C189.254 248.435 192.887 252.583 199.063 251.497C205.24 250.412 207.884 250.2 210.959 250.2C204.883 253.222 200.643 254.052 199.063 255.191C197.484 256.33 202.805 257.597 208.854 257.597C212.887 257.597 216.363 257.597 219.284 257.597C215.055 259.007 212.61 260.233 211.95 261.276C210.959 262.84 216.14 262.026 219.284 261.276C222.428 260.525 228.961 259.623 233.131 261.276C237.301 262.928 239.374 262.387 243.502 262.657C247.629 262.928 265.085 280.175 277.885 290.952C290.685 301.729 294.534 299.66 301.805 294.012C306.652 290.247 313.794 284.175 323.23 275.797L300.302 259.703Z" fill="white" stroke="#333333" stroke-linecap="round" stroke-linejoin="round"/>
<path fill-rule="evenodd" clip-rule="evenodd" d="M201.5 254.147C210.255 253.434 216.755 252.505 221.001 251.361L201.5 254.147Z" fill="white"/>
<path d="M201.5 254.147C210.255 253.434 216.755 252.505 221.001 251.361" stroke="#333333" stroke-linecap="round" stroke-linejoin="round"/>
<path fill-rule="evenodd" clip-rule="evenodd" d="M219.284 257.598C222.703 256.461 226.013 255.893 229.216 255.893L219.284 257.598Z" fill="white"/>
<path d="M219.284 257.598C222.703 256.461 226.013 255.893 229.216 255.893" stroke="#333333" stroke-linecap="round" stroke-linejoin="round"/>
<path fill-rule="evenodd" clip-rule="evenodd" d="M294.471 259.817C305.012 274.916 316.181 285.294 327.979 290.952C343.447 263.263 355.186 239.723 351.208 226.768C347.229 213.814 334.561 213.459 327.979 221.193C323.591 226.348 312.422 239.223 294.471 259.817Z" fill="#333333" stroke="#333333" stroke-linecap="round" stroke-linejoin="round"/>
<path fill-rule="evenodd" clip-rule="evenodd" d="M474.268 376.396C456.248 376.396 409.368 376.396 333.629 376.396C333.129 359.497 338.649 347.987 350.188 341.864C367.496 332.68 382.261 360.072 393.488 350.968C404.716 341.864 417.36 326.466 443.755 330.217C470.151 333.968 478.296 356.926 474.268 376.396Z" fill="white" stroke="#333333" stroke-linecap="round" stroke-linejoin="round"/>
<path d="M449.271 331.263C443.524 353.805 437.378 368.849 430.832 376.396" stroke="#333333" stroke-linecap="round" stroke-linejoin="round"/>
<path d="M440.051 359.681C432.998 354.502 425.951 345.587 418.91 332.938" stroke="#333333" stroke-linecap="round" stroke-linejoin="round"/>
<path d="M437.878 364.829C429.609 358.432 423.986 352.766 421.01 347.832" stroke="#333333" stroke-linecap="round" stroke-linejoin="round"/>
<path d="M368.212 376.395C366.598 367.283 361.524 357.762 352.991 347.832" stroke="#333333" stroke-linecap="round" stroke-linejoin="round"/>
<path d="M364.27 364.829C355.498 364.604 347.741 363.359 341 361.092" stroke="#333333" stroke-linecap="round" stroke-linejoin="round"/>
<path d="M381.277 323.852C386.767 345.511 397.241 363.004 412.698 376.33" stroke="#333333" stroke-linecap="round" stroke-linejoin="round"/>
<path d="M380.274 328.069C385.086 327.648 388.645 323.406 388.224 318.595C387.803 313.783 383.561 310.224 378.75 310.645C373.938 311.066 370.379 315.307 370.8 320.119C371.221 324.93 375.463 328.49 380.274 328.069Z" fill="#B3E8EC"/>
<path d="M378.05 316.977C380.799 316.736 382.833 314.312 382.593 311.563C382.352 308.813 379.928 306.779 377.179 307.02C374.429 307.261 372.395 309.684 372.636 312.434C372.877 315.183 375.3 317.217 378.05 316.977Z" fill="#333333" stroke="#333333" stroke-linecap="round" stroke-linejoin="round"/>
<path fill-rule="evenodd" clip-rule="evenodd" d="M390.769 348.347C389.653 343.023 391.304 338.785 395.722 335.633C396.758 342.349 395.107 346.587 390.769 348.347Z" fill="#333333" stroke="#333333" stroke-linecap="round" stroke-linejoin="round"/>
<path fill-rule="evenodd" clip-rule="evenodd" d="M372.577 331.36C377.977 330.713 382.055 332.727 384.811 337.403C378.03 337.849 373.952 335.835 372.577 331.36Z" fill="#333333" stroke="#333333" stroke-linecap="round" stroke-linejoin="round"/>
<path fill-rule="evenodd" clip-rule="evenodd" d="M484.346 376.395C496.972 359.306 496.972 344.82 484.346 332.937C465.408 315.113 470.726 317.298 474.267 296.708C477.808 276.119 449.831 279.672 449.831 261.626C449.831 243.58 438.573 225.483 430.015 234.531C421.458 243.58 426.677 272.55 430.015 281.026C433.354 289.502 425.069 299.537 427.931 314.588C430.794 329.639 445.598 328.098 438.196 346.309C433.261 358.449 437.139 368.478 449.831 376.395H484.346Z" fill="white" stroke="#333333" stroke-linecap="round" stroke-linejoin="round"/>
<path d="M438.195 249.891C444.711 279.514 451.245 301.676 457.797 316.375C467.625 338.425 468.962 369.124 468.293 376.395" stroke="#333333" stroke-linecap="round" stroke-linejoin="round"/>
<path d="M452.701 303.135C442.97 298.763 435.409 294.907 430.015 291.567" stroke="#333333" stroke-linecap="round" stroke-linejoin="round"/>
<path d="M454.917 309.634C447.001 306.118 440.689 303.091 435.98 300.554" stroke="#333333" stroke-linecap="round" stroke-linejoin="round"/>
<path d="M480.233 328.872C473.152 340.898 468.68 347.928 466.816 349.964" stroke="#333333" stroke-linecap="round" stroke-linejoin="round"/>
<path fill-rule="evenodd" clip-rule="evenodd" d="M142.827 343.811L127.354 352.825H96.9045L119.082 328.131L142.827 343.811Z" fill="white" stroke="#333333" stroke-linecap="round" stroke-linejoin="round"/>
<path fill-rule="evenodd" clip-rule="evenodd" d="M119.081 328.131L142.827 343.811L132.754 349.677L118.016 329.317L119.081 328.131Z" fill="#333333" stroke="#333333" stroke-linecap="round" stroke-linejoin="round"/>
<path fill-rule="evenodd" clip-rule="evenodd" d="M117.868 329.594L141.451 348.596C142.417 349.375 143.762 349.478 144.836 348.856L153.133 344.047C154.566 343.217 155.054 341.382 154.224 339.949C154.027 339.609 153.764 339.311 153.452 339.072L127.014 318.839C125.773 317.889 124.01 318.051 122.964 319.212L117.522 325.252C116.413 326.482 116.511 328.378 117.742 329.486C117.783 329.523 117.825 329.559 117.868 329.594Z" fill="white" stroke="#333333" stroke-linecap="round" stroke-linejoin="round"/>
<path fill-rule="evenodd" clip-rule="evenodd" d="M127.354 352.825L124.154 379.806H57.6851C60.6172 369.047 66.4224 362.364 75.1006 359.756C83.7788 357.148 91.0468 354.838 96.9044 352.825H127.354Z" fill="#333333" stroke="#333333" stroke-linecap="round" stroke-linejoin="round"/>
<path fill-rule="evenodd" clip-rule="evenodd" d="M82.4374 357.517C87.2615 360.792 89.9692 366.413 90.5606 374.381L90.6061 375.069L59.2666 375.069C62.4978 367.061 67.7758 361.957 75.1005 359.756L77.8903 358.913C78.8034 358.635 79.6998 358.362 80.5794 358.091L82.4374 357.517Z" fill="white" stroke="#333333" stroke-linecap="round" stroke-linejoin="round"/>
<path d="M89.2842 358.589C92.3915 360.736 94.7475 363.041 96.3524 365.503C98.7596 369.196 100.194 369.286 100.571 367.789C100.948 366.293 96.1686 359.611 95.3577 357.517C94.5467 355.423 99.4766 354.803 104.336 357.015C109.195 359.227 110.074 362.478 108.147 363.805C106.22 365.132 103.626 361.564 102.099 358.589C100.571 355.614 100.485 365.76 107.013 369.378" stroke="white" stroke-linecap="round" stroke-linejoin="round"/>
<path fill-rule="evenodd" clip-rule="evenodd" d="M182.928 246.432L240.647 286.848L237.151 291.583L184.254 254.544C181.657 252.726 181.026 249.146 182.844 246.549C182.872 246.51 182.9 246.471 182.928 246.432Z" fill="#333333" stroke="#333333" stroke-linecap="round" stroke-linejoin="round"/>
<path fill-rule="evenodd" clip-rule="evenodd" d="M169.216 176.957L182.66 246.124C179.431 246.668 176.358 244.538 175.733 241.324L163.411 177.935L169.216 176.957Z" fill="#333333" stroke="#333333" stroke-linecap="round" stroke-linejoin="round"/>
<path d="M327.979 290.952C339.958 269.409 355.058 239.963 351.989 228.886C348.92 217.81 341.2 214.313 335.529 216.062" stroke="white" stroke-linecap="round" stroke-linejoin="round"/>
<path fill-rule="evenodd" clip-rule="evenodd" d="M240.37 98.9846V108.442H294.09V95.6789L275.908 82.9785L262.857 94.5242L251.929 86.4579L240.37 98.9846Z" fill="white" stroke="#333333" stroke-linecap="round" stroke-linejoin="round"/>
<path d="M262.857 85.9538C265.617 85.9538 267.855 83.7164 267.855 80.9565C267.855 78.1966 265.617 75.9592 262.857 75.9592C260.097 75.9592 257.86 78.1966 257.86 80.9565C257.86 83.7164 260.097 85.9538 262.857 85.9538Z" fill="white" stroke="#333333" stroke-linecap="round" stroke-linejoin="round"/>
</svg>
