<svg width="48" height="48" viewBox="0 0 48 48" fill="none" xmlns="http://www.w3.org/2000/svg">
<rect width="48" height="48" rx="24" fill="#18A8FF"/>
<path fill-rule="evenodd" clip-rule="evenodd" d="M18 15H30C32.2091 15 34 16.7909 34 19V28C34 30.2091 32.2091 32 30 32H26.4651C25.9956 25.3318 20.8421 20.5 14 20.5V19C14 16.7909 15.7909 15 18 15ZM13.25 23C13.25 22.5858 13.5858 22.25 14 22.25C19.9371 22.25 24.75 27.0629 24.75 33C24.75 33.4142 24.4142 33.75 24 33.75C23.5858 33.75 23.25 33.4142 23.25 33C23.25 27.8914 19.1086 23.75 14 23.75C13.5858 23.75 13.25 23.4142 13.25 23ZM14 26.25C13.5858 26.25 13.25 26.5858 13.25 27C13.25 27.4142 13.5858 27.75 14 27.75C16.8995 27.75 19.25 30.1005 19.25 33C19.25 33.4142 19.5858 33.75 20 33.75C20.4142 33.75 20.75 33.4142 20.75 33C20.75 29.2721 17.7279 26.25 14 26.25ZM14 30.25C13.5858 30.25 13.25 30.5858 13.25 31C13.25 31.4142 13.5858 31.75 14 31.75C14.6904 31.75 15.25 32.3096 15.25 33C15.25 33.4142 15.5858 33.75 16 33.75C16.4142 33.75 16.75 33.4142 16.75 33C16.75 31.4812 15.5188 30.25 14 30.25Z" fill="white"/>
</svg>
