<svg width="24" height="24" viewBox="0 0 24 24" fill="none" xmlns="http://www.w3.org/2000/svg">
<path fill-rule="evenodd" clip-rule="evenodd" d="M20 5.00098H4C3.44772 5.00098 3 5.44869 3 6.00098V18.001C3 18.5533 3.44772 19.001 4 19.001H20C20.5523 19.001 21 18.5533 21 18.001V6.00098C21 5.44869 20.5523 5.00098 20 5.00098ZM4 3.00098C2.34315 3.00098 1 4.34412 1 6.00098V18.001C1 19.6578 2.34315 21.001 4 21.001H20C21.6569 21.001 23 19.6578 23 18.001V6.00098C23 4.34412 21.6569 3.00098 20 3.00098H4Z" fill="#667790"/>
<path fill-rule="evenodd" clip-rule="evenodd" d="M5.2318 7.36082C5.58537 6.93654 6.21593 6.87922 6.64021 7.23278L11.3598 11.1658C11.7307 11.4748 12.2694 11.4748 12.6402 11.1658L17.3598 7.23278C17.7841 6.87922 18.4147 6.93654 18.7682 7.36082C19.1218 7.78509 19.0645 8.41566 18.6402 8.76922L13.9206 12.7022C12.808 13.6294 11.192 13.6294 10.0795 12.7023L5.35984 8.76922C4.93556 8.41566 4.87824 7.78509 5.2318 7.36082Z" fill="#667790"/>
</svg>
