<svg width="24" height="24" viewBox="0 0 24 24" fill="none" xmlns="http://www.w3.org/2000/svg">
<path fill-rule="evenodd" clip-rule="evenodd" d="M11.9916 4.17218L12 4.16784L12.0087 4.17236L16.4622 6.84443L18 7.77095V18.801C18 19.3941 17.9984 19.7186 17.9794 19.9518L17.9771 19.9781L17.9507 19.9804C17.7176 19.9995 17.3931 20.001 16.8 20.001H7.2C6.60695 20.001 6.28244 19.9995 6.04927 19.9804L6.0229 19.9781L6.02061 19.9518C6.00156 19.7186 6 19.3941 6 18.801V7.77098L7.53217 6.84785L11.9916 4.17218ZM6.50169 5.13376L1.48553 8.14345C1.01195 8.4276 0.858388 9.04186 1.14254 9.51544C1.42668 9.98902 2.04094 10.1426 2.51452 9.85844L4 8.96716V18.801C4 19.9211 4 20.4812 4.21799 20.909C4.40973 21.2853 4.71569 21.5913 5.09202 21.783C5.51984 22.001 6.0799 22.001 7.2 22.001H16.8C17.9201 22.001 18.4802 22.001 18.908 21.783C19.2843 21.5913 19.5903 21.2853 19.782 20.909C20 20.4812 20 19.9211 20 18.801V8.96712L21.4855 9.85844C21.9591 10.1426 22.5734 9.98902 22.8575 9.51544C23.1417 9.04186 22.9881 8.4276 22.5145 8.14345L17.4926 5.1303L13.6514 2.81602C13.3721 2.64776 13.1578 2.51864 12.9762 2.42154C12.9338 2.39783 12.8908 2.37578 12.8472 2.35539C12.696 2.28163 12.565 2.23253 12.4304 2.20287C12.1469 2.14039 11.8531 2.14039 11.5696 2.20287C11.4346 2.23261 11.3033 2.28188 11.1516 2.35596C11.1088 2.37602 11.0666 2.39768 11.0249 2.42094C10.8431 2.5181 10.6285 2.64741 10.3486 2.81602L6.50169 5.13376Z" fill="#667790"/>
<path fill-rule="evenodd" clip-rule="evenodd" d="M13 20.001V16.001C13 15.4487 12.5523 15.001 12 15.001C11.4477 15.001 11 15.4487 11 16.001V20.001H13ZM12 13.001C10.3431 13.001 9 14.3441 9 16.001V22.001H15V16.001C15 14.3441 13.6569 13.001 12 13.001Z" fill="#667790"/>
</svg>
