<svg width="74" height="18" viewBox="0 0 74 18" fill="none" xmlns="http://www.w3.org/2000/svg">
<g clip-path="url(#clip0_209_62)">
<path d="M72.652 15.5606C72.3299 15.5637 72.0221 15.6943 71.796 15.9237C71.5699 16.153 71.4438 16.4627 71.4454 16.7848C71.4469 17.1069 71.576 17.4152 71.8043 17.6424C72.0326 17.8697 72.3416 17.9972 72.6637 17.9972C72.9858 17.9972 73.2948 17.8697 73.5231 17.6424C73.7514 17.4152 73.8805 17.1069 73.882 16.7848C73.8836 16.4627 73.7575 16.153 73.5314 15.9237C73.3053 15.6943 72.9975 15.5637 72.6754 15.5606H72.652ZM72.652 17.8577C72.4407 17.8612 72.2332 17.802 72.0556 17.6876C71.8779 17.5731 71.7383 17.4086 71.6542 17.2148C71.5701 17.0209 71.5453 16.8065 71.5831 16.5986C71.6209 16.3907 71.7194 16.1987 71.8663 16.0469C72.0132 15.895 72.2019 15.7901 72.4084 15.7454C72.6149 15.7008 72.83 15.7183 73.0265 15.7959C73.2231 15.8735 73.3922 16.0076 73.5125 16.1813C73.6328 16.355 73.6988 16.5605 73.7024 16.7718V16.7897C73.7083 17.0668 73.6039 17.335 73.4121 17.5352C73.2204 17.7353 72.957 17.8512 72.6798 17.8572H72.6523M67.9753 15.2278H65.328V11.082C65.328 10.0934 65.3104 8.82074 63.9511 8.82074C62.5723 8.82074 62.3614 9.89786 62.3614 11.01V15.2275H59.7141V6.70206H62.2555V7.86715H62.2911C62.5454 7.43229 62.9129 7.07455 63.3545 6.83203C63.7961 6.58952 64.2951 6.47131 64.7986 6.49C67.4817 6.49 67.9764 8.25487 67.9764 10.5509L67.9753 15.2278ZM56.727 5.53669C56.4232 5.53674 56.1261 5.4467 55.8735 5.27793C55.6208 5.10917 55.4238 4.86928 55.3075 4.58858C55.1912 4.30788 55.1607 3.999 55.2199 3.70098C55.2792 3.40296 55.4254 3.1292 55.6402 2.91431C55.855 2.69942 56.1288 2.55305 56.4268 2.49372C56.7248 2.43439 57.0336 2.46476 57.3144 2.58099C57.5951 2.69721 57.8351 2.89408 58.0039 3.14669C58.1728 3.39929 58.2629 3.6963 58.263 4.00014C58.263 4.20189 58.2233 4.40167 58.1462 4.58807C58.069 4.77447 57.9559 4.94385 57.8132 5.08653C57.6706 5.22921 57.5013 5.3424 57.3149 5.41964C57.1285 5.49688 56.9288 5.53665 56.727 5.53669ZM58.0507 15.2278H55.4006V6.70206H58.0507V15.2278ZM69.2951 0.00573341H54.0703C53.7248 0.00183377 53.3918 0.135285 53.1446 0.376762C52.8974 0.618239 52.7561 0.947985 52.7519 1.29354V16.5815C52.756 16.9272 52.8971 17.2572 53.1443 17.4989C53.3915 17.7407 53.7246 17.8744 54.0703 17.8707H69.2951C69.6415 17.875 69.9755 17.7417 70.2237 17.5C70.4719 17.2583 70.614 16.9279 70.6188 16.5815V1.29244C70.6139 0.946196 70.4717 0.616076 70.2235 0.374605C69.9753 0.133134 69.6414 6.38557e-05 69.2951 0.00463037M45.5465 8.75979C44.2229 8.75979 43.4287 9.64361 43.4287 10.9314C43.4287 12.2192 44.2226 13.1039 45.5465 13.1039C46.8705 13.1039 47.6663 12.2214 47.6663 10.9314C47.6663 9.64141 46.8718 8.75979 45.5465 8.75979ZM50.1035 15.2228H47.6663V14.0922H47.6302C47.3244 14.5034 46.9278 14.8386 46.4713 15.0714C46.0148 15.3042 45.5107 15.4285 44.9983 15.4346C42.4547 15.4346 40.7791 13.5989 40.7791 11.0028C40.7791 8.6186 42.2619 6.42933 44.6994 6.42933C45.795 6.42933 46.8183 6.72908 47.4187 7.55995H47.4534V2.6456H50.1032L50.1035 15.2228ZM37.3801 9.97011C37.3852 9.75534 37.3466 9.54177 37.2667 9.34235C37.1868 9.14292 37.0672 8.96179 36.9153 8.80993C36.7633 8.65807 36.5821 8.53864 36.3826 8.45887C36.1831 8.37911 35.9695 8.34066 35.7548 8.34587C35.2922 8.31709 34.8369 8.47124 34.4869 8.77507C34.137 9.07891 33.9204 9.5081 33.884 9.97011H37.3801ZM39.6226 13.7481C39.1827 14.2815 38.6296 14.7105 38.0035 15.0038C37.3774 15.2972 36.6938 15.4476 36.0024 15.4443C33.3551 15.4443 31.2356 13.6772 31.2356 10.9408C31.2356 8.20441 33.3548 6.43815 36.0024 6.43815C38.4768 6.43815 40.0285 8.20303 40.0285 10.9408V11.7708H33.884C33.9605 12.2416 34.2045 12.6688 34.5712 12.9738C34.9378 13.2788 35.4023 13.4411 35.8791 13.4306C36.2559 13.4283 36.6262 13.3318 36.9561 13.1498C37.2861 12.9678 37.5653 12.7062 37.7684 12.3888L39.6226 13.7481ZM13.3055 6.69985H15.8478V7.86495H15.8839C16.1378 7.4299 16.5052 7.072 16.9467 6.82944C17.3881 6.58689 17.8872 6.46881 18.3906 6.48779C21.0751 6.48779 21.5693 8.25405 21.5693 10.5487V15.2239H18.922V11.079C18.922 10.0895 18.9038 8.8177 17.5432 8.8177C16.1671 8.8177 15.9548 9.89511 15.9548 11.007V15.2228H13.3075L13.3055 6.69985ZM22.9117 2.64643H25.559V10.1651L28.5593 6.69516H31.805L28.3304 10.6421L31.732 15.2281H28.4046L25.5943 11.0139H25.5596V15.2275H22.9123L22.9117 2.64643ZM9.19035 6.69903H11.8377V15.2245H9.19035V6.69903ZM10.514 2.46057C10.8177 2.46062 11.1146 2.55073 11.3671 2.71951C11.6196 2.88829 11.8164 3.12816 11.9326 3.40878C12.0488 3.6894 12.0792 3.99817 12.0199 4.29606C11.9606 4.59394 11.8143 4.86755 11.5995 5.0823C11.3848 5.29704 11.1111 5.44328 10.8132 5.50251C10.5153 5.56175 10.2066 5.53132 9.92597 5.41508C9.64537 5.29883 9.40554 5.102 9.2368 4.84945C9.06807 4.59691 8.97801 4.30001 8.97801 3.99628C8.97801 3.79459 9.01774 3.59487 9.09494 3.40853C9.17213 3.22219 9.28527 3.05288 9.42791 2.91027C9.57054 2.76766 9.73987 2.65455 9.92622 2.57739C10.1126 2.50023 10.3123 2.46053 10.514 2.46057ZM0.114746 2.64836H2.87043V12.6861H7.97203V15.2292H0.114746V2.64836ZM72.8453 16.8562C72.8906 16.8566 72.9356 16.8477 72.9773 16.8301C73.0191 16.8125 73.0568 16.7864 73.0881 16.7536C73.1194 16.7208 73.1436 16.6819 73.1592 16.6394C73.1749 16.5968 73.1816 16.5515 73.179 16.5062C73.179 16.258 73.0292 16.1395 72.722 16.1395H72.2257V17.4388H72.4124V16.8724H72.6418L72.647 16.8793L73.003 17.4388H73.2027L72.8196 16.8597L72.8453 16.8562ZM72.6294 16.726H72.4129V16.2867H72.6873C72.829 16.2867 72.9906 16.3099 72.9906 16.4955C72.9906 16.7089 72.8271 16.726 72.6283 16.726" fill="#0A66C2"/>
</g>
<defs>
<clipPath id="clip0_209_62">
<rect width="73.7705" height="18" fill="white" transform="translate(0.114746)"/>
</clipPath>
</defs>
</svg>
