<svg width="25" height="24" viewBox="0 0 25 24" fill="none" xmlns="http://www.w3.org/2000/svg">
<path fill-rule="evenodd" clip-rule="evenodd" d="M12.5 2C13.0523 2 13.5 2.44772 13.5 3V5C13.5 5.55228 13.0523 6 12.5 6C11.9477 6 11.5 5.55228 11.5 5V3C11.5 2.44772 11.9477 2 12.5 2Z" fill="white"/>
<path fill-rule="evenodd" clip-rule="evenodd" d="M12.5 18C13.0523 18 13.5 18.4477 13.5 19V21C13.5 21.5523 13.0523 22 12.5 22C11.9477 22 11.5 21.5523 11.5 21V19C11.5 18.4477 11.9477 18 12.5 18Z" fill="white"/>
<path fill-rule="evenodd" clip-rule="evenodd" d="M5.42976 4.92912C5.82029 4.5386 6.45345 4.5386 6.84398 4.92912L8.25819 6.34334C8.64871 6.73386 8.64871 7.36703 8.25819 7.75755C7.86767 8.14808 7.2345 8.14808 6.84398 7.75755L5.42976 6.34334C5.03924 5.95281 5.03924 5.31965 5.42976 4.92912Z" fill="white"/>
<path fill-rule="evenodd" clip-rule="evenodd" d="M16.7423 16.2426C17.1328 15.8521 17.766 15.8521 18.1565 16.2426L19.5707 17.6568C19.9612 18.0473 19.9612 18.6805 19.5707 19.071C19.1802 19.4616 18.547 19.4616 18.1565 19.071L16.7423 17.6568C16.3517 17.2663 16.3517 16.6331 16.7423 16.2426Z" fill="white"/>
<path fill-rule="evenodd" clip-rule="evenodd" d="M2.5 12C2.5 11.4477 2.94772 11 3.5 11L5.5 11C6.05228 11 6.5 11.4477 6.5 12C6.5 12.5523 6.05228 13 5.5 13L3.5 13C2.94772 13 2.5 12.5523 2.5 12Z" fill="white"/>
<path fill-rule="evenodd" clip-rule="evenodd" d="M18.5 12C18.5 11.4477 18.9477 11 19.5 11L21.5 11C22.0523 11 22.5 11.4477 22.5 12C22.5 12.5523 22.0523 13 21.5 13L19.5 13C18.9477 13 18.5 12.5523 18.5 12Z" fill="white"/>
<path fill-rule="evenodd" clip-rule="evenodd" d="M5.42961 19.0712C5.03909 18.6807 5.03909 18.0475 5.42961 17.657L6.84383 16.2428C7.23435 15.8523 7.86751 15.8523 8.25804 16.2428C8.64856 16.6333 8.64856 17.2665 8.25804 17.657L6.84383 19.0712C6.4533 19.4617 5.82014 19.4617 5.42961 19.0712Z" fill="white"/>
<path fill-rule="evenodd" clip-rule="evenodd" d="M16.7421 7.75725C16.3516 7.36672 16.3516 6.73356 16.7421 6.34304L18.1563 4.92882C18.5468 4.5383 19.18 4.5383 19.5705 4.92882C19.9611 5.31935 19.9611 5.95251 19.5705 6.34304L18.1563 7.75725C17.7658 8.14777 17.1326 8.14777 16.7421 7.75725Z" fill="white"/>
</svg>
