<svg width="155" height="48" viewBox="0 0 155 48" fill="none" xmlns="http://www.w3.org/2000/svg">
<g clip-path="url(#clip0_87_379)">
<path d="M73.1777 24.2986L71.4361 19.8975H61.6303L59.8888 24.2986H57.0815L65.0281 4.59717H68.0707L75.9872 24.2986H73.18H73.1777ZM66.5321 7.10685L62.3685 17.7407H70.728L66.5344 7.10685H66.5321Z" fill="#03156D"/>
<path d="M88.1227 24.2986V14.9657C88.1227 12.426 86.824 11.6579 84.9025 11.6579C83.1587 11.6579 81.5348 12.7212 80.679 13.8723V24.2986H78.4645V10.0339H80.679V12.1007C81.6824 10.8897 83.6315 9.67871 85.7883 9.67871C88.7432 9.67871 90.3071 11.185 90.3071 14.2875V24.3009H88.1204L88.1227 24.2986Z" fill="#03156D"/>
<path d="M103.688 24.2985V22.6746C102.537 23.9733 100.881 24.6538 98.9618 24.6538C96.5698 24.6538 94.0001 23.0299 94.0001 19.9274C94.0001 16.8248 96.5398 15.2309 98.9618 15.2309C100.911 15.2309 102.535 15.8514 103.688 17.1501V14.5804C103.688 12.6889 102.152 11.5979 100.085 11.5979C98.3713 11.5979 96.9827 12.1884 95.714 13.577L94.6806 12.0408C96.2169 10.4445 98.0484 9.67871 100.38 9.67871C103.423 9.67871 105.905 11.0374 105.905 14.4928V24.2985H103.691H103.688ZM103.688 21.286V18.5687C102.832 17.4177 101.326 16.8249 99.7899 16.8249C97.6931 16.8249 96.2445 18.1235 96.2445 19.9274C96.2445 21.7312 97.6908 23.0575 99.7899 23.0575C101.326 23.0575 102.832 22.467 103.688 21.286Z" fill="#03156D"/>
<path d="M110.334 27.9314L111.457 26.3375C112.638 27.7261 114.057 28.2567 116.094 28.2567C118.456 28.2567 120.702 27.1056 120.702 24.0908V21.934C119.639 23.3803 117.895 24.4737 115.888 24.4737C112.168 24.4737 109.538 21.6964 109.538 17.09C109.538 12.4835 112.138 9.67627 115.888 9.67627C117.807 9.67627 119.551 10.622 120.702 12.186V10.0292H122.917V24.0885C122.917 28.6073 119.579 30.0859 116.094 30.0859C113.702 30.0859 112.048 29.613 110.334 27.9291V27.9314ZM120.702 20.1925V13.9298C119.904 12.7188 118.193 11.6554 116.449 11.6554C113.554 11.6554 111.84 13.9298 111.84 17.09C111.84 20.2501 113.554 22.4946 116.449 22.4946C118.193 22.4946 119.904 21.4312 120.702 20.1902V20.1925Z" fill="#03156D"/>
<path d="M137.006 24.2986V14.9058C137.006 12.3661 135.735 11.658 133.786 11.658C132.072 11.658 130.418 12.7213 129.592 13.8724V24.2986H127.378V4.59717H129.592V12.1008C130.568 10.8898 132.517 9.67881 134.672 9.67881C137.654 9.67881 139.221 11.1251 139.221 14.2276V24.3009H137.006V24.2986Z" fill="#03156D"/>
<path d="M152.572 24.2985V22.6746C151.421 23.9733 149.765 24.6538 147.845 24.6538C145.453 24.6538 142.884 23.0299 142.884 19.9274C142.884 16.8248 145.423 15.2309 147.845 15.2309C149.795 15.2309 151.418 15.8514 152.572 17.1501V14.5804C152.572 12.6889 151.036 11.5979 148.969 11.5979C147.255 11.5979 145.866 12.1884 144.598 13.577L143.564 12.0408C145.1 10.4445 146.932 9.67871 149.264 9.67871C152.307 9.67871 154.789 11.0374 154.789 14.4928V24.2985H152.574H152.572ZM152.572 21.286V18.5687C151.716 17.4177 150.21 16.8249 148.673 16.8249C146.577 16.8249 145.128 18.1235 145.128 19.9274C145.128 21.7312 146.574 23.0575 148.673 23.0575C150.21 23.0575 151.716 22.467 152.572 21.286Z" fill="#03156D"/>
<path d="M57.1092 42.3787L57.732 41.6544C58.4563 42.4802 59.6373 43.2898 61.2566 43.2898C63.5495 43.2898 64.2069 42.0073 64.2069 41.0477C64.2069 37.7422 57.4621 39.463 57.4621 35.5347C57.4621 33.6963 59.1137 32.5337 61.1551 32.5337C62.8252 32.5337 64.1054 33.1242 64.9658 34.1184L64.3245 34.8265C63.5149 33.8485 62.3684 33.4102 61.1044 33.4102C59.6027 33.4102 58.4747 34.2706 58.4747 35.484C58.4747 38.3673 65.2195 36.7826 65.2195 40.9808C65.2195 42.4317 64.2576 44.1687 61.222 44.1687C59.3674 44.1687 57.9673 43.4098 57.1069 42.381L57.1092 42.3787Z" fill="#026989"/>
<path d="M68.3912 39.8826C68.3912 37.5044 69.909 35.6152 72.2872 35.6152C74.6655 35.6152 76.2156 37.5044 76.2156 39.8826C76.2156 42.2608 74.6977 44.1662 72.2872 44.1662C69.8768 44.1662 68.3912 42.2608 68.3912 39.8826ZM75.2721 39.8826C75.2721 38.0788 74.2087 36.4087 72.2872 36.4087C70.3658 36.4087 69.3185 38.0788 69.3185 39.8826C69.3185 41.6865 70.3981 43.3726 72.2872 43.3726C74.1764 43.3726 75.2721 41.7026 75.2721 39.8826Z" fill="#026989"/>
<path d="M80.1116 43.9632V36.5933H78.7621V35.8183H80.1116V35.0755C80.1116 33.4908 80.9558 32.5474 82.3214 32.5474C82.8957 32.5474 83.3502 32.665 83.8738 33.1194L83.4517 33.7607C83.1818 33.5069 82.845 33.3386 82.4067 33.3386C81.4794 33.3386 81.0066 33.9798 81.0066 35.0755V35.8183H82.6581V36.5933H81.0066V43.9632H80.1116Z" fill="#026989"/>
<path d="M85.8114 42.3946V36.5933H84.462V35.8182H85.8114V33.5923H86.7064V35.8182H88.358V36.5933H86.7064V42.2585C86.7064 42.916 86.9763 43.3727 87.5506 43.3727C87.9382 43.3727 88.2749 43.1881 88.4618 42.9852L88.7986 43.6587C88.4779 43.9632 88.0904 44.1639 87.4169 44.1639C86.3373 44.1639 85.8137 43.5065 85.8137 42.3923L85.8114 42.3946Z" fill="#026989"/>
<path d="M91.1745 39.8826C91.1745 37.5229 92.8284 35.6152 95.0867 35.6152C97.5664 35.6152 98.9319 37.5713 98.9319 39.9311V40.1663H92.1202C92.2056 41.9379 93.3843 43.4049 95.3081 43.4049C96.3369 43.4049 97.2803 43.0174 97.9723 42.2747L98.4268 42.8467C97.6171 43.691 96.5883 44.1615 95.2389 44.1615C92.8607 44.1615 91.1745 42.39 91.1745 39.878V39.8826ZM95.0705 36.3741C93.149 36.3741 92.1871 38.0603 92.1202 39.4766H98.0392C98.0231 38.0949 97.1119 36.3741 95.0705 36.3741Z" fill="#026989"/>
<path d="M102.085 39.8826C102.085 37.5044 103.637 35.6152 106.032 35.6152C107.448 35.6152 108.258 36.1711 108.915 36.9969L108.309 37.5367C107.718 36.7271 106.975 36.4064 106.083 36.4064C104.177 36.4064 103.015 37.9242 103.015 39.8803C103.015 41.8364 104.177 43.3703 106.083 43.3703C106.978 43.3703 107.718 43.0336 108.309 42.2239L108.915 42.7637C108.258 43.6079 107.448 44.1638 106.032 44.1638C103.637 44.1638 102.085 42.2585 102.085 39.8803V39.8826Z" fill="#026989"/>
<path d="M117.718 43.9633V38.4157C117.718 36.8471 116.924 36.4088 115.745 36.4088C114.7 36.4088 113.621 37.0662 113.097 37.809V43.9633H112.221V32.7158H113.097V37.0501C113.688 36.3419 114.85 35.6176 116.031 35.6176C117.683 35.6176 118.594 36.3927 118.594 38.2311V43.9656H117.718V43.9633Z" fill="#026989"/>
<path d="M49.9907 40.9692L41.0776 7.75972C39.8528 3.19016 35.6915 0 30.9605 0C26.2294 0 22.0681 3.19016 20.8433 7.75972L15.817 26.4878H4.17742C3.7899 25.8188 3.0679 25.369 2.2398 25.369C1.00341 25.369 0 26.3724 0 27.6088C0 28.8452 1.00341 29.8463 2.2398 29.8463C3.0679 29.8463 3.7899 29.3965 4.17742 28.7276H15.215L11.9302 40.9669C11.5473 42.3878 11.8426 43.8733 12.7399 45.0405C13.6349 46.2077 14.9935 46.8767 16.4652 46.8767H24.5086C24.8962 47.5456 25.6182 47.9954 26.4463 47.9954C27.6826 47.9954 28.6861 46.9943 28.6861 45.7579C28.6861 44.5215 27.6826 43.5181 26.4463 43.5181C25.6182 43.5181 24.8939 43.9679 24.5086 44.6369H16.4652C15.6948 44.6369 14.9866 44.2862 14.5183 43.675C14.0501 43.0637 13.8955 42.2886 14.0962 41.5436L17.5355 28.7253H28.0632C29.0436 28.7253 29.8417 29.5234 29.8417 30.5037V39.0062C29.8417 43.3451 33.3733 46.8767 37.7122 46.8767H45.4603C46.932 46.8767 48.2907 46.2054 49.1857 45.0405C50.0807 43.8733 50.3759 42.3878 49.9953 40.9669L49.9907 40.9692ZM47.4026 43.6796C46.9343 44.2909 46.2239 44.6415 45.4557 44.6415H37.7075C34.605 44.6415 32.0792 42.1156 32.0792 39.0131V30.5107C32.0792 28.2939 30.2754 26.4901 28.0586 26.4901H18.1329L23.0047 8.34101C23.9689 4.74949 27.2398 2.2398 30.9582 2.2398C34.6765 2.2398 37.9474 4.74718 38.9116 8.34101L47.8247 41.5505C48.0231 42.2956 47.8708 43.0706 47.4026 43.6819V43.6796Z" fill="url(#paint0_linear_87_379)"/>
<path d="M2.23979 28.6283C2.8016 28.6283 3.25704 28.1728 3.25704 27.611C3.25704 27.0492 2.8016 26.5938 2.23979 26.5938C1.67797 26.5938 1.22253 27.0492 1.22253 27.611C1.22253 28.1728 1.67797 28.6283 2.23979 28.6283Z" fill="white"/>
<path d="M26.4463 46.7777C27.0081 46.7777 27.4635 46.3222 27.4635 45.7604C27.4635 45.1986 27.0081 44.7432 26.4463 44.7432C25.8845 44.7432 25.429 45.1986 25.429 45.7604C25.429 46.3222 25.8845 46.7777 26.4463 46.7777Z" fill="white"/>
</g>
<defs>
<linearGradient id="paint0_linear_87_379" x1="25.9895" y1="1.79922" x2="24.7278" y2="47.6102" gradientUnits="userSpaceOnUse">
<stop stop-color="#C600FF"/>
<stop offset="0.5" stop-color="#687AFB"/>
<stop offset="0.99" stop-color="#00B4FF"/>
</linearGradient>
<clipPath id="clip0_87_379">
<rect width="154.786" height="48" fill="white"/>
</clipPath>
</defs>
</svg>
