<svg width="155" height="48" viewBox="0 0 155 48" fill="none" xmlns="http://www.w3.org/2000/svg">
<g clip-path="url(#clip0_144_34)">
<path d="M73.1777 24.2996L71.4361 19.8985H61.6303L59.8888 24.2996H57.0815L65.0281 4.59814H68.0707L75.9872 24.2996H73.18H73.1777ZM66.5321 7.10783L62.3685 17.7417H70.728L66.5344 7.10783H66.5321Z" fill="white"/>
<path d="M88.1227 24.2995V14.9666C88.1227 12.427 86.824 11.6588 84.9025 11.6588C83.1587 11.6588 81.5348 12.7222 80.679 13.8733V24.2995H78.4645V10.0349H80.679V12.1017C81.6824 10.8907 83.6315 9.67969 85.7883 9.67969C88.7432 9.67969 90.3071 11.186 90.3071 14.2885V24.3018H88.1204L88.1227 24.2995Z" fill="white"/>
<path d="M103.688 24.2995V22.6756C102.537 23.9743 100.881 24.6547 98.9618 24.6547C96.5698 24.6547 94.0001 23.0308 94.0001 19.9283C94.0001 16.8258 96.5398 15.2319 98.9618 15.2319C100.911 15.2319 102.535 15.8524 103.688 17.1511V14.5814C103.688 12.6899 102.152 11.5989 100.085 11.5989C98.3713 11.5989 96.9827 12.1894 95.714 13.578L94.6806 12.0417C96.2169 10.4455 98.0484 9.67969 100.38 9.67969C103.423 9.67969 105.905 11.0383 105.905 14.4938V24.2995H103.691H103.688ZM103.688 21.287V18.5697C102.832 17.4186 101.326 16.8258 99.7899 16.8258C97.6931 16.8258 96.2445 18.1245 96.2445 19.9283C96.2445 21.7322 97.6908 23.0585 99.7899 23.0585C101.326 23.0585 102.832 22.468 103.688 21.287Z" fill="white"/>
<path d="M110.334 27.9327L111.457 26.3387C112.638 27.7274 114.057 28.2579 116.094 28.2579C118.456 28.2579 120.702 27.1069 120.702 24.092V21.9353C119.639 23.3815 117.895 24.4749 115.888 24.4749C112.168 24.4749 109.538 21.6977 109.538 17.0912C109.538 12.4847 112.138 9.67749 115.888 9.67749C117.807 9.67749 119.551 10.6232 120.702 12.1872V10.0304H122.917V24.0897C122.917 28.6085 119.579 30.0871 116.094 30.0871C113.702 30.0871 112.048 29.6142 110.334 27.9303V27.9327ZM120.702 20.1937V13.931C119.904 12.72 118.193 11.6566 116.449 11.6566C113.554 11.6566 111.84 13.931 111.84 17.0912C111.84 20.2514 113.554 22.4958 116.449 22.4958C118.193 22.4958 119.904 21.4324 120.702 20.1914V20.1937Z" fill="white"/>
<path d="M137.006 24.2996V14.9068C137.006 12.3671 135.735 11.6589 133.786 11.6589C132.072 11.6589 130.418 12.7223 129.592 13.8734V24.2996H127.378V4.59814H129.592V12.1018C130.568 10.8908 132.517 9.67979 134.672 9.67979C137.654 9.67979 139.221 11.1261 139.221 14.2286V24.3019H137.006V24.2996Z" fill="white"/>
<path d="M152.572 24.2995V22.6756C151.421 23.9743 149.765 24.6547 147.845 24.6547C145.453 24.6547 142.884 23.0308 142.884 19.9283C142.884 16.8258 145.423 15.2319 147.845 15.2319C149.795 15.2319 151.418 15.8524 152.572 17.1511V14.5814C152.572 12.6899 151.036 11.5989 148.969 11.5989C147.255 11.5989 145.866 12.1894 144.598 13.578L143.564 12.0417C145.1 10.4455 146.932 9.67969 149.264 9.67969C152.307 9.67969 154.789 11.0383 154.789 14.4938V24.2995H152.574H152.572ZM152.572 21.287V18.5697C151.716 17.4186 150.21 16.8258 148.673 16.8258C146.577 16.8258 145.128 18.1245 145.128 19.9283C145.128 21.7322 146.574 23.0585 148.673 23.0585C150.21 23.0585 151.716 22.468 152.572 21.287Z" fill="white"/>
<path d="M57.1092 42.3794L57.732 41.6551C58.4563 42.4809 59.6373 43.2905 61.2566 43.2905C63.5495 43.2905 64.2069 42.008 64.2069 41.0484C64.2069 37.7429 57.4621 39.4637 57.4621 35.5354C57.4621 33.697 59.1137 32.5344 61.1551 32.5344C62.8252 32.5344 64.1054 33.1249 64.9658 34.1191L64.3245 34.8273C63.5149 33.8492 62.3684 33.411 61.1044 33.411C59.6027 33.411 58.4747 34.2714 58.4747 35.4847C58.4747 38.3681 65.2195 36.7834 65.2195 40.9815C65.2195 42.4325 64.2576 44.1694 61.222 44.1694C59.3674 44.1694 57.9673 43.4105 57.1069 42.3817L57.1092 42.3794Z" fill="white"/>
<path d="M68.3912 39.8836C68.3912 37.5054 69.909 35.6162 72.2872 35.6162C74.6655 35.6162 76.2156 37.5054 76.2156 39.8836C76.2156 42.2618 74.6977 44.1671 72.2872 44.1671C69.8768 44.1671 68.3912 42.2618 68.3912 39.8836ZM75.2721 39.8836C75.2721 38.0798 74.2087 36.4097 72.2872 36.4097C70.3658 36.4097 69.3185 38.0798 69.3185 39.8836C69.3185 41.6874 70.3981 43.3736 72.2872 43.3736C74.1764 43.3736 75.2721 41.7036 75.2721 39.8836Z" fill="white"/>
<path d="M80.1116 43.9642V36.5943H78.7621V35.8192H80.1116V35.0765C80.1116 33.4918 80.9558 32.5483 82.3214 32.5483C82.8957 32.5483 83.3502 32.666 83.8738 33.1204L83.4517 33.7617C83.1818 33.5079 82.845 33.3395 82.4067 33.3395C81.4794 33.3395 81.0066 33.9808 81.0066 35.0765V35.8192H82.6581V36.5943H81.0066V43.9642H80.1116Z" fill="white"/>
<path d="M85.8114 42.3956V36.5943H84.462V35.8192H85.8114V33.5933H86.7064V35.8192H88.358V36.5943H86.7064V42.2595C86.7064 42.9169 86.9763 43.3737 87.5506 43.3737C87.9382 43.3737 88.2749 43.1891 88.4618 42.9861L88.7986 43.6597C88.4779 43.9642 88.0904 44.1649 87.4169 44.1649C86.3373 44.1649 85.8137 43.5074 85.8137 42.3933L85.8114 42.3956Z" fill="white"/>
<path d="M91.1745 39.8836C91.1745 37.5238 92.8284 35.6162 95.0867 35.6162C97.5664 35.6162 98.9319 37.5723 98.9319 39.932V40.1673H92.1202C92.2056 41.9389 93.3843 43.4059 95.3081 43.4059C96.3369 43.4059 97.2803 43.0184 97.9723 42.2756L98.4268 42.8477C97.6171 43.692 96.5883 44.1625 95.2389 44.1625C92.8607 44.1625 91.1745 42.391 91.1745 39.879V39.8836ZM95.0705 36.3751C93.149 36.3751 92.1871 38.0613 92.1202 39.4776H98.0392C98.0231 38.0959 97.1119 36.3751 95.0705 36.3751Z" fill="white"/>
<path d="M102.085 39.8836C102.085 37.5054 103.637 35.6162 106.032 35.6162C107.448 35.6162 108.258 36.1721 108.915 36.9979L108.309 37.5377C107.718 36.728 106.975 36.4074 106.083 36.4074C104.177 36.4074 103.015 37.9252 103.015 39.8813C103.015 41.8374 104.177 43.3713 106.083 43.3713C106.978 43.3713 107.718 43.0345 108.309 42.2249L108.915 42.7647C108.258 43.6089 107.448 44.1648 106.032 44.1648C103.637 44.1648 102.085 42.2595 102.085 39.8813V39.8836Z" fill="white"/>
<path d="M117.718 43.964V38.4164C117.718 36.8478 116.924 36.4096 115.745 36.4096C114.7 36.4096 113.621 37.067 113.097 37.8097V43.964H112.221V32.7166H113.097V37.0508C113.688 36.3427 114.85 35.6184 116.031 35.6184C117.683 35.6184 118.594 36.3934 118.594 38.2319V43.9663H117.718V43.964Z" fill="white"/>
<path d="M49.9907 40.9702L41.0776 7.7607C39.8528 3.19114 35.6915 0.000976562 30.9605 0.000976562C26.2294 0.000976562 22.0681 3.19114 20.8433 7.7607L15.817 26.4888H4.17742C3.7899 25.8198 3.0679 25.37 2.2398 25.37C1.00341 25.37 0 26.3734 0 27.6098C0 28.8462 1.00341 29.8473 2.2398 29.8473C3.0679 29.8473 3.7899 29.3975 4.17742 28.7286H15.215L11.9302 40.9679C11.5473 42.3888 11.8426 43.8743 12.7399 45.0415C13.6349 46.2087 14.9935 46.8776 16.4652 46.8776H24.5086C24.8962 47.5466 25.6182 47.9964 26.4463 47.9964C27.6826 47.9964 28.6861 46.9953 28.6861 45.7589C28.6861 44.5225 27.6826 43.5191 26.4463 43.5191C25.6182 43.5191 24.8939 43.9689 24.5086 44.6378H16.4652C15.6948 44.6378 14.9866 44.2872 14.5183 43.6759C14.0501 43.0647 13.8955 42.2896 14.0962 41.5446L17.5355 28.7263H28.0632C29.0436 28.7263 29.8417 29.5244 29.8417 30.5047V39.0072C29.8417 43.3461 33.3733 46.8776 37.7122 46.8776H45.4603C46.932 46.8776 48.2907 46.2064 49.1857 45.0415C50.0807 43.8743 50.3759 42.3888 49.9953 40.9679L49.9907 40.9702ZM47.4026 43.6806C46.9343 44.2918 46.2239 44.6424 45.4557 44.6424H37.7075C34.605 44.6424 32.0792 42.1166 32.0792 39.0141V30.5116C32.0792 28.2949 30.2754 26.4911 28.0586 26.4911H18.1329L23.0047 8.34199C23.9689 4.75046 27.2398 2.24078 30.9582 2.24078C34.6765 2.24078 37.9474 4.74816 38.9116 8.34199L47.8247 41.5515C48.0231 42.2965 47.8708 43.0716 47.4026 43.6829V43.6806Z" fill="white"/>
<path d="M2.23979 28.6292C2.8016 28.6292 3.25704 28.1738 3.25704 27.612C3.25704 27.0502 2.8016 26.5947 2.23979 26.5947C1.67797 26.5947 1.22253 27.0502 1.22253 27.612C1.22253 28.1738 1.67797 28.6292 2.23979 28.6292Z" fill="white"/>
<path d="M26.4463 46.7784C27.0081 46.7784 27.4635 46.323 27.4635 45.7611C27.4635 45.1993 27.0081 44.7439 26.4463 44.7439C25.8845 44.7439 25.429 45.1993 25.429 45.7611C25.429 46.323 25.8845 46.7784 26.4463 46.7784Z" fill="white"/>
</g>
<defs>
<clipPath id="clip0_144_34">
<rect width="154.786" height="48" fill="white" transform="translate(0 0.000976562)"/>
</clipPath>
</defs>
</svg>
