<svg width="24" height="24" viewBox="0 0 24 24" fill="none" xmlns="http://www.w3.org/2000/svg">
<g clip-path="url(#clip0_144_66)">
<path fill-rule="evenodd" clip-rule="evenodd" d="M4.64757 2.3534C5.9385 1.06248 8.07351 1.21421 9.16889 2.67473L10.9872 5.09909C11.8829 6.29345 11.7642 7.96473 10.7085 9.02041L9.36792 10.361C9.49784 10.6991 9.92552 11.4412 11.2279 12.7436C12.5303 14.046 13.2724 14.4737 13.6106 14.6036L14.9511 13.2631C16.0068 12.2074 17.6781 12.0886 18.8724 12.9844L21.2968 14.8026C22.7573 15.898 22.9091 18.033 21.6181 19.324C21.1984 19.7437 21.1274 19.8147 20.427 20.5151C19.7132 21.2289 18.1976 21.8961 16.663 21.9628C14.2617 22.0672 11 21.0009 6.98528 16.9863C2.97061 12.9716 1.90434 9.70981 2.00875 7.30849C2.06683 5.97269 2.49152 4.50555 3.46205 3.5501C4.15685 2.84412 4.24721 2.75377 4.64757 2.3534ZM4.00686 7.39537C3.93449 9.05991 4.636 11.8085 8.3995 15.572C12.163 19.3355 14.9116 20.037 16.5762 19.9647C18.13 19.8971 18.9636 19.1463 19.0128 19.1009L20.2039 17.9098C20.6342 17.4794 20.5837 16.7678 20.0968 16.4026L17.6724 14.5844C17.2743 14.2858 16.7172 14.3254 16.3653 14.6773C15.8352 15.2075 15.4732 15.5747 14.7648 16.2805C13.2932 17.7465 10.7741 15.1182 9.81371 14.1578C8.93113 13.2753 6.24147 10.6762 7.68961 9.21086C7.69248 9.20799 8.08253 8.81794 9.29427 7.6062C9.64616 7.2543 9.68576 6.69721 9.38717 6.29909L7.56889 3.87473C7.20376 3.38789 6.49209 3.33731 6.06179 3.76762C5.66573 4.16367 5.21751 4.61189 4.87188 4.95992C4.16051 5.6762 4.04493 6.51977 4.00686 7.39537Z" fill="#667790"/>
</g>
<defs>
<clipPath id="clip0_144_66">
<rect width="24" height="24" fill="white" transform="translate(0 0.000976562)"/>
</clipPath>
</defs>
</svg>
