<svg width="48" height="48" viewBox="0 0 48 48" fill="none" xmlns="http://www.w3.org/2000/svg">
<rect width="48" height="48" rx="24" fill="#667790"/>
<path fill-rule="evenodd" clip-rule="evenodd" d="M34 24C34 27.0134 32.6672 29.7154 30.5588 31.5488C28.8031 33.0756 26.5095 34 24 34C21.4905 34 19.1969 33.0756 17.4412 31.5488C15.3328 29.7154 14 27.0134 14 24C14 18.4772 18.4772 14 24 14C29.5228 14 34 18.4772 34 24ZM27 21C27 19.3431 25.6569 18 24 18C22.3431 18 21 19.3431 21 21C21 22.6569 22.3431 24 24 24C25.6569 24 27 22.6569 27 21ZM24 26C25.7127 26 26.839 26.9166 27.6332 27.9355C28.2257 28.6957 28.0218 29.8107 27.1622 30.2467C26.2124 30.7285 25.1379 31 24 31C22.8621 31 21.7876 30.7285 20.8378 30.2467C19.9782 29.8107 19.7743 28.6956 20.3668 27.9355C21.161 26.9166 22.2873 26 24 26Z" fill="white"/>
</svg>
