<svg width="48" height="48" viewBox="0 0 48 48" fill="none" xmlns="http://www.w3.org/2000/svg">
<rect width="48" height="48" rx="24" fill="#C701FF"/>
<path fill-rule="evenodd" clip-rule="evenodd" d="M30.818 26.1249C30.2016 25.4102 29.1428 25.4471 28.3149 25.9002C27.0338 26.6014 25.5635 27.0001 24 27.0001C22.4365 27.0001 20.9662 26.6014 19.6851 25.9002C18.8572 25.4471 17.7984 25.4102 17.182 26.1249C15.8222 27.7015 15 29.7548 15 32.0001V33.0001C15 34.1047 15.8954 35.0001 17 35.0001H31C32.1046 35.0001 33 34.1047 33 33.0001V32.0001C33 29.7548 32.1778 27.7015 30.818 26.1249Z" fill="#FCFCFD"/>
<path d="M29 18C29 20.7614 26.7614 23 24 23C21.2386 23 19 20.7614 19 18C19 15.2386 21.2386 13 24 13C26.7614 13 29 15.2386 29 18Z" fill="#FCFCFD"/>
</svg>
