<svg width="167" height="48" viewBox="0 0 167 48" fill="none" xmlns="http://www.w3.org/2000/svg">
<circle cx="22.634" cy="24.2499" r="20.5" stroke="#377DFF" stroke-width="3"/>
<path d="M30.7657 32.3817C26.6263 36.5211 21.9368 39.2233 17.7604 40.2972C13.5464 41.3808 10.1497 40.7571 8.13832 38.7456C6.12691 36.7342 5.50313 33.3376 6.58675 29.1235C7.66067 24.9472 10.3629 20.2576 14.5023 16.1182C18.6417 11.9788 23.3312 9.27662 27.5076 8.2027C31.7217 7.11907 35.1183 7.74286 37.1297 9.75427C39.1411 11.7657 39.7649 15.1623 38.6813 19.3764C37.6073 23.5528 34.9051 28.2423 30.7657 32.3817Z" stroke="#377DFF" stroke-width="3"/>
<path d="M30.7655 16.1182C34.9049 20.2576 37.6071 24.9471 38.6811 29.1235C39.7647 33.3376 39.1409 36.7342 37.1295 38.7456C35.1181 40.757 31.7215 41.3808 27.5074 40.2972C23.331 39.2233 18.6415 36.5211 14.5021 32.3817C10.3627 28.2423 7.66047 23.5528 6.58655 19.3764C5.50292 15.1623 6.12671 11.7657 8.13812 9.75426C10.1495 7.74285 13.5462 7.11906 17.7602 8.20269C21.9366 9.27661 26.6261 11.9788 30.7655 16.1182Z" stroke="#377DFF" stroke-width="3"/>
<path d="M55 12.5487H58.5546V31.3255H55V12.5487Z" fill="#377DFF"/>
<path d="M60.5455 24.8933C60.5455 23.5424 60.9112 22.2219 61.5963 21.0992C62.2814 19.9765 63.2551 19.1021 64.3939 18.5869C65.5326 18.0718 66.7852 17.939 67.9928 18.2054C69.2005 18.4718 70.3088 19.1254 71.1773 20.0833C72.0458 21.0414 72.6356 22.2605 72.8716 23.5865C73.1075 24.9124 72.9793 26.2853 72.503 27.5312C72.0267 28.7769 71.2239 29.8397 70.1962 30.5846C69.1686 31.3295 67.9624 31.723 66.7306 31.7153C65.9136 31.7223 65.1035 31.5504 64.3479 31.2095C63.5923 30.8686 62.9062 30.3657 62.3301 29.7304C61.754 29.095 61.2995 28.3398 60.993 27.5092C60.6866 26.6786 60.5344 25.7893 60.5455 24.8933ZM69.4558 24.8933C69.4418 24.3109 69.2716 23.7459 68.9663 23.2691C68.6611 22.7922 68.2345 22.4246 67.7397 22.2123C67.245 22 66.7043 21.9523 66.185 22.0753C65.6657 22.1983 65.191 22.4864 64.8203 22.9037C64.4495 23.321 64.1992 23.8488 64.1006 24.4213C64.002 24.9939 64.0595 25.5855 64.2659 26.1223C64.4723 26.6591 64.8184 27.1174 65.2611 27.4395C65.7036 27.7618 66.223 27.9337 66.7543 27.934C67.116 27.9418 67.4753 27.8676 67.8096 27.7161C68.144 27.5647 68.4463 27.3392 68.6976 27.0539C68.9489 26.7685 69.1438 26.4292 69.2703 26.0576C69.3967 25.6858 69.4518 25.2895 69.4321 24.8933H69.4558Z" fill="#377DFF"/>
<path d="M86.98 18.4612V30.6888C86.98 35.003 83.8993 36.8352 80.7831 36.8352C79.6838 36.934 78.5813 36.6946 77.5996 36.1436C76.6178 35.5926 75.7958 34.752 75.2259 33.7165L78.2237 31.8193C78.4666 32.3565 78.853 32.7996 79.3315 33.0898C79.8099 33.38 80.3576 33.5034 80.9015 33.4436C81.2481 33.4904 81.5998 33.4527 81.9314 33.3332C82.2632 33.2135 82.5667 33.0151 82.8202 32.7518C83.0739 32.4885 83.2713 32.1672 83.3985 31.8105C83.5256 31.4539 83.5793 31.0709 83.5557 30.6888V29.5063C83.142 30.0564 82.6171 30.493 82.0228 30.7817C81.4283 31.0705 80.7808 31.2033 80.1314 31.1696C78.5601 31.1696 77.0533 30.4851 75.9422 29.2666C74.8311 28.0483 74.2069 26.3956 74.2069 24.6725C74.2069 22.9493 74.8311 21.2968 75.9422 20.0783C77.0533 18.8598 78.5601 18.1753 80.1314 18.1753C80.7808 18.1416 81.4283 18.2744 82.0228 18.5632C82.6171 18.8519 83.142 19.2885 83.5557 19.8386V18.5391L86.98 18.4612ZM83.5557 24.6335C83.5793 24.0118 83.4328 23.3965 83.135 22.8669C82.8373 22.3372 82.402 21.9174 81.8848 21.6613C81.3677 21.4052 80.7927 21.3246 80.2334 21.4298C79.6742 21.5351 79.1564 21.8214 78.7468 22.2519C78.3372 22.6824 78.0544 23.2375 77.9347 23.8458C77.815 24.454 77.864 25.0875 78.0752 25.665C78.2866 26.2424 78.6506 26.7374 79.1204 27.0862C79.5903 27.4349 80.1446 27.6216 80.712 27.6222C81.0822 27.6514 81.4539 27.5951 81.803 27.4571C82.1522 27.319 82.4712 27.1021 82.7391 26.8204C83.0071 26.5388 83.2182 26.1986 83.3589 25.8219C83.4995 25.4452 83.5666 25.0403 83.5557 24.6335Z" fill="#377DFF"/>
<path d="M88.9827 24.8933C88.9827 23.5435 89.3479 22.224 90.0319 21.1019C90.7159 19.9797 91.6881 19.1053 92.8255 18.5894C93.9629 18.0734 95.2142 17.939 96.4213 18.2033C97.6283 18.4676 98.7367 19.1187 99.6062 20.074C100.476 21.0295 101.067 22.2463 101.306 23.5704C101.545 24.8946 101.42 26.2667 100.947 27.513C100.474 28.7594 99.6752 29.8239 98.6508 30.572C97.6262 31.3201 96.4223 31.718 95.1915 31.7154C94.373 31.7241 93.561 31.5535 92.8033 31.2135C92.0457 30.8736 91.3575 30.3712 90.7793 29.7358C90.201 29.1004 89.7442 28.3448 89.4357 27.5133C89.1272 26.6818 88.9732 25.791 88.9827 24.8933ZM97.893 24.8933C97.879 24.3104 97.7084 23.7449 97.4027 23.2678C97.097 22.7907 96.6696 22.4231 96.1742 22.2112C95.6788 21.9992 95.1374 21.9523 94.6179 22.0764C94.0983 22.2004 93.6236 22.4899 93.2534 22.9085C92.8831 23.327 92.6337 23.8561 92.5365 24.4294C92.4392 25.0028 92.4984 25.5948 92.7065 26.1313C92.9147 26.668 93.2627 27.1253 93.7069 27.446C94.151 27.7665 94.6716 27.9364 95.2033 27.934C95.5651 27.9418 95.9243 27.8676 96.2587 27.7161C96.5931 27.5647 96.8953 27.3393 97.1467 27.0539C97.398 26.7686 97.5929 26.4293 97.7193 26.0576C97.8457 25.6859 97.9008 25.2895 97.8812 24.8933H97.893Z" fill="#377DFF"/>
<path d="M103.047 15.0177C103.047 14.5603 103.171 14.113 103.402 13.7327C103.634 13.3523 103.963 13.0558 104.349 12.8808C104.734 12.7057 105.158 12.6599 105.567 12.7492C105.976 12.8384 106.352 13.0587 106.647 13.3822C106.942 13.7057 107.143 14.1178 107.225 14.5664C107.306 15.0151 107.264 15.4802 107.104 15.9029C106.945 16.3255 106.675 16.6867 106.328 16.9409C105.981 17.195 105.573 17.3307 105.156 17.3307C104.598 17.3239 104.066 17.0781 103.671 16.6458C103.277 16.2134 103.053 15.6291 103.047 15.0177ZM103.39 18.4612H106.945V31.3256H103.39V18.4612Z" fill="#377DFF"/>
<path d="M122.159 24.8933C122.199 25.7488 122.084 26.6046 121.821 27.4113C121.559 28.218 121.153 28.9597 120.627 29.5937C120.102 30.2278 119.468 30.7416 118.761 31.1057C118.054 31.4698 117.288 31.677 116.507 31.7153C115.845 31.7636 115.181 31.6473 114.566 31.3751C113.951 31.1028 113.399 30.6816 112.953 30.143V36.4972H109.398V18.4611H112.953V19.6696C113.4 19.1325 113.952 18.7133 114.567 18.4433C115.183 18.1731 115.846 18.0593 116.507 18.1102C117.285 18.1486 118.047 18.3545 118.752 18.7162C119.457 19.0778 120.09 19.5882 120.614 20.218C121.139 20.8479 121.546 21.5849 121.811 22.3872C122.076 23.1893 122.194 24.0408 122.159 24.8933ZM118.605 24.8933C118.591 24.2897 118.414 23.7042 118.098 23.21C117.782 22.7158 117.34 22.3348 116.827 22.1151C116.315 21.8952 115.754 21.8464 115.216 21.9744C114.678 22.1024 114.187 22.4017 113.803 22.8348C113.42 23.2679 113.161 23.8155 113.06 24.4091C112.959 25.0026 113.02 25.6155 113.236 26.1711C113.451 26.7267 113.811 27.2002 114.271 27.5323C114.731 27.8644 115.27 28.0402 115.82 28.0379C116.197 28.0555 116.573 27.9854 116.924 27.8323C117.275 27.6793 117.592 27.4467 117.855 27.1497C118.118 26.8528 118.32 26.4982 118.45 26.1094C118.579 25.7205 118.632 25.3061 118.605 24.8933Z" fill="#377DFF"/>
<path d="M132.977 27.4662C132.977 30.4289 130.607 31.6894 128.095 31.6894C127.071 31.7905 126.042 31.5523 125.142 31.0056C124.243 30.4589 123.513 29.6288 123.048 28.6227L126.105 26.7255C126.226 27.1892 126.488 27.5932 126.849 27.8699C127.209 28.1467 127.645 28.2794 128.084 28.2459C128.925 28.2459 129.351 27.96 129.351 27.4402C129.351 26.0238 123.581 26.7775 123.581 22.3204C123.581 19.5137 125.737 18.1103 128.178 18.1103C129.106 18.0647 130.028 18.2956 130.846 18.7783C131.663 19.261 132.347 19.9777 132.823 20.8521L129.766 22.6193C129.631 22.2841 129.41 21.999 129.131 21.7983C128.851 21.5977 128.524 21.4902 128.19 21.4888C127.574 21.4888 127.207 21.7487 127.207 22.2035C127.207 23.6848 132.977 22.7103 132.977 27.4662Z" fill="#377DFF"/>
<path d="M145.857 18.4612V31.3256H142.302V30.1171C141.898 30.6521 141.385 31.0753 140.806 31.353C140.225 31.6307 139.594 31.7548 138.961 31.7154C136.591 31.7154 134.565 29.8572 134.565 26.3877V18.4612H138.12V25.803C138.091 26.1099 138.124 26.4198 138.217 26.7114C138.309 27.0029 138.457 27.269 138.652 27.4915C138.847 27.7138 139.084 27.8871 139.346 27.9995C139.608 28.1118 139.889 28.1604 140.169 28.142C141.449 28.142 142.35 27.3103 142.35 25.5431V18.4612H145.857Z" fill="#377DFF"/>
<path d="M166 23.425V31.3255H162.445V23.7628C162.445 22.4634 161.888 21.6577 160.763 21.6577C159.637 21.6577 158.926 22.5543 158.926 24.0747V31.3255H155.372V23.7628C155.372 22.4634 154.815 21.6577 153.689 21.6577C152.563 21.6577 151.852 22.5543 151.852 24.0747V31.3255H148.298V18.4611H151.852V19.6436C152.221 19.1212 152.701 18.7075 153.252 18.4398C153.802 18.1721 154.405 18.0588 155.004 18.1103C155.605 18.0758 156.205 18.2136 156.742 18.5097C157.28 18.8059 157.739 19.2504 158.073 19.7995C158.464 19.2257 158.981 18.7699 159.576 18.4745C160.169 18.179 160.823 18.0537 161.474 18.1103C164.246 18.1103 166 20.2154 166 23.425Z" fill="#377DFF"/>
</svg>
