<svg width="191" height="48" viewBox="0 0 191 48" fill="none" xmlns="http://www.w3.org/2000/svg">
<path d="M22.6811 9.38818V3.38818H3.72723V44.6117H22.6811V38.6117C18.7984 38.6117 15.0746 37.0722 12.3292 34.332C9.58375 31.5917 8.04136 27.8753 8.04136 24C8.04136 20.1247 9.58375 16.4081 12.3292 13.6679C15.0746 10.9276 18.7984 9.38818 22.6811 9.38818Z" fill="#323B4B"/>
<path d="M22.6811 9.38818V38.6117C26.5638 38.6117 30.2875 37.0722 33.033 34.332C35.7785 31.5917 37.3208 27.8753 37.3208 24C37.3208 20.1247 35.7785 16.4081 33.033 13.6679C30.2875 10.9276 26.5638 9.38818 22.6811 9.38818Z" fill="#323B4B"/>
<path d="M47.9576 13.0588H52.201V33.4588H47.9576V13.0588Z" fill="#323B4B"/>
<path d="M54.5773 26.4706C54.5773 25.0029 55.0139 23.5683 55.8318 22.3485C56.6496 21.1287 57.8119 20.1788 59.1713 19.619C60.5308 19.0594 62.026 18.9151 63.4676 19.2045C64.9093 19.4939 66.2324 20.204 67.2692 21.2448C68.306 22.2857 69.0099 23.6102 69.2917 25.0508C69.5733 26.4913 69.4203 27.9828 68.8517 29.3364C68.2831 30.6899 67.3247 31.8446 66.098 32.6538C64.8712 33.4632 63.4313 33.8907 61.9608 33.8823C60.9855 33.89 60.0185 33.7032 59.1165 33.3327C58.2145 32.9624 57.3955 32.4161 56.7078 31.7259C56.0201 31.0355 55.4775 30.215 55.1115 29.3126C54.7458 28.4102 54.5641 27.444 54.5773 26.4706ZM65.2141 26.4706C65.1974 25.8378 64.9941 25.224 64.6298 24.706C64.2654 24.1879 63.7562 23.7885 63.1655 23.5578C62.575 23.3271 61.9294 23.2753 61.3096 23.409C60.6896 23.5426 60.123 23.8556 59.6804 24.309C59.2378 24.7623 58.9389 25.3358 58.8213 25.9578C58.7036 26.5798 58.7722 27.2226 59.0186 27.8058C59.265 28.389 59.6781 28.8869 60.2066 29.2369C60.7349 29.587 61.3549 29.7738 61.9891 29.7741C62.4209 29.7826 62.8498 29.702 63.249 29.5373C63.6481 29.3729 64.009 29.1279 64.309 28.8179C64.609 28.5079 64.8417 28.1393 64.9926 27.7355C65.1435 27.3316 65.2093 26.901 65.1858 26.4706H65.2141Z" fill="#323B4B"/>
<path d="M86.134 19.4824V32.7671C86.134 37.4542 82.4564 39.4448 78.7364 39.4448C77.4242 39.5522 76.108 39.292 74.9361 38.6934C73.7641 38.0948 72.7827 37.1816 72.1025 36.0565L75.6811 33.9953C75.9711 34.579 76.4323 35.0604 77.0035 35.3756C77.5747 35.6909 78.2284 35.825 78.8778 35.7601C79.2915 35.8109 79.7114 35.7699 80.1073 35.6401C80.5033 35.51 80.8656 35.2945 81.1683 35.0084C81.4711 34.7224 81.7067 34.3733 81.8585 33.9857C82.0103 33.5984 82.0744 33.1822 82.0462 32.7671V31.4824C81.5524 32.08 80.9258 32.5544 80.2163 32.8681C79.5067 33.1817 78.7337 33.326 77.9584 33.2895C76.0827 33.2895 74.2839 32.5457 72.9576 31.2219C71.6312 29.8983 70.8861 28.1028 70.8861 26.2306C70.8861 24.3585 71.6312 22.5632 72.9576 21.2393C74.2839 19.9155 76.0827 19.1718 77.9584 19.1718C78.7337 19.1353 79.5067 19.2795 80.2163 19.5932C80.9258 19.9069 81.5524 20.3813 82.0462 20.9789V19.5671L86.134 19.4824ZM82.0462 26.1883C82.0744 25.5129 81.8995 24.8444 81.5441 24.269C81.1886 23.6936 80.669 23.2374 80.0515 22.9592C79.4343 22.6809 78.7478 22.5934 78.0802 22.7077C77.4127 22.8221 76.7946 23.1331 76.3056 23.6008C75.8166 24.0685 75.479 24.6716 75.3361 25.3325C75.1933 25.9933 75.2517 26.6816 75.5039 27.3089C75.7562 27.9363 76.1908 28.4741 76.7516 28.853C77.3126 29.2319 77.9743 29.4348 78.6515 29.4353C79.0935 29.4671 79.5372 29.406 79.9539 29.2561C80.3708 29.106 80.7516 28.8704 81.0714 28.5643C81.3913 28.2584 81.6434 27.8888 81.8113 27.4795C81.9792 27.0702 82.0592 26.6303 82.0462 26.1883Z" fill="#323B4B"/>
<path d="M88.5245 26.4706C88.5245 25.0041 88.9604 23.5706 89.777 22.3514C90.5936 21.1322 91.7541 20.1822 93.1119 19.6217C94.4696 19.0611 95.9634 18.9151 97.4044 19.2023C98.8453 19.4895 100.168 20.1967 101.206 21.2347C102.244 22.2727 102.95 23.5947 103.235 25.0333C103.52 26.472 103.371 27.9627 102.807 29.3167C102.243 30.6709 101.289 31.8274 100.066 32.6402C98.8427 33.4529 97.4056 33.8852 95.9363 33.8824C94.9592 33.8919 93.9898 33.7065 93.0854 33.3372C92.181 32.9679 91.3595 32.4221 90.6692 31.7317C89.9788 31.0414 89.4336 30.2204 89.0652 29.317C88.697 28.4136 88.5132 27.4459 88.5245 26.4706ZM99.1613 26.4706C99.1446 25.8373 98.9409 25.2229 98.576 24.7045C98.211 24.1863 97.7008 23.7869 97.1094 23.5566C96.518 23.3263 95.8718 23.2754 95.2515 23.4102C94.6313 23.5449 94.0647 23.8594 93.6226 24.3142C93.1806 24.7689 92.8829 25.3438 92.7669 25.9666C92.6508 26.5895 92.7213 27.2327 92.9699 27.8156C93.2184 28.3987 93.6338 28.8955 94.1641 29.2439C94.6942 29.5922 95.3156 29.7767 95.9504 29.7742C96.3823 29.7826 96.8111 29.702 97.2103 29.5374C97.6095 29.3729 97.9703 29.128 98.2703 28.818C98.5703 28.5079 98.803 28.1393 98.9539 27.7356C99.1048 27.3317 99.1706 26.9011 99.1471 26.4706H99.1613Z" fill="#323B4B"/>
<path d="M105.314 15.7412C105.314 15.2443 105.462 14.7583 105.739 14.3451C106.015 13.9318 106.408 13.6098 106.868 13.4196C107.329 13.2294 107.835 13.1796 108.323 13.2766C108.811 13.3735 109.26 13.6129 109.612 13.9643C109.964 14.3158 110.204 14.7636 110.301 15.2509C110.399 15.7384 110.349 16.2437 110.158 16.7029C109.968 17.162 109.645 17.5545 109.231 17.8306C108.817 18.1068 108.33 18.2542 107.832 18.2542C107.166 18.2468 106.53 17.9797 106.06 17.51C105.589 17.0403 105.322 16.4055 105.314 15.7412ZM105.724 19.4824H109.968V33.4589H105.724V19.4824Z" fill="#323B4B"/>
<path d="M128.13 26.4705C128.177 27.4 128.04 28.3298 127.726 29.2063C127.412 30.0827 126.928 30.8885 126.301 31.5773C125.674 32.2663 124.916 32.8245 124.072 33.22C123.228 33.6156 122.314 33.8407 121.383 33.8823C120.592 33.9348 119.8 33.8085 119.065 33.5127C118.33 33.2168 117.672 32.7592 117.139 32.1741V39.0776H112.896V19.4823H117.139V20.7952C117.673 20.2118 118.332 19.7563 119.066 19.463C119.801 19.1695 120.593 19.0458 121.383 19.1011C122.31 19.1428 123.221 19.3665 124.062 19.7594C124.903 20.1523 125.659 20.7069 126.285 21.3911C126.912 22.0754 127.397 22.8762 127.714 23.7478C128.03 24.6193 128.171 25.5444 128.13 26.4705ZM123.886 26.4705C123.869 25.8148 123.659 25.1786 123.282 24.6417C122.904 24.1048 122.376 23.6909 121.764 23.4522C121.152 23.2133 120.483 23.1602 119.841 23.2993C119.199 23.4383 118.612 23.7636 118.154 24.2342C117.696 24.7047 117.388 25.2996 117.268 25.9445C117.147 26.5893 117.22 27.2552 117.477 27.8589C117.734 28.4624 118.164 28.9768 118.713 29.3377C119.262 29.6985 119.905 29.8895 120.562 29.887C121.012 29.9061 121.461 29.83 121.88 29.6637C122.299 29.4974 122.677 29.2447 122.991 28.9221C123.305 28.5995 123.547 28.2142 123.701 27.7918C123.855 27.3693 123.918 26.9191 123.886 26.4705Z" fill="#323B4B"/>
<path d="M141.044 29.2658C141.044 32.4846 138.215 33.8541 135.216 33.8541C133.993 33.9639 132.765 33.7051 131.691 33.1112C130.617 32.5173 129.746 31.6154 129.19 30.5223L132.84 28.4611C132.984 28.9648 133.298 29.4038 133.728 29.7045C134.158 30.0052 134.678 30.1493 135.202 30.1129C136.206 30.1129 136.715 29.8023 136.715 29.2376C136.715 27.6988 129.827 28.5176 129.827 23.6752C129.827 20.6258 132.401 19.1011 135.315 19.1011C136.423 19.0516 137.523 19.3024 138.499 19.8269C139.475 20.3514 140.291 21.13 140.86 22.0799L137.21 23.9999C137.049 23.6357 136.786 23.326 136.452 23.108C136.118 22.89 135.728 22.7733 135.329 22.7717C134.594 22.7717 134.155 23.0541 134.155 23.5482C134.155 25.1576 141.044 24.0988 141.044 29.2658Z" fill="#323B4B"/>
<path d="M156.419 19.4823V33.4588H152.175V32.1458C151.693 32.7271 151.081 33.1869 150.389 33.4886C149.696 33.7903 148.942 33.9251 148.187 33.8823C145.358 33.8823 142.939 31.8635 142.939 28.0941V19.4823H147.182V27.4588C147.148 27.7922 147.188 28.1289 147.298 28.4457C147.409 28.7624 147.586 29.0515 147.817 29.2932C148.051 29.5348 148.334 29.7231 148.646 29.8452C148.959 29.9672 149.294 30.02 149.629 29.9999C151.157 29.9999 152.232 29.0964 152.232 27.1764V19.4823H156.419Z" fill="#323B4B"/>
<path d="M180.465 24.8753V33.4588H176.221V25.2423C176.221 23.8306 175.557 22.9553 174.213 22.9553C172.869 22.9553 172.02 23.9294 172.02 25.5812V33.4588H167.777V25.2423C167.777 23.8306 167.112 22.9553 165.768 22.9553C164.425 22.9553 163.576 23.9294 163.576 25.5812V33.4588H159.333V19.4823H163.576V20.767C164.016 20.1995 164.589 19.75 165.247 19.4592C165.903 19.1684 166.623 19.0453 167.339 19.1012C168.056 19.0637 168.771 19.2134 169.414 19.5351C170.056 19.8569 170.603 20.3398 171.002 20.9365C171.469 20.313 172.085 19.8178 172.796 19.4969C173.504 19.1758 174.285 19.0397 175.062 19.1012C178.371 19.1012 180.465 21.3882 180.465 24.8753Z" fill="#323B4B"/>
<path d="M184.029 19.3977C185.748 19.3977 187.141 18.0071 187.141 16.2918C187.141 14.5765 185.748 13.1859 184.029 13.1859C182.311 13.1859 180.917 14.5765 180.917 16.2918C180.917 18.0071 182.311 19.3977 184.029 19.3977Z" fill="#323B4B"/>
</svg>
