<svg width="168" height="48" viewBox="0 0 168 48" fill="none" xmlns="http://www.w3.org/2000/svg">
<path fill-rule="evenodd" clip-rule="evenodd" d="M20.3995 3.4479C19.8945 3.34403 19.3736 3.34403 18.8685 3.4479C18.2847 3.56797 17.7629 3.86023 17.3481 4.09258L17.235 4.15574L3.17553 11.9666C3.13666 11.9882 3.09661 12.0102 3.05557 12.0328C2.61644 12.2747 2.06429 12.5788 1.64027 13.0389C1.27368 13.4368 0.996249 13.9082 0.826538 14.4219C0.630243 15.016 0.632539 15.6464 0.634366 16.1477C0.634537 16.1946 0.634703 16.2403 0.634703 16.2847V31.7067C0.634703 31.7511 0.634537 31.7969 0.634366 31.8437C0.632539 32.3451 0.630243 32.9754 0.826538 33.5695C0.99625 34.0832 1.27368 34.5547 1.64027 34.9525C2.06429 35.4126 2.61644 35.7167 3.05557 35.9586C3.09661 35.9812 3.13667 36.0033 3.17553 36.0249L17.235 43.8357L17.3481 43.8988C17.7629 44.1312 18.2847 44.4235 18.8685 44.5435C19.3736 44.6474 19.8945 44.6474 20.3995 44.5435C20.9833 44.4235 21.5051 44.1312 21.9199 43.8988L22.033 43.8357L36.0925 36.0249C36.1097 36.0153 36.1271 36.0057 36.1447 35.9959C36.1669 35.9837 36.1895 35.9712 36.2124 35.9586C36.6516 35.7167 37.2037 35.4126 37.6277 34.9525C37.9943 34.5547 38.2718 34.0832 38.4415 33.5695C38.6378 32.9754 38.6355 32.3451 38.6336 31.8437C38.6335 31.7969 38.6333 31.7511 38.6333 31.7067V16.2847C38.6333 16.2403 38.6335 16.1946 38.6336 16.1477C38.6355 15.6464 38.6378 15.016 38.4415 14.4219C38.2718 13.9082 37.9943 13.4367 37.6277 13.0389C37.2037 12.5788 36.6516 12.2747 36.2124 12.0328L36.2109 12.032C36.1704 12.0097 36.1308 11.9879 36.0925 11.9666L22.033 4.15574L21.9199 4.09257C21.5051 3.86022 20.9833 3.56797 20.3995 3.4479ZM19.0804 7.47742C19.3683 7.31746 19.5153 7.23664 19.6249 7.18376L19.634 7.17941L19.6431 7.18376C19.7527 7.23664 19.8997 7.31746 20.1876 7.47742L32.8211 14.496L19.6339 21.8222L6.44685 14.4961L19.0804 7.47742ZM4.43456 17.725L17.734 25.1136L17.7341 39.766L5.02091 32.7032C4.71701 32.5343 4.56185 32.4472 4.453 32.3779L4.4438 32.372L4.44311 32.3611C4.43535 32.2323 4.43456 32.0543 4.43456 31.7067V17.725Z" fill="#323B4B"/>
<path d="M55.9251 30.3452H61.9731V33.9092H51.3081V14.9552H55.9251V30.3452Z" fill="#323B4B"/>
<path d="M66.2273 17.2772C65.4173 17.2772 64.7513 17.0432 64.2293 16.5752C63.7253 16.0892 63.4733 15.4952 63.4733 14.7932C63.4733 14.0732 63.7253 13.4792 64.2293 13.0112C64.7513 12.5252 65.4173 12.2822 66.2273 12.2822C67.0193 12.2822 67.6673 12.5252 68.1713 13.0112C68.6933 13.4792 68.9543 14.0732 68.9543 14.7932C68.9543 15.4952 68.6933 16.0892 68.1713 16.5752C67.6673 17.0432 67.0193 17.2772 66.2273 17.2772ZM68.5223 18.8432V33.9092H63.9053V18.8432H68.5223Z" fill="#323B4B"/>
<path d="M77.3222 18.6272C78.3842 18.6272 79.3112 18.8432 80.1032 19.2752C80.9132 19.7072 81.5342 20.2742 81.9662 20.9762V18.8432H86.5832V33.8822C86.5832 35.2682 86.3042 36.5192 85.7462 37.6352C85.2062 38.7692 84.3692 39.6692 83.2352 40.3352C82.1192 41.0012 80.7242 41.3342 79.0502 41.3342C76.8182 41.3342 75.0092 40.8032 73.6232 39.7412C72.2372 38.6972 71.4452 37.2752 71.2472 35.4752H75.8102C75.9542 36.0512 76.2962 36.5012 76.8362 36.8252C77.3762 37.1672 78.0422 37.3382 78.8342 37.3382C79.7882 37.3382 80.5442 37.0592 81.1022 36.5012C81.6782 35.9612 81.9662 35.0882 81.9662 33.8822V31.7492C81.5162 32.4512 80.8952 33.0272 80.1032 33.4772C79.3112 33.9092 78.3842 34.1252 77.3222 34.1252C76.0802 34.1252 74.9552 33.8102 73.9472 33.1802C72.9392 32.5322 72.1382 31.6232 71.5442 30.4532C70.9682 29.2652 70.6802 27.8972 70.6802 26.3492C70.6802 24.8012 70.9682 23.4422 71.5442 22.2722C72.1382 21.1022 72.9392 20.2022 73.9472 19.5722C74.9552 18.9422 76.0802 18.6272 77.3222 18.6272ZM81.9662 26.3762C81.9662 25.2242 81.6422 24.3152 80.9942 23.6492C80.3642 22.9832 79.5902 22.6502 78.6722 22.6502C77.7542 22.6502 76.9712 22.9832 76.3232 23.6492C75.6932 24.2972 75.3782 25.1972 75.3782 26.3492C75.3782 27.5012 75.6932 28.4192 76.3232 29.1032C76.9712 29.7692 77.7542 30.1022 78.6722 30.1022C79.5902 30.1022 80.3642 29.7692 80.9942 29.1032C81.6422 28.4372 81.9662 27.5282 81.9662 26.3762Z" fill="#323B4B"/>
<path d="M98.9143 18.6812C100.642 18.6812 102.028 19.2572 103.072 20.4092C104.116 21.5432 104.638 23.1092 104.638 25.1072V33.9092H100.048V25.7282C100.048 24.7202 99.7873 23.9372 99.2653 23.3792C98.7433 22.8212 98.0413 22.5422 97.1593 22.5422C96.2773 22.5422 95.5753 22.8212 95.0533 23.3792C94.5313 23.9372 94.2703 24.7202 94.2703 25.7282V33.9092H89.6533V13.9292H94.2703V20.8682C94.7383 20.2022 95.3773 19.6712 96.1873 19.2752C96.9973 18.8792 97.9063 18.6812 98.9143 18.6812Z" fill="#323B4B"/>
<path d="M115.974 29.9942V33.9092H113.625C111.951 33.9092 110.646 33.5042 109.71 32.6942C108.774 31.8662 108.306 30.5252 108.306 28.6712V22.6772H106.47V18.8432H108.306V15.1712H112.923V18.8432H115.947V22.6772H112.923V28.7252C112.923 29.1752 113.031 29.4992 113.247 29.6972C113.463 29.8952 113.823 29.9942 114.327 29.9942H115.974Z" fill="#323B4B"/>
<path d="M122.892 20.9762C123.324 20.2742 123.945 19.7072 124.755 19.2752C125.565 18.8432 126.492 18.6272 127.536 18.6272C128.778 18.6272 129.903 18.9422 130.911 19.5722C131.919 20.2022 132.711 21.1022 133.287 22.2722C133.881 23.4422 134.178 24.8012 134.178 26.3492C134.178 27.8972 133.881 29.2652 133.287 30.4532C132.711 31.6232 131.919 32.5322 130.911 33.1802C129.903 33.8102 128.778 34.1252 127.536 34.1252C126.474 34.1252 125.547 33.9182 124.755 33.5042C123.963 33.0722 123.342 32.5052 122.892 31.8032V33.9092H118.275V13.9292H122.892V20.9762ZM129.48 26.3492C129.48 25.1972 129.156 24.2972 128.508 23.6492C127.878 22.9832 127.095 22.6502 126.159 22.6502C125.241 22.6502 124.458 22.9832 123.81 23.6492C123.18 24.3152 122.865 25.2242 122.865 26.3762C122.865 27.5282 123.18 28.4372 123.81 29.1032C124.458 29.7692 125.241 30.1022 126.159 30.1022C127.077 30.1022 127.86 29.7692 128.508 29.1032C129.156 28.4192 129.48 27.5012 129.48 26.3492Z" fill="#323B4B"/>
<path d="M143.189 34.1252C141.713 34.1252 140.381 33.8102 139.193 33.1802C138.023 32.5502 137.096 31.6502 136.412 30.4802C135.746 29.3102 135.413 27.9422 135.413 26.3762C135.413 24.8282 135.755 23.4692 136.439 22.2992C137.123 21.1112 138.059 20.2022 139.247 19.5722C140.435 18.9422 141.767 18.6272 143.243 18.6272C144.719 18.6272 146.051 18.9422 147.239 19.5722C148.427 20.2022 149.363 21.1112 150.047 22.2992C150.731 23.4692 151.073 24.8282 151.073 26.3762C151.073 27.9242 150.722 29.2922 150.02 30.4802C149.336 31.6502 148.391 32.5502 147.185 33.1802C145.997 33.8102 144.665 34.1252 143.189 34.1252ZM143.189 30.1292C144.071 30.1292 144.818 29.8052 145.43 29.1572C146.06 28.5092 146.375 27.5822 146.375 26.3762C146.375 25.1702 146.069 24.2432 145.457 23.5952C144.863 22.9472 144.125 22.6232 143.243 22.6232C142.343 22.6232 141.596 22.9472 141.002 23.5952C140.408 24.2252 140.111 25.1522 140.111 26.3762C140.111 27.5822 140.399 28.5092 140.975 29.1572C141.569 29.8052 142.307 30.1292 143.189 30.1292Z" fill="#323B4B"/>
<path d="M162.162 33.9092L159.273 29.7242L156.843 33.9092H151.848L156.816 26.2142L151.713 18.8432H156.897L159.786 23.0012L162.216 18.8432H167.211L162.162 26.4302L167.346 33.9092H162.162Z" fill="#323B4B"/>
</svg>
