<svg width="199" height="48" viewBox="0 0 199 48" fill="none" xmlns="http://www.w3.org/2000/svg">
<path d="M58.7679 33.8955H72.8679V29.6809H63.7793V13.8058H58.7679V33.8955Z" fill="#323B4B"/>
<path d="M81.2218 31.0858C79.2115 31.0858 78.1639 29.3437 78.1639 26.7306C78.1639 24.1176 79.2115 22.3474 81.2218 22.3474C83.232 22.3474 84.3079 24.1176 84.3079 26.7306C84.3079 29.3437 83.232 31.0858 81.2218 31.0858ZM81.2501 34.3451C85.9218 34.3451 88.9796 31.0577 88.9796 26.7306C88.9796 22.4036 85.9218 19.1162 81.2501 19.1162C76.6067 19.1162 73.4922 22.4036 73.4922 26.7306C73.4922 31.0577 76.6067 34.3451 81.2501 34.3451Z" fill="#323B4B"/>
<path d="M97.0659 38.8688C99.2177 38.8688 101.115 38.3912 102.389 37.2673C103.55 36.2276 104.314 34.6542 104.314 32.4907V19.5096H99.8973V21.055H99.8406C98.9912 19.8468 97.6888 19.0881 95.7635 19.0881C92.1677 19.0881 89.6761 22.0665 89.6761 26.2811C89.6761 30.6924 92.7057 33.1088 95.9617 33.1088C97.7171 33.1088 98.8213 32.4064 99.6707 31.4511H99.784V32.884C99.784 34.6261 98.9629 35.6376 97.0093 35.6376C95.4804 35.6376 94.7159 34.9914 94.4611 34.2327H89.9876C90.4406 37.2392 93.0737 38.8688 97.0659 38.8688ZM97.0376 29.709C95.3105 29.709 94.178 28.3041 94.178 26.1406C94.178 23.949 95.3105 22.5441 97.0376 22.5441C98.9629 22.5441 99.9822 24.1738 99.9822 26.1125C99.9822 28.1355 99.0479 29.709 97.0376 29.709Z" fill="#323B4B"/>
<path d="M113.396 31.0858C111.386 31.0858 110.338 29.3437 110.338 26.7306C110.338 24.1176 111.386 22.3474 113.396 22.3474C115.406 22.3474 116.482 24.1176 116.482 26.7306C116.482 29.3437 115.406 31.0858 113.396 31.0858ZM113.424 34.3451C118.096 34.3451 121.153 31.0577 121.153 26.7306C121.153 22.4036 118.096 19.1162 113.424 19.1162C108.781 19.1162 105.667 22.4036 105.667 26.7306C105.667 31.0577 108.781 34.3451 113.424 34.3451Z" fill="#323B4B"/>
<path d="M122.502 33.8955H127.117V19.5096H122.502V33.8955ZM122.502 17.5147H127.117V13.8058H122.502V17.5147Z" fill="#323B4B"/>
<path d="M129.119 38.644H133.734V32.4064H133.791C134.697 33.6146 136.027 34.3451 137.896 34.3451C141.69 34.3451 144.21 31.3668 144.21 26.7026C144.21 22.3755 141.86 19.0881 138.009 19.0881C136.027 19.0881 134.612 19.9592 133.621 21.2516H133.536V19.5096H129.119V38.644ZM136.707 30.8048C134.725 30.8048 133.592 29.2033 133.592 26.8712C133.592 24.5391 134.612 22.7689 136.622 22.7689C138.604 22.7689 139.538 24.3986 139.538 26.8712C139.538 29.3156 138.462 30.8048 136.707 30.8048Z" fill="#323B4B"/>
<path d="M151.724 34.3451C155.518 34.3451 158.321 32.7155 158.321 29.5685C158.321 25.8877 155.319 25.2415 152.771 24.82C150.931 24.4829 149.289 24.3424 149.289 23.3309C149.289 22.4317 150.166 22.0103 151.299 22.0103C152.573 22.0103 153.451 22.4036 153.621 23.6961H157.868C157.641 20.8583 155.433 19.0881 151.327 19.0881C147.901 19.0881 145.07 20.6616 145.07 23.6961C145.07 27.0678 147.76 27.7422 150.28 28.1636C152.205 28.5008 153.96 28.6413 153.96 29.9338C153.96 30.861 153.083 31.3668 151.695 31.3668C150.166 31.3668 149.204 30.6643 149.034 29.2314H144.674C144.815 32.4064 147.477 34.3451 151.724 34.3451Z" fill="#323B4B"/>
<path d="M164.59 34.3169C166.6 34.3169 167.874 33.5302 168.922 32.1253H169.007V33.8955H173.423V19.5095H168.808V27.5454C168.808 29.2594 167.846 30.4395 166.26 30.4395C164.788 30.4395 164.08 29.5684 164.08 27.995V19.5095H159.493V28.9503C159.493 32.1534 161.249 34.3169 164.59 34.3169Z" fill="#323B4B"/>
<path d="M175.431 33.8956H180.046V25.8316C180.046 24.1176 180.896 22.9094 182.34 22.9094C183.727 22.9094 184.378 23.8085 184.378 25.3539V33.8956H188.993V25.8316C188.993 24.1176 189.814 22.9094 191.287 22.9094C192.674 22.9094 193.325 23.8085 193.325 25.3539V33.8956H197.94V24.5391C197.94 21.3078 196.298 19.0881 193.014 19.0881C191.145 19.0881 189.588 19.8749 188.455 21.6169H188.399C187.663 20.0715 186.219 19.0881 184.322 19.0881C182.227 19.0881 180.839 20.0716 179.933 21.5607H179.848V19.5096H175.431V33.8956Z" fill="#323B4B"/>
<path d="M30.6107 2.31435L25.9708 1.08057L22.0608 15.562L18.5307 2.48807L13.8907 3.72185L17.7048 17.8473L8.20486 8.41986L4.80821 11.7906L15.2284 22.1315L2.25172 18.6808L1.00846 23.2853L15.1871 27.0556C15.0248 26.3607 14.9389 25.6367 14.9389 24.8929C14.9389 19.6274 19.2402 15.3589 24.5461 15.3589C29.852 15.3589 34.1533 19.6274 34.1533 24.8929C34.1533 25.6319 34.0685 26.3515 33.9081 27.0422L46.7939 30.4686L48.0371 25.8641L33.8021 22.0789L46.7796 18.628L45.5363 14.0236L31.3019 17.8085L40.8017 8.38115L37.4051 5.0104L27.1294 15.2077L30.6107 2.31435Z" fill="#FF5630"/>
<path d="M33.8955 27.0958C33.4977 28.7648 32.6579 30.2642 31.5055 31.4655L40.8407 40.7296L44.2373 37.3588L33.8955 27.0958Z" fill="#FF5630"/>
<path d="M31.4111 31.5625C30.2449 32.7446 28.771 33.6267 27.1182 34.0813L30.5151 46.662L35.155 45.4282L31.4111 31.5625Z" fill="#FF5630"/>
<path d="M26.9449 34.1273C26.1781 34.3229 25.3744 34.4269 24.5461 34.4269C23.6587 34.4269 22.7994 34.3075 21.9836 34.084L18.5836 46.6761L23.2235 47.9099L26.9449 34.1273Z" fill="#FF5630"/>
<path d="M21.8196 34.0375C20.1921 33.5603 18.7444 32.6669 17.602 31.4814L8.24386 40.7683L11.6405 44.139L21.8196 34.0375Z" fill="#FF5630"/>
<path d="M17.5239 31.3994C16.401 30.2064 15.5831 28.7271 15.1938 27.0839L2.26599 30.5215L3.50924 35.126L17.5239 31.3994Z" fill="#FF5630"/>
</svg>
