<svg width="155" height="40" viewBox="0 0 155 40" fill="none" xmlns="http://www.w3.org/2000/svg">
<path d="M18.3899 8.12793V3.25293H2.98993V36.7471H18.3899V31.8721C15.2352 31.8721 12.2097 30.6212 9.97905 28.3948C7.74835 26.1683 6.49515 23.1487 6.49515 20C6.49515 16.8513 7.74835 13.8316 9.97905 11.6052C12.2097 9.37874 15.2352 8.12793 18.3899 8.12793Z" fill="#FFAB00"/>
<path d="M18.39 8.12793V31.8721C21.5447 31.8721 24.5702 30.6212 26.8009 28.3948C29.0316 26.1683 30.2847 23.1487 30.2847 20C30.2847 16.8513 29.0316 13.8316 26.8009 11.6052C24.5702 9.37874 21.5447 8.12793 18.39 8.12793Z" fill="#FFAB00"/>
<path d="M38.9271 11.1104H42.3749V27.6854H38.9271V11.1104Z" fill="#38CB89"/>
<path d="M44.3056 22.0074C44.3056 20.8149 44.6604 19.6493 45.3249 18.6582C45.9894 17.6672 46.9337 16.8953 48.0383 16.4405C49.1428 15.9858 50.3577 15.8686 51.529 16.1037C52.7003 16.3389 53.7753 16.9158 54.6177 17.7615C55.4601 18.6072 56.0321 19.6833 56.2611 20.8538C56.4899 22.0243 56.3655 23.2361 55.9035 24.3359C55.4415 25.4356 54.6629 26.3738 53.6662 27.0313C52.6694 27.6889 51.4995 28.0362 50.3047 28.0295C49.5123 28.0357 48.7265 27.8839 47.9937 27.5829C47.2608 27.282 46.5954 26.8381 46.0366 26.2773C45.4778 25.7164 45.037 25.0497 44.7397 24.3165C44.4425 23.5833 44.2949 22.7983 44.3056 22.0074ZM52.948 22.0074C52.9344 21.4933 52.7693 20.9946 52.4732 20.5737C52.1772 20.1527 51.7634 19.8282 51.2835 19.6408C50.8037 19.4534 50.2792 19.4113 49.7756 19.5199C49.2719 19.6284 48.8115 19.8827 48.4519 20.2511C48.0923 20.6195 47.8494 21.0854 47.7538 21.5908C47.6582 22.0962 47.7139 22.6184 47.9141 23.0923C48.1143 23.5661 48.45 23.9707 48.8794 24.2551C49.3086 24.5395 49.8124 24.6913 50.3277 24.6915C50.6786 24.6984 51.027 24.6329 51.3513 24.4992C51.6756 24.3655 51.9688 24.1665 52.2126 23.9146C52.4563 23.6627 52.6454 23.3632 52.768 23.0352C52.8906 22.707 52.9441 22.3571 52.925 22.0074H52.948Z" fill="#38CB89"/>
<path d="M69.9455 16.3294V27.1232C69.9455 30.9314 66.9574 32.5488 63.9349 32.5488C62.8687 32.6361 61.7993 32.4247 60.8472 31.9383C59.8949 31.452 59.0976 30.7099 58.5449 29.7958L61.4525 28.1211C61.6881 28.5953 62.0629 28.9865 62.5269 29.2426C62.991 29.4988 63.5222 29.6077 64.0498 29.555C64.386 29.5963 64.7271 29.563 65.0487 29.4575C65.3705 29.3518 65.6649 29.1767 65.9108 28.9443C66.1568 28.7119 66.3483 28.4282 66.4716 28.1133C66.5949 27.7986 66.647 27.4604 66.6241 27.1232V26.0794C66.2229 26.5649 65.7138 26.9503 65.1373 27.2052C64.5608 27.4601 63.9327 27.5773 63.3028 27.5476C61.7788 27.5476 60.3173 26.9433 59.2396 25.8677C58.1619 24.7923 57.5565 23.3334 57.5565 21.8123C57.5565 20.2912 58.1619 18.8325 59.2396 17.7569C60.3173 16.6813 61.7788 16.077 63.3028 16.077C63.9327 16.0473 64.5608 16.1645 65.1373 16.4194C65.7138 16.6743 66.2229 17.0597 66.6241 17.5453V16.3982L69.9455 16.3294ZM66.6241 21.7779C66.647 21.2292 66.505 20.686 66.2161 20.2185C65.9273 19.7509 65.5051 19.3803 65.0035 19.1542C64.5019 18.9282 63.9442 18.857 63.4017 18.9499C62.8594 19.0429 62.3572 19.2956 61.9599 19.6756C61.5626 20.0556 61.2883 20.5456 61.1722 21.0826C61.0561 21.6195 61.1036 22.1787 61.3085 22.6884C61.5135 23.1982 61.8666 23.6351 62.3222 23.943C62.778 24.2509 63.3157 24.4157 63.8659 24.4161C64.2251 24.442 64.5856 24.3923 64.9242 24.2705C65.2628 24.1485 65.5722 23.9571 65.8321 23.7084C66.092 23.4598 66.2968 23.1595 66.4332 22.827C66.5697 22.4945 66.6347 22.1371 66.6241 21.7779Z" fill="#38CB89"/>
<path d="M71.8877 22.0073C71.8877 20.8157 72.2419 19.651 72.9054 18.6604C73.5689 17.6698 74.5118 16.898 75.615 16.4426C76.7182 15.9871 77.9319 15.8685 79.1026 16.1018C80.2734 16.3351 81.3484 16.9098 82.1918 17.7531C83.0351 18.5965 83.6089 19.6706 83.8403 20.8395C84.0719 22.0085 83.9508 23.2196 83.4923 24.3198C83.0339 25.42 82.2587 26.3597 81.2651 27.0201C80.2713 27.6804 79.1037 28.0317 77.9098 28.0294C77.1159 28.0371 76.3283 27.8864 75.5935 27.5864C74.8587 27.2863 74.1912 26.8429 73.6303 26.2819C73.0694 25.721 72.6264 25.054 72.3271 24.32C72.0279 23.586 71.8785 22.7997 71.8877 22.0073ZM80.5301 22.0073C80.5166 21.4927 80.3511 20.9935 80.0546 20.5723C79.758 20.1513 79.3435 19.8268 78.863 19.6397C78.3825 19.4526 77.8574 19.4112 77.3535 19.5207C76.8495 19.6301 76.3891 19.8857 76.03 20.2552C75.6708 20.6246 75.4289 21.0917 75.3347 21.5978C75.2403 22.1039 75.2977 22.6265 75.4996 23.1001C75.7015 23.5738 76.0391 23.9775 76.4699 24.2606C76.9007 24.5436 77.4055 24.6935 77.9213 24.6914C78.2722 24.6983 78.6206 24.6328 78.945 24.4991C79.2693 24.3654 79.5624 24.1664 79.8062 23.9145C80.05 23.6626 80.239 23.3631 80.3616 23.0351C80.4843 22.7069 80.5377 22.357 80.5186 22.0073H80.5301Z" fill="#38CB89"/>
<path d="M85.5294 13.2897C85.5294 12.8859 85.6493 12.4911 85.8741 12.1554C86.0989 11.8196 86.4184 11.5579 86.7922 11.4033C87.166 11.2488 87.5773 11.2084 87.9742 11.2872C88.3709 11.3659 88.7354 11.5604 89.0216 11.8459C89.3076 12.1315 89.5024 12.4954 89.5814 12.8913C89.6603 13.2874 89.6198 13.6979 89.465 14.0711C89.3102 14.4441 89.0479 14.763 88.7115 14.9873C88.3751 15.2117 87.9797 15.3315 87.575 15.3315C87.0343 15.3255 86.5175 15.1085 86.1351 14.7268C85.7528 14.3452 85.5353 13.8294 85.5294 13.2897ZM85.8626 16.3294H89.3104V27.6853H85.8626V16.3294Z" fill="#38CB89"/>
<path d="M104.067 22.0074C104.105 22.7626 103.994 23.5181 103.739 24.2301C103.484 24.9422 103.09 25.597 102.581 26.1566C102.071 26.7164 101.456 27.1699 100.77 27.4914C100.085 27.8128 99.3418 27.9956 98.5849 28.0294C97.9425 28.0721 97.2988 27.9694 96.7019 27.7291C96.1049 27.4887 95.57 27.117 95.1371 26.6415V32.2506H91.6893V16.3294H95.1371V17.3962C95.5706 16.9221 96.1059 16.5521 96.7029 16.3137C97.3 16.0752 97.9433 15.9748 98.5849 16.0197C99.3388 16.0536 100.079 16.2354 100.762 16.5546C101.445 16.8738 102.059 17.3244 102.568 17.8804C103.077 18.4364 103.472 19.087 103.729 19.7952C103.986 20.5032 104.101 21.2549 104.067 22.0074ZM100.619 22.0074C100.605 21.4746 100.435 20.9577 100.128 20.5215C99.8213 20.0853 99.3924 19.7489 98.8951 19.555C98.3979 19.3609 97.8543 19.3178 97.3324 19.4307C96.8106 19.5437 96.3339 19.808 95.9619 20.1903C95.5899 20.5726 95.3392 21.056 95.2414 21.58C95.1435 22.1038 95.2027 22.6449 95.4116 23.1354C95.6206 23.6258 95.9698 24.0438 96.4157 24.3369C96.8617 24.6301 97.3843 24.7853 97.9183 24.7833C98.284 24.7987 98.6489 24.7369 98.9889 24.6018C99.3291 24.4667 99.6368 24.2613 99.8918 23.9992C100.147 23.7371 100.343 23.4241 100.469 23.0809C100.594 22.7376 100.645 22.3718 100.619 22.0074Z" fill="#38CB89"/>
<path d="M114.56 24.2786C114.56 26.8939 112.261 28.0065 109.825 28.0065C108.831 28.0958 107.833 27.8855 106.96 27.4029C106.088 26.9204 105.38 26.1876 104.929 25.2995L107.894 23.6248C108.011 24.034 108.266 24.3907 108.615 24.635C108.965 24.8793 109.388 24.9964 109.813 24.9668C110.629 24.9668 111.043 24.7145 111.043 24.2556C111.043 23.0054 105.446 23.6706 105.446 19.7362C105.446 17.2586 107.538 16.0198 109.905 16.0198C110.805 15.9795 111.699 16.1833 112.492 16.6095C113.285 17.0356 113.948 17.6682 114.41 18.4401L111.445 20.0001C111.314 19.7041 111.1 19.4525 110.829 19.2753C110.557 19.0982 110.241 19.0034 109.917 19.0021C109.319 19.0021 108.963 19.2315 108.963 19.633C108.963 20.9406 114.56 20.0804 114.56 24.2786Z" fill="#38CB89"/>
<path d="M127.052 16.3295V27.6854H123.604V26.6186C123.212 27.0908 122.715 27.4644 122.153 27.7096C121.589 27.9547 120.977 28.0642 120.363 28.0295C118.065 28.0295 116.099 26.3892 116.099 23.3265V16.3295H119.547V22.8104C119.52 23.0813 119.552 23.3549 119.641 23.6123C119.731 23.8695 119.875 24.1045 120.063 24.3008C120.253 24.4971 120.483 24.6501 120.737 24.7493C120.991 24.8484 121.263 24.8913 121.535 24.8751C122.777 24.8751 123.65 24.1409 123.65 22.5809V16.3295H127.052Z" fill="#38CB89"/>
<path d="M146.589 20.7112V27.6853H143.141V21.0094C143.141 19.8624 142.601 19.1512 141.509 19.1512C140.418 19.1512 139.728 19.9427 139.728 21.2847V27.6853H136.28V21.0094C136.28 19.8624 135.74 19.1512 134.648 19.1512C133.557 19.1512 132.867 19.9427 132.867 21.2847V27.6853H129.419V16.3294H132.867V17.3733C133.224 16.9121 133.69 16.5469 134.224 16.3106C134.758 16.0743 135.343 15.9743 135.924 16.0197C136.507 15.9893 137.088 16.1109 137.61 16.3723C138.132 16.6338 138.577 17.0262 138.901 17.5109C139.28 17.0044 139.781 16.602 140.358 16.3413C140.934 16.0804 141.568 15.9698 142.199 16.0197C144.888 16.0197 146.589 17.878 146.589 20.7112Z" fill="#38CB89"/>
<path d="M149.485 16.2606C150.882 16.2606 152.014 15.1307 152.014 13.737C152.014 12.3434 150.882 11.2135 149.485 11.2135C148.089 11.2135 146.957 12.3434 146.957 13.737C146.957 15.1307 148.089 16.2606 149.485 16.2606Z" fill="#38CB89"/>
</svg>
